<svg xmlns="http://www.w3.org/2000/svg" width="310" height="262" viewBox="0 0 310 262">
  <g id="Time_management-amico" data-name="Time management-amico" transform="translate(12.973 -20.38)">
    <g id="freepik--Floor--inject-1--inject-43" transform="translate(0.24 125.611)" opacity="0.36">
      <ellipse id="freepik--floor--inject-1--inject-43-2" data-name="freepik--floor--inject-1--inject-43" cx="135.767" cy="78.384" rx="135.767" ry="78.384" fill="#f5f5f5"/>
    </g>
    <g id="freepik--Shadows--inject-1--inject-43" transform="translate(16.871 134.229)">
      <path id="freepik--Shadow--inject-1--inject-43" d="M213.214,396.371l40.444,23.352a2.17,2.17,0,0,0,1.96,0L310.2,388.207c.567-.312.567-.816,0-1.133l-40.444-23.346a2.147,2.147,0,0,0-1.966,0l-54.579,31.51a.595.595,0,0,0,0,1.133Z" transform="translate(-114.738 -282.92)" fill="#e0e0e0"/>
      <path id="freepik--shadow--inject-1--inject-43-2" data-name="freepik--shadow--inject-1--inject-43" d="M316.693,311.752l30.83,17.789a2.17,2.17,0,0,0,1.96,0l43.294-24.927c.567-.312.567-.816,0-1.133L361.952,285.7a2.147,2.147,0,0,0-1.966,0l-43.294,24.921a.6.6,0,0,0,0,1.133Z" transform="translate(-159.599 -249.096)" fill="#e0e0e0"/>
      <path id="freepik--shadow--inject-1--inject-43-3" data-name="freepik--shadow--inject-1--inject-43" d="M141.585,399.692a15.579,15.579,0,0,1-7.778-1.9l-.363-.221a1.524,1.524,0,0,1-.7-1.615,1.666,1.666,0,0,1,1.518-1.263l7.875-1.133.419-.878-1.887-1.1-7.739,1.133h-.278a1.881,1.881,0,0,1-1.581-2.889,7.971,7.971,0,0,1,2.833-2.572,15.726,15.726,0,0,1,7.648-1.83,18.173,18.173,0,0,1,3.161.272l32.858-18.967a4.81,4.81,0,0,1-.062-2.549,6.847,6.847,0,0,1,3.524-4.136,16.871,16.871,0,0,1,15.438.068l.363.221a1.53,1.53,0,0,1,.691,1.615,1.666,1.666,0,0,1-1.473,1.246l-7.88,1.133-.419.878,1.887,1.1,7.739-1.133a1.559,1.559,0,0,1,.278,0,1.881,1.881,0,0,1,1.581,2.889,7.982,7.982,0,0,1-2.833,2.578,15.721,15.721,0,0,1-7.648,1.824,18.17,18.17,0,0,1-3.161-.272L152.74,391.155a4.833,4.833,0,0,1,.062,2.555,6.861,6.861,0,0,1-3.524,4.136A15.783,15.783,0,0,1,141.585,399.692Z" transform="translate(-79.185 -280.627)" fill="#e0e0e0"/>
      <path id="freepik--shadow--inject-1--inject-43-4" data-name="freepik--shadow--inject-1--inject-43" d="M249.243,275.249l-24.836-14.339a.708.708,0,0,1,0-1.337l65.847-38.025a2.555,2.555,0,0,1,2.311,0l24.882,14.339a.708.708,0,0,1,0,1.337l-65.892,38.025a2.555,2.555,0,0,1-2.311,0Z" transform="translate(-119.563 -221.272)" fill="#e0e0e0"/>
      <path id="freepik--shadow--inject-1--inject-43-5" data-name="freepik--shadow--inject-1--inject-43" d="M76.254,368.1l73.082-42.138c2.708-1.564,2.708-4.1,0-5.665L124.63,306.033a10.849,10.849,0,0,0-9.812,0L41.736,348.171c-2.708,1.569-2.708,4.1,0,5.665L66.442,368.1A10.849,10.849,0,0,0,76.254,368.1Z" transform="translate(-39.705 -257.506)" fill="#e0e0e0"/>
    </g>
    <g id="freepik--Calendar--inject-1--inject-43" transform="translate(125.268 86.294)">
      <g id="freepik--calendar--inject-1--inject-43-2" data-name="freepik--calendar--inject-1--inject-43">
        <g id="freepik--calendar--inject-1--inject-43-3" data-name="freepik--calendar--inject-1--inject-43">
          <path id="Path_3061" data-name="Path 3061" d="M231.522,224.739a1.071,1.071,0,0,1-.453-1.133l10.889-48.2a2.028,2.028,0,0,1,.833-1.133l64.81-37.391a1.428,1.428,0,0,1,1.286,0,1.082,1.082,0,0,1,.459,1.133l-10.911,48.155a1.977,1.977,0,0,1-.833,1.133l-64.793,37.391A1.428,1.428,0,0,1,231.522,224.739Z" transform="translate(-231.042 -136.69)" fill="#f7a4a4"/>
          <path id="Path_3062" data-name="Path 3062" d="M231.522,224.739a1.071,1.071,0,0,1-.453-1.133l10.889-48.2a2.028,2.028,0,0,1,.833-1.133l64.81-37.391a1.428,1.428,0,0,1,1.286,0,1.082,1.082,0,0,1,.459,1.133l-10.911,48.155a1.977,1.977,0,0,1-.833,1.133l-64.793,37.391A1.428,1.428,0,0,1,231.522,224.739Z" transform="translate(-231.042 -136.69)" fill="#fff" opacity="0.8"/>
          <path id="Path_3063" data-name="Path 3063" d="M244.162,176.732l-10.889,48.211c-.1.414.13.567.493.368l64.81-37.413a1.977,1.977,0,0,0,.833-1.133L310.3,138.554c.091-.414-.13-.567-.5-.363l-64.8,37.408a2.011,2.011,0,0,0-.844,1.133Z" transform="translate(-231.999 -137.285)" fill="#f7a4a4"/>
          <path id="Path_3064" data-name="Path 3064" d="M244.162,176.732l-10.889,48.211c-.1.414.13.567.493.368l64.81-37.413a1.977,1.977,0,0,0,.833-1.133L310.3,138.554c.091-.414-.13-.567-.5-.363l-64.8,37.408a2.011,2.011,0,0,0-.844,1.133Z" transform="translate(-231.999 -137.285)" fill="#fff" opacity="0.6"/>
          <path id="Path_3065" data-name="Path 3065" d="M244.162,176.732l-10.889,48.211c-.1.414.13.567.493.368l64.81-37.413a1.977,1.977,0,0,0,.833-1.133L310.3,138.554c.091-.414-.13-.567-.5-.363l-64.8,37.408a2.011,2.011,0,0,0-.844,1.133Z" transform="translate(-231.999 -137.285)" opacity="0.11"/>
          <path id="Path_3066" data-name="Path 3066" d="M319.654,138.092a1.422,1.422,0,0,0-1.292.028l-64.8,37.413a1.218,1.218,0,0,0-.567,1.133l8.5,59.717a1.756,1.756,0,0,0,.731,1.133,1.439,1.439,0,0,0,1.292,0l64.827-37.442a1.229,1.229,0,0,0,.567-1.133l-8.5-59.729A1.756,1.756,0,0,0,319.654,138.092Z" transform="translate(-240.557 -137.219)" fill="#f7a4a4"/>
          <path id="Path_3067" data-name="Path 3067" d="M319.654,138.092a1.422,1.422,0,0,0-1.292.028l-64.8,37.413a1.218,1.218,0,0,0-.567,1.133l8.5,59.717a1.756,1.756,0,0,0,.731,1.133,1.439,1.439,0,0,0,1.292,0l64.827-37.442a1.229,1.229,0,0,0,.567-1.133l-8.5-59.729A1.756,1.756,0,0,0,319.654,138.092Z" transform="translate(-240.557 -137.219)" fill="#fff" opacity="0.8"/>
          <path id="Path_3068" data-name="Path 3068" d="M255.205,178l8.5,59.717a.487.487,0,0,0,.776.38L329.3,200.679a1.229,1.229,0,0,0,.567-1.133l-8.5-59.729a.482.482,0,0,0-.776-.374l-64.8,37.391a1.224,1.224,0,0,0-.583,1.167Z" transform="translate(-241.514 -137.823)" fill="#f7a4a4"/>
          <path id="Path_3069" data-name="Path 3069" d="M255.205,178l8.5,59.717a.487.487,0,0,0,.776.38L329.3,200.679a1.229,1.229,0,0,0,.567-1.133l-8.5-59.729a.482.482,0,0,0-.776-.374l-64.8,37.391a1.224,1.224,0,0,0-.583,1.167Z" transform="translate(-241.514 -137.823)" fill="#fff" opacity="0.95"/>
          <path id="Path_3070" data-name="Path 3070" d="M250.488,277.5l-7.608,4.391h0a1.133,1.133,0,0,0-.47,0l-8.979,1.728h0L250,274Z" transform="translate(-232.077 -196.194)" fill="#f7a4a4"/>
          <path id="Path_3071" data-name="Path 3071" d="M250.488,277.5l-7.608,4.391h0a1.133,1.133,0,0,0-.47,0l-8.979,1.728h0L250,274Z" transform="translate(-232.077 -196.194)" fill="#fff" opacity="0.5"/>
          <path id="Path_3072" data-name="Path 3072" d="M250.488,277.5l-7.608,4.391h0a1.133,1.133,0,0,0-.47,0l-8.979,1.728h0L250,274Z" transform="translate(-232.077 -196.194)" opacity="0.2"/>
          <path id="Path_3073" data-name="Path 3073" d="M260.226,297.579l-9.348-12.6a1.28,1.28,0,0,0-.708-.442l7.574-4.368Z" transform="translate(-239.333 -198.868)" fill="#f7a4a4"/>
          <path id="Path_3074" data-name="Path 3074" d="M260.226,297.579l-9.348-12.6a1.28,1.28,0,0,0-.708-.442l7.574-4.368Z" transform="translate(-239.333 -198.868)" fill="#fff" opacity="0.6"/>
          <path id="Path_3075" data-name="Path 3075" d="M260.226,297.579l-9.348-12.6a1.28,1.28,0,0,0-.708-.442l7.574-4.368Z" transform="translate(-239.333 -198.868)" fill="#fe8400" opacity="0.1"/>
          <path id="Path_3076" data-name="Path 3076" d="M251.827,301.479l-9.064-11.755a1.467,1.467,0,0,0-1.229-.5l-8.464,1.224a2.493,2.493,0,0,1-1.382-.249c-.346-.2-.289-.425.13-.5l9.722-1.875a1.326,1.326,0,0,1,1.212.476l10.316,13.891c.249.346.176.459-.17.261A4.532,4.532,0,0,1,251.827,301.479Z" transform="translate(-231.224 -202.179)" fill="#f7a4a4"/>
          <path id="Path_3077" data-name="Path 3077" d="M251.827,301.479l-9.064-11.755a1.467,1.467,0,0,0-1.229-.5l-8.464,1.224a2.493,2.493,0,0,1-1.382-.249c-.346-.2-.289-.425.13-.5l9.722-1.875a1.326,1.326,0,0,1,1.212.476l10.316,13.891c.249.346.176.459-.17.261A4.532,4.532,0,0,1,251.827,301.479Z" transform="translate(-231.224 -202.179)" fill="#fff" opacity="0.8"/>
          <path id="Path_3078" data-name="Path 3078" d="M316.54,137.685a1.054,1.054,0,0,0-.47-.872,1.439,1.439,0,0,0-1.292,0l-64.81,37.43a2.045,2.045,0,0,0-.833,1.133l-1.535,6.8,1.246.719,66.136-38.184,1.541-6.8a1.206,1.206,0,0,0,0-.238Z" transform="translate(-238.219 -136.66)" fill="#f7a4a4"/>
          <path id="Path_3079" data-name="Path 3079" d="M317.481,138.544c.091-.414-.13-.567-.5-.363l-64.8,37.413a2.011,2.011,0,0,0-.838,1.133l-1.535,6.8,66.136-38.184Z" transform="translate(-239.177 -137.28)" opacity="0.6"/>
          <path id="Path_3080" data-name="Path 3080" d="M250.71,204.571a1.773,1.773,0,0,0-.323.657l-1.541,6.8L247.6,211.3l1.535-6.8a1.835,1.835,0,0,1,.329-.657Z" transform="translate(-238.219 -165.781)" opacity="0.5"/>
          <path id="Path_3081" data-name="Path 3081" d="M317.971,137.716c-.028-.232-.232-.295-.516-.125L252.656,175a1.745,1.745,0,0,0-.51.476l-1.246-.72a1.8,1.8,0,0,1,.5-.476l64.8-37.4a1.439,1.439,0,0,1,1.292,0,1.054,1.054,0,0,1,.47.833Z" transform="translate(-239.65 -136.69)" opacity="0.2"/>
          <path id="Path_3082" data-name="Path 3082" d="M320.466,139.807h0l-.079-.567v-.085h0a1.773,1.773,0,0,0-.708-1.014,1.422,1.422,0,0,0-1.292.028l-64.822,37.385a1.133,1.133,0,0,0-.448.51h0a1.133,1.133,0,0,0-.113.635l1.224,8.555,1.246.725L321.616,147.8Z" transform="translate(-240.559 -137.241)" fill="#f7a4a4"/>
          <path id="Path_3083" data-name="Path 3083" d="M322.563,148.4l-66.142,38.184-1.218-8.56a1.133,1.133,0,0,1,.108-.635,1.229,1.229,0,0,1,.448-.51l64.81-37.391a.47.47,0,0,1,.742.244v.091l.079.567h0Z" transform="translate(-241.512 -137.841)" fill="#fdae58" opacity="0.64"/>
          <path id="Path_3084" data-name="Path 3084" d="M255.465,215.1l-1.246-.725-1.224-8.555a1.133,1.133,0,0,1,.113-.634l1.252.719a1.133,1.133,0,0,0-.113.635Z" transform="translate(-240.555 -166.366)" opacity="0.5"/>
          <path id="Path_3085" data-name="Path 3085" d="M320.452,139.116a.47.47,0,0,0-.748-.266l-64.81,37.391a1.133,1.133,0,0,0-.442.51l-1.252-.719a1.133,1.133,0,0,1,.448-.51l64.8-37.391a1.422,1.422,0,0,1,1.292-.028A1.7,1.7,0,0,1,320.452,139.116Z" transform="translate(-240.647 -137.224)" opacity="0.3"/>
          <g id="Group_3794" data-name="Group 3794" transform="translate(19.629 7.755)" opacity="0.2">
            <path id="Path_3086" data-name="Path 3086" d="M265.7,205.991a2.232,2.232,0,0,1,1.054-2.051c.691-.4,1.331-.125,1.439.612a2.226,2.226,0,0,1-1.059,2.051.872.872,0,0,1-1.433-.612Z" transform="translate(-265.691 -173.5)"/>
            <path id="Path_3087" data-name="Path 3087" d="M281.126,197.089a2.215,2.215,0,0,1,1.059-2.051.873.873,0,0,1,1.433.606,2.232,2.232,0,0,1-1.054,2.056C281.874,198.1,281.228,197.826,281.126,197.089Z" transform="translate(-272.379 -169.64)"/>
            <path id="Path_3088" data-name="Path 3088" d="M296.536,188.191a2.221,2.221,0,0,1,1.054-2.051c.691-.4,1.331-.125,1.439.612a2.266,2.266,0,0,1-1.059,2.051C297.284,189.2,296.638,188.928,296.536,188.191Z" transform="translate(-279.059 -165.785)"/>
            <path id="Path_3089" data-name="Path 3089" d="M327.366,170.391a2.221,2.221,0,0,1,1.054-2.051c.691-.4,1.331-.125,1.439.612A2.232,2.232,0,0,1,328.8,171C328.113,171.4,327.468,171.128,327.366,170.391Z" transform="translate(-292.423 -158.069)"/>
            <path id="Path_3090" data-name="Path 3090" d="M342.8,161.481a2.215,2.215,0,0,1,1.059-2.051c.686-.4,1.331-.125,1.433.612a2.221,2.221,0,0,1-1.054,2.051A.875.875,0,0,1,342.8,161.481Z" transform="translate(-299.112 -154.206)"/>
            <path id="Path_3091" data-name="Path 3091" d="M358.206,152.581a2.232,2.232,0,0,1,1.054-2.051c.691-.4,1.331-.125,1.439.612a2.226,2.226,0,0,1-1.059,2.051C358.954,153.59,358.308,153.318,358.206,152.581Z" transform="translate(-305.792 -150.348)"/>
          </g>
          <path id="Path_3092" data-name="Path 3092" d="M264.666,198.164a4.094,4.094,0,0,1-.068.753,3.71,3.71,0,0,1-.1.38,2.312,2.312,0,0,1-1.042,1.394,2.158,2.158,0,0,1-1.1.289h-.306l-.034-.164a1.966,1.966,0,0,1,.164-1,1.133,1.133,0,0,0,.7-.119,1.45,1.45,0,0,0,.567-1.088.217.217,0,0,0,0-.057,3.479,3.479,0,0,0,0-.368,6.051,6.051,0,0,0-1.167-3.314,6.44,6.44,0,0,0-.827-.957,4.693,4.693,0,0,0-.833-.623,1.7,1.7,0,0,0-1.62-.221,1.654,1.654,0,0,0-.623,1.513,4.532,4.532,0,0,0,.13,1.031l-1.048.606v-.068a5.886,5.886,0,0,1-.232-1.569,2.477,2.477,0,0,1,4.005-2.306,5.745,5.745,0,0,1,1.286,1.037,7.1,7.1,0,0,1,.787.98,7.269,7.269,0,0,1,1.365,3.875Z" transform="translate(-242.386 -160.546)" fill="#37474f"/>
          <path id="Path_3093" data-name="Path 3093" d="M280.1,189.254a4.047,4.047,0,0,1-.068.753,2.835,2.835,0,0,1-.091.391,2.334,2.334,0,0,1-1.048,1.382,2.158,2.158,0,0,1-1.1.289h-.3a.768.768,0,0,1-.034-.164,1.909,1.909,0,0,1,.159-1,1.133,1.133,0,0,0,.7-.119,1.422,1.422,0,0,0,.567-1.088.176.176,0,0,0,0-.051,2.491,2.491,0,0,0,0-.374A6.509,6.509,0,0,0,276.882,185a4.491,4.491,0,0,0-.833-.623,1.7,1.7,0,0,0-1.62-.215,1.649,1.649,0,0,0-.623,1.507,4.532,4.532,0,0,0,.13,1.031l-1.048.606v-.068a5.868,5.868,0,0,1-.227-1.569,2.473,2.473,0,0,1,4-2.306,5.744,5.744,0,0,1,1.286,1.037,7.85,7.85,0,0,1,.788.98,7.223,7.223,0,0,1,1.365,3.875Z" transform="translate(-249.078 -156.684)" fill="#37474f"/>
          <path id="Path_3094" data-name="Path 3094" d="M295.5,180.361a4.735,4.735,0,0,1-.062.759,2.945,2.945,0,0,1-.1.385,2.266,2.266,0,0,1-1.042,1.382,2.164,2.164,0,0,1-1.1.295,1.786,1.786,0,0,1-.3,0,.772.772,0,0,1-.034-.164,1.909,1.909,0,0,1,.159-1,1.065,1.065,0,0,0,.691-.119,1.416,1.416,0,0,0,.566-1.088.16.16,0,0,0,0-.051,2.451,2.451,0,0,0,0-.374,6.079,6.079,0,0,0-1.167-3.308,6.171,6.171,0,0,0-.827-.957,4.731,4.731,0,0,0-.833-.629,1.7,1.7,0,0,0-1.62-.215,1.649,1.649,0,0,0-.623,1.513,4.534,4.534,0,0,0,.13,1.031l-1.054.606v-.074a5.873,5.873,0,0,1-.232-1.564,2.473,2.473,0,0,1,4-2.306,5.869,5.869,0,0,1,1.292,1.031,7.847,7.847,0,0,1,.787.98A7.263,7.263,0,0,1,295.5,180.361Z" transform="translate(-255.754 -152.833)" fill="#37474f"/>
          <path id="Path_3095" data-name="Path 3095" d="M326.36,162.583a4.1,4.1,0,0,1-.062.753,3.962,3.962,0,0,1-.1.391,2.334,2.334,0,0,1-1.048,1.382,2.181,2.181,0,0,1-1.1.289,1.746,1.746,0,0,1-.3,0,.874.874,0,0,1-.04-.176,1.932,1.932,0,0,1,.153-.991,1.133,1.133,0,0,0,.7-.113,1.445,1.445,0,0,0,.595-1.133.085.085,0,0,1,0-.04,3.512,3.512,0,0,0,0-.368,6.1,6.1,0,0,0-1.173-3.326,6.16,6.16,0,0,0-.833-.957,4.619,4.619,0,0,0-.821-.612,1.7,1.7,0,0,0-1.62-.221,1.666,1.666,0,0,0-.618,1.513,4.386,4.386,0,0,0,.125,1.014l-1,.623v-.057a5.874,5.874,0,0,1-.232-1.564,2.473,2.473,0,0,1,4-2.306,5.507,5.507,0,0,1,1.28,1.025,7.984,7.984,0,0,1,.793.98A7.291,7.291,0,0,1,326.36,162.583Z" transform="translate(-269.165 -145.123)" fill="#37474f"/>
          <path id="Path_3096" data-name="Path 3096" d="M341.775,153.656a4.156,4.156,0,0,1-.068.759c-.028.136-.057.261-.1.391a2.266,2.266,0,0,1-1.042,1.377,2.158,2.158,0,0,1-1.133.289,2.667,2.667,0,0,1-.3,0,.935.935,0,0,1-.04-.181,1.892,1.892,0,0,1,.153-.986,1.093,1.093,0,0,0,.7-.119,1.428,1.428,0,0,0,.595-1.133.085.085,0,0,0,0-.04,3.4,3.4,0,0,0,0-.368,6.022,6.022,0,0,0-1.178-3.32,6.229,6.229,0,0,0-.827-.963,4.826,4.826,0,0,0-.821-.612,1.7,1.7,0,0,0-1.62-.215,1.637,1.637,0,0,0-.623,1.513,4.7,4.7,0,0,0,.125,1.008l-1.048.612v-.057a5.87,5.87,0,0,1-.232-1.564,2.478,2.478,0,0,1,4-2.311,5.664,5.664,0,0,1,1.314,1.065h0a7.888,7.888,0,0,1,.793.98A7.262,7.262,0,0,1,341.775,153.656Z" transform="translate(-275.81 -141.244)" fill="#37474f"/>
          <path id="Path_3097" data-name="Path 3097" d="M357.18,144.759a4.153,4.153,0,0,1-.068.759,3.72,3.72,0,0,1-.091.38,2.328,2.328,0,0,1-1.048,1.394,2.2,2.2,0,0,1-1.1.283h-.295a.935.935,0,0,1-.04-.181,1.91,1.91,0,0,1,.153-.986,1.133,1.133,0,0,0,.7-.119,1.433,1.433,0,0,0,.567-1.133.073.073,0,0,0,0-.034,2.491,2.491,0,0,0,0-.374,6.033,6.033,0,0,0-1.173-3.32,6.2,6.2,0,0,0-.833-.957,4.533,4.533,0,0,0-.816-.617,1.7,1.7,0,0,0-1.62-.215,1.637,1.637,0,0,0-.623,1.513,4.387,4.387,0,0,0,.125,1.014l-1.054.606v-.057a5.872,5.872,0,0,1-.232-1.564,2.476,2.476,0,0,1,4-2.311A5.665,5.665,0,0,1,355,139.865a7.1,7.1,0,0,1,.793.986A7.246,7.246,0,0,1,357.18,144.759Z" transform="translate(-282.49 -137.389)" fill="#37474f"/>
          <path id="Path_3098" data-name="Path 3098" d="M258.8,203.53l66.13-38.15L323.5,155.29,257.36,193.445Z" transform="translate(-242.45 -144.736)" fill="#f7a4a4"/>
          <g id="Group_3795" data-name="Group 3795" transform="translate(14.91 10.554)">
            <path id="Path_3099" data-name="Path 3099" d="M258.8,203.53l66.13-38.15L323.5,155.29,257.36,193.445Z" transform="translate(-257.36 -155.29)" fill="#fff"/>
          </g>
          <path id="Path_3100" data-name="Path 3100" d="M269.109,241.253c.085.567.6.748,1.133.425l4.963-2.833a1.756,1.756,0,0,0,.861-1.592c-.079-.567-.595-.748-1.133-.425l-4.963,2.833A1.762,1.762,0,0,0,269.109,241.253Z" transform="translate(-247.542 -180.011)" fill="#f7a4a4"/>
          <path id="Path_3101" data-name="Path 3101" d="M283.889,232.723c.079.567.595.748,1.133.425l4.963-2.833a1.751,1.751,0,0,0,.867-1.592c-.079-.567-.567-.748-1.133-.425l-4.963,2.833A1.751,1.751,0,0,0,283.889,232.723Z" transform="translate(-253.949 -176.314)" fill="#f7a4a4"/>
          <path id="Path_3102" data-name="Path 3102" d="M298.669,224.193c.079.567.595.748,1.133.425l4.963-2.833a1.745,1.745,0,0,0,.861-1.592c-.079-.567-.595-.748-1.133-.425L299.53,222.6a1.751,1.751,0,0,0-.861,1.592Z" transform="translate(-260.356 -172.616)" fill="#f7a4a4"/>
          <path id="Path_3103" data-name="Path 3103" d="M313.439,215.64c.079.567.595.748,1.133.425l4.963-2.867a1.739,1.739,0,0,0,.861-1.586c-.079-.567-.595-.748-1.133-.431l-4.94,2.867A1.745,1.745,0,0,0,313.439,215.64Z" transform="translate(-266.758 -168.896)" fill="#f7a4a4"/>
          <path id="Path_3104" data-name="Path 3104" d="M328.219,207.1c.079.567.566.748,1.133.431l4.963-2.867a1.75,1.75,0,0,0,.867-1.586c-.079-.567-.595-.748-1.133-.431l-4.963,2.867A1.745,1.745,0,0,0,328.219,207.1Z" transform="translate(-273.165 -165.198)" fill="#f7a4a4"/>
          <path id="Path_3105" data-name="Path 3105" d="M343,198.571c.079.567.595.748,1.133.431l4.963-2.867a1.751,1.751,0,0,0,.861-1.592c-.079-.567-.595-.748-1.133-.425l-4.963,2.867a1.745,1.745,0,0,0-.861,1.586Z" transform="translate(-279.572 -161.498)" fill="#f7a4a4"/>
          <path id="Path_3106" data-name="Path 3106" d="M357.769,190.063c.079.567.595.748,1.133.425l4.963-2.833a1.745,1.745,0,0,0,.867-1.592c-.079-.567-.566-.748-1.133-.425l-4.963,2.867A1.739,1.739,0,0,0,357.769,190.063Z" transform="translate(-285.975 -157.822)" fill="#f7a4a4"/>
          <g id="Group_3796" data-name="Group 3796" transform="translate(21.328 32.631)" opacity="0.17">
            <path id="Path_3107" data-name="Path 3107" d="M376.492,222.926a.261.261,0,0,1-.278-.2l-4.045-28.236a.21.21,0,0,1,.221-.227.278.278,0,0,1,.283.2l4.039,28.236a.21.21,0,0,1-.221.227Z" transform="translate(-313.545 -194.259)" fill="#f7a4a4"/>
            <path id="Path_3108" data-name="Path 3108" d="M361.692,231.465a.261.261,0,0,1-.278-.2l-4.045-28.236a.21.21,0,0,1,.221-.227.261.261,0,0,1,.278.2l4.056,28.236a.21.21,0,0,1-.232.227Z" transform="translate(-307.129 -197.961)" fill="#f7a4a4"/>
            <path id="Path_3109" data-name="Path 3109" d="M346.932,240a.272.272,0,0,1-.283-.2l-4.039-28.236a.21.21,0,0,1,.215-.227.266.266,0,0,1,.283.2l4.045,28.236a.21.21,0,0,1-.221.227Z" transform="translate(-300.731 -201.658)" fill="#f7a4a4"/>
            <path id="Path_3110" data-name="Path 3110" d="M332.148,248.535a.272.272,0,0,1-.283-.21L327.82,220.09a.21.21,0,0,1,.221-.221.266.266,0,0,1,.283.2l4.039,28.236a.21.21,0,0,1-.215.227Z" transform="translate(-294.321 -205.36)" fill="#f7a4a4"/>
            <path id="Path_3111" data-name="Path 3111" d="M317.35,257.066a.266.266,0,0,1-.283-.2L313,228.626a.21.21,0,0,1,.221-.227.272.272,0,0,1,.283.2l4.039,28.236a.21.21,0,0,1-.193.227Z" transform="translate(-287.896 -209.058)" fill="#f7a4a4"/>
            <path id="Path_3112" data-name="Path 3112" d="M302.583,265.605a.266.266,0,0,1-.278-.21L298.26,237.16a.214.214,0,0,1,.221-.221.261.261,0,0,1,.278.2l4.045,28.236a.21.21,0,0,1-.221.227Z" transform="translate(-281.507 -212.76)" fill="#f7a4a4"/>
            <path id="Path_3113" data-name="Path 3113" d="M287.8,274.135a.272.272,0,0,1-.283-.2L283.479,245.7a.21.21,0,0,1,.221-.227.261.261,0,0,1,.278.2l4.045,28.236a.21.21,0,0,1-.221.227Z" transform="translate(-275.1 -216.457)" fill="#f7a4a4"/>
            <path id="Path_3114" data-name="Path 3114" d="M273.018,282.666a.266.266,0,0,1-.283-.2l-4.045-28.236a.215.215,0,0,1,.221-.227.272.272,0,0,1,.283.21l4.045,28.236a.21.21,0,0,1-.221.221Z" transform="translate(-268.689 -220.155)" fill="#f7a4a4"/>
            <path id="Path_3115" data-name="Path 3115" d="M270.782,241a.266.266,0,0,1-.232-.1.187.187,0,0,1,.045-.295l58.624-33.85a.289.289,0,0,1,.351.068.187.187,0,0,1-.051.295l-58.63,33.844A.238.238,0,0,1,270.782,241Z" transform="translate(-269.473 -199.662)" fill="#f7a4a4"/>
            <path id="Path_3116" data-name="Path 3116" d="M272.543,253.456a.283.283,0,0,1-.232-.1.187.187,0,0,1,.051-.295l58.618-33.85a.3.3,0,0,1,.357.068.193.193,0,0,1-.051.295l-58.607,33.844A.221.221,0,0,1,272.543,253.456Z" transform="translate(-270.237 -205.063)" fill="#f7a4a4"/>
            <path id="Path_3117" data-name="Path 3117" d="M274.323,265.916a.283.283,0,0,1-.232-.1.193.193,0,0,1,.051-.3l58.624-33.844a.289.289,0,0,1,.351.068.187.187,0,0,1-.051.295l-58.618,33.844A.243.243,0,0,1,274.323,265.916Z" transform="translate(-271.009 -210.464)" fill="#f7a4a4"/>
            <path id="Path_3118" data-name="Path 3118" d="M273.018,256.791a.255.255,0,0,1-.13,0,.232.232,0,0,1-.153-.181l-4.045-28.236a.2.2,0,0,1,.1-.193l58.618-33.844a.289.289,0,0,1,.255,0,.249.249,0,0,1,.153.176l4.039,28.236a.193.193,0,0,1-.1.193l-58.624,33.816A.209.209,0,0,1,273.018,256.791Zm-3.807-28.326,3.966,27.76,58.159-33.578-3.966-27.76Z" transform="translate(-268.689 -194.28)" fill="#f7a4a4"/>
          </g>
          <g id="Group_3797" data-name="Group 3797" transform="translate(21.328 32.631)" opacity="0.17">
            <path id="Path_3119" data-name="Path 3119" d="M376.492,222.926a.261.261,0,0,1-.278-.2l-4.045-28.236a.21.21,0,0,1,.221-.227.278.278,0,0,1,.283.2l4.039,28.236a.21.21,0,0,1-.221.227Z" transform="translate(-313.545 -194.259)"/>
            <path id="Path_3120" data-name="Path 3120" d="M361.692,231.465a.261.261,0,0,1-.278-.2l-4.045-28.236a.21.21,0,0,1,.221-.227.261.261,0,0,1,.278.2l4.056,28.236a.21.21,0,0,1-.232.227Z" transform="translate(-307.129 -197.961)"/>
            <path id="Path_3121" data-name="Path 3121" d="M346.932,240a.272.272,0,0,1-.283-.2l-4.039-28.236a.21.21,0,0,1,.215-.227.266.266,0,0,1,.283.2l4.045,28.236a.21.21,0,0,1-.221.227Z" transform="translate(-300.731 -201.658)"/>
            <path id="Path_3122" data-name="Path 3122" d="M332.148,248.535a.272.272,0,0,1-.283-.21L327.82,220.09a.21.21,0,0,1,.221-.221.266.266,0,0,1,.283.2l4.039,28.236a.21.21,0,0,1-.215.227Z" transform="translate(-294.321 -205.36)"/>
            <path id="Path_3123" data-name="Path 3123" d="M317.35,257.066a.266.266,0,0,1-.283-.2L313,228.626a.21.21,0,0,1,.221-.227.272.272,0,0,1,.283.2l4.039,28.236a.21.21,0,0,1-.193.227Z" transform="translate(-287.896 -209.058)"/>
            <path id="Path_3124" data-name="Path 3124" d="M302.583,265.605a.266.266,0,0,1-.278-.21L298.26,237.16a.214.214,0,0,1,.221-.221.261.261,0,0,1,.278.2l4.045,28.236a.21.21,0,0,1-.221.227Z" transform="translate(-281.507 -212.76)"/>
            <path id="Path_3125" data-name="Path 3125" d="M287.8,274.135a.272.272,0,0,1-.283-.2L283.479,245.7a.21.21,0,0,1,.221-.227.261.261,0,0,1,.278.2l4.045,28.236a.21.21,0,0,1-.221.227Z" transform="translate(-275.1 -216.457)"/>
            <path id="Path_3126" data-name="Path 3126" d="M273.018,282.666a.266.266,0,0,1-.283-.2l-4.045-28.236a.215.215,0,0,1,.221-.227.272.272,0,0,1,.283.21l4.045,28.236a.21.21,0,0,1-.221.221Z" transform="translate(-268.689 -220.155)"/>
            <path id="Path_3127" data-name="Path 3127" d="M270.782,241a.266.266,0,0,1-.232-.1.187.187,0,0,1,.045-.295l58.624-33.85a.289.289,0,0,1,.351.068.187.187,0,0,1-.051.295l-58.63,33.844A.238.238,0,0,1,270.782,241Z" transform="translate(-269.473 -199.662)"/>
            <path id="Path_3128" data-name="Path 3128" d="M272.543,253.456a.283.283,0,0,1-.232-.1.187.187,0,0,1,.051-.295l58.618-33.85a.3.3,0,0,1,.357.068.193.193,0,0,1-.051.295l-58.607,33.844A.221.221,0,0,1,272.543,253.456Z" transform="translate(-270.237 -205.063)"/>
            <path id="Path_3129" data-name="Path 3129" d="M274.323,265.916a.283.283,0,0,1-.232-.1.193.193,0,0,1,.051-.3l58.624-33.844a.289.289,0,0,1,.351.068.187.187,0,0,1-.051.295l-58.618,33.844A.243.243,0,0,1,274.323,265.916Z" transform="translate(-271.009 -210.464)"/>
            <path id="Path_3130" data-name="Path 3130" d="M273.018,256.791a.255.255,0,0,1-.13,0,.232.232,0,0,1-.153-.181l-4.045-28.236a.2.2,0,0,1,.1-.193l58.618-33.844a.289.289,0,0,1,.255,0,.249.249,0,0,1,.153.176l4.039,28.236a.193.193,0,0,1-.1.193l-58.624,33.816A.209.209,0,0,1,273.018,256.791Zm-3.807-28.326,3.966,27.76,58.159-33.578-3.966-27.76Z" transform="translate(-268.689 -194.28)"/>
          </g>
        </g>
        <path id="Path_3131" data-name="Path 3131" d="M299.733,205.057a4.18,4.18,0,0,1-.13,1.048,3.779,3.779,0,0,1-.357.906,3.292,3.292,0,0,1-.521.725,2.974,2.974,0,0,1-.623.5,1.621,1.621,0,0,1-.651.232.833.833,0,0,1-.51-.1.855.855,0,0,1-.34-.431,2.012,2.012,0,0,1-.13-.748.374.374,0,0,1,.034-.153.2.2,0,0,1,.085-.1l.7-.408c.068-.04.113-.045.136-.028a.385.385,0,0,1,.068.159.453.453,0,0,0,.2.317c.091.045.227,0,.4-.085a1.184,1.184,0,0,0,.47-.516,1.836,1.836,0,0,0,.153-.782v-2.357l-1.87,1.082a.085.085,0,0,1-.108,0,.187.187,0,0,1-.04-.136v-.9a.419.419,0,0,1,.04-.181.283.283,0,0,1,.108-.13l2.748-1.586a.079.079,0,0,1,.1,0,.164.164,0,0,1,.045.136Z" transform="translate(-259.403 -164.709)" fill="#455a64"/>
        <path id="Path_3132" data-name="Path 3132" d="M303.51,205.426a2.266,2.266,0,0,1,.278-1.082,3.7,3.7,0,0,1,.9-1.054l.64-.538a.431.431,0,0,0-.074-.289c-.045-.062-.13-.057-.244,0a.64.64,0,0,0-.2.164,1.486,1.486,0,0,0-.1.159.606.606,0,0,1-.1.136.489.489,0,0,1-.1.079l-.7.4a.085.085,0,0,1-.091,0,.142.142,0,0,1,0-.119,1.5,1.5,0,0,1,.108-.465,3.292,3.292,0,0,1,.272-.567,3.509,3.509,0,0,1,.408-.533,2.356,2.356,0,0,1,.521-.414,1.36,1.36,0,0,1,.567-.21.567.567,0,0,1,.408.113.765.765,0,0,1,.238.4,2.269,2.269,0,0,1,.079.634V204.8a.408.408,0,0,1-.045.181.277.277,0,0,1-.1.13l-.691.4a.079.079,0,0,1-.1,0,.187.187,0,0,1-.045-.136v-.232a2.832,2.832,0,0,1-.329.567,1.773,1.773,0,0,1-.51.442.94.94,0,0,1-.419.142.453.453,0,0,1-.306-.1.68.68,0,0,1-.193-.312A1.831,1.831,0,0,1,303.51,205.426Zm1.246-.533a.72.72,0,0,0,.227-.193,1.38,1.38,0,0,0,.181-.278,1.569,1.569,0,0,0,.119-.323,1.478,1.478,0,0,0,.045-.34l-.5.408a1.213,1.213,0,0,0-.238.278.6.6,0,0,0-.091.317c0,.108,0,.164.068.181S304.671,204.944,304.756,204.893Z" transform="translate(-262.455 -164.59)" fill="#455a64"/>
        <path id="Path_3133" data-name="Path 3133" d="M312.937,200.942a.38.38,0,0,1-.045.187.278.278,0,0,1-.1.13l-.691.4a.079.079,0,0,1-.1,0,.187.187,0,0,1-.045-.136v-2.164a.9.9,0,0,0-.113-.516c-.079-.1-.2-.1-.363,0a.816.816,0,0,0-.357.431,1.643,1.643,0,0,0-.113.646v2.13a.453.453,0,0,1-.045.187.278.278,0,0,1-.1.13l-.691.4a.085.085,0,0,1-.108,0,.187.187,0,0,1-.04-.136v-3.932a.442.442,0,0,1,.04-.187.3.3,0,0,1,.108-.125l.663-.385a.079.079,0,0,1,.1,0,.17.17,0,0,1,.045.13v.2c.028-.074.068-.153.108-.244a2.083,2.083,0,0,1,.159-.255,2.142,2.142,0,0,1,.215-.244,1.574,1.574,0,0,1,.289-.21,1.082,1.082,0,0,1,.482-.164.487.487,0,0,1,.38.13,1.025,1.025,0,0,1,.244.459,3.166,3.166,0,0,1,.085.81Z" transform="translate(-265.276 -162.905)" fill="#455a64"/>
        <path id="Path_3134" data-name="Path 3134" d="M316.667,194.594a.447.447,0,0,1,.045-.181.278.278,0,0,1,.1-.13l.691-.4a.079.079,0,0,1,.1,0,.187.187,0,0,1,.045.136v2.136a1.013,1.013,0,0,0,.1.521c.074.108.187.113.346,0a.759.759,0,0,0,.346-.414,1.875,1.875,0,0,0,.1-.64V193.49a.442.442,0,0,1,.04-.187.266.266,0,0,1,.108-.125l.691-.4a.079.079,0,0,1,.1,0,.181.181,0,0,1,.045.13v3.954a.453.453,0,0,1-.045.187.305.305,0,0,1-.1.13l-.64.363a.079.079,0,0,1-.1,0,.187.187,0,0,1-.045-.136v-.193a1.786,1.786,0,0,1-.108.244,1.479,1.479,0,0,1-.153.249,2.14,2.14,0,0,1-.215.244,1.7,1.7,0,0,1-.295.215c-.357.2-.635.215-.844,0a1.745,1.745,0,0,1-.317-1.275Z" transform="translate(-268.151 -160.977)" fill="#455a64"/>
        <path id="Path_3135" data-name="Path 3135" d="M323,194.134a2.305,2.305,0,0,1,.278-1.076,3.807,3.807,0,0,1,.9-1.054l.64-.566a.47.47,0,0,0-.068-.289c-.051-.062-.13-.057-.249,0a.567.567,0,0,0-.193.164,1.7,1.7,0,0,0-.1.159.619.619,0,0,1-.091.136.534.534,0,0,1-.108.079l-.7.4a.085.085,0,0,1-.091,0,.17.17,0,0,1,0-.119,1.558,1.558,0,0,1,.113-.47,2.993,2.993,0,0,1,.266-.567,3.964,3.964,0,0,1,.414-.533,2.209,2.209,0,0,1,.516-.414,1.4,1.4,0,0,1,.567-.21.567.567,0,0,1,.408.113.765.765,0,0,1,.238.4,2.267,2.267,0,0,1,.079.634v2.555a.407.407,0,0,1-.045.181.255.255,0,0,1-.108.13l-.686.4h-.108a.187.187,0,0,1-.045-.136v-.181a2.572,2.572,0,0,1-.323.567,1.7,1.7,0,0,1-.516.442.918.918,0,0,1-.419.142.476.476,0,0,1-.306-.1.725.725,0,0,1-.187-.312A1.633,1.633,0,0,1,323,194.134Zm1.252-.527a.77.77,0,0,0,.221-.193,1.171,1.171,0,0,0,.181-.278,2,2,0,0,0,.125-.323,1.474,1.474,0,0,0,.04-.346l-.5.414a1.212,1.212,0,0,0-.238.278.658.658,0,0,0-.091.317c0,.1,0,.164.068.181a.249.249,0,0,0,.2-.051Z" transform="translate(-270.904 -159.683)" fill="#455a64"/>
        <path id="Path_3136" data-name="Path 3136" d="M331.478,186.136a.079.079,0,0,1,.1,0c.034,0,.045.068.045.13v.855a.346.346,0,0,1-.045.181.277.277,0,0,1-.1.13l-.5.289a1.133,1.133,0,0,0-.5,1.065v2.073a.442.442,0,0,1-.04.187.323.323,0,0,1-.108.13l-.691.4a.079.079,0,0,1-.1,0,.187.187,0,0,1-.045-.136v-3.932a.454.454,0,0,1,.045-.187.261.261,0,0,1,.1-.125l.635-.368h.108a.187.187,0,0,1,.045.136v.221a2.321,2.321,0,0,1,.3-.476,1.45,1.45,0,0,1,.425-.363Z" transform="translate(-273.716 -158.098)" fill="#455a64"/>
        <path id="Path_3137" data-name="Path 3137" d="M335.767,188.95a1.074,1.074,0,0,1-.051.164.278.278,0,0,1-.108.13l-.714.414a.074.074,0,0,1-.1,0,.181.181,0,0,1-.04-.125v-.062l.419-1.751-1.1-3.3a.176.176,0,0,1,0-.057.425.425,0,0,1,.034-.164.278.278,0,0,1,.1-.113l.714-.414a.079.079,0,0,1,.108,0,.39.39,0,0,1,.057.108l.606,1.841.6-2.544a.705.705,0,0,1,.057-.164.272.272,0,0,1,.1-.13l.725-.414a.068.068,0,0,1,.091,0,.164.164,0,0,1,.04.125.234.234,0,0,1,0,.062Z" transform="translate(-275.705 -156.465)" fill="#455a64"/>
        <path id="Path_3138" data-name="Path 3138" d="M366.765,214.575l.493.7a.108.108,0,0,0,.13.04l.833-.323c.13-.051.21.113.136.278l-.487,1.042a.277.277,0,0,0,0,.2l.283.912c.045.147-.074.346-.2.34l-.793-.051a.17.17,0,0,0-.147.085l-.657.884c-.108.142-.255.1-.261-.068v-1.076a.159.159,0,0,0-.074-.147l-.685-.363c-.108-.057-.085-.283.04-.38l.793-.618a.323.323,0,0,0,.1-.17l.232-1.133C366.516,214.564,366.686,214.467,366.765,214.575Z" transform="translate(-289.226 -170.414)" fill="#f28f8f"/>
        <path id="Path_3139" data-name="Path 3139" d="M369.042,211.267a2.884,2.884,0,0,0-2.124-2.374c-1.586-.4-2.708.686-3.529,1.592-.215.244.249.334.425.164.861-.833,2.555-1.7,3.756-.68s.878,2.589.51,3.762a5.473,5.473,0,0,1-5.212,3.818c-5.722-.13-.816-8.934,2.47-9.557.266-.051.4-.419.034-.453-1.7-.17-2.742,1.173-3.66,2.192a9.745,9.745,0,0,0-2.187,3.813,3.689,3.689,0,0,0,4.889,4.572C367.5,217.1,369.659,214.252,369.042,211.267Z" transform="translate(-286.67 -167.378)" fill="#f28f8f"/>
        <path id="Path_3140" data-name="Path 3140" d="M297.511,266.193a2.884,2.884,0,0,0-2.124-2.374c-1.586-.4-2.708.68-3.529,1.592-.215.238.249.329.425.164.861-.833,2.555-1.7,3.756-.68s.878,2.589.51,3.762a5.473,5.473,0,0,1-5.212,3.818c-5.722-.13-.816-8.934,2.47-9.557.266-.051.4-.419.034-.459-1.7-.164-2.742,1.178-3.66,2.2a9.705,9.705,0,0,0-2.187,3.813,3.69,3.69,0,0,0,4.889,4.572C295.971,272.028,298.129,269.173,297.511,266.193Z" transform="translate(-255.663 -191.185)" fill="#f28f8f"/>
      </g>
    </g>
    <g id="freepik--Gears--inject-1--inject-43" transform="translate(76.101 20.47)" opacity="0.54">
      <g id="freepik--gears--inject-1--inject-43-2" data-name="freepik--gears--inject-1--inject-43">
        <path id="Path_3141" data-name="Path 3141" d="M317.05,75.257l-.725-4.215-3.756,2.476a5.183,5.183,0,0,0-1.433-1.734l1.8-4.866-3.348-.748-2.476,4.713a8.957,8.957,0,0,0-2.572.855l-1.071-3.552-4.011,3.15.266,4.187a22.486,22.486,0,0,0-2.221,2.929l-3.314-.181-2.323,5.206L294.7,84.69a17,17,0,0,0-.566,3.3l-3.614,3.32.725,4.209,3.762-2.47a5.1,5.1,0,0,0,1.428,1.734l-1.8,4.861,3.348.748,3.541-3.45c.816-.125.618-1.666,1.507-2.1l1.071,3.546,4.011-3.15-.1-1.649c.81-.9,3.875-2.889,4.532-3.932l.827-1.371,2.351-5.223-1.082-1.96-1.184-2.532ZM304.8,89.131c-3.071,2.419-4.011,2.946-4.566-.283s1.241-8.158,4.317-10.577,4.255-2.595,4.81.635S307.878,86.712,304.8,89.131Z" transform="translate(-247.215 -51.044)" fill="#e0e0e0"/>
        <path id="Path_3142" data-name="Path 3142" d="M322.286,66.17l4.379,2.527-2.47,4.713-4.385-2.527Z" transform="translate(-259.911 -51.044)" fill="#f5f5f5"/>
        <path id="Path_3143" data-name="Path 3143" d="M337.575,77.3l-3.756,2.476-4.379-2.527L333.2,74.77Z" transform="translate(-264.086 -54.772)" fill="#f5f5f5"/>
        <path id="Path_3144" data-name="Path 3144" d="M337.2,97.629l-2.844-1.212L329.98,93.89l2.844,1.212Z" transform="translate(-264.32 -63.06)" fill="#e0e0e0"/>
        <path id="Path_3145" data-name="Path 3145" d="M297.82,121.541l4.379,2.527,1.8-4.861-4.379-2.527Z" transform="translate(-250.379 -72.939)" fill="#e0e0e0"/>
        <path id="Path_3146" data-name="Path 3146" d="M318.09,122.859l-4.379-2.527-1.071-3.552,4.379,2.527Z" transform="translate(-256.803 -72.982)" fill="#e0e0e0"/>
        <path id="Path_3147" data-name="Path 3147" d="M324.8,79.733l-.725-4.209L320.316,78a5.206,5.206,0,0,0-1.433-1.739l1.8-4.832-3.348-.748-2.47,4.713a8.928,8.928,0,0,0-2.578.81l-1.071-3.552L307.19,75.8l.266,4.187a22.093,22.093,0,0,0-2.221,2.929l-3.292-.159-2.323,5.206,2.833,1.212a17,17,0,0,0-.567,3.3l-3.6,3.308.725,4.209,3.762-2.476a5.1,5.1,0,0,0,1.428,1.739l-1.8,4.861,3.348.748,2.476-4.713a8.957,8.957,0,0,0,2.572-.838l1.071,3.552,4.011-3.15-.261-4.187a22.57,22.57,0,0,0,2.215-2.929l3.309.164,2.323-5.206-2.833-1.212a16.994,16.994,0,0,0,.566-3.3Zm-12.248,13.88c-3.071,2.419-6.016,1.756-6.572-1.473s1.484-7.807,4.561-10.2,6.017-1.756,6.577,1.473S315.626,91.194,312.549,93.613Z" transform="translate(-250.583 -52.999)" fill="#ebebeb"/>
        <path id="Path_3148" data-name="Path 3148" d="M314.69,72.227,310.311,69.7,306.3,72.85l4.379,2.527Z" transform="translate(-254.055 -52.574)" fill="#f5f5f5"/>
        <path id="Path_3149" data-name="Path 3149" d="M306.3,75.26l.266,4.187,4.379,2.527-.266-4.187Z" transform="translate(-254.055 -54.984)" fill="#e0e0e0"/>
        <path id="Path_3150" data-name="Path 3150" d="M304.7,90.221l-4.379-2.527-3.309-.164,4.379,2.527Z" transform="translate(-250.028 -60.303)" fill="#f5f5f5"/>
        <path id="Path_3151" data-name="Path 3151" d="M295.233,87.53l-2.323,5.206,4.379,2.527,2.323-5.206Z" transform="translate(-248.251 -60.303)" fill="#e0e0e0"/>
        <path id="Path_3152" data-name="Path 3152" d="M298.554,107.217l-4.379-2.527-3.614,3.32,4.385,2.527Z" transform="translate(-247.232 -67.741)" fill="#f5f5f5"/>
        <path id="Path_3153" data-name="Path 3153" d="M295.664,117.286l-4.379-2.527-.725-4.209,4.385,2.527Z" transform="translate(-247.232 -70.281)" fill="#e0e0e0"/>
        <path id="Path_3154" data-name="Path 3154" d="M328.559,68.7,324.18,66.17l3.348.748,4.379,2.527Z" transform="translate(-261.806 -51.044)" fill="#f5f5f5"/>
        <path id="Path_3155" data-name="Path 3155" d="M249.159,55.075V48.781l-5.008,2.266a8.866,8.866,0,0,0-1.348-2.974l3.15-6.362-3.847-2.221-3.954,5.9a8.923,8.923,0,0,0-3.258.317l-.567-5.461-5.444,3.144-.567,6.1a26.489,26.489,0,0,0-3.252,3.439l-3.932-1.371-3.852,6.668,3.156,2.719a27.426,27.426,0,0,0-1.354,4.532l-5,3.524v6.288l5-2.266A9.019,9.019,0,0,0,220.436,76l-3.156,6.356,3.852,2.221,3.932-5.909a8.9,8.9,0,0,0,3.252-.317l.567,5.461,5.444-3.144.567-6.1a10.2,10.2,0,0,0,4.368-3.059l2.833.991,3.835-6.662L243.568,63.8a14.73,14.73,0,0,0,.567-5.218ZM231.625,70.768c-4.181,2.413-6.8.7-6.8-4.119s3.45-10.764,7.631-13.149,6.708-.657,6.708,4.17A16.683,16.683,0,0,1,231.625,70.768Z" transform="translate(-214.08 -39.479)" fill="#e0e0e0"/>
        <path id="Path_3156" data-name="Path 3156" d="M264.881,42,260.5,39.47l-3.926,5.909,4.379,2.527Z" transform="translate(-232.498 -39.47)" fill="#f5f5f5"/>
        <path id="Path_3157" data-name="Path 3157" d="M276.507,58.417l-4.379-2.527-5.008,2.255,4.379,2.527Z" transform="translate(-237.072 -46.588)" fill="#f5f5f5"/>
        <path id="Path_3158" data-name="Path 3158" d="M244.2,116.1l-4.379-2.527-.55-5.461,4.379,2.527Z" transform="translate(-224.999 -69.224)" fill="#e0e0e0"/>
        <path id="Path_3159" data-name="Path 3159" d="M219.79,110.316l4.379,2.527,3.156-6.362-4.379-2.521Z" transform="translate(-216.555 -67.425)" fill="#e0e0e0"/>
        <path id="Path_3160" data-name="Path 3160" d="M256.892,59.521V53.232L251.884,55.5a8.9,8.9,0,0,0-1.348-2.98l3.133-6.368-3.847-2.221-3.915,5.909a8.923,8.923,0,0,0-3.258.317l-.567-5.461-5.41,3.144-.567,6.1a26.491,26.491,0,0,0-3.252,3.439L228.923,56l-3.852,6.662,3.156,2.719a27.428,27.428,0,0,0-1.354,4.532l-5,3.512v6.288l5-2.266a8.985,8.985,0,0,0,1.354,2.974l-3.156,6.362,3.852,2.221,3.932-5.909a8.9,8.9,0,0,0,3.252-.317l.567,5.461,5.444-3.144.567-6.1a26.913,26.913,0,0,0,3.258-3.439l3.932,1.371,3.8-6.634-3.15-2.719a26.864,26.864,0,0,0,1.348-4.532Zm-17.511,15.7c-4.181,2.413-7.563.459-7.563-4.368a16.756,16.756,0,0,1,7.563-13.1c4.164-2.413,7.563-.453,7.563,4.368A16.735,16.735,0,0,1,239.381,75.219Z" transform="translate(-217.457 -41.403)" fill="#ebebeb"/>
        <path id="Path_3161" data-name="Path 3161" d="M230.522,62.151l4.379,2.527-3.932-1.371L226.59,60.78Z" transform="translate(-219.503 -48.707)" fill="#f5f5f5"/>
        <rect id="Rectangle_3193" data-name="Rectangle 3193" width="7.699" height="5.053" transform="translate(3.233 18.739) rotate(-60.03)" fill="#f5f5f5"/>
        <path id="Path_3162" data-name="Path 3162" d="M219.79,72.55l4.379,2.527,3.156,2.719-4.379-2.527Z" transform="translate(-216.555 -53.809)" fill="#e0e0e0"/>
        <path id="Path_3163" data-name="Path 3163" d="M219.142,85.36l4.379,2.527-5,3.524-4.379-2.527Z" transform="translate(-214.106 -59.362)" fill="#f5f5f5"/>
        <path id="Path_3164" data-name="Path 3164" d="M214.14,91.58l4.379,2.527V100.4l-4.379-2.527Z" transform="translate(-214.106 -62.058)" fill="#e0e0e0"/>
        <path id="Path_3165" data-name="Path 3165" d="M250.064,43.347l-4.379-2.527-5.444,3.144,4.379,2.527Z" transform="translate(-225.42 -40.055)" fill="#f5f5f5"/>
      </g>
    </g>
    <g id="freepik--Wrench--inject-1--inject-43" transform="translate(69.866 210.854)">
      <g id="freepik--wrench--inject-1--inject-43-2" data-name="freepik--wrench--inject-1--inject-43">
        <path id="Path_3166" data-name="Path 3166" d="M199.171,367.331a.781.781,0,0,1-.119.419,6.6,6.6,0,0,1-2.306,2.039,15.605,15.605,0,0,1-10.362,1.3l-34.422,19.874.062.108.567-.091v1.954c0,1.473-.98,2.952-2.952,4.068a15.481,15.481,0,0,1-14.021-.062l-.249-.153a.329.329,0,0,1-.142-.261v-1.841l8.962.516,1.309-2.731-.731-.431-2.708-1.586-8.385,1.2a.374.374,0,0,1-.425-.368v-2.051l2.425-.4s6.878-2.034,10.367-1.3l34.416-19.874a3.637,3.637,0,0,1-.595-2.045s0-1.938,0-1.938l.521.187a6.367,6.367,0,0,1,2.43-2.266c3.9-2.221,14.407-1.586,14.407-1.586v1.915a.181.181,0,0,1-.159.181l-8.8,1.292-.567,1.2-.736,1.53,3.444,2.017,8.555-3.076.21.368Z" transform="translate(-133.25 -357.998)" fill="#37474f"/>
        <path id="Path_3167" data-name="Path 3167" d="M145.47,412.337l-.731,1.53-2.708-1.586-8.356,1.212a.374.374,0,0,1-.425-.368v-2.051l8.764-.753Z" transform="translate(-133.25 -379.844)" fill="#263238"/>
        <path id="Path_3168" data-name="Path 3168" d="M229.387,361.525l8.957-1.445v1.932a.181.181,0,0,1-.159.181l-8.8,1.292-.567,1.2-.731-.431Z" transform="translate(-174.361 -358.067)" fill="#263238"/>
        <path id="Path_3169" data-name="Path 3169" d="M200.7,378.1v-1.96L166.28,396.014v1.96Z" transform="translate(-147.568 -365.028)" fill="#474747"/>
        <path id="Path_3170" data-name="Path 3170" d="M135.712,385.393a6.583,6.583,0,0,0-2.357,2.107.465.465,0,0,0,.453.708L142.046,387l3.439,2.017-1.309,2.736-8.622,1.263c-.323.045-.431.176-.261.283l.312.193a15.5,15.5,0,0,0,14.021.062c2.861-1.626,3.643-4.005,2.351-6.045l34.4-19.874a15.56,15.56,0,0,0,10.362-1.292,6.656,6.656,0,0,0,2.351-2.107.465.465,0,0,0-.459-.708l-8.2,1.2-3.439-2.017,1.3-2.736,8.628-1.263c.306-.045.414-.181.255-.283l-.312-.193c-3.841-2.266-10.118-2.266-14.021-.062-2.833,1.626-3.637,4.005-2.351,6.045L146.074,384.1A15.556,15.556,0,0,0,135.712,385.393Z" transform="translate(-133.265 -356.526)" fill="#7d7d7d"/>
      </g>
    </g>
    <g id="freepik--Books--inject-1--inject-43" transform="translate(177.222 154.611)">
      <g id="freepik--books--inject-1--inject-43-2" data-name="freepik--books--inject-1--inject-43">
        <path id="Path_3171" data-name="Path 3171" d="M322.79,309.958l29.034,16.678,41.566-24L364.356,285.96Z" transform="translate(-322.767 -269.695)" fill="#455a64"/>
        <path id="Path_3172" data-name="Path 3172" d="M352.823,339.073l-28.219-16.3a9.384,9.384,0,0,0-.125-5.818l28.054,16.157S352.982,334.541,352.823,339.073Z" transform="translate(-323.5 -283.129)" fill="#f5f5f5"/>
        <path id="Path_3173" data-name="Path 3173" d="M350.651,329.941a4.753,4.753,0,0,1,2.141,3.711v4.334c0,1.365-.963,1.921-2.141,1.241l-27.9-16.106v-1.076l27.6,15.863c.714.408,1.286.079,1.286-.742v-4.017a2.833,2.833,0,0,0-1.286-2.226l-27.578-15.863V313.84Z" transform="translate(-322.75 -281.78)" fill="#263238"/>
        <path id="Path_3174" data-name="Path 3174" d="M322.79,295.478l41.566-24,27.9,16.1a4.736,4.736,0,0,1,2.141,3.711v4.34a1.5,1.5,0,0,1-.629,1.382l-41.56,24a1.507,1.507,0,0,0,.623-1.382v-4.34a4.73,4.73,0,0,0-2.141-3.711Z" transform="translate(-322.767 -263.418)" fill="#455a64"/>
        <path id="Path_3175" data-name="Path 3175" d="M374.71,326.722a4.35,4.35,0,0,1,.629,2.113v4.34a1.507,1.507,0,0,1-.623,1.382l41.56-24a1.5,1.5,0,0,0,.629-1.382v-4.34a4.335,4.335,0,0,0-.629-2.107Z" transform="translate(-345.273 -276.964)" fill="#37474f"/>
        <path id="Path_3176" data-name="Path 3176" d="M339.36,293.783l23.114,13.257L400.658,285,377.544,271.74Z" transform="translate(-329.95 -263.531)" fill="#f7a4a4"/>
        <path id="Path_3177" data-name="Path 3177" d="M339.36,293.783l23.114,13.257L400.658,285,377.544,271.74Z" transform="translate(-329.95 -263.531)" opacity="0.35"/>
        <path id="Path_3178" data-name="Path 3178" d="M363.467,317.97l-22.3-12.871a9.3,9.3,0,0,0-.119-5.818l22.157,12.735S363.626,313.42,363.467,317.97Z" transform="translate(-330.683 -275.469)" fill="#ebebeb"/>
        <path id="Path_3179" data-name="Path 3179" d="M363.467,317.97l-22.3-12.871a9.3,9.3,0,0,0-.119-5.818l22.157,12.735S363.626,313.42,363.467,317.97Z" transform="translate(-330.683 -275.469)" fill="#f5f5f5"/>
        <path id="Path_3180" data-name="Path 3180" d="M361.335,308.854a4.719,4.719,0,0,1,2.141,3.711V316.9c0,1.365-.957,1.921-2.141,1.235L339.36,305.45v-1.076l21.681,12.464c.708.408,1.28.074,1.28-.742v-4.017a2.833,2.833,0,0,0-1.286-2.226l-21.658-12.464V296.17Z" transform="translate(-329.95 -274.121)" fill="#f7a4a4"/>
        <path id="Path_3181" data-name="Path 3181" d="M361.335,308.854a4.719,4.719,0,0,1,2.141,3.711V316.9c0,1.365-.957,1.921-2.141,1.235L339.36,305.45v-1.076l21.681,12.464c.708.408,1.28.074,1.28-.742v-4.017a2.833,2.833,0,0,0-1.286-2.226l-21.658-12.464V296.17Z" transform="translate(-329.95 -274.121)" opacity="0.25"/>
        <path id="Path_3182" data-name="Path 3182" d="M339.36,279.3l38.184-22.049,21.975,12.684a4.753,4.753,0,0,1,2.141,3.711v4.34a1.5,1.5,0,0,1-.629,1.382l-38.184,22.049a1.518,1.518,0,0,0,.629-1.388v-4.34a4.736,4.736,0,0,0-2.141-3.711Z" transform="translate(-329.95 -257.25)" fill="#f7a4a4"/>
        <path id="Path_3183" data-name="Path 3183" d="M380.826,304.513a4.385,4.385,0,0,1,.623,2.107v4.34a1.518,1.518,0,0,1-.629,1.388L419,290.3a1.5,1.5,0,0,0,.629-1.382v-4.34A4.4,4.4,0,0,0,419,282.47Z" transform="translate(-347.922 -268.182)" opacity="0.15"/>
      </g>
    </g>
    <g id="freepik--List--inject-1--inject-43" transform="translate(117.471 213.092)">
      <g id="freepik--list--inject-1--inject-43-2" data-name="freepik--list--inject-1--inject-43">
        <path id="Path_3184" data-name="Path 3184" d="M310.935,383.508v.963a1.048,1.048,0,0,1-.476.827l-53.446,30.859a1.082,1.082,0,0,1-.952,0l-38.286-22.094a1.048,1.048,0,0,1-.476-.827v-.957a1.048,1.048,0,0,1,.476-.827l53.446-30.859a1.043,1.043,0,0,1,.952,0l38.286,22.094A1.042,1.042,0,0,1,310.935,383.508Z" transform="translate(-217.289 -360.477)" fill="#f7a4a4"/>
        <path id="Path_3185" data-name="Path 3185" d="M217.688,415.21c-.193.153-.176.368.068.5l38.286,22.094a.923.923,0,0,0,.476.113v2.1a1,1,0,0,1-.476-.113L217.756,417.81a1.048,1.048,0,0,1-.476-.827v-.957A1.059,1.059,0,0,1,217.688,415.21Z" transform="translate(-217.28 -384.203)" fill="#fff" opacity="0.4"/>
        <path id="Path_3186" data-name="Path 3186" d="M340.561,399.78h0l.04.034h0l.068.068h0a1.025,1.025,0,0,1,.238.516.4.4,0,0,1,0,.113v.963a1.076,1.076,0,0,1-.476.827l-53.395,30.893a1,1,0,0,1-.476.113v-2.062a.884.884,0,0,0,.476-.113l53.452-30.859a.368.368,0,0,0,.176-.187.244.244,0,0,0-.057-.261.17.17,0,0,0-.045-.045Z" transform="translate(-247.311 -377.514)" opacity="0.15"/>
        <path id="Path_3187" data-name="Path 3187" d="M342.4,374.581c0-.357-.215-.714-.793-1.048a3.552,3.552,0,0,0-1.7-.453h-.147c-1.49,0-3.042.691-4.362.884h-.057a10.289,10.289,0,0,1-3.739-.414,4.043,4.043,0,0,0-.442,0h-.623a12.886,12.886,0,0,1-2.413-.051c-.64-.068-1.133-.1-1.467-.108h-.119a1.932,1.932,0,0,0-1.082.21l-2.141,1.241v.708l16.044,9.268,2.141-1.241a.629.629,0,0,0,.363-.652v-.7a3.006,3.006,0,0,0-.176-.906,3.679,3.679,0,0,1-.125-.533,3.662,3.662,0,0,0,.068-.5v-.725a.787.787,0,0,0-.04-.249c-.1-.363-.606-.742-.77-1.286a1.579,1.579,0,0,1,.068-.193c.334-.77,1.535-1.7,1.535-2.532A7.043,7.043,0,0,1,342.4,374.581Zm-3.3,2.051a4.118,4.118,0,0,1-1.161.448,3.218,3.218,0,0,1-2.181-.17,1.02,1.02,0,0,1-.385-.374,2.062,2.062,0,0,1,.867-.839,4.068,4.068,0,0,1,2.935-.442,1.7,1.7,0,0,1,.4.164,1.02,1.02,0,0,1,.385.374,2.011,2.011,0,0,1-.838.838Z" transform="translate(-263.241 -365.94)" fill="#263238"/>
        <path id="Path_3188" data-name="Path 3188" d="M325.451,373.6l-2.141,1.241,16.044,9.263,2.141-1.235c.272-.159.567-.374.187-1.552s.074-1.473-.1-2.011-1.173-1.1-.7-2.192,2.7-2.453.742-3.586a3.552,3.552,0,0,0-1.7-.453h-.147c-1.49,0-3.042.691-4.362.884h-.057a10.29,10.29,0,0,1-3.739-.414,4.042,4.042,0,0,0-.442,0h-.623a12.894,12.894,0,0,1-2.413-.051c-.64-.068-1.133-.1-1.467-.108h-.142A1.932,1.932,0,0,0,325.451,373.6Zm13.234,8.305a1,1,0,0,1,.884-.079c.21.125.147.351-.13.516a1,1,0,0,1-.878.074c-.215-.119-.13-.317.125-.5Zm-2.425-6.929a4.1,4.1,0,0,1,2.935-.442,1.7,1.7,0,0,1,.4.164c.787.459.567,1.32-.476,1.932a4.285,4.285,0,0,1-1.161.442,3.218,3.218,0,0,1-2.181-.17c-.787-.47-.572-1.314.482-1.92Zm-9.954-.221a1,1,0,0,1,.878-.074c.215.125.159.351-.125.51a.991.991,0,0,1-.884.074c-.21-.113-.147-.346.13-.5Z" transform="translate(-263.241 -365.936)" fill="#37474f"/>
        <path id="Path_3189" data-name="Path 3189" d="M263.466,413.945l-33.317-19.233a.629.629,0,0,1-.289-.493v-.374a.629.629,0,0,1,.289-.493l44.019-25.4a.635.635,0,0,1,.567,0l33.317,19.234a.64.64,0,0,1,.283.5v.368a.64.64,0,0,1-.283.493l-44.019,25.414A.6.6,0,0,1,263.466,413.945Z" transform="translate(-222.733 -363.687)" fill="#f5f5f5"/>
        <path id="Path_3190" data-name="Path 3190" d="M230.08,412.93c-.079.091-.057.2.074.278l33.317,19.262a.566.566,0,0,0,.283.068v1.025a.526.526,0,0,1-.283-.068l-33.317-19.234a.612.612,0,0,1-.283-.493v-.374A.685.685,0,0,1,230.08,412.93Z" transform="translate(-222.737 -383.214)" fill="#fafafa"/>
        <path id="Path_3191" data-name="Path 3191" d="M334.05,402l.079.079.034.045a.969.969,0,0,1,.079.153.685.685,0,0,1,.028.1.323.323,0,0,1,0,.074v.368a.623.623,0,0,1-.283.493l-44.019,25.414a.566.566,0,0,1-.289.068v-1.02a.606.606,0,0,0,.289-.068l44.019-25.414C334.118,402.215,334.141,402.1,334.05,402Z" transform="translate(-248.664 -378.476)" fill="#e0e0e0"/>
        <path id="Path_3192" data-name="Path 3192" d="M299.084,378.07l5.354,3.048-5.354,3.088-5.354-3.042Z" transform="translate(-250.419 -368.103)" fill="#fafafa"/>
        <path id="Path_3193" data-name="Path 3193" d="M298.936,378.159l-4.912,2.833,4.912,2.793,4.912-2.833Zm-5.541,2.946a.233.233,0,0,1,0-.108.221.221,0,0,1,.108-.193l5.354-3.088a.21.21,0,0,1,.215,0l5.354,3.042a.227.227,0,0,1,0,.385l-5.354,3.088a.21.21,0,0,1-.215,0l-5.354-3.048A.182.182,0,0,1,293.4,381.105Z" transform="translate(-250.271 -367.937)" fill="#455a64"/>
        <path id="Path_3194" data-name="Path 3194" d="M316.582,386.3l-.385.221a.232.232,0,0,0,0,.442l18.86,10.889a.85.85,0,0,0,.759,0l.391-.227a.232.232,0,0,0,0-.436L317.347,386.3a.827.827,0,0,0-.765,0Z" transform="translate(-260.089 -371.629)" fill="#e0e0e0"/>
        <path id="Path_3195" data-name="Path 3195" d="M312.475,388.682l-.385.221c-.21.125-.21.323,0,.442l18.854,10.889a.867.867,0,0,0,.765,0l.385-.227a.232.232,0,0,0,0-.436l-18.86-10.889A.85.85,0,0,0,312.475,388.682Z" transform="translate(-258.31 -372.664)" fill="#e0e0e0"/>
        <path id="Path_3196" data-name="Path 3196" d="M308.368,391.048l-.391.221a.232.232,0,0,0,0,.442l18.86,10.889a.85.85,0,0,0,.759,0l.391-.227a.232.232,0,0,0,0-.436l-18.86-10.889a.816.816,0,0,0-.759,0Z" transform="translate(-256.525 -373.688)" fill="#e0e0e0"/>
        <path id="Path_3197" data-name="Path 3197" d="M300.77,383.708l.414-1.666,1.241-.1-.232.946,6.827-.561-.176.714Z" transform="translate(-253.471 -369.781)" fill="#f7a4a4"/>
        <path id="Path_3198" data-name="Path 3198" d="M281.768,388.07l5.354,3.048-5.354,3.088-5.348-3.048Z" transform="translate(-242.916 -372.438)" fill="#fafafa"/>
        <path id="Path_3199" data-name="Path 3199" d="M281.6,388.159l-4.906,2.833,4.906,2.793,4.912-2.833Zm-5.541,2.946a.232.232,0,0,1-.028-.108.221.221,0,0,1,.108-.193l5.354-3.088a.209.209,0,0,1,.215,0l5.354,3.042a.227.227,0,0,1,.113.193.209.209,0,0,1-.113.187l-5.348,3.093a.221.221,0,0,1-.221,0l-5.348-3.048A.226.226,0,0,1,276.058,391.105Z" transform="translate(-242.747 -372.272)" fill="#455a64"/>
        <path id="Path_3200" data-name="Path 3200" d="M299.282,396.3l-.385.221c-.215.119-.215.317,0,.442l18.854,10.889a.85.85,0,0,0,.759,0l.391-.227a.232.232,0,0,0,0-.436L300.018,396.3A.816.816,0,0,0,299.282,396.3Z" transform="translate(-252.589 -375.969)" fill="#e0e0e0"/>
        <path id="Path_3201" data-name="Path 3201" d="M295.152,398.678l-.385.221a.232.232,0,0,0,0,.442l18.86,10.889a.85.85,0,0,0,.759,0l.385-.227c.215-.119.215-.317,0-.436l-18.854-10.889a.827.827,0,0,0-.765,0Z" transform="translate(-250.799 -376.996)" fill="#e0e0e0"/>
        <path id="Path_3202" data-name="Path 3202" d="M291.052,401.048l-.385.221a.232.232,0,0,0,0,.442L309.521,412.6a.867.867,0,0,0,.765,0l.385-.227a.232.232,0,0,0,0-.436l-18.86-10.889a.816.816,0,0,0-.759,0Z" transform="translate(-249.022 -378.023)" fill="#e0e0e0"/>
        <path id="Path_3203" data-name="Path 3203" d="M283.46,393.708l.414-1.666,1.241-.1-.238.946,6.832-.561-.181.714Z" transform="translate(-245.967 -374.116)" fill="#f7a4a4"/>
        <path id="Path_3204" data-name="Path 3204" d="M264.285,398.156l-4.912,2.833,4.912,2.793,4.906-2.833Zm-5.541,2.946a.2.2,0,0,1-.034-.113.215.215,0,0,1,.113-.187l5.348-3.093a.232.232,0,0,1,.221,0l5.348,3.048a.227.227,0,0,1,.113.193.221.221,0,0,1-.108.187l-5.354,3.088a.232.232,0,0,1-.221,0l-5.348-3.048a.215.215,0,0,1-.079-.074Z" transform="translate(-235.239 -376.604)" fill="#455a64"/>
        <path id="Path_3205" data-name="Path 3205" d="M281.969,406.29l-.385.227a.232.232,0,0,0,0,.436l18.865,10.889a.816.816,0,0,0,.759,0l.385-.221a.232.232,0,0,0,0-.442l-18.86-10.889a.85.85,0,0,0-.765,0Z" transform="translate(-245.088 -380.297)" fill="#e0e0e0"/>
        <path id="Path_3206" data-name="Path 3206" d="M277.844,408.678l-.391.221a.232.232,0,0,0,0,.436l18.86,10.894a.85.85,0,0,0,.759,0l.391-.227a.232.232,0,0,0,0-.436L278.6,408.678A.816.816,0,0,0,277.844,408.678Z" transform="translate(-243.298 -381.331)" fill="#e0e0e0"/>
        <path id="Path_3207" data-name="Path 3207" d="M273.739,411.042l-.385.227a.232.232,0,0,0,0,.436l18.86,10.889a.816.816,0,0,0,.759,0l.391-.221a.232.232,0,0,0,0-.442L274.5,411.042a.867.867,0,0,0-.765,0Z" transform="translate(-241.52 -382.357)" fill="#e0e0e0"/>
        <path id="Path_3208" data-name="Path 3208" d="M265.91,404.108l.414-1.666,1.241-.1-.232.952,6.827-.566-.176.72Z" transform="translate(-238.36 -378.624)" fill="#f7a4a4"/>
        <path id="Path_3209" data-name="Path 3209" d="M246.985,408.149l-4.912,2.833,4.912,2.793,4.912-2.833Zm-5.541,2.946a.215.215,0,0,1,0-.108.221.221,0,0,1,.108-.193l5.354-3.088a.209.209,0,0,1,.215,0l5.354,3.048a.21.21,0,0,1,.108.187.221.221,0,0,1-.108.193l-5.354,3.088a.209.209,0,0,1-.215,0l-5.354-3.042A.226.226,0,0,1,241.445,411.1Z" transform="translate(-227.752 -380.937)" fill="#455a64"/>
        <path id="Path_3210" data-name="Path 3210" d="M264.654,416.292l-.391.227a.232.232,0,0,0,0,.436l18.86,10.889a.816.816,0,0,0,.759,0l.391-.221c.21-.125.21-.323,0-.442l-18.86-10.889A.85.85,0,0,0,264.654,416.292Z" transform="translate(-237.58 -384.633)" fill="#e0e0e0"/>
        <path id="Path_3211" data-name="Path 3211" d="M260.529,418.672l-.385.227a.232.232,0,0,0,0,.436L279,430.223a.827.827,0,0,0,.765,0l.385-.221a.232.232,0,0,0,0-.442l-18.86-10.889A.85.85,0,0,0,260.529,418.672Z" transform="translate(-235.794 -385.664)" fill="#e0e0e0"/>
        <path id="Path_3212" data-name="Path 3212" d="M256.424,421.042l-.391.227a.232.232,0,0,0,0,.436l18.86,10.889a.816.816,0,0,0,.759,0l.391-.221a.232.232,0,0,0,0-.442l-18.86-10.889a.85.85,0,0,0-.759,0Z" transform="translate(-234.013 -386.692)" fill="#e0e0e0"/>
        <path id="Path_3213" data-name="Path 3213" d="M248.37,414.518l.414-1.666,1.241-.1-.238.946,6.832-.561-.181.714Z" transform="translate(-230.757 -383.136)" fill="#f7a4a4"/>
        <path id="Path_3214" data-name="Path 3214" d="M331.855,382.079l-2.374-1.87a1.561,1.561,0,0,1-.136-.193l.068-.068.567-.538,1.841-1.7a.459.459,0,0,0,.176-.357v-.714a.754.754,0,0,0-.21-.476,1.869,1.869,0,0,1-.385-.912,1.473,1.473,0,0,1,.436-.838,1.915,1.915,0,0,0,.685-1.83,1.943,1.943,0,0,0-1.19-2.119,4.073,4.073,0,0,0-1.813-.436h-.079a4.1,4.1,0,0,0-2.731.969,3.586,3.586,0,0,1-1.773.674,5.1,5.1,0,0,1-1.632,0,3.241,3.241,0,0,0-.374-.04h-.04a.969.969,0,0,0-.753.244l-1.586,1.473-.567.538h-.028a1.45,1.45,0,0,1-1.337.193c-.872-.368-1.286-.567-2.708-1.218a3.2,3.2,0,0,0-1.309-.266h0a4.317,4.317,0,0,0-1.915.482v.714l19.63,11.33a1.7,1.7,0,0,0,.374-.98V383.5a1.971,1.971,0,0,0-.838-1.416Zm-4.051-9.9a2.674,2.674,0,0,1,2.566-.453,1.968,1.968,0,0,1,.272.119,1.416,1.416,0,0,1,.7.731,1.36,1.36,0,0,1-.38.567,2.266,2.266,0,0,1-.787.453,2.731,2.731,0,0,1-2.062-.125.669.669,0,0,1-.306-1.275Z" transform="translate(-258.638 -364.617)" fill="#37474f"/>
        <path id="Path_3215" data-name="Path 3215" d="M312.64,373.151l19.63,11.331c.533-.725.567-1.479-.436-2.4l-2.374-1.87s-.516-.566-.068-.974l.567-.538L331.8,377s.419-.295-.034-.833a1.948,1.948,0,0,1,.051-2.464,1.874,1.874,0,0,0-.5-3.235,4.074,4.074,0,0,0-1.813-.436h-.079a4.1,4.1,0,0,0-2.731.969,3.586,3.586,0,0,1-1.773.674,5.1,5.1,0,0,1-1.632,0,3.244,3.244,0,0,0-.374-.04h-.04a.969.969,0,0,0-.753.244l-1.586,1.473-.567.538h-.028a1.45,1.45,0,0,1-1.337.193c-.872-.368-1.286-.567-2.708-1.218a3.2,3.2,0,0,0-1.309-.266h0a4.318,4.318,0,0,0-1.943.555Zm17.71-2.136a1.978,1.978,0,0,1,.272.125,1.133,1.133,0,0,1,.317,1.988,2.265,2.265,0,0,1-.787.453,2.731,2.731,0,0,1-2.062-.125,1.133,1.133,0,0,1-.306-1.988,2.674,2.674,0,0,1,2.566-.453Z" transform="translate(-258.616 -364.617)" fill="#455a64"/>
      </g>
    </g>
    <g id="freepik--Character--inject-1--inject-43" transform="translate(14.959 107.021)">
      <g id="freepik--Clock--inject-1--inject-43">
        <path id="Path_3216" data-name="Path 3216" d="M70.849,364.229,63.53,378.511a3.79,3.79,0,1,0,6.685,3.563l7.365-14.361c.714-1.377-.215-3.275-2.079-4.232S71.557,362.852,70.849,364.229Z" transform="translate(-47.9 -255.471)" fill="#455a64"/>
        <path id="Path_3217" data-name="Path 3217" d="M176.794,307.117l14.282,7.319a3.79,3.79,0,0,0,3.563-6.685l-14.361-7.365c-1.377-.714-3.275.221-4.238,2.079S175.417,306.409,176.794,307.117Z" transform="translate(-96.654 -228.254)" fill="#455a64"/>
        <path id="Path_3218" data-name="Path 3218" d="M128.81,188.754h0l-.068-.034h0l-25.805-13.24h0l-.1-.045h0c-7.631-3.864-17.829-2.731-28.808,4.34-22.055,14.2-38.9,46.959-37.634,73.161.635,13.064,5.665,22.026,13.257,25.975h0l.068.034h0l25.816,13.24h0l.079.04h0c7.637,3.881,17.84,2.748,28.83-4.328,22.055-14.208,38.9-46.959,37.629-73.167C141.432,201.671,136.418,192.708,128.81,188.754Z" transform="translate(-36.331 -173.246)" fill="#fa8181"/>
        <path id="Path_3219" data-name="Path 3219" d="M74.975,324.742,49.753,311.8h0l-.074-.045c-7.6-3.966-12.616-12.928-13.251-25.969-.567-11.687,2.476-24.666,7.965-36.722l25.754,13.245c-5.478,12.056-8.5,25.035-7.931,36.722C62.829,311.808,67.644,320.663,74.975,324.742Z" transform="translate(-36.344 -206.11)" opacity="0.1"/>
        <ellipse id="Ellipse_330" data-name="Ellipse 330" cx="58.176" cy="33.589" rx="58.176" ry="33.589" transform="translate(9.323 103.579) rotate(-62.78)" fill="#fff" opacity="0.4"/>
        <path id="Path_3220" data-name="Path 3220" d="M112.072,302.589c-13.03.635-15.115-13.987-15.426-20.3-1.133-23.109,14.367-53.219,33.816-65.717,4.951-3.19,9.784-4.98,13.97-5.184,13.03-.634,15.121,13.987,15.426,20.3,1.133,23.108-14.361,53.219-33.816,65.745-4.951,3.19-9.784,4.98-13.965,5.184Z" transform="translate(-62.451 -189.77)" fill="#fafafa"/>
        <path id="Path_3221" data-name="Path 3221" d="M142.412,324.616a.621.621,0,0,1-.2-.028.6.6,0,0,1-.4-.736l7.846-26.445a.591.591,0,1,1,1.133.334l-7.835,26.445a.612.612,0,0,1-.544.431Z" transform="translate(-82.044 -226.883)" fill="#f7a4a4"/>
        <path id="Path_3222" data-name="Path 3222" d="M154.774,280.371a1.779,1.779,0,0,1-.5.533l-13.1,9.24-21.131-12.917a1.786,1.786,0,0,1,1.864-3.048l19.109,11.682,11.212-7.9a1.79,1.79,0,0,1,2.555,2.4Z" transform="translate(-72.249 -216.884)" fill="#37474f"/>
        <path id="Path_3223" data-name="Path 3223" d="M152.8,287.282c2.595-1.671,4.821-.527,4.974,2.555a10.69,10.69,0,0,1-4.43,8.605c-2.595,1.671-4.821.527-4.968-2.555A10.7,10.7,0,0,1,152.8,287.282Z" transform="translate(-84.896 -222.345)" fill="#f7a4a4"/>
      </g>
    </g>
    <g id="Work_time-amico_1_" data-name="Work time-amico (1)" transform="translate(-12.972 45.713)">
      <g id="freepik--Gears--inject-16--inject-50" transform="translate(0 0)">
        <g id="freepik--Gear--inject-16--inject-50" transform="translate(78.758 0)">
          <path id="Path_3274" data-name="Path 3274" d="M231.661,69.343c.181.595,3.008,2.765,3.133,3.4a.748.748,0,0,0,.946.612L238.5,72.6a.685.685,0,0,1,.5.04h0c-.142-.074-5.9-3.4-6.084-3.518a.657.657,0,0,0-.5-.045l-.77.21h0Z" transform="translate(-189.534 -53.565)" fill="#90caf9"/>
          <path id="Path_3275" data-name="Path 3275" d="M231.661,69.343c.181.595,3.008,2.765,3.133,3.4a.748.748,0,0,0,.946.612L238.5,72.6a.685.685,0,0,1,.5.04h0c-.142-.074-5.9-3.4-6.084-3.518a.657.657,0,0,0-.5-.045l-.77.21h0Z" transform="translate(-189.534 -53.565)" opacity="0.2"/>
          <path id="Path_3276" data-name="Path 3276" d="M222.738,54.252c.385.272,3.433,2.13,3.784,2.459a.912.912,0,0,0,1.218,0l2.7-2.459a.674.674,0,0,1,.827-.091h0l-6.118-3.524a.668.668,0,0,0-.793.113l-1.836,1.7-.2.567A1.167,1.167,0,0,0,222.738,54.252Z" transform="translate(-185.471 -45.549)" fill="#90caf9"/>
          <path id="Path_3277" data-name="Path 3277" d="M222.738,54.252c.385.272,3.433,2.13,3.784,2.459a.912.912,0,0,0,1.218,0l2.7-2.459a.674.674,0,0,1,.827-.091h0l-6.118-3.524a.668.668,0,0,0-.793.113l-1.836,1.7-.2.567A1.167,1.167,0,0,0,222.738,54.252Z" transform="translate(-185.471 -45.549)" opacity="0.2"/>
          <path id="Path_3278" data-name="Path 3278" d="M179.235,132.1l1.252-3.58a1.133,1.133,0,0,0-.419-1.252,10.49,10.49,0,0,1-1.133-.9.918.918,0,0,0-1.224,0l-3.037-1.66-1.541,3.886a.782.782,0,0,0,.351.952l6.084,3.524h0A.787.787,0,0,1,179.235,132.1Z" transform="translate(-164.147 -77.693)" fill="#90caf9"/>
          <path id="Path_3279" data-name="Path 3279" d="M179.235,132.1l1.252-3.58a1.133,1.133,0,0,0-.419-1.252,10.49,10.49,0,0,1-1.133-.9.918.918,0,0,0-1.224,0l-3.037-1.66-1.541,3.886a.782.782,0,0,0,.351.952l6.084,3.524h0A.787.787,0,0,1,179.235,132.1Z" transform="translate(-164.147 -77.693)" opacity="0.3"/>
          <path id="Path_3280" data-name="Path 3280" d="M197.34,136.534l-.227-2.833a.793.793,0,0,0-.906-.708,13.32,13.32,0,0,1-1.343.068h-.64a.935.935,0,0,0-.567.2.944.944,0,0,1,.159-.1l-2.566-.108a.646.646,0,0,0,.278.5c.153.1,5.943,3.444,6.113,3.541h.057A.612.612,0,0,1,197.34,136.534Z" transform="translate(-172.021 -81.28)" fill="#90caf9"/>
          <path id="Path_3281" data-name="Path 3281" d="M197.34,136.534l-.227-2.833a.793.793,0,0,0-.906-.708,13.32,13.32,0,0,1-1.343.068h-.64a.935.935,0,0,0-.567.2.944.944,0,0,1,.159-.1l-2.566-.108a.646.646,0,0,0,.278.5c.153.1,5.943,3.444,6.113,3.541h.057A.612.612,0,0,1,197.34,136.534Z" transform="translate(-172.021 -81.28)" opacity="0.3"/>
          <path id="Path_3282" data-name="Path 3282" d="M218.924,127.237l-1.309-1.666a.821.821,0,0,0-1.167-.125l-.368.283.051-.04,3.02,1.745h0a.725.725,0,0,1-.227-.2Z" transform="translate(-182.785 -77.931)" fill="#90caf9"/>
          <path id="Path_3283" data-name="Path 3283" d="M218.924,127.237l-1.309-1.666a.821.821,0,0,0-1.167-.125l-.368.283.051-.04,3.02,1.745h0a.725.725,0,0,1-.227-.2Z" transform="translate(-182.785 -77.931)" opacity="0.3"/>
          <path id="Path_3284" data-name="Path 3284" d="M238.871,97.215,236.22,95.68a.986.986,0,0,0,.533.612l2.119.923" transform="translate(-191.515 -65.11)" fill="#90caf9"/>
          <path id="Path_3285" data-name="Path 3285" d="M238.871,97.215,236.22,95.68a.986.986,0,0,0,.533.612l2.119.923" transform="translate(-191.515 -65.11)" opacity="0.3"/>
          <path id="Path_3286" data-name="Path 3286" d="M210.368,49.809c.419-.04.844-.062,1.263-.062h.691a1.235,1.235,0,0,0,1.059-.7L215,45.793a1.031,1.031,0,0,1,1.178-.516l2.787.816a.742.742,0,0,1,.266.136l-.068-.051-6.1-3.535a1.014,1.014,0,0,0-.181-.074l-2.793-.816a1.025,1.025,0,0,0-1.173.516L207.3,45.526a1.377,1.377,0,0,1-.618.6l2.787,2.929a.81.81,0,0,0,.9.753Z" transform="translate(-178.71 -41.719)" fill="#90caf9"/>
          <path id="Path_3287" data-name="Path 3287" d="M212.323,53.068a1.048,1.048,0,0,0,.623-.2l-6.084-3.524a1.908,1.908,0,0,1-.181.108l2.787,2.929a.81.81,0,0,0,.9.736c.419-.04.844-.062,1.263-.062C211.864,53.051,212.1,53.056,212.323,53.068Z" transform="translate(-178.71 -45.022)" opacity="0.1"/>
          <path id="Path_3288" data-name="Path 3288" d="M221.2,46.258l-.068-.051-6.1-3.535a1.015,1.015,0,0,0-.181-.074l-2.793-.816a1.014,1.014,0,0,0-.833.136l6.107,3.524a1.02,1.02,0,0,1,.838-.136l2.787.816A.742.742,0,0,1,221.2,46.258Z" transform="translate(-180.678 -41.731)" fill="#fafafa" opacity="0.5"/>
          <path id="Path_3289" data-name="Path 3289" d="M209.391,42.05a.952.952,0,0,0-.34.38l-1.615,3.258a1.354,1.354,0,0,1-.436.493l6.084,3.524a1.3,1.3,0,0,0,.436-.493l1.615-3.258a.929.929,0,0,1,.334-.374Z" transform="translate(-178.849 -41.862)" opacity="0.2"/>
          <path id="Path_3290" data-name="Path 3290" d="M168.635,122.538l-1.66-2.7a1.229,1.229,0,0,1,.1-1.354l2.464-2.912a1.7,1.7,0,0,0,.272-1.433,16.6,16.6,0,0,1-.476-1.881.753.753,0,0,0-.952-.606l-4.657-1.02a1.66,1.66,0,0,1-.278,1.416l-2.459,2.912a1.229,1.229,0,0,0-.1,1.354l1.66,2.7a.72.72,0,0,0,.272.266L168.9,122.8l.079.04a.731.731,0,0,1-.346-.3Z" transform="translate(-158.793 -71.59)" fill="#90caf9"/>
          <path id="Path_3291" data-name="Path 3291" d="M172.057,114.137a16.6,16.6,0,0,1-.476-1.881.753.753,0,0,0-.952-.606l-4.657-1.02a1.7,1.7,0,0,1-.062,1.037l6.084,3.524a1.7,1.7,0,0,0,.062-1.054Z" transform="translate(-161.037 -71.59)" opacity="0.2"/>
          <path id="Path_3292" data-name="Path 3292" d="M160.77,116.268l6.09,3.524a1.133,1.133,0,0,1,.232-.567l2.464-2.912a1.235,1.235,0,0,0,.21-.38l-6.084-3.524a1.247,1.247,0,0,1-.215.38l-2.459,2.912a1.133,1.133,0,0,0-.238.567Z" transform="translate(-158.809 -72.362)" opacity="0.3"/>
          <path id="Path_3293" data-name="Path 3293" d="M168.9,126.522l.079.04a.731.731,0,0,1-.346-.3l-1.66-2.7a1.178,1.178,0,0,1-.13-.816l-6.09-3.524a1.178,1.178,0,0,0,.136.816l1.66,2.7a.719.719,0,0,0,.272.266Z" transform="translate(-158.792 -75.314)" opacity="0.2"/>
          <path id="Path_3294" data-name="Path 3294" d="M163.394,82.266V78.08a1.45,1.45,0,0,1,.759-1.2l2.833-1.348a1.8,1.8,0,0,0,.889-1.19c.136-.827.317-1.66.533-2.493a1,1,0,0,0-.567-1.133l-2.039-.889a.85.85,0,0,1-.442-1.133l1.887-4.481a1.133,1.133,0,0,1,1.133-.64l2.266.368a1.292,1.292,0,0,0,1.235-.567c.476-.833.98-1.643,1.513-2.419a1.609,1.609,0,0,0,.125-1.445l-1.048-2.2a1.309,1.309,0,0,1,.221-1.365l3.235-3.365a.708.708,0,0,1,1.1.057l1.258,1.6a.821.821,0,0,0,1.167.13c.618-.487,1.246-.94,1.881-1.348.17-.113.334-.215.5-.317a1.581,1.581,0,0,0,.567-1.133l.221-2.974a1.428,1.428,0,0,1,.85-1.133l3.507-1.309a.64.64,0,0,1,.567.028h0c-.147-.085-5.92-3.433-6.09-3.524a.64.64,0,0,0-.567,0l-3.507,1.309a1.428,1.428,0,0,0-.85,1.133l-.221,2.974a1.6,1.6,0,0,1-.567,1.133c-.17.1-.34.2-.5.317a15.6,15.6,0,0,0-1.592,1.133l-2.957-1.7a.7.7,0,0,0-.855.153l-3.241,3.365a1.32,1.32,0,0,0-.221,1.365l1.048,2.2a1.592,1.592,0,0,1-.125,1.445c-.527.776-1.037,1.586-1.513,2.419a1.28,1.28,0,0,1-1.235.567l-2.232-.368a1.133,1.133,0,0,0-1.133.64L159.3,65.22a.861.861,0,0,0,.34,1.059l2.668,1.541a.986.986,0,0,1,0,.567c-.215.833-.4,1.666-.538,2.493a1.807,1.807,0,0,1-.884,1.19l-2.833,1.348a1.456,1.456,0,0,0-.742,1.127v4.187a.634.634,0,0,0,.289.567c.142.079,5.909,3.4,6.084,3.524h.04A.623.623,0,0,1,163.394,82.266Z" transform="translate(-157.308 -42.094)" fill="#90caf9"/>
          <path id="Path_3295" data-name="Path 3295" d="M183.705,57.166l-6.073-3.529h0a.7.7,0,0,0-.855.153l-3.241,3.365a1.241,1.241,0,0,0-.306.663l6.09,3.524a1.2,1.2,0,0,1,.306-.663l3.1-3.229a1.014,1.014,0,0,1,.974-.283Z" transform="translate(-164.21 -46.849)" fill="#fafafa" opacity="0.5"/>
          <path id="Path_3296" data-name="Path 3296" d="M202.559,46.133h0c-.147-.085-5.92-3.433-6.09-3.524a.64.64,0,0,0-.567,0L192.4,43.918a1.348,1.348,0,0,0-.476.334l6.09,3.524a1.331,1.331,0,0,1,.47-.334l3.507-1.309A.64.64,0,0,1,202.559,46.133Z" transform="translate(-172.312 -42.076)" fill="#fafafa" opacity="0.5"/>
          <path id="Path_3297" data-name="Path 3297" d="M191.385,45.51a1.428,1.428,0,0,0-.374.8l-.221,2.974a1.745,1.745,0,0,1-.13.533l6.09,3.524a1.739,1.739,0,0,0,.125-.533l.221-2.974a1.4,1.4,0,0,1,.38-.8Z" transform="translate(-171.766 -43.362)" opacity="0.2"/>
          <path id="Path_3298" data-name="Path 3298" d="M188.718,53.11a1.263,1.263,0,0,1-.442.606c-.17.1-.34.2-.5.317a15.6,15.6,0,0,0-1.592,1.133l3.139,1.813h0a.7.7,0,0,1,.221.193l1.269,1.609a.821.821,0,0,0,1.167.13c.617-.487,1.246-.94,1.881-1.348.17-.113.334-.215.5-.317a1.309,1.309,0,0,0,.448-.606Z" transform="translate(-169.824 -46.657)" opacity="0.1"/>
          <path id="Path_3299" data-name="Path 3299" d="M179.352,65.306a1.173,1.173,0,0,1-.085-.7l-6.09-3.524a1.269,1.269,0,0,0,.085.7l1.048,2.2a1.433,1.433,0,0,1,.119.567l6.084,3.524a1.433,1.433,0,0,0-.113-.567Z" transform="translate(-164.18 -50.111)" opacity="0.2"/>
          <path id="Path_3300" data-name="Path 3300" d="M173.409,68.092c-.527.776-1.037,1.586-1.513,2.419a1.246,1.246,0,0,1-.567.487l6.084,3.524a1.229,1.229,0,0,0,.567-.487c.476-.833.98-1.643,1.513-2.419a1.586,1.586,0,0,0,.238-.872h0l-6.1-3.524A1.586,1.586,0,0,1,173.409,68.092Z" transform="translate(-163.386 -52.773)" opacity="0.1"/>
          <path id="Path_3301" data-name="Path 3301" d="M167.875,73.792l-2.232-.368a1.133,1.133,0,0,0-.7.147l6.084,3.524a1.133,1.133,0,0,1,.7-.147l2.266.368a1.161,1.161,0,0,0,.668-.108l-6.084-3.524A1.173,1.173,0,0,1,167.875,73.792Z" transform="translate(-160.617 -55.459)" opacity="0.2"/>
          <path id="Path_3302" data-name="Path 3302" d="M163.1,73.69a1.059,1.059,0,0,0-.453.493l-1.887,4.481a.861.861,0,0,0,.34,1.059l2.668,1.541,3.337,1.926h0a.838.838,0,0,1-.266-1l1.887-4.481a1.088,1.088,0,0,1,.453-.493Z" transform="translate(-158.776 -55.578)" fill="#fafafa" opacity="0.5"/>
          <path id="Path_3303" data-name="Path 3303" d="M165.461,87.06a.985.985,0,0,1,0,.567c-.215.833-.4,1.666-.538,2.493a1.7,1.7,0,0,1-.323.7l6.084,3.524a1.7,1.7,0,0,0,.329-.7c.136-.827.317-1.66.533-2.493a1,1,0,0,0-.567-1.133l-2.039-.889a1.133,1.133,0,0,1-.176-.108h0Z" transform="translate(-160.469 -61.373)" opacity="0.2"/>
          <path id="Path_3304" data-name="Path 3304" d="M161.606,93.66a1.615,1.615,0,0,1-.567.487L158.207,95.5a1.428,1.428,0,0,0-.567.567l6.09,3.524a1.366,1.366,0,0,1,.567-.567l2.833-1.348a1.615,1.615,0,0,0,.567-.487Z" transform="translate(-157.452 -64.234)" opacity="0.1"/>
          <path id="Path_3305" data-name="Path 3305" d="M163.722,106.859a.623.623,0,0,1-.329-.567v-4.187a1.3,1.3,0,0,1,.176-.612l-6.09-3.524a1.28,1.28,0,0,0-.17.612v4.187a.635.635,0,0,0,.289.567c.142.079,5.909,3.4,6.084,3.524Z" transform="translate(-157.308 -66.102)" fill="#fafafa" opacity="0.5"/>
          <path id="Path_3306" data-name="Path 3306" d="M211.743,63.921a.877.877,0,0,0-.04-.13h0a.352.352,0,0,0-.068-.108h0a.6.6,0,0,0-.085-.085h0a.652.652,0,0,0-.567-.085l-2.765.753a.748.748,0,0,1-.946-.612,18.689,18.689,0,0,0-.453-1.847,1.569,1.569,0,0,1-.051-.567h0a1.637,1.637,0,0,1,0-.176v-.034l.034-.147a1.048,1.048,0,0,0,.068-.176l.045-.091.034-.068a1.53,1.53,0,0,1,.1-.142l2.5-2.963a1.026,1.026,0,0,0,.176-.306,1.258,1.258,0,0,0,.079-.567,1.094,1.094,0,0,0-.153-.5l-.838-1.428-.833-1.348h0a1,1,0,0,0-.091-.125h0a.675.675,0,0,0-.1-.085h0a.674.674,0,0,0-.827.091l-2.7,2.459a.912.912,0,0,1-1.218,0,11.172,11.172,0,0,0-1.133-.906,1.167,1.167,0,0,1-.419-1.258l.2-.567h0l.4-1.133.651-1.864a1.518,1.518,0,0,0,.04-.153v-.045a.685.685,0,0,0,0-.108.159.159,0,0,0,0-.051.289.289,0,0,0,0-.1.164.164,0,0,0,0-.051l-.034-.091a.171.171,0,0,1,0-.045.533.533,0,0,0-.068-.1h0l-.1-.108h-.034a.742.742,0,0,0-.266-.136l-2.85-.946a1.031,1.031,0,0,0-1.178.516l-1.615,3.258a1.235,1.235,0,0,1-1.059.7h-.691a8.579,8.579,0,0,0-1.263.062.81.81,0,0,1-.9-.736l-.108-1.377h0v-.068l-.1-1.337h0a.77.77,0,0,0-.034-.164v-.045a.094.094,0,0,0-.045-.1c-.045-.028,0-.028-.034-.045l-.074-.1-.045-.04-.068-.051a.64.64,0,0,0-.567-.028l-3.507,1.309a1.428,1.428,0,0,0-.85,1.133l-.221,2.974a1.581,1.581,0,0,1-.567,1.133c-.17.1-.334.2-.5.317-.635.408-1.263.861-1.881,1.348a.821.821,0,0,1-1.167-.13l-1.258-1.6a.708.708,0,0,0-1.1-.057l-3.235,3.365a1.309,1.309,0,0,0-.221,1.365l1.048,2.2a1.609,1.609,0,0,1-.125,1.445c-.533.776-1.037,1.586-1.513,2.419a1.292,1.292,0,0,1-1.235.567l-2.266-.368a1.133,1.133,0,0,0-1.133.64l-1.887,4.481a.85.85,0,0,0,.442,1.133l2.039.889a1,1,0,0,1,.567,1.133c-.215.833-.4,1.666-.533,2.493a1.8,1.8,0,0,1-.889,1.19l-2.833,1.348a1.45,1.45,0,0,0-.759,1.2v4.187a.623.623,0,0,0,.329.567h.329a.725.725,0,0,0,.153,0l.719-.193h0l1.977-.538a.753.753,0,0,1,.952.606A16.6,16.6,0,0,0,173,86.865a1.7,1.7,0,0,1-.272,1.433l-2.464,2.912a1.229,1.229,0,0,0-.1,1.354l1.66,2.7a.731.731,0,0,0,.346.3h0a.8.8,0,0,0,.125.034h.295l.1-.045h.034a.453.453,0,0,0,.119-.085l2.68-2.442a.918.918,0,0,1,1.224,0,10.49,10.49,0,0,0,1.133.9,1.133,1.133,0,0,1,.419,1.252l-1.252,3.58a.787.787,0,0,0,.363.957h0a.617.617,0,0,0,.142.057l1.394.408,1.4.408a.753.753,0,0,0,.17.034.849.849,0,0,0,.17,0,1.1,1.1,0,0,0,.629-.272.907.907,0,0,0,.2-.278l.816-1.649.816-1.649h0a1.348,1.348,0,0,1,.1-.17l.04-.051.091-.1.045-.051.108-.091.045-.034a.935.935,0,0,1,.567-.2h.64a13.317,13.317,0,0,0,1.371.051.793.793,0,0,1,.9.731l.227,2.833a.612.612,0,0,0,.357.567h.221a.613.613,0,0,0,.1,0h.051a.758.758,0,0,0,.153-.04l3.507-1.309a1.439,1.439,0,0,0,.312-.181,1.73,1.73,0,0,0,.266-.272,1.6,1.6,0,0,0,.1-.164,1.178,1.178,0,0,0,.17-.516l.227-3.071a2.321,2.321,0,0,1,.062-.346,1.864,1.864,0,0,1,.2-.47.89.89,0,0,1,.272-.3l.465-.289.442-.289.17-.119.261-.181.215-.159.2-.153c.085-.057.164-.119.244-.181l.368-.283a.821.821,0,0,1,1.167.125l1.309,1.666a.725.725,0,0,0,.238.2h.034l.1.04h.181a.493.493,0,0,0,.13,0h0a.4.4,0,0,0,.108-.034h.04l.091-.045h.04a.6.6,0,0,0,.113-.1l3.241-3.365a1.133,1.133,0,0,0,.261-.47,1.355,1.355,0,0,0,.062-.368,1.167,1.167,0,0,0-.1-.527l-1.093-2.3a1.133,1.133,0,0,1-.1-.346,1.8,1.8,0,0,1,0-.391,1.739,1.739,0,0,1,.079-.38,1.263,1.263,0,0,1,.159-.329c.255-.374.5-.759.748-1.133s.482-.782.714-1.184a1.286,1.286,0,0,1,1.059-.612.883.883,0,0,1,.176,0l2.328.385h.176a1.065,1.065,0,0,0,.5-.147.985.985,0,0,0,.215-.153.958.958,0,0,0,.176-.2,1.03,1.03,0,0,0,.085-.153l1.887-4.481a.85.85,0,0,0,0-.646.839.839,0,0,0-.448-.465l-2.119-.923a.986.986,0,0,1-.533-.612h0v-.04a.879.879,0,0,1,0-.119.159.159,0,0,1,0-.051.687.687,0,0,1,0-.108.159.159,0,0,1,0-.051.716.716,0,0,1,0-.153h0c.051-.2.1-.408.147-.606.1-.4.187-.81.266-1.212.04-.2.074-.4.108-.6a.265.265,0,0,1,.045-.176,1.858,1.858,0,0,1,.844-1.014l1.462-.691,1.467-.7a1.443,1.443,0,0,0,.753-1.2V64.068a1.191,1.191,0,0,0-.017-.147ZM198.52,78c-.164.334-.442.872-.618,1.2a20.961,20.961,0,0,1-6.719,7.557,9.886,9.886,0,0,1-5.32,1.773,6.1,6.1,0,0,1-4.419-1.8h0c-.091-.091-.176-.176-.255-.272h0a7.676,7.676,0,0,1-1.4-2.351.2.2,0,0,1,0-.051l-.119-.329-.034-.1-.091-.295-.034-.125-.079-.283-.034-.147a1.3,1.3,0,0,0-.062-.278l-.034-.153-.051-.283v-.164a2.652,2.652,0,0,0-.045-.289.515.515,0,0,1,0-.164,1.41,1.41,0,0,0-.028-.317v-.623a22.561,22.561,0,0,1,9.484-18.6,9.914,9.914,0,0,1,5.32-1.773h.516l.3.028h.108l.312.045h.074q.187.034.374.085h0c2.974.782,4.934,3.671,5.133,7.8A20.99,20.99,0,0,1,198.52,78Z" transform="translate(-161.973 -44.415)" fill="#90caf9"/>
          <path id="Path_3307" data-name="Path 3307" d="M210.019,77.51a10.152,10.152,0,0,0-1.53-5.155,6.147,6.147,0,0,0-3.6-2.646q-.187-.051-.374-.085h-.074l-.312-.045h-.108l-.3-.028H202.8a10.764,10.764,0,0,1,1.133,4.481,20.922,20.922,0,0,1-2.266,9.857c-.159.334-.436.872-.618,1.2a20.961,20.961,0,0,1-6.713,7.557,10.2,10.2,0,0,1-4.917,1.762,7.365,7.365,0,0,0,1,1.467l.255.272a6.107,6.107,0,0,0,4.425,1.8,9.914,9.914,0,0,0,5.32-1.773,20.962,20.962,0,0,0,6.719-7.557c.176-.329.453-.867.617-1.2A20.99,20.99,0,0,0,210.019,77.51Z" transform="translate(-171.228 -53.783)" fill="#90caf9"/>
          <path id="Path_3308" data-name="Path 3308" d="M210.019,77.51a10.152,10.152,0,0,0-1.53-5.155,6.147,6.147,0,0,0-3.6-2.646q-.187-.051-.374-.085h-.074l-.312-.045h-.108l-.3-.028H202.8a10.764,10.764,0,0,1,1.133,4.481,20.922,20.922,0,0,1-2.266,9.857c-.159.334-.436.872-.618,1.2a20.961,20.961,0,0,1-6.713,7.557,10.2,10.2,0,0,1-4.917,1.762,7.365,7.365,0,0,0,1,1.467l.255.272a6.107,6.107,0,0,0,4.425,1.8,9.914,9.914,0,0,0,5.32-1.773,20.962,20.962,0,0,0,6.719-7.557c.176-.329.453-.867.617-1.2A20.99,20.99,0,0,0,210.019,77.51Z" transform="translate(-171.228 -53.783)" opacity="0.35"/>
        </g>
        <g id="freepik--clock-gear--inject-16--inject-50" transform="translate(0 23.414)">
          <path id="Path_3309" data-name="Path 3309" d="M94.553,116.79c3.037,3.042,4.912,7.716,5.2,13.523.323,6.657-1.4,14.22-4.878,21.432-.351.731-.952,1.9-1.343,2.612-3.847,7.019-8.991,12.82-14.6,16.429a21.49,21.49,0,0,1-11.568,3.847,14.493,14.493,0,0,1-3.66-.459,13.262,13.262,0,0,0,9.631,3.9A21.49,21.49,0,0,0,84.9,174.224c5.609-3.614,10.764-9.416,14.6-16.429.385-.714.986-1.881,1.337-2.612,3.478-7.212,5.206-14.775,4.878-21.432C105.272,124.772,101.011,118.49,94.553,116.79Z" transform="translate(-37.973 -97.674)" fill="#90caf9"/>
          <path id="Path_3310" data-name="Path 3310" d="M94.553,116.79c3.037,3.042,4.912,7.716,5.2,13.523.323,6.657-1.4,14.22-4.878,21.432-.351.731-.952,1.9-1.343,2.612-3.847,7.019-8.991,12.82-14.6,16.429a21.49,21.49,0,0,1-11.568,3.847,14.493,14.493,0,0,1-3.66-.459,13.262,13.262,0,0,0,9.631,3.9A21.49,21.49,0,0,0,84.9,174.224c5.609-3.614,10.764-9.416,14.6-16.429.385-.714.986-1.881,1.337-2.612,3.478-7.212,5.206-14.775,4.878-21.432C105.272,124.772,101.011,118.49,94.553,116.79Z" transform="translate(-37.973 -97.674)" opacity="0.35"/>
          <g id="freepik--Clock--inject-16--inject-50" transform="translate(14.893 14.798)">
            <path id="Path_3311" data-name="Path 3311" d="M89.353,119.593h-.034l-6.271-3.631H83c-3.966-2.005-9.229-1.416-14.911,2.266-11.415,7.365-20.14,24.31-19.483,37.872.329,6.759,2.929,11.4,6.866,13.444H55.5l6.277,3.637h.045c3.966,2.011,9.234,1.422,14.922-2.238,11.415-7.365,20.14-24.31,19.477-37.872C95.885,126.255,93.291,121.638,89.353,119.593Z" transform="translate(-46.307 -111.621)" fill="#37474f"/>
            <path id="Path_3312" data-name="Path 3312" d="M61.476,189.957l-5.982-3.484h-.04c-3.932-2.051-6.532-6.691-6.861-13.444A42.269,42.269,0,0,1,52.712,154l6.294,3.637c-2.833,6.232-4.419,12.956-4.124,19.007C55.187,183.261,57.68,187.844,61.476,189.957Z" transform="translate(-46.303 -128.602)" fill="#263238"/>
            <ellipse id="Ellipse_331" data-name="Ellipse 331" cx="30.116" cy="17.387" rx="30.116" ry="17.387" transform="translate(0 53.563) rotate(-62.78)" fill="#455a64"/>
            <path id="Path_3313" data-name="Path 3313" d="M75.271,176.013c-6.73.323-7.824-7.246-7.982-10.515-.567-11.959,7.433-27.544,17.5-34.031a15.322,15.322,0,0,1,7.235-2.685c6.73-.323,7.824,7.246,7.982,10.515.567,11.959-7.433,27.544-17.506,34.031a15.283,15.283,0,0,1-7.229,2.685Z" transform="translate(-54.41 -117.667)" fill="#fafafa"/>
            <path id="Path_3314" data-name="Path 3314" d="M97.954,160.015a.681.681,0,0,1-.238-.04.725.725,0,0,1-.5-.691V141.977a.736.736,0,1,1,1.467,0v15.172l8.073-10.367a.731.731,0,0,1,1.133.9l-9.359,12.056A.731.731,0,0,1,97.954,160.015Z" transform="translate(-67.395 -123.043)" fill="#37474f"/>
            <path id="Path_3315" data-name="Path 3315" d="M90.972,186.067a.322.322,0,0,1-.1,0,.306.306,0,0,1-.21-.38l4.062-13.693a.312.312,0,0,1,.385-.2.306.306,0,0,1,.2.38l-4.056,13.693a.329.329,0,0,1-.283.2Z" transform="translate(-64.548 -136.308)" fill="#90caf9"/>
            <path id="Path_3316" data-name="Path 3316" d="M96.354,166.7c1.343-.867,2.493-.272,2.572,1.326a5.558,5.558,0,0,1-2.294,4.453c-1.343.867-2.493.272-2.572-1.326A5.541,5.541,0,0,1,96.354,166.7Z" transform="translate(-66.027 -133.933)" fill="#90caf9"/>
          </g>
          <path id="Path_3317" data-name="Path 3317" d="M105.122,117.048a.074.074,0,0,0,0-.034.923.923,0,0,0-.074-.221v-.04a.783.783,0,0,0-.113-.187h0a1.263,1.263,0,0,0-.153-.147h0a1.133,1.133,0,0,0-1-.153l-4.832,1.314a1.309,1.309,0,0,1-1.654-1.059,31.637,31.637,0,0,0-.8-3.229,2.833,2.833,0,0,1-.079-1.042h0a1.811,1.811,0,0,1,.045-.306.2.2,0,0,1,0-.062.811.811,0,0,1,.068-.255c.028-.079.028-.074.04-.113a1.8,1.8,0,0,1,.074-.193,1.386,1.386,0,0,1,.079-.159c0-.04.04-.085.062-.125a2.681,2.681,0,0,1,.176-.244l4.379-5.178a1.836,1.836,0,0,0,.306-.533,2.266,2.266,0,0,0,.136-.946,1.881,1.881,0,0,0-.266-.889l-1.45-2.362L98.59,98.477h0a1.49,1.49,0,0,0-.164-.21h0a1.523,1.523,0,0,0-.181-.153H98.2a1.133,1.133,0,0,0-1.445.159l-4.713,4.294a1.575,1.575,0,0,1-2.124-.04,21.2,21.2,0,0,0-1.932-1.581,2.028,2.028,0,0,1-.736-2.2l.351-1h0l.7-2,1.133-3.258a1.179,1.179,0,0,0,.062-.272s0-.057,0-.085v-.272a1.417,1.417,0,0,0-.028-.164v-.091a1.32,1.32,0,0,0-.062-.159l-.034-.079a1.2,1.2,0,0,0-.119-.176.142.142,0,0,0,0-.04,1.822,1.822,0,0,0-.181-.181l-.062-.045a1.348,1.348,0,0,0-.459-.232l-4.872-1.428a1.8,1.8,0,0,0-2.09.844l-2.833,5.7a2.187,2.187,0,0,1-1.87,1.2c-.4,0-.8-.034-1.2-.034-.736,0-1.479.034-2.215.1a1.394,1.394,0,0,1-1.569-1.28l-.193-2.4h0v-.119l-.187-2.34h0a1.535,1.535,0,0,0-.051-.289l-.04-.085a.838.838,0,0,0-.068-.164.431.431,0,0,0-.062-.079.657.657,0,0,0-.091-.119.9.9,0,0,0-.085-.068.51.51,0,0,0-.108-.085,1.133,1.133,0,0,0-.98-.057L63.9,92.3a2.487,2.487,0,0,0-1.479,1.972l-.385,5.2a2.782,2.782,0,0,1-1.008,1.989l-.878.567a36.76,36.76,0,0,0-3.286,2.357,1.439,1.439,0,0,1-2.039-.221l-2.2-2.8a1.241,1.241,0,0,0-1.921-.1l-5.665,5.886a2.266,2.266,0,0,0-.391,2.379l1.819,3.841a2.776,2.776,0,0,1-.215,2.521q-1.394,2.039-2.64,4.221a2.266,2.266,0,0,1-2.164,1.048l-3.9-.64a1.96,1.96,0,0,0-2.017,1.133l-3.3,7.835a1.484,1.484,0,0,0,.77,1.938l3.569,1.552a1.756,1.756,0,0,1,.98,1.989q-.567,2.192-.94,4.362a3.133,3.133,0,0,1-1.547,2.079l-4.951,2.351a2.544,2.544,0,0,0-1.326,2.1v7.319a1.093,1.093,0,0,0,.567,1.02l.119.034.136.04H29.7a.855.855,0,0,0,.17,0h.085a1.184,1.184,0,0,0,.272-.045l1.252-.34h0l3.456-.94a1.314,1.314,0,0,1,1.666,1.059,31.3,31.3,0,0,0,.827,3.286,2.923,2.923,0,0,1-.47,2.5l-4.306,5.1a2.158,2.158,0,0,0-.176,2.368l2.9,4.725a1.246,1.246,0,0,0,.6.516h0a1.052,1.052,0,0,0,.221.057h.062a.913.913,0,0,0,.176,0h.057a1.784,1.784,0,0,0,.227-.045h.045a1.244,1.244,0,0,0,.176-.085L37,172.4a1.8,1.8,0,0,0,.21-.153l4.679-4.266a1.6,1.6,0,0,1,2.136.034,20.534,20.534,0,0,0,1.949,1.569,2.023,2.023,0,0,1,.736,2.215l-2.192,6.232a1.371,1.371,0,0,0,.635,1.7h.034a1,1,0,0,0,.255.1l2.436.714,2.436.714a1.354,1.354,0,0,0,.295.057,1.381,1.381,0,0,0,.306,0,1.92,1.92,0,0,0,.567-.147,1.791,1.791,0,0,0,.51-.329,1.7,1.7,0,0,0,.363-.482l1.428-2.878,1.445-2.85h0a2.01,2.01,0,0,1,.181-.3l.062-.085.164-.187a.527.527,0,0,1,.079-.079l.187-.164.074-.057A1.7,1.7,0,0,1,57,173.4c.368,0,.742.028,1.133.028a23.227,23.227,0,0,0,2.343-.119,1.4,1.4,0,0,1,1.572,1.274l.391,4.963a1.065,1.065,0,0,0,.623.952l.091.04.147.028h.351a1.614,1.614,0,0,0,.272-.074l6.135-2.266a1.926,1.926,0,0,0,.567-.312,2.832,2.832,0,0,0,.465-.476c.062-.091.125-.187.181-.283a2.193,2.193,0,0,0,.295-.9l.4-5.371a3.779,3.779,0,0,1,.108-.606,3.434,3.434,0,0,1,.346-.816,1.535,1.535,0,0,1,.476-.521l.776-.544.77-.516.3-.2.453-.317.38-.278.357-.261.425-.323.646-.5a1.439,1.439,0,0,1,2.039.221L81.3,169.14a1.32,1.32,0,0,0,.419.357h.057l.164.062h.079l.17.028h.062a1.132,1.132,0,0,0,.238,0h.045l.187-.057.074-.028.159-.085.062-.045a1.134,1.134,0,0,0,.2-.17l5.665-5.886a2.039,2.039,0,0,0,.465-.816,2.482,2.482,0,0,0,.1-.646,1.983,1.983,0,0,0-.176-.918l-1.909-4.017a2.124,2.124,0,0,1-.176-.612,2.675,2.675,0,0,1,0-.674,2.833,2.833,0,0,1,.13-.668,2.062,2.062,0,0,1,.278-.567c.448-.657.884-1.326,1.309-2.011s.844-1.371,1.246-2.073a2.266,2.266,0,0,1,1.853-1.065,1.344,1.344,0,0,1,.306,0l4.073.663a1.748,1.748,0,0,0,.3,0,1.983,1.983,0,0,0,.889-.249,1.779,1.779,0,0,0,.374-.278,1.734,1.734,0,0,0,.306-.34,1.757,1.757,0,0,0,.147-.266l3.3-7.835a1.484,1.484,0,0,0-.776-1.938l-3.705-1.615a1.734,1.734,0,0,1-.923-1.071h0v-.068a1.228,1.228,0,0,1-.04-.2.569.569,0,0,1,0-.091c0-.068,0-.13,0-.2a.376.376,0,0,1,0-.079,1.5,1.5,0,0,1,.04-.272h0c.091-.357.181-.708.266-1.059.164-.708.317-1.411.459-2.113.068-.351.13-.7.193-1.054a2,2,0,0,1,.074-.306,3.223,3.223,0,0,1,1.479-1.773l2.555-1.212,2.555-1.212a2.561,2.561,0,0,0,1.326-2.1v-7.274a1.326,1.326,0,0,0-.079-.266ZM85.69,143.221c-.351.731-.952,1.9-1.337,2.612-3.852,7.019-9,12.82-14.6,16.429a21.49,21.49,0,0,1-11.568,3.847,13.262,13.262,0,0,1-9.631-3.9h0c-.187-.193-.374-.391-.567-.567h0a16.775,16.775,0,0,1-3.065-5.1.363.363,0,0,0-.045-.113q-.136-.351-.255-.714c-.028-.068-.051-.142-.074-.21l-.2-.646a1.213,1.213,0,0,0-.074-.272c-.057-.2-.113-.408-.164-.618a1.326,1.326,0,0,0-.079-.312l-.136-.6-.068-.346c-.04-.2-.074-.4-.108-.606a2.616,2.616,0,0,0-.062-.357c-.034-.21-.062-.414-.091-.629,0-.119-.034-.238-.045-.357,0-.227-.051-.459-.074-.691a1.2,1.2,0,0,0-.028-.317c0-.34-.057-.685-.074-1.031-.34-7.07,1.626-15.149,5.535-22.752s9.342-13.9,15.3-17.732A21.538,21.538,0,0,1,75.737,104.4h1.116a5.061,5.061,0,0,1,.657.062h.227l.68.108.159.034c.278.051.567.113.821.181h0c6.458,1.7,10.719,7.982,11.149,16.962C90.9,128.447,89.169,136.01,85.69,143.221Z" transform="translate(-22.839 -85.713)" fill="#90caf9"/>
          <path id="Path_3318" data-name="Path 3318" d="M148.207,131.273a31.636,31.636,0,0,1,.8,3.229,1.309,1.309,0,0,0,1.654,1.059l4.832-1.314a1.133,1.133,0,0,1,.872.074h0c-.238-.13-5.62-3.252-5.948-3.433a1.133,1.133,0,0,0-.878-.079l-1.348.368h0S148.2,131.239,148.207,131.273Z" transform="translate(-74.598 -103.728)" fill="#90caf9"/>
          <path id="Path_3319" data-name="Path 3319" d="M148.207,131.273a31.636,31.636,0,0,1,.8,3.229,1.309,1.309,0,0,0,1.654,1.059l4.832-1.314a1.133,1.133,0,0,1,.872.074h0c-.238-.13-5.62-3.252-5.948-3.433a1.133,1.133,0,0,0-.878-.079l-1.348.368h0S148.2,131.239,148.207,131.273Z" transform="translate(-74.598 -103.728)" opacity="0.2"/>
          <path id="Path_3320" data-name="Path 3320" d="M132.619,104.926a21.2,21.2,0,0,1,1.932,1.581,1.575,1.575,0,0,0,2.124.04l4.714-4.294a1.133,1.133,0,0,1,1.445-.159h-.045l-5.965-3.444a1.173,1.173,0,0,0-1.388.193l-3.2,2.918-.351,1a2.028,2.028,0,0,0,.736,2.17Z" transform="translate(-67.496 -89.748)" fill="#90caf9"/>
          <path id="Path_3321" data-name="Path 3321" d="M132.619,104.926a21.2,21.2,0,0,1,1.932,1.581,1.575,1.575,0,0,0,2.124.04l4.714-4.294a1.133,1.133,0,0,1,1.445-.159h-.045l-5.965-3.444a1.173,1.173,0,0,0-1.388.193l-3.2,2.918-.351,1a2.028,2.028,0,0,0,.736,2.17Z" transform="translate(-67.496 -89.748)" opacity="0.2"/>
          <path id="Path_3322" data-name="Path 3322" d="M51.939,238.027l2.192-6.232a2.023,2.023,0,0,0-.742-2.192,20.535,20.535,0,0,1-1.949-1.569A1.6,1.6,0,0,0,49.305,228l-1.479,1.348-1.841,5.28A1.377,1.377,0,0,0,46.6,236.3c.1.051,5.382,3.11,5.954,3.433h0a1.371,1.371,0,0,1-.612-1.705Z" transform="translate(-30.258 -145.711)" fill="#90caf9"/>
          <path id="Path_3323" data-name="Path 3323" d="M51.939,238.027l2.192-6.232a2.023,2.023,0,0,0-.742-2.192,20.535,20.535,0,0,1-1.949-1.569A1.6,1.6,0,0,0,49.305,228l-1.479,1.348-1.841,5.28A1.377,1.377,0,0,0,46.6,236.3c.1.051,5.382,3.11,5.954,3.433h0a1.371,1.371,0,0,1-.612-1.705Z" transform="translate(-30.258 -145.711)" opacity="0.3"/>
          <path id="Path_3324" data-name="Path 3324" d="M83.208,243.859l-.391-4.963a1.4,1.4,0,0,0-1.569-1.275,23.226,23.226,0,0,1-2.345.119c-.374,0-.748,0-1.133-.028a1.7,1.7,0,0,0-1.02.357,2.566,2.566,0,0,1,.283-.176l.2,2.527a1.133,1.133,0,0,0,.487.884c.266.176,5.7,3.3,5.994,3.467l.1.04A1.065,1.065,0,0,1,83.208,243.859Z" transform="translate(-43.63 -150.047)" fill="#90caf9"/>
          <path id="Path_3325" data-name="Path 3325" d="M83.208,243.859l-.391-4.963a1.4,1.4,0,0,0-1.569-1.275,23.226,23.226,0,0,1-2.345.119c-.374,0-.748,0-1.133-.028a1.7,1.7,0,0,0-1.02.357,2.566,2.566,0,0,1,.283-.176l.2,2.527a1.133,1.133,0,0,0,.487.884c.266.176,5.7,3.3,5.994,3.467l.1.04A1.065,1.065,0,0,1,83.208,243.859Z" transform="translate(-43.63 -150.047)" opacity="0.3"/>
          <path id="Path_3326" data-name="Path 3326" d="M117.711,227.65l-2.266-2.918a1.439,1.439,0,0,0-2.039-.221l-.646.5.091-.062,5.28,3.048h0a1.32,1.32,0,0,1-.419-.346Z" transform="translate(-59.24 -144.228)" fill="#90caf9"/>
          <path id="Path_3327" data-name="Path 3327" d="M117.711,227.65l-2.266-2.918a1.439,1.439,0,0,0-2.039-.221l-.646.5.091-.062,5.28,3.048h0a1.32,1.32,0,0,1-.419-.346Z" transform="translate(-59.24 -144.228)" opacity="0.3"/>
          <path id="Path_3328" data-name="Path 3328" d="M152.548,175.185,147.92,172.5a1.733,1.733,0,0,0,.923,1.071l3.705,1.615" transform="translate(-74.481 -121.823)" fill="#90caf9"/>
          <path id="Path_3329" data-name="Path 3329" d="M152.548,175.185,147.92,172.5a1.733,1.733,0,0,0,.923,1.071l3.705,1.615" transform="translate(-74.481 -121.823)" opacity="0.3"/>
          <path id="Path_3330" data-name="Path 3330" d="M106.322,94.438c.736-.068,1.479-.1,2.215-.1.4,0,.8,0,1.2.034a2.187,2.187,0,0,0,1.853-1.218l2.833-5.7a1.8,1.8,0,0,1,2.056-.9l4.872,1.428a1.348,1.348,0,0,1,.459.232l-.113-.085-5.982-3.456a1.433,1.433,0,0,0-.317-.13l-4.872-1.428a1.8,1.8,0,0,0-2.056.9l-2.833,5.7a2.368,2.368,0,0,1-1.076,1.042l.193,2.4a1.394,1.394,0,0,0,1.569,1.28Z" transform="translate(-55.685 -83.05)" fill="#90caf9"/>
          <path id="Path_3331" data-name="Path 3331" d="M109.738,100.1a1.841,1.841,0,0,0,1.088-.363L104.872,96.3a2.131,2.131,0,0,1-.312.181l.193,2.4a1.394,1.394,0,0,0,1.569,1.28c.736-.068,1.479-.1,2.215-.1C108.939,100.1,109.341,100.1,109.738,100.1Z" transform="translate(-55.685 -88.793)" opacity="0.1"/>
          <path id="Path_3332" data-name="Path 3332" d="M125.247,88.21l-.113-.085-5.982-3.456a1.434,1.434,0,0,0-.317-.13l-4.872-1.428a1.762,1.762,0,0,0-1.462.244l5.948,3.439a1.762,1.762,0,0,1,1.462-.244l4.872,1.428A1.349,1.349,0,0,1,125.247,88.21Z" transform="translate(-59.127 -83.048)" fill="#fafafa" opacity="0.5"/>
          <path id="Path_3333" data-name="Path 3333" d="M109.294,83.59a1.649,1.649,0,0,0-.567.657l-2.833,5.7a2.266,2.266,0,0,1-.765.861l5.954,3.433a2.266,2.266,0,0,0,.765-.855l2.833-5.7a1.7,1.7,0,0,1,.567-.652Z" transform="translate(-55.932 -83.283)" opacity="0.2"/>
          <path id="Path_3334" data-name="Path 3334" d="M24.242,151.092v-7.319a2.544,2.544,0,0,1,1.326-2.1l4.951-2.351a3.133,3.133,0,0,0,1.547-2.079q.374-2.17.94-4.362a1.756,1.756,0,0,0-.957-2l-3.569-1.552a1.484,1.484,0,0,1-.77-1.938l3.3-7.835a1.96,1.96,0,0,1,2.017-1.133l3.9.64a2.266,2.266,0,0,0,2.164-1.025q1.241-2.181,2.64-4.221a2.776,2.776,0,0,0,.215-2.521l-1.83-3.858a2.266,2.266,0,0,1,.391-2.379l5.665-5.886a1.241,1.241,0,0,1,1.921.1l2.2,2.8a1.439,1.439,0,0,0,2.039.221q1.615-1.275,3.286-2.357l.878-.567A2.782,2.782,0,0,0,57.5,97.38l.385-5.2a2.487,2.487,0,0,1,1.479-1.972L65.5,87.913a1.133,1.133,0,0,1,.98.057h0c-.266-.147-5.665-3.28-5.96-3.444a1.133,1.133,0,0,0-.957-.034l-6.13,2.266a2.476,2.476,0,0,0-1.479,1.972l-.4,5.229a2.759,2.759,0,0,1-1,1.989c-.295.176-.567.363-.878.567q-1.411.906-2.782,1.96s-5.008-2.9-5.167-2.98a1.229,1.229,0,0,0-1.5.261l-5.671,5.869A2.266,2.266,0,0,0,34.173,104L36,107.86a2.8,2.8,0,0,1-.215,2.521q-1.394,2.039-2.646,4.221a2.266,2.266,0,0,1-2.158,1.048l-3.9-.64a1.955,1.955,0,0,0-2.017,1.133l-3.3,7.835a1.5,1.5,0,0,0,.6,1.847l4.662,2.691a1.7,1.7,0,0,1,.04.952q-.567,2.192-.94,4.362a3.139,3.139,0,0,1-1.552,2.079l-4.951,2.357a2.521,2.521,0,0,0-1.32,2.09v7.319a1.133,1.133,0,0,0,.51.991l5.949,3.433.068.034a1.093,1.093,0,0,1-.584-1.042Z" transform="translate(-18.293 -83.635)" fill="#90caf9"/>
          <path id="Path_3335" data-name="Path 3335" d="M92.714,88h0c-.266-.147-5.665-3.28-5.96-3.444a1.133,1.133,0,0,0-.957-.034l-6.13,2.266a2.312,2.312,0,0,0-.827.567l5.937,3.461a2.266,2.266,0,0,1,.821-.567l6.135-2.294A1.133,1.133,0,0,1,92.714,88Z" transform="translate(-44.536 -83.648)" fill="#fafafa" opacity="0.5"/>
          <path id="Path_3336" data-name="Path 3336" d="M77.851,89.63a2.408,2.408,0,0,0-.652,1.394l-.368,5.2a3.133,3.133,0,0,1-.221.929l5.931,3.45a3.144,3.144,0,0,0,.227-.929l.385-5.2a2.419,2.419,0,0,1,.657-1.394Z" transform="translate(-43.569 -85.901)" opacity="0.2"/>
          <path id="Path_3337" data-name="Path 3337" d="M73.176,102.91a2.266,2.266,0,0,1-.782,1.059c-.295.176-.567.363-.878.567q-1.411.906-2.776,1.96l.816.476h0a1.28,1.28,0,0,1,.391.334l2.2,2.8a1.439,1.439,0,0,0,2.039.221q1.615-1.275,3.286-2.357l.878-.567a2.232,2.232,0,0,0,.782-1.042Z" transform="translate(-40.158 -91.658)" opacity="0.1"/>
          <path id="Path_3338" data-name="Path 3338" d="M59.662,107.287l-5.92-3.4h0a1.229,1.229,0,0,0-1.5.261l-5.654,5.858a2.125,2.125,0,0,0-.533,1.133l5.954,3.439a2.13,2.13,0,0,1,.567-1.133l5.665-5.886a1.235,1.235,0,0,1,1.416-.272Z" transform="translate(-30.327 -92.018)" fill="#fafafa" opacity="0.5"/>
          <path id="Path_3339" data-name="Path 3339" d="M52.1,121.507a2.1,2.1,0,0,1-.147-1.218L45.98,116.85a2.1,2.1,0,0,0,.17,1.218l1.83,3.858a2.379,2.379,0,0,1,.2,1l5.954,3.439a2.266,2.266,0,0,0-.2-1Z" transform="translate(-30.281 -97.701)" opacity="0.2"/>
          <path id="Path_3340" data-name="Path 3340" d="M46.376,129.094q-1.394,2.039-2.646,4.221a2.209,2.209,0,0,1-.98.861l5.954,3.439a2.221,2.221,0,0,0,.986-.861q1.241-2.181,2.64-4.221a2.725,2.725,0,0,0,.419-1.524h0l-5.954-3.439a2.725,2.725,0,0,1-.419,1.524Z" transform="translate(-28.892 -102.347)" opacity="0.1"/>
          <path id="Path_3341" data-name="Path 3341" d="M36.747,139.056l-3.9-.64a1.87,1.87,0,0,0-1.224.249l5.954,3.439a1.875,1.875,0,0,1,1.224-.249l3.9.64a2.1,2.1,0,0,0,1.178-.187l-5.954-3.439a2.1,2.1,0,0,1-1.178.187Z" transform="translate(-24.067 -107.041)" opacity="0.2"/>
          <path id="Path_3342" data-name="Path 3342" d="M28.4,138.87a1.875,1.875,0,0,0-.793.861l-3.3,7.835a1.5,1.5,0,0,0,.6,1.847l4.662,2.691,1.133.651h0a1.484,1.484,0,0,1-.459-1.745l3.3-7.835a1.875,1.875,0,0,1,.793-.861Z" transform="translate(-20.846 -107.246)" fill="#fafafa" opacity="0.5"/>
          <path id="Path_3343" data-name="Path 3343" d="M32.557,162.23a1.7,1.7,0,0,1,.04.952q-.567,2.192-.94,4.362a2.889,2.889,0,0,1-.567,1.224l5.954,3.439a2.889,2.889,0,0,0,.567-1.224q.374-2.17.94-4.362a1.756,1.756,0,0,0-.957-2l-3.569-1.552a1.524,1.524,0,0,1-.306-.187h0Z" transform="translate(-23.838 -117.372)" opacity="0.2"/>
          <path id="Path_3344" data-name="Path 3344" d="M25.767,173.77a2.8,2.8,0,0,1-.986.855l-4.951,2.357a2.408,2.408,0,0,0-1.02,1.025l5.954,3.439a2.464,2.464,0,0,1,1.025-1.031l4.951-2.351a2.833,2.833,0,0,0,.98-.855Z" transform="translate(-18.515 -122.374)" opacity="0.1"/>
          <path id="Path_3345" data-name="Path 3345" d="M24.81,194.093a1.093,1.093,0,0,1-.567-1.02v-7.319a2.328,2.328,0,0,1,.3-1.065L18.59,181.25a2.266,2.266,0,0,0-.3,1.065v7.32a1.133,1.133,0,0,0,.51.991l5.948,3.433Z" transform="translate(-18.288 -125.616)" fill="#fafafa" opacity="0.5"/>
          <path id="Path_3346" data-name="Path 3346" d="M33.4,220.748l-2.9-4.742a2.158,2.158,0,0,1,.176-2.368l4.306-5.1a2.923,2.923,0,0,0,.47-2.5,31.294,31.294,0,0,1-.827-3.286,1.314,1.314,0,0,0-1.666-1.059l-3.456.94a2.923,2.923,0,0,1-.482,2.47l-4.3,5.1a2.17,2.17,0,0,0-.181,2.368l2.906,4.725a1.3,1.3,0,0,0,.47.459c.431.238,5.767,3.331,5.943,3.433l.142.062A1.246,1.246,0,0,1,33.4,220.748Z" transform="translate(-20.88 -134.454)" fill="#90caf9"/>
          <path id="Path_3347" data-name="Path 3347" d="M39.366,206.075a31.3,31.3,0,0,1-.827-3.286,1.314,1.314,0,0,0-1.666-1.059l-3.456.94a3.014,3.014,0,0,1-.108,1.807l5.954,3.439A2.951,2.951,0,0,0,39.366,206.075Z" transform="translate(-24.8 -134.471)" opacity="0.2"/>
          <path id="Path_3348" data-name="Path 3348" d="M24.33,213.306l5.96,3.439a1.943,1.943,0,0,1,.408-.935l4.306-5.1a2.2,2.2,0,0,0,.368-.663l-5.954-3.439a2.1,2.1,0,0,1-.374.663l-4.3,5.1A2.005,2.005,0,0,0,24.33,213.306Z" transform="translate(-20.907 -136.609)" opacity="0.3"/>
          <path id="Path_3349" data-name="Path 3349" d="M33.853,228.467l.142.062a1.246,1.246,0,0,1-.6-.516l-2.9-4.742a2.068,2.068,0,0,1-.232-1.433L24.3,218.4a2.13,2.13,0,0,0,.232,1.433l2.906,4.725a1.3,1.3,0,0,0,.47.459C28.341,225.272,33.678,228.371,33.853,228.467Z" transform="translate(-20.879 -141.72)" opacity="0.2"/>
        </g>
      </g>
    </g>
    <rect id="Rectangle_3194" data-name="Rectangle 3194" width="310" height="262" transform="translate(-12.973 20.38)" fill="#fff" opacity="0.03"/>
  </g>
</svg>
