<svg xmlns="http://www.w3.org/2000/svg" width="270" height="187" viewBox="0 0 270 187">
  <g id="Group_3675" data-name="Group 3675" transform="translate(-770 -1440)">
    <path id="_24-hours-fill" data-name="24-hours-fill" d="M96.5,105.85a28.05,28.05,0,0,1,19.448,48.265L98.089,171.3H124.55V190H68.45V173.881l34.533-33.242A9.35,9.35,0,1,0,87.15,133.9H68.45A28.05,28.05,0,0,1,96.5,105.85Zm56.1,0v37.4h18.7v-37.4H190V190H171.3V161.95H133.9v-56.1ZM21.7,96.5a74.663,74.663,0,0,0,28.05,58.4v22.59A93.45,93.45,0,0,1,3,96.5ZM96.5,3a93.508,93.508,0,0,1,93.032,84.15H170.72A74.812,74.812,0,0,0,39.135,48.485L59.1,68.45H3V12.35L25.883,35.22A93.313,93.313,0,0,1,96.5,3Z" transform="translate(767 1437)" fill="#4c965e"/>
    <path id="number-7" d="M46.526,10.125H13.5V26.638h8.257V18.382H37.65L17.628,67.921h8.917L46.526,18.382Z" transform="translate(993.474 1509.547)" fill="#4c965e"/>
    <text id="_" data-name="*" transform="translate(969 1574)" fill="#4c965e" stroke="#4c965e" stroke-width="1" font-size="63" font-family="YuGothicUI-Bold, Yu Gothic UI" font-weight="700" letter-spacing="0.03em"><tspan x="0" y="0">*</tspan></text>
  </g>
</svg>
