<svg xmlns="http://www.w3.org/2000/svg" width="230" height="230" viewBox="0 0 230 230">
  <path id="Icon_metro-chart-dots" data-name="Icon metro-chart-dots" d="M31.321,203.178H232.57v28.75h-230v-230h28.75ZM67.258,188.8a21.562,21.562,0,1,1,0-43.125c.635,0,1.263.033,1.884.087l23.178-38.63a21.562,21.562,0,1,1,36.126,0l23.178,38.63q.94-.084,1.884-.087c.48,0,.954.021,1.426.052L193.2,78.769a21.562,21.562,0,1,1,17.81,9.409c-.481,0-.954-.021-1.426-.052l-38.264,66.961a21.564,21.564,0,1,1-35.874.384l-23.177-38.629c-.621.053-1.249.087-1.884.087s-1.263-.033-1.884-.087l-23.178,38.63A21.558,21.558,0,0,1,67.258,188.8Z" transform="translate(-2.571 -1.928)" fill="#4c7696"/>
</svg>
