<svg xmlns="http://www.w3.org/2000/svg" width="230" height="230" viewBox="0 0 230 230">
  <g id="trendsetters" transform="translate(-0.549 -0.701)">
    <path id="Path_2368" data-name="Path 2368" d="M68.818,25.808a35.617,35.617,0,0,0,.332-6.971C68.256,9.926,59.381.7,46.081.7S23.909,9.922,23,18.844a35.774,35.774,0,0,0,.332,6.967c-2.75,3.111-2.548,8.248-2.478,9.3a11.935,11.935,0,0,0,4.8,8.248l.234.151a21.384,21.384,0,0,0,3.794,8.4l-.038,3.447c-1.605.724-4.139,1.811-8.017,3.376C12.36,62.422,5.034,65.339,1.4,70.794c-1.319,1.968-3.521,5.264,14.777,98.889V225.8a5.087,5.087,0,0,0,10.166,0V169.227a4.685,4.685,0,0,0-.091-.905c-7.8-39.9-15.751-84.938-15.74-92.945,2.408-2.592,8.289-4.929,15.032-7.611,8.882-3.581,11.378-4.945,11.786-5.187a4.837,4.837,0,0,0,2.457-4.134l.091-8.322a4.035,4.035,0,0,0-1.867-3.856c-.387-.433-1.975-2.438-2.6-7.142a4.98,4.98,0,0,0-4.174-4.194,2.67,2.67,0,0,1-.227-.459,8.467,8.467,0,0,1,.091-1.69,4.844,4.844,0,0,0,2.722-4.969,59.552,59.552,0,0,1-.7-8.027c.394-3.863,4.67-9.3,12.955-9.3s12.564,5.435,12.948,9.287a57.665,57.665,0,0,1-.7,8.037,4.851,4.851,0,0,0,2.729,4.972,8.892,8.892,0,0,1,.1,1.589,2.461,2.461,0,0,1-.244.56,4.987,4.987,0,0,0-4.167,4.191c-.635,4.707-2.216,6.719-2.607,7.148a4.029,4.029,0,0,0-1.864,3.849l.084,8.322a5,5,0,0,0,5.085,4.842H57.5a4.986,4.986,0,0,0,5.029-4.939l-.063-6.438a21.45,21.45,0,0,0,3.787-8.392q.144-.088.283-.184a11.772,11.772,0,0,0,4.753-8.211c.073-1.066.262-6.2-2.474-9.308ZM229.7,70.8c-3.637-5.455-10.962-8.372-20.218-12.054q-4.053-1.617-8.038-3.386l-.038-3.447a21.439,21.439,0,0,0,3.79-8.4l.234-.154a11.885,11.885,0,0,0,4.8-8.225c.073-1.073.276-6.21-2.474-9.321a35.6,35.6,0,0,0,.332-6.981C207.184,9.922,198.309.705,185.015.705s-22.176,9.22-23.069,18.142a35.359,35.359,0,0,0,.335,6.964c-2.736,3.1-2.548,8.235-2.478,9.244a11.79,11.79,0,0,0,4.757,8.278l.279.184a21.492,21.492,0,0,0,3.794,8.392l-.07,6.438a4.987,4.987,0,0,0,5.036,4.935h.049a4.992,4.992,0,0,0,5.085-4.838l.084-8.322a4.029,4.029,0,0,0-1.864-3.849c-.387-.429-1.972-2.444-2.6-7.148a4.988,4.988,0,0,0-4.178-4.191,2.546,2.546,0,0,1-.22-.446,9.093,9.093,0,0,1,.091-1.7,4.857,4.857,0,0,0,2.729-4.972,58.813,58.813,0,0,1-.7-8.03c.387-3.859,4.663-9.3,12.948-9.3s12.564,5.442,12.958,9.291a58.356,58.356,0,0,1-.7,8.037,4.848,4.848,0,0,0,2.729,4.972,8.705,8.705,0,0,1,.1,1.559,2.527,2.527,0,0,1-.255.59,4.983,4.983,0,0,0-4.167,4.194c-.628,4.7-2.213,6.709-2.6,7.142a4.02,4.02,0,0,0-1.864,3.856l.087,8.318a4.857,4.857,0,0,0,2.457,4.137c.412.241,2.907,1.6,11.807,5.19,6.722,2.679,12.6,5.016,15.007,7.608.017,8.007-7.94,53.049-15.74,92.945a4.71,4.71,0,0,0-.087.905v56.576a5.087,5.087,0,0,0,10.166,0V169.68c18.3-93.622,16.1-96.918,14.78-98.883ZM140.06,164.339a4.992,4.992,0,0,0-5.085,4.888v56.58a5.1,5.1,0,0,0,10.166,0v-56.58A4.986,4.986,0,0,0,140.06,164.339Z" transform="translate(0 0.002)" fill="#b44cbb"/>
    <path id="Path_2369" data-name="Path 2369" d="M122.435,101.213a5.093,5.093,0,0,0-4.663,2.947c-1.358-19.463-2.946-30.692-4.726-33.361-3.019-4.53-9.7-7.014-17.447-9.891-1.86-.694-3.787-1.408-5.689-2.166q-4.052-1.616-8.034-3.386l-.035-3.447a21.424,21.424,0,0,0,3.787-8.392q.144-.09.283-.188a11.765,11.765,0,0,0,4.753-8.208c.073-1.073.262-6.206-2.471-9.311a35.658,35.658,0,0,0,.332-6.974C87.632,9.925,78.757.7,65.457.7S43.284,9.921,42.381,18.847a35.75,35.75,0,0,0,.332,6.964c-2.75,3.111-2.548,8.248-2.478,9.3a11.921,11.921,0,0,0,4.8,8.248l.234.151a21.384,21.384,0,0,0,3.794,8.4l-.035,3.447c-1.609.724-4.143,1.814-8.02,3.38-9.273,3.688-16.6,6.605-20.235,12.057-1.319,1.971-3.521,5.264,14.78,98.889V225.8a5.087,5.087,0,0,0,10.166,0V169.23a4.976,4.976,0,0,0-.091-.905c-7.8-39.9-15.757-84.938-15.74-92.945,2.4-2.592,8.285-4.929,15.028-7.611C53.8,64.188,56.3,62.823,56.7,62.582a4.837,4.837,0,0,0,2.457-4.134l.091-8.322a4.029,4.029,0,0,0-1.867-3.856c-.387-.433-1.975-2.438-2.6-7.142a4.98,4.98,0,0,0-4.171-4.194,2.671,2.671,0,0,1-.23-.459,8.468,8.468,0,0,1,.091-1.69A4.844,4.844,0,0,0,53.2,27.816a59.553,59.553,0,0,1-.7-8.027c.394-3.863,4.67-9.3,12.958-9.3S78.021,15.923,78.4,19.775a57.73,57.73,0,0,1-.7,8.037,4.851,4.851,0,0,0,2.733,4.972,9.23,9.23,0,0,1,.1,1.589,2.461,2.461,0,0,1-.244.56,4.987,4.987,0,0,0-4.167,4.191c-.635,4.707-2.216,6.719-2.607,7.148a4.026,4.026,0,0,0-1.86,3.849l.084,8.322A4.85,4.85,0,0,0,74.2,62.582c.408.238,2.9,1.606,11.81,5.2,2,.788,4,1.536,5.933,2.253,4.872,1.814,10.9,4.057,12.407,5.868,1.2,3.423,2.869,21.519,3.839,37.509L77.654,144.633c-.077.077-.126.168-.2.248H60.8V110.994H81.71a4.894,4.894,0,1,0,0-9.78h-26a4.989,4.989,0,0,0-5.081,4.888V149.77a4.989,4.989,0,0,0,5.081,4.888h66.722a4.989,4.989,0,0,0,5.081-4.888V106.1a4.989,4.989,0,0,0-5.081-4.888ZM91.37,144.881l25.715-26.307a3.549,3.549,0,0,0,.265-.335v26.642Z" transform="translate(48.247)" fill="#b44cbb"/>
    <path id="Path_2370" data-name="Path 2370" d="M41.057,38.583V26.737a5.1,5.1,0,0,0-10.166,0V38.583a5.094,5.094,0,0,0,10.166,0Z" transform="translate(75.553 50.279)" fill="#b44cbb"/>
  </g>
</svg>
