<svg xmlns="http://www.w3.org/2000/svg" width="102" height="95.899" viewBox="0 0 102 95.899">
  <g id="trends" transform="translate(-0.363 -0.217)">
    <path id="Path_2521" data-name="Path 2521" d="M36.123,25.743a2.062,2.062,0,0,0-2.824.351L3.305,60.753a2.449,2.449,0,0,0-.734,2.4,2.245,2.245,0,0,0,1.718,1.72,2.1,2.1,0,0,0,2.168-.959l28.8-33.137L53.833,44.361a2.062,2.062,0,0,0,2.825-.351L87.086,8.062V30.426a2.179,2.179,0,1,0,4.346,0V.569h-.108V.217H62.854A2.142,2.142,0,0,0,60.926,1.37a2.5,2.5,0,0,0,0,2.378A2.142,2.142,0,0,0,62.854,4.9h21.4L54.705,39.325,36.125,25.743Z" transform="translate(1.326)" fill="#265dad"/>
    <path id="Path_2522" data-name="Path 2522" d="M100.172,78.8H93.044V31.141a2.2,2.2,0,1,0-4.386,0V78.8H79.884V22.945a2.2,2.2,0,1,0-4.388,0V78.8H66.721V38.167a2.2,2.2,0,1,0-4.388,0V78.8H53.559V45.192a2.2,2.2,0,1,0-4.388,0V78.8H40.4V32.312a2.2,2.2,0,1,0-4.388,0V78.8H27.235V47.533a2.2,2.2,0,1,0-4.388,0V78.8H14.071V60.413a2.272,2.272,0,0,0-2.193-2.343,2.272,2.272,0,0,0-2.193,2.343V78.8H2.555a2.347,2.347,0,0,0,0,4.684h97.615a2.347,2.347,0,0,0,0-4.684Z" transform="translate(0 12.633)" fill="#265dad"/>
  </g>
</svg>
