<svg xmlns="http://www.w3.org/2000/svg" width="309.572" height="330" viewBox="0 0 309.572 330">
  <g id="Directions-bro" transform="translate(-35.373 -29.116)">
    <g id="freepik--background-simple--inject-34" transform="translate(35.373 29.116)">
      <path id="Path_2607" data-name="Path 2607" d="M65.105,131.9s-19.69,53.636,7.981,107.644,84.666,82.54,130.283,106.936,92.985,12.515,115.494-27.444-8.362-68.483-8.4-125.463,8.087-72.066-21.188-120.2S188.233,14.57,133.965,50.275,65.105,131.9,65.105,131.9Z" transform="translate(-38.321 -29.116)" fill="#fff" opacity="0.7"/>
      <path id="Path_2608" data-name="Path 2608" d="M98.508,348.019c16.668,18.557,57.588,11.763,75.308,0,57.531-38.186,158.377-101.737,162.94-193.812,1.942-39.139-30.771-59.685-44.445-65.719-32.777-14.474-68.8-18.825-104.377-20.5-37.128-1.751-76.982-.387-110.394,18.72C64.877,93.927,52.927,103.231,44.748,115.9A95.223,95.223,0,0,0,30.39,159.571c-2.048,24.956,4.315,49.978,13.941,72.878S66.8,276.557,78.578,298.3C86.262,312.493,84.482,332.376,98.508,348.019Z" transform="translate(-30.006 -38.887)" fill="#fce1d9"/>
      <path id="Path_2609" data-name="Path 2609" d="M98.508,348.019c16.668,18.557,57.588,11.763,75.308,0,57.531-38.186,158.377-101.737,162.94-193.812,1.942-39.139-30.771-59.685-44.445-65.719-32.777-14.474-68.8-18.825-104.377-20.5-37.128-1.751-76.982-.387-110.394,18.72C64.877,93.927,52.927,103.231,44.748,115.9A95.223,95.223,0,0,0,30.39,159.571c-2.048,24.956,4.315,49.978,13.941,72.878S66.8,276.557,78.578,298.3C86.262,312.493,84.482,332.376,98.508,348.019Z" transform="translate(-30.006 -38.887)" fill="#fff" opacity="0.7"/>
    </g>
    <g id="freepik--Buildings--inject-34" transform="translate(210.442 49.836)">
      <path id="Path_2610" data-name="Path 2610" d="M332.72,315.969c.2-64.333.2-135.848,0-199.749" transform="translate(-293.996 -72.052)" fill="none" stroke="#263238" stroke-linecap="round" stroke-linejoin="round" stroke-width="1"/>
      <path id="Path_2611" data-name="Path 2611" d="M348.77,89.52c.162,71.127.162,133.7,0,204.807" transform="translate(-298.711 -65.242)" fill="none" stroke="#263238" stroke-linecap="round" stroke-linejoin="round" stroke-width="1"/>
      <path id="Path_2612" data-name="Path 2612" d="M332.72,86.445V60.372a13.039,13.039,0,0,1,5.65-1.065c4,0,5.65,1.065,5.65,1.065v7.256" transform="translate(-293.996 -57.534)" fill="none" stroke="#263238" stroke-linecap="round" stroke-linejoin="round" stroke-width="1"/>
      <path id="Path_2613" data-name="Path 2613" d="M407.633,59.3l2.331,1L395.012,73.707l-47.171,8.1-2.232-.7" transform="translate(-297.783 -57.534)" fill="none" stroke="#263238" stroke-linecap="round" stroke-linejoin="round" stroke-width="1"/>
      <path id="Path_2614" data-name="Path 2614" d="M345.61,67.538,391.241,56.93,407.633,58.7l-14.083,13.3-47.94,8.515Z" transform="translate(-297.783 -56.93)" fill="#4595f1" stroke="#263238" stroke-linecap="round" stroke-linejoin="round" stroke-width="1"/>
      <path id="Path_2615" data-name="Path 2615" d="M279.8,84.33l-1.914,1.207,11.6,14.593,27.12,7.956,2.9-.767" transform="translate(-277.89 -63.919)" fill="none" stroke="#263238" stroke-linecap="round" stroke-linejoin="round" stroke-width="1"/>
      <path id="Path_2616" data-name="Path 2616" d="M320.3,93.392,292.147,81.95,280.6,83.723l11.922,15,27.777,7.986Z" transform="translate(-278.686 -63.312)" fill="#82025c" stroke="#82025c" stroke-linecap="round" stroke-linejoin="round" stroke-width="1"/>
      <path id="Path_2627" data-name="Path 2627" d="M431.883,127.76l-69.093,8.418V307.016" transform="translate(-302.829 -74.996)" fill="none" stroke="#263238" stroke-linecap="round" stroke-linejoin="round" stroke-width="1"/>
      <path id="Path_2628" data-name="Path 2628" d="M440.61,157.21l-64.82,5.669v136.5" transform="translate(-306.648 -82.507)" fill="none" stroke="#263238" stroke-linecap="round" stroke-linejoin="round" stroke-width="1"/>
    </g>
    <g id="freepik--Map--inject-34" transform="translate(61.571 124.382)" opacity="0.61">
      <path id="Path_2630" data-name="Path 2630" d="M267.535,232.358l-6.483,26.7,11.3,69.406h-.085l-.275.06c-4.81,1.11-56.62,13-59.156,12.776-2.656-.231-44.282-6.988-44.282-6.988l-36.845,4.544-29.543-13.744-27.3,5.081L67.1,228.514s5.77-49.717,3.115-63.1c0,0,45.462,6.883,49.664,7.36S172.967,157,172.967,157l41.252,14.415,34.557-4.611,51.133,25.254S266.708,226.92,267.535,232.358Z" transform="translate(-67.1 -157)" fill="#fff" stroke="#263238" stroke-linecap="round" stroke-linejoin="round" stroke-width="1"/>
      <path id="Path_2631" data-name="Path 2631" d="M77.017,171.757l44.374,6.585,52.383-13.6,41.916,12.373,32.89-3.725,45.567,20.6s-25.934,33.895-26.929,36.063-9.308,30.982-9.308,30.982l10.975,66.076-53.174,12.344-44.727-7.546L135.537,335.2,105.4,321.558l-25.03,5.55L72.25,232.023S79.708,193.346,77.017,171.757Z" transform="translate(-68.613 -158.974)" fill="#98bafa" stroke="#263238" stroke-linecap="round" stroke-linejoin="round" stroke-width="1"/>
      <path id="Path_2632" data-name="Path 2632" d="M231.749,208.93l7.183-1.833,34.889,15.726c1.709-2.3,3.637-4.872,5.615-7.494l-37.82-16.858-7.967,2.354,4.993-24.635-6.6.745-6.06,26.177L206.4,208.892l-37.672,3.464-15.05,7.889.706-23.25,18.4-9.148,21.442,4.365,3.651-18.7-6.512-1.922-2.062,13.58-16.519-3.725L154.612,190.1l.586-18.787-8.786,2.25v50.448l-22.325,11.7v-56.34l-2.543.656-5.565-.827.953,19.279h-15.1L77.658,178.529c.155,2.875.177,5.96.106,9.1l21.477,18.959H117.35l.706,14.377-.664,5.96L72.87,238.869l.233,2.719L117.06,229.9l-1.017,9.275L73.838,250.162l.777,9.133,22.36-6.235,2.076,28.1-20.6,22.989.805,9.4,7.26-8.1,1.61,21.641,2.076-.462-1.413-23.711,15.036-16.776,7.274-1.959,28.794-9.8-.636,4.41-15.99,52.451,6.151,2.786,8.4-28.613,12.4-2.421,24.917,11.368,11.561.782-1.963,20.732,3.079.514,1.342-21.089,29.006,1.959,20.955-3.181,2.67,21.037,5.4-1.251-2.606-20.635,21.336-3.241-1.066-6.436-45.412,6.354-18.363-1.7,2.613-26.073,15.954-9.193h4.944l35.765,3.822-1.257-7.636-33.5-3.345h-7.733l3.927-24.9ZM113.1,275.3l-12.148,3.8-1.61-26.721,18.716-5.215,27.911-15.2-4.6,32.226Zm39.395,20.359L139.9,298.3l5.226-17.715,7.9-52.437,15.912-8.664,6.18,26.431-2.309,22.006-6.935,33.4Zm57.694-24.211-10.961,5.475-4.033,30.736-18.363-1.7-6.321-2.674,7.063-33.172,2.74-22.967h12.649l21.11-3.725Zm4.908-33.381-21.188,4.6H176.873l-5.127-23.652,33.243-3.24,18.772-4.812Z" transform="translate(-68.795 -160.65)" fill="#fff" stroke="#263238" stroke-linecap="round" stroke-linejoin="round" stroke-width="1"/>
      <path id="Path_2633" data-name="Path 2633" d="M286.52,284.039l1.914-15.949,24.436,5.662-1.992,13.618Z" transform="translate(-131.554 -185.334)" fill="#fff" opacity="0.5"/>
      <path id="Path_2634" data-name="Path 2634" d="M307.96,262.086l4.979-14.646,18.4,7.323-4.223,15.145Z" transform="translate(-137.852 -180.067)" fill="#fff" opacity="0.5"/>
      <path id="Path_2635" data-name="Path 2635" d="M299.186,224.56h2.034l7.691,3.673-7.691,24.605-7.211-2.28-2.309-.536Z" transform="translate(-133.076 -174.232)" fill="#fff" opacity="0.5"/>
      <path id="Path_2636" data-name="Path 2636" d="M323,233.32l17.953,7.613-2.987,5.453-16.957-5.453Z" transform="translate(-141.685 -176.466)" fill="#fff" opacity="0.5"/>
      <path id="Path_2637" data-name="Path 2637" d="M307.96,197.909l3.482-16.888,5.735-.961,8.475,3.591-6,17.409-8.094-3.151Z" transform="translate(-137.852 -162.882)" fill="#fff" opacity="0.5"/>
      <path id="Path_2638" data-name="Path 2638" d="M329.83,207.374l3.743-9.714,25.185,12.1-4.986,7.941Z" transform="translate(-144.276 -167.371)" fill="#fff" opacity="0.5"/>
      <path id="Path_2639" data-name="Path 2639" d="M252,180.06l13.376,4.082-4.061,22.445H247.57Z" transform="translate(-120.112 -162.882)" fill="#fff" opacity="0.5"/>
      <path id="Path_2640" data-name="Path 2640" d="M276.17,185.758l9.972-1.788-3.658,19.912-9.7,2.652Z" transform="translate(-127.518 -163.879)" fill="#fff" opacity="0.5"/>
      <path id="Path_2641" data-name="Path 2641" d="M228.706,202.77,227.5,212.5l-21.746,1.05-13.073,7.107v-12.91l15.827-8.626Z" transform="translate(-103.989 -167.743)" fill="#fff" opacity="0.5"/>
      <path id="Path_2642" data-name="Path 2642" d="M193.638,172.668l15.707-4.358-1.215,9.714-15.41,6.354Z" transform="translate(-104 -159.885)" fill="#fff" opacity="0.5"/>
      <path id="Path_2643" data-name="Path 2643" d="M219.09,178.486l11.385,2.63,1.815-8.887L220.5,170.12Z" transform="translate(-111.747 -160.346)" fill="#fff" opacity="0.5"/>
      <path id="Path_2644" data-name="Path 2644" d="M149.42,183.651v14.258l16.456-4.738V180.06Z" transform="translate(-91.281 -162.882)" fill="#fff" opacity="0.5"/>
      <path id="Path_2645" data-name="Path 2645" d="M151.02,209.3v28.181l9.089-4.023-1.434-17.342,7.67-2.369V204.02Z" transform="translate(-91.751 -168.993)" fill="#fff" opacity="0.5"/>
      <path id="Path_2646" data-name="Path 2646" d="M111.99,223.08l1.25,18.147,11.964-2.905,1.921-5.662v-9.58Z" transform="translate(-80.286 -173.854)" fill="#fff" opacity="0.5"/>
      <path id="Path_2647" data-name="Path 2647" d="M83.629,204l15.785,12.888v8.939L81.63,227.272S83.876,211.643,83.629,204Z" transform="translate(-71.368 -168.988)" fill="#fff" opacity="0.5"/>
      <path id="Path_2648" data-name="Path 2648" d="M80.44,239.489l16.265-1.579v8.656L77.58,252.071Z" transform="translate(-70.178 -177.637)" fill="#fff" opacity="0.5"/>
      <path id="Path_2649" data-name="Path 2649" d="M111.99,183.97v12.306l13.214,1.05-.544-12.679Z" transform="translate(-80.286 -163.879)" fill="#fff" opacity="0.5"/>
      <path id="Path_2650" data-name="Path 2650" d="M189.347,248.95l11.349-5.58,3.411,20.4-17.028,3.159Z" transform="translate(-102.344 -179.029)" fill="#fff" opacity="0.5"/>
      <path id="Path_2651" data-name="Path 2651" d="M193.638,278.106l-.918,13.975,11.809-1.311V275Z" transform="translate(-104 -187.097)" fill="#fff" opacity="0.5"/>
      <path id="Path_2652" data-name="Path 2652" d="M241.34,235.762,239.8,254.1h6.42l14.28-2.488,8.228-22.117-15.679,4.8Z" transform="translate(-117.83 -175.489)" fill="#fff" opacity="0.5"/>
      <path id="Path_2653" data-name="Path 2653" d="M219.09,238.96v4.976l11.886-.358V237.91Z" transform="translate(-111.747 -177.637)" fill="#fff" opacity="0.5"/>
      <path id="Path_2654" data-name="Path 2654" d="M243.188,280.267l-1.208,14.713,15.672-2.9L259.672,275Z" transform="translate(-118.47 -187.097)" fill="#fff" opacity="0.5"/>
      <path id="Path_2655" data-name="Path 2655" d="M221.676,307.77l10.968.827-2.74,29.522-10.523-.343-3.941-1.5Z" transform="translate(-110.674 -195.455)" fill="#fff" opacity="0.5"/>
      <path id="Path_2656" data-name="Path 2656" d="M228.8,279.17l7.387,1.125-1.427,9.9H227.5Z" transform="translate(-114.217 -188.16)" fill="#fff" opacity="0.5"/>
      <path id="Path_2657" data-name="Path 2657" d="M312.89,316.01l14.21,1.453,3.242,18.057-17.452.38Z" transform="translate(-139.3 -197.557)" fill="#fff" opacity="0.5"/>
      <path id="Path_2658" data-name="Path 2658" d="M266.084,323.66l13.765-1.17,1.914,21.156H263.81Z" transform="translate(-124.883 -199.209)" fill="#fff" opacity="0.5"/>
      <path id="Path_2659" data-name="Path 2659" d="M321.01,366.486,323,376.155l9.725-1.669-1.744-10.057Z" transform="translate(-141.685 -209.907)" fill="#fff" opacity="0.5"/>
      <path id="Path_2660" data-name="Path 2660" d="M271.233,371.451l19.323-2.481.918,11.256-21.046,5.505-11.907-1.475,4.153-13.849Z" transform="translate(-123.329 -211.065)" fill="#fff" opacity="0.5"/>
      <path id="Path_2661" data-name="Path 2661" d="M134.493,327.1l15.714-3.039L149.148,335.5l-4.428,11.159-11.3,3.173Z" transform="translate(-86.581 -199.61)" fill="#fff" opacity="0.5"/>
      <path id="Path_2662" data-name="Path 2662" d="M115.53,281.973v9.059l12.1-1.9,6.476-2.63-.332-11.5-4.407,3.106Z" transform="translate(-81.326 -187.097)" fill="#fff" opacity="0.5"/>
      <path id="Path_2663" data-name="Path 2663" d="M79.86,292.552l15.961-4.142L97.375,305.8,82.106,308.97Z" transform="translate(-70.848 -190.517)" fill="#fff" opacity="0.5"/>
      <path id="Path_2664" data-name="Path 2664" d="M81.44,332.567l9.111-8.507,2.366,2.309L83.5,335.912Z" transform="translate(-71.312 -199.61)" fill="#fff" opacity="0.5"/>
      <path id="Path_2665" data-name="Path 2665" d="M84.81,366.81l4.456-1.11.805,9.483-4.414.678Z" transform="translate(-72.302 -210.231)" fill="#fff" opacity="0.5"/>
      <path id="Path_2666" data-name="Path 2666" d="M101.045,368.784l-.855-16.575,10.834-1.319v16.381Z" transform="translate(-76.82 -206.453)" fill="#fff" opacity="0.5"/>
      <ellipse id="Ellipse_327" data-name="Ellipse 327" cx="6.095" cy="6.429" rx="6.095" ry="6.429" transform="translate(86.382 111.592)" fill="#fff" opacity="0.5"/>
      <path id="Path_2667" data-name="Path 2667" d="M328.152,235.7l-6.483,26.7,11.3,69.406h-.085l-.275.06L273.46,344.645l15.375-109.3,20.538-65.227,51.133,25.254S327.326,230.267,328.152,235.7Z" transform="translate(-127.718 -160.346)" fill="rgba(0,0,0,0.7)" opacity="0.1"/>
      <path id="Path_2668" data-name="Path 2668" d="M241.073,171.438l-15.651,58.515-13.631,25.417-16.357,78.994-36.845,4.544,27.134-66.561,6.455-49.762,8.178-65.376Z" transform="translate(-93.975 -157.054)" fill="rgba(0,0,0,0.7)" opacity="0.1"/>
      <path id="Path_2669" data-name="Path 2669" d="M119.811,178.046l-1.123,54.381L103.221,330.8l-.784-.365-27.3,5.051L68,241.8l42.735-17.432,7.063-46.6Z" transform="translate(-67.364 -162.298)" fill="rgba(0,0,0,0.7)" opacity="0.1"/>
    </g>
    <g id="freepik--Directions--inject-34" transform="translate(90.495 126.51)">
      <path id="Path_2670" data-name="Path 2670" d="M243.6,215.958a.9.9,0,0,0-.911-.268l-21.449,5.833-36.492,2.905a.874.874,0,0,0-.36.1l-47.9,25.931.706-16.389V211.928a.973.973,0,0,0-.946-1h-9.647a1,1,0,0,0,0,2h8.659V234l-.763,18.08a1,1,0,0,0,.431.886.911.911,0,0,0,.939.052l49.2-26.617,36.386-2.9a.571.571,0,0,0,.162,0l19.93-5.423-8.581,32.033a.778.778,0,0,0,0,.1l-1.413,8.85h-.805a.284.284,0,0,0-.226.115.318.318,0,0,0-.056.258l1.194,3.494a.341.341,0,0,0,.253.263.323.323,0,0,0,.333-.128l2.232-3.4c.141-.209,0-.462-.3-.477h-.706l1.335-8.537,9.033-33.709a1.021,1.021,0,0,0-.24-.983Z" transform="translate(-113.226 -172.883)" fill="#98bafa"/>
      <path id="Path_2671" data-name="Path 2671" d="M243.6,215.958a.9.9,0,0,0-.911-.268l-21.449,5.833-36.492,2.905a.874.874,0,0,0-.36.1l-47.9,25.931.706-16.389V211.928a.973.973,0,0,0-.946-1h-9.647a1,1,0,0,0,0,2h8.659V234l-.763,18.08a1,1,0,0,0,.431.886.911.911,0,0,0,.939.052l49.2-26.617,36.386-2.9a.571.571,0,0,0,.162,0l19.93-5.423-8.581,32.033a.778.778,0,0,0,0,.1l-1.413,8.85h-.805a.284.284,0,0,0-.226.115.318.318,0,0,0-.056.258l1.194,3.494a.341.341,0,0,0,.253.263.323.323,0,0,0,.333-.128l2.232-3.4c.141-.209,0-.462-.3-.477h-.706l1.335-8.537,9.033-33.709a1.021,1.021,0,0,0-.24-.983Z" transform="translate(-113.226 -172.883)" fill="rgba(0,0,0,0.7)" opacity="0.6"/>
      <path id="Path_2672" data-name="Path 2672" d="M125.672,163.047h0a9.944,9.944,0,0,0-14.6,0h0a11.326,11.326,0,0,0,0,15.4l7.3,7.7,7.3-7.7A11.31,11.31,0,0,0,125.672,163.047Zm-4.238,10.869h0a4.083,4.083,0,0,1-5.987-.012,4.645,4.645,0,0,1,0-6.315,4.083,4.083,0,0,1,5.987-.012h0a4.644,4.644,0,0,1,0,6.339Z" transform="translate(-108.055 -159.857)" fill="#01345b"/>
      <path id="Path_2673" data-name="Path 2673" d="M112.34,180.88a13.5,13.5,0,0,0,3.4,4.522" transform="translate(-109.314 -165.219)" fill="none" stroke="#fff" stroke-linecap="round" stroke-linejoin="round" stroke-width="1"/>
      <path id="Path_2674" data-name="Path 2674" d="M114.324,164c-3.531,2.235-4.449,6.548-3.291,10.519" transform="translate(-108.791 -160.913)" fill="none" stroke="#fff" stroke-linecap="round" stroke-linejoin="round" stroke-width="1"/>
      <path id="Path_2675" data-name="Path 2675" d="M121.614,162.06a8.823,8.823,0,0,0-2.634.417" transform="translate(-111.264 -160.419)" fill="none" stroke="#fff" stroke-linecap="round" stroke-linejoin="round" stroke-width="1"/>
      <path id="Path_2676" data-name="Path 2676" d="M257.51,255.907h0a9.944,9.944,0,0,0-14.6,0h0a11.31,11.31,0,0,0,0,15.4l7.3,7.7,7.3-7.7A11.31,11.31,0,0,0,257.51,255.907Zm-4.294,10.869h0a4.083,4.083,0,0,1-5.987-.012,4.645,4.645,0,0,1,0-6.315,4.083,4.083,0,0,1,5.987-.012h0a4.644,4.644,0,0,1,0,6.339Z" transform="translate(-146.78 -183.541)" fill="#01345b"/>
      <path id="Path_2677" data-name="Path 2677" d="M244.14,273.74a13.506,13.506,0,0,0,3.4,4.529" transform="translate(-148.03 -188.903)" fill="none" stroke="#fff" stroke-linecap="round" stroke-linejoin="round" stroke-width="1"/>
      <path id="Path_2678" data-name="Path 2678" d="M246.124,256.85c-3.531,2.235-4.449,6.541-3.291,10.519" transform="translate(-147.506 -184.596)" fill="none" stroke="#fff" stroke-linecap="round" stroke-linejoin="round" stroke-width="1"/>
      <path id="Path_2679" data-name="Path 2679" d="M253.407,254.92a8.977,8.977,0,0,0-2.627.417" transform="translate(-149.98 -184.103)" fill="none" stroke="#fff" stroke-linecap="round" stroke-linejoin="round" stroke-width="1"/>
    </g>
  </g>
</svg>
