<svg xmlns="http://www.w3.org/2000/svg" width="28" height="25.2" viewBox="0 0 28 25.2">
  <path id="Icon_material-business-center" data-name="Icon material-business-center" d="M14.2,22.7V21.3H4.414L4.4,26.9a2.79,2.79,0,0,0,2.8,2.8H26.8a2.79,2.79,0,0,0,2.8-2.8V21.3H19.8v1.4Zm14-12.6H22.586V7.3l-2.8-2.8h-5.6l-2.8,2.8v2.8H5.8A2.808,2.808,0,0,0,3,12.9v4.2a2.79,2.79,0,0,0,2.8,2.8h8.4V17.1h5.6v2.8h8.4A2.808,2.808,0,0,0,31,17.1V12.9A2.808,2.808,0,0,0,28.2,10.1Zm-8.4,0H14.2V7.3h5.6Z" transform="translate(-3 -4.5)" fill="#01345b"/>
</svg>
