<svg xmlns="http://www.w3.org/2000/svg" width="25" height="24.306" viewBox="0 0 25 24.306">
  <path id="Icon_metro-calendar" data-name="Icon metro-calendar" d="M10.9,11.043h3.333v3.038H10.9Zm5,0h3.333v3.038H15.9Zm5,0h3.333v3.038H20.9Zm-15,9.115H9.237V23.2H5.9Zm5,0h3.333V23.2H10.9Zm5,0h3.333V23.2H15.9Zm-5-4.557h3.333v3.038H10.9Zm5,0h3.333v3.038H15.9Zm5,0h3.333v3.038H20.9Zm-15,0H9.237v3.038H5.9ZM24.237,1.928V3.447H20.9V1.928H9.237V3.447H5.9V1.928H2.571V26.234h25V1.928ZM25.9,24.714H4.237V8H25.9Z" transform="translate(-2.571 -1.928)" fill="#01345b"/>
</svg>
