<svg xmlns="http://www.w3.org/2000/svg" width="330" height="316.583" viewBox="0 0 330 316.583">
  <g id="Get_in_touch-amico" data-name="Get in touch-amico" transform="translate(0 0)">
    <g id="freepik--Floor--inject-125" transform="translate(0 142.522)">
      <ellipse id="freepik--floor--inject-125-2" data-name="freepik--floor--inject-125" cx="165" cy="87.03" rx="165" ry="87.03" fill="#f5f5f5"/>
    </g>
    <g id="freepik--Shadows--inject-125" transform="translate(10.549 196.054)">
      <path id="freepik--Shadow--inject-125" d="M438.459,307.472c11.431,6.6,11.431,17.294,0,23.893s-29.952,6.6-41.376,0-11.424-17.294,0-23.893S427.056,300.873,438.459,307.472Z" transform="translate(-388.515 -302.522)" fill="#e6e6e6"/>
      <ellipse id="freepik--shadow--inject-125-2" data-name="freepik--shadow--inject-125" cx="45.289" cy="26.144" rx="45.289" ry="26.144" transform="translate(28.962 29.481)" fill="#e0e0e0"/>
      <path id="freepik--shadow--inject-125-3" data-name="freepik--shadow--inject-125" d="M168.51,384.918l-4.629,2.672a5.856,5.856,0,0,1-5.288,0L56.541,328.681c-1.459-.842-1.459-2.209,0-3.051l4.636-2.672a5.793,5.793,0,0,1,5.281,0L168.51,381.867C169.961,382.709,169.961,384.076,168.51,384.918Z" transform="translate(122.497 -308.437)" fill="#e0e0e0"/>
      <path id="freepik--shadow--inject-125-4" data-name="freepik--shadow--inject-125" d="M190.559,396.719l-4.629,2.672a5.855,5.855,0,0,1-5.288,0l-87.093-50.1c-1.459-.842-1.459-2.209,0-3.051l4.629-2.679a5.856,5.856,0,0,1,5.288,0l87.093,50.107C192,394.51,192,395.878,190.559,396.719Z" transform="translate(74.5 -314.593)" fill="#e0e0e0"/>
    </g>
    <g id="freepik--Plants--inject-125" transform="translate(293.306 204.626)">
      <g id="freepik--plants--inject-125-2" data-name="freepik--plants--inject-125" transform="translate(0)">
        <path id="Path_2696" data-name="Path 2696" d="M30.914,375.053a85.132,85.132,0,0,1,.7-35.31c2.721-12.623,9.566-23.458,17.448-24.889,3.2-.582,6.48,1.276,7.293,3.226,2.23,5.365-1.865,10.253-3.773,12.693-1.4,1.823-14.636,14.783-15.744,34.5l-.659,11.8c-.1.61-.631.919-1.052.61Z" transform="translate(-29.397 -314.745)" fill="#00e1ff"/>
        <path id="Path_2697" data-name="Path 2697" d="M30.914,375.053a85.132,85.132,0,0,1,.7-35.31c2.721-12.623,9.566-23.458,17.448-24.889,3.2-.582,6.48,1.276,7.293,3.226,2.23,5.365-1.865,10.253-3.773,12.693-1.4,1.823-14.636,14.783-15.744,34.5l-.659,11.8c-.1.61-.631.919-1.052.61Z" transform="translate(-29.397 -314.745)" fill="#6f90ac" opacity="0.99"/>
        <path id="Path_2698" data-name="Path 2698" d="M38.392,372.7a.463.463,0,0,0,.245-.449c-.47-25.12,6.9-40.822,17.532-49.7a.533.533,0,0,0,.112-.638.3.3,0,0,0-.484-.133c-10.779,8.984-18.346,25.036-17.862,50.493a.407.407,0,0,0,.358.449Z" transform="translate(-34.708 -316.824)" fill="#fff"/>
        <path id="Path_2699" data-name="Path 2699" d="M30.2,388.328c1.178.835,1.823-.884,2.412-2.854a36.847,36.847,0,0,1,7.5-14.166c4.369-5.491,11.922-10.561,12.778-15.106.757-4.124-2.56-7.3-8.465-5.1-7.09,2.651-16.67,11.221-16.347,35.9Z" transform="translate(-24.472 -325.391)" fill="#6f90ac"/>
        <path id="Path_2700" data-name="Path 2700" d="M34.138,386.537a.449.449,0,0,0,.281-.358c3.345-19.04,13.914-28.486,18.8-30.359a.5.5,0,0,0,.259-.568c-.049-.238-.231-.379-.428-.3-5.414,2.062-15.905,11.627-19.328,31.067a.442.442,0,0,0,.266.526A.21.21,0,0,0,34.138,386.537Z" transform="translate(-28.912 -326.749)" fill="#fff"/>
      </g>
    </g>
    <g id="freepik--Table--inject-125" transform="translate(13.079 145.861)">
      <g id="freepik--table--inject-125-2" data-name="freepik--table--inject-125" transform="translate(0)">
        <g id="freepik--table--inject-125-3" data-name="freepik--table--inject-125" transform="translate(0 8.981)">
          <path id="Path_2701" data-name="Path 2701" d="M397.07,280.254a.75.75,0,0,0-.442-.61,2.349,2.349,0,0,0-2.1,0,.75.75,0,0,0-.435.61l5.33,31.467h0a.533.533,0,0,0,.309.421,1.648,1.648,0,0,0,1.494,0,.519.519,0,0,0,.309-.421h0Z" transform="translate(-349.453 -254.403)" fill="#455a64"/>
          <path id="Path_2702" data-name="Path 2702" d="M459.26,280.253a.75.75,0,0,1,.442-.61,2.335,2.335,0,0,1,2.1,0,.75.75,0,0,1,.442.61l-5.33,31.467h0a.533.533,0,0,1-.309.421,1.662,1.662,0,0,1-1.5,0,.547.547,0,0,1-.309-.421h0Z" transform="translate(-452.745 -254.402)" fill="#455a64"/>
          <path id="Path_2703" data-name="Path 2703" d="M427.89,283.633a.75.75,0,0,1,.442-.61,2.335,2.335,0,0,1,2.1,0,.75.75,0,0,1,.442.61l-.442,37.435h0a.533.533,0,0,1-.309.421,1.648,1.648,0,0,1-1.494,0,.519.519,0,0,1-.309-.421h0Z" transform="translate(-402.503 -255.412)" fill="#455a64"/>
          <path id="Path_2704" data-name="Path 2704" d="M391.9,259.244h0c0-3.962,2.595-7.925,7.833-10.947,10.47-6.052,27.463-6.052,37.933,0,5.239,3.023,7.84,7.013,7.833,10.947h0v2.1h0c-.063,3.913-2.686,7.812-7.861,10.8-10.477,6.045-27.463,6.045-37.933,0-5.176-2.987-7.8-6.887-7.861-10.8h0Z" transform="translate(-391.84 -243.758)" fill="#00e1ff"/>
          <path id="Path_2705" data-name="Path 2705" d="M391.9,259.244h0c0-3.962,2.595-7.925,7.833-10.947,10.47-6.052,27.463-6.052,37.933,0,5.239,3.023,7.84,7.013,7.833,10.947h0v2.1h0c-.063,3.913-2.686,7.812-7.861,10.8-10.477,6.045-27.463,6.045-37.933,0-5.176-2.987-7.8-6.887-7.861-10.8h0Z" transform="translate(-391.84 -243.758)" fill="#fff" opacity="0.85"/>
          <path id="Path_2706" data-name="Path 2706" d="M437.583,248.3c10.477,6.045,10.477,15.856,0,21.9s-27.463,6.052-37.933,0-10.477-15.856,0-21.9S427.134,242.246,437.583,248.3Z" transform="translate(-391.754 -243.759)" fill="#ff784f"/>
          <path id="Path_2707" data-name="Path 2707" d="M437.583,248.3c10.477,6.045,10.477,15.856,0,21.9s-27.463,6.052-37.933,0-10.477-15.856,0-21.9S427.134,242.246,437.583,248.3Z" transform="translate(-391.754 -243.759)" fill="#fff" opacity="0.6"/>
        </g>
        <g id="freepik--Pot--inject-125" transform="translate(18.281)">
          <g id="Group_3745" data-name="Group 3745" transform="translate(0.219 17.898)" opacity="0.05">
            <path id="Path_2708" data-name="Path 2708" d="M420.08,257.929c-3.338,1.929-3.338,5.056,0,7.013a13.284,13.284,0,0,0,12.1,0c3.338-1.929,3.345-5.056,0-7.013A13.284,13.284,0,0,0,420.08,257.929Z" transform="translate(-417.576 -256.472)"/>
          </g>
          <path id="Path_2709" data-name="Path 2709" d="M431.664,258.716c2.91-2.966,4.622-10.386,1.781-12.735h-14.44c-2.805,2.349-1.129,9.762,1.774,12.735l.084.077a.648.648,0,0,0,.1.1l.259.238.07.056.224.161a3.091,3.091,0,0,0,.372.245,9.594,9.594,0,0,0,8.675,0h0c.126-.077.252-.154.379-.245l.2-.154.084-.07a2.617,2.617,0,0,0,.252-.224l.119-.112Z" transform="translate(-417.566 -235.44)" fill="#ebebeb"/>
          <path id="Path_2710" data-name="Path 2710" d="M420.391,244.012c-3.3,1.908-3.3,4.993,0,6.894a13.177,13.177,0,0,0,11.922,0c3.289-1.9,3.3-4.986,0-6.894A13.156,13.156,0,0,0,420.391,244.012Z" transform="translate(-417.696 -234.426)" fill="#fafafa"/>
          <path id="Path_2711" data-name="Path 2711" d="M424.119,246.18c-2.006,1.157-2.006,3.03,0,4.208a8.023,8.023,0,0,0,7.258,0c2.006-1.157,2.006-3.03,0-4.208a8.023,8.023,0,0,0-7.258,0Z" transform="translate(-419.09 -235.241)" fill="#ebebeb"/>
          <path id="Path_2712" data-name="Path 2712" d="M431.508,249.01a8.023,8.023,0,0,0-7.258,0,3.3,3.3,0,0,0-1.2,1.1,3.184,3.184,0,0,0,1.2,1.1,8.023,8.023,0,0,0,7.258,0,3.184,3.184,0,0,0,1.2-1.1A3.3,3.3,0,0,0,431.508,249.01Z" transform="translate(-419.219 -236.086)" fill="#e0e0e0"/>
          <path id="Path_2713" data-name="Path 2713" d="M422.476,245.011a16.467,16.467,0,0,1-2.63-3.506c-1.213-2.146-1.4-5.021-.806-5.372s3.177,2.511,3.177,2.511a15.744,15.744,0,0,1-.266-3.661c.105-1.914.575-3.647,1.122-4s1.767,2.062,2.293,3.808.835,3.177.835,3.177a27.586,27.586,0,0,1,.947-4.018c.631-1.809,1.213-2.223,1.662-2.041s.743,1.024.87,3.436a24.27,24.27,0,0,1-.105,3.457s.9-.989,1.9-1.95,1.564-1.2,1.879-1,.4,1.837-1.3,4.909a16.97,16.97,0,0,1-3.2,4.208S426.494,246.5,422.476,245.011Z" transform="translate(-417.004 -230.951)" fill="#fe8400" opacity="0.81"/>
        </g>
      </g>
    </g>
    <g id="freepik--Device--inject-125" transform="translate(199.426 4.954)">
      <g id="freepik--Mobile--inject-125">
        <path id="Path_2714" data-name="Path 2714" d="M68.875,31.242l85.7,49.483a8.64,8.64,0,0,1,4.313,7.153V287.129c0,2.931-1.809,6.354-4.039,7.644s-6.1,1.143-8.64-.323L60.8,245.143a10.2,10.2,0,0,1-4.593-7.96V38.556a9.642,9.642,0,0,1,4.039-7.637C62.48,29.594,66.344,29.776,68.875,31.242Z" transform="translate(-56.203 -30.025)" fill="#76aed9"/>
        <path id="Path_2715" data-name="Path 2715" d="M68.875,31.242l85.7,49.483a8.64,8.64,0,0,1,4.313,7.153V287.129c0,2.931-1.809,6.354-4.039,7.644s-6.1,1.143-8.64-.323L60.8,245.143a10.2,10.2,0,0,1-4.593-7.96V38.556a9.642,9.642,0,0,1,4.039-7.637C62.48,29.594,66.344,29.776,68.875,31.242Z" transform="translate(-56.203 -30.025)" opacity="0.05"/>
        <path id="Path_2716" data-name="Path 2716" d="M56.22,317.94a9.488,9.488,0,0,0,7.532-.2c2.23-1.29,4.039-4.713,4.039-7.644V110.841a8.247,8.247,0,0,0-1.164-3.941l-7.413,4.208a8.949,8.949,0,0,1,2.1,5.351V313.851C61.36,317.358,59.13,319.02,56.22,317.94Z" transform="translate(34.885 -52.988)" fill="#00e1ff"/>
        <path id="Path_2717" data-name="Path 2717" d="M56.22,317.94a9.488,9.488,0,0,0,7.532-.2c2.23-1.29,4.039-4.713,4.039-7.644V110.841a8.247,8.247,0,0,0-1.164-3.941l-7.413,4.208a8.949,8.949,0,0,1,2.1,5.351V313.851C61.36,317.358,59.13,319.02,56.22,317.94Z" transform="translate(34.885 -52.988)" fill="#70a5ce"/>
        <path id="Path_2718" data-name="Path 2718" d="M157.582,88.722a8.983,8.983,0,0,1,4.053,7.013V293.127c0,3.955-2.805,5.61-6.234,3.6L69.983,247.41a10.2,10.2,0,0,1-4.593-7.96V40.8c0-2.917,2.069-4.11,4.593-2.651Z" transform="translate(-65.39 -32.265)" fill="#00e1ff"/>
        <path id="Path_2719" data-name="Path 2719" d="M157.582,88.722a8.983,8.983,0,0,1,4.053,7.013V293.127c0,3.955-2.805,5.61-6.234,3.6L69.983,247.41a10.2,10.2,0,0,1-4.593-7.96V40.8c0-2.917,2.069-4.11,4.593-2.651Z" transform="translate(-65.39 -32.265)" opacity="0.15"/>
        <path id="Path_2720" data-name="Path 2720" d="M154.483,107.362a9.657,9.657,0,0,1,4.369,7.567v177.16c0,2.805-1.957,3.913-4.369,2.518L73.792,248a9.692,9.692,0,0,1-4.362-7.567V63.292c0-2.805,1.964-3.906,4.369-2.518Z" transform="translate(-65.44 -39.031)" fill="#263238"/>
        <path id="Path_2721" data-name="Path 2721" d="M69.43,236.43V62.93l78.376,45.254a9.664,9.664,0,0,1,4.369,7.567v173.5L73.8,243.99a9.671,9.671,0,0,1-4.369-7.56Z" transform="translate(-58.763 -39.854)" fill="#fff" opacity="0.07"/>
        <path id="Path_2722" data-name="Path 2722" d="M136.472,84.824l-13.325-7.672c-.792-.456-1.438-.133-1.438.7a3.072,3.072,0,0,0,1.438,2.384l13.325,7.714c.792.456,1.4.133,1.4-.7A3.086,3.086,0,0,0,136.472,84.824Z" transform="translate(-81.126 -44.04)" fill="#263238"/>
        <path id="Path_2723" data-name="Path 2723" d="M155.656,69.3c-.743-.435-1.346-.084-1.346.778a2.973,2.973,0,0,0,1.346,2.328c.743.428,1.346.084,1.346-.778A2.973,2.973,0,0,0,155.656,69.3Z" transform="translate(-123.117 -41.701)" fill="#263238"/>
        <path id="Path_2724" data-name="Path 2724" d="M163.347,64.862c-.743-.428-1.346-.077-1.346.778a2.973,2.973,0,0,0,1.346,2.335c.743.428,1.346.084,1.346-.778a3,3,0,0,0-1.346-2.335Z" transform="translate(-136.199 -40.377)" fill="#263238"/>
        <path id="Path_2725" data-name="Path 2725" d="M101.876,100.352c-.743-.428-1.346-.084-1.346.778a3,3,0,0,0,1.346,2.335c.743.428,1.346.077,1.346-.778A2.973,2.973,0,0,0,101.876,100.352Z" transform="translate(-31.621 -50.978)" fill="#263238"/>
        <path id="Path_2726" data-name="Path 2726" d="M109.566,95.92c-.743-.435-1.346-.084-1.346.778a2.974,2.974,0,0,0,1.346,2.328c.743.435,1.346.084,1.346-.778A2.973,2.973,0,0,0,109.566,95.92Z" transform="translate(-44.704 -49.653)" fill="#263238"/>
      </g>
    </g>
    <g id="freepik--Icons--inject-125" transform="translate(91.953 113.643)">
      <g id="freepik--Mail--inject-125" transform="translate(0)">
        <g id="freepik--Box--inject-125">
          <path id="Path_2727" data-name="Path 2727" d="M318.66,188.695a3.352,3.352,0,0,1,1.515-2.616l1.227-.7a3.359,3.359,0,0,1,3.016,0l18.837,10.9a3.317,3.317,0,0,1,1.508,2.609v20.73a3.338,3.338,0,0,1-1.508,2.616l-1.227.7a3.359,3.359,0,0,1-3.016,0l-18.837-10.9a3.324,3.324,0,0,1-1.515-2.616Z" transform="translate(-318.66 -185.013)" fill="#00e1ff"/>
          <path id="Path_2728" data-name="Path 2728" d="M324.151,224.877a3.338,3.338,0,0,1-1.508,2.616l-1.227.7a3.366,3.366,0,0,1-2.756.119c.7.266,1.248-.133,1.248-.989V206.6a3.058,3.058,0,0,0-.442-1.487l4.208-2.455a3.106,3.106,0,0,1,.442,1.487Z" transform="translate(-298.049 -190.282)" opacity="0.2"/>
          <path id="Path_2729" data-name="Path 2729" d="M319.29,188.264c.175-.645.757-.849,1.452-.442l18.844,10.9a2.98,2.98,0,0,1,1.059,1.122l4.25-2.448a3.072,3.072,0,0,0-1.066-1.129l-18.837-10.9a3.359,3.359,0,0,0-3.016,0l-1.234.7a3.31,3.31,0,0,0-1.452,2.2Z" transform="translate(-319.234 -185.01)" fill="#fff" opacity="0.3"/>
        </g>
        <path id="freepik--mail--inject-125-2" data-name="freepik--mail--inject-125" d="M331.026,200.318a.407.407,0,0,1,.4,0l12.315,7.111a.393.393,0,0,1,.2.344v11.684a.407.407,0,0,1-.2.344.384.384,0,0,1-.4,0l-12.315-7.1a.407.407,0,0,1-.2-.344v-11.7A.407.407,0,0,1,331.026,200.318Zm6.48,10.4,5.232-2.924-10.414-6.01Zm1.809-.112,3.8,7.237v-9.39Zm-.7.393-1.066.61a.407.407,0,0,1-.2.049.386.386,0,0,1-.344-.2l-1.206-2.069-3.885,2.91,10.6,6.115Zm-3.212-2.3-3.808-6.557v9.411Z" transform="translate(-326.37 -189.567)" fill="#fafafa"/>
      </g>
      <g id="freepik--Chat--inject-125" transform="translate(31.6 18.221)">
        <g id="freepik--box--inject-125-2" data-name="freepik--box--inject-125">
          <path id="Path_2730" data-name="Path 2730" d="M273.61,214.675a3.317,3.317,0,0,1,1.508-2.609l1.227-.7a3.31,3.31,0,0,1,3.016,0L298.2,222.221a3.338,3.338,0,0,1,1.508,2.616V245.56a3.331,3.331,0,0,1-1.508,2.616l-1.227.7a3.31,3.31,0,0,1-3.016,0l-18.837-10.9a3.317,3.317,0,0,1-1.508-2.609Z" transform="translate(-273.61 -210.996)" fill="#00e1ff"/>
          <path id="Path_2731" data-name="Path 2731" d="M279.1,250.86a3.331,3.331,0,0,1-1.508,2.616l-1.227.7a3.338,3.338,0,0,1-2.756.119c.7.274,1.248-.126,1.248-.989V232.584a3.107,3.107,0,0,0-.442-1.487l4.243-2.448a3.057,3.057,0,0,1,.442,1.487Z" transform="translate(-253.006 -216.267)" opacity="0.2"/>
          <path id="Path_2732" data-name="Path 2732" d="M274.24,214.245c.175-.638.757-.842,1.452-.442l18.844,10.9a3.015,3.015,0,0,1,1.066,1.129l4.243-2.455a3.051,3.051,0,0,0-1.066-1.122l-18.83-10.9a3.331,3.331,0,0,0-3.023,0l-1.234.7a3.331,3.331,0,0,0-1.452,2.188Z" transform="translate(-274.191 -210.993)" fill="#fff" opacity="0.3"/>
        </g>
        <path id="freepik--chat--inject-125-2" data-name="freepik--chat--inject-125" d="M286.107,230.087l5.961,3.443a3.422,3.422,0,0,1,1.3,2.742v4.313c0,1.1-.582,1.662-1.3,1.248L288.905,240l-2.2,2.314a.189.189,0,0,1-.245,0,.555.555,0,0,1-.161-.154,1,1,0,0,1-.175-.666l.442-2.868-.456-.259a3.423,3.423,0,0,1-1.3-2.742v-4.313C284.81,230.234,285.392,229.673,286.107,230.087Zm-.624,6.164a1.634,1.634,0,0,0,.624,1.311l.87.5a.7.7,0,0,1,.267.344.969.969,0,0,1,.063.477l-.267,1.564,1.48-1.332a.182.182,0,0,1,.245,0l3.3,1.908c.344.2.624-.07.624-.6V235.9a1.634,1.634,0,0,0-.624-1.311l-5.961-3.443c-.344-.2-.624.07-.624.6Zm8.633,1.318.112.063a.6.6,0,0,1,.2.217l2.882,4.909-.168-2.805a.589.589,0,0,1,.049-.428.189.189,0,0,1,.273-.056l.813.477c.428.245.771-.091.771-.736V232.7a2.02,2.02,0,0,0-.771-1.62l-9.552-5.512c-.421-.245-.764.084-.764.7v3.57c0,.288-.154.428-.337.323a.884.884,0,0,1-.344-.7v-3.52c0-1.22.652-1.844,1.445-1.4l9.552,5.519a3.808,3.808,0,0,1,1.445,3.051v6.5c0,1.227-.645,1.851-1.445,1.4l-.358-.21.056,3.233c.042.238,0,.442-.126.5a.2.2,0,0,1-.2,0,.574.574,0,0,1-.2-.21l-3.338-5.7h0a.877.877,0,0,1-.337-.7c0-.323.147-.484.337-.358Z" transform="translate(-281.479 -214.997)" fill="#fafafa"/>
      </g>
      <g id="freepik--Phone--inject-125" transform="translate(63.25 36.488)">
        <g id="freepik--box--inject-125-3" data-name="freepik--box--inject-125">
          <path id="Path_2733" data-name="Path 2733" d="M228.47,240.722a3.338,3.338,0,0,1,1.515-2.616l1.227-.7a3.31,3.31,0,0,1,3.016,0L253.064,248.3a3.338,3.338,0,0,1,1.508,2.616v20.73a3.317,3.317,0,0,1-1.508,2.609l-1.227.7a3.31,3.31,0,0,1-3.016,0l-18.837-10.891a3.352,3.352,0,0,1-1.515-2.616Z" transform="translate(-228.47 -237.041)" fill="#00e1ff"/>
          <path id="Path_2734" data-name="Path 2734" d="M233.961,276.907a3.317,3.317,0,0,1-1.508,2.609l-1.227.7a3.366,3.366,0,0,1-2.756.126c.7.266,1.248-.133,1.248-1V258.631a3.058,3.058,0,0,0-.442-1.487l4.243-2.455a3.058,3.058,0,0,1,.442,1.487Z" transform="translate(-207.859 -242.312)" opacity="0.2"/>
          <path id="Path_2735" data-name="Path 2735" d="M229.1,240.287c.175-.638.757-.842,1.452-.442l18.844,10.9a2.946,2.946,0,0,1,1.059,1.129l4.25-2.455a3.107,3.107,0,0,0-1.066-1.122L234.8,237.4a3.359,3.359,0,0,0-3.016,0l-1.234.7A3.331,3.331,0,0,0,229.1,240.287Z" transform="translate(-229.044 -237.04)" fill="#fff" opacity="0.3"/>
        </g>
        <g id="freepik--phone--inject-125-2" data-name="freepik--phone--inject-125" transform="translate(4.862 13.296)">
          <path id="Path_2736" data-name="Path 2736" d="M244.432,270.671h.105c4.208-.358,7.125-3.2,8.766-8.451a6.038,6.038,0,0,0-1.487-5.7A1.4,1.4,0,0,0,250.8,256h0c-.919,0-2.462,2.567-2.5,3.584a3.6,3.6,0,0,0,.666,2.02,2.349,2.349,0,0,1,.309,2.153,3.032,3.032,0,0,1-2.5,2.356c-.309.035-.582-.259-.8-.884-.365-1.059-.813-1.683-1.4-1.908a1.4,1.4,0,0,0-1.192.091l-.189.091a9.567,9.567,0,0,0-.975.533h0l-.168.105c-.589.358-1.1.792-.813,2.216s1.4,3.612,2.44,4.208a.343.343,0,0,0,.133.049h.1a2.294,2.294,0,0,0,.526.056Zm6.368-13.907c.084,0,.238.105.414.295a5.232,5.232,0,0,1,1.311,4.909c-1.557,4.972-4.208,7.553-8.079,7.883a1.031,1.031,0,0,1-.351-.049h-.07a6.866,6.866,0,0,1-2.006-3.633c-.2-.989.056-1.143.449-1.4l.2-.119h0a8.17,8.17,0,0,1,.884-.484l.2-.1a.589.589,0,0,1,.533-.063c.224.091.568.414.919,1.4.442,1.283,1.143,1.48,1.641,1.4A3.8,3.8,0,0,0,250,263.918a3.114,3.114,0,0,0-.379-2.805,2.805,2.805,0,0,1-.554-1.571A6.1,6.1,0,0,1,250.8,256.764Z" transform="translate(-241.152 -256)" fill="#fafafa"/>
        </g>
      </g>
    </g>
    <g id="freepik--Window--inject-125" transform="translate(91.946 0)">
      <g id="freepik--window--inject-125-2" data-name="freepik--window--inject-125">
        <path id="Path_2737" data-name="Path 2737" d="M234.714,23.409l81.168,46.8a4.032,4.032,0,0,1,1.823,3.163v93.854a4.025,4.025,0,0,1-1.83,3.156l-1.143.652a4.061,4.061,0,0,1-3.654,0L229.91,124.157a4.039,4.039,0,0,1-1.83-3.163V27.2a4,4,0,0,1,1.837-3.156l1.136-.652a4.054,4.054,0,0,1,3.661.021Z" transform="translate(-228.073 -22.962)" fill="#e0e0e0"/>
        <path id="Path_2738" data-name="Path 2738" d="M234.93,122.523c0,1.606,1.129,2.63,2.532,3.436l79.765,46.061c1.4.8,2.525.154,2.525-1.459V78.32h0a5.021,5.021,0,0,0-2.511-4.355L237.462,27.9a1.69,1.69,0,0,0-2.532,1.459h0Z" transform="translate(-234.923 -24.371)" fill="#fafafa"/>
        <path id="Path_2739" data-name="Path 2739" d="M236.627,28.348h0a.982.982,0,0,0-.982.982v93.181c0,1.094.666,1.964,2.174,2.805L317.605,171.4a1.676,1.676,0,0,0,.778.252c.6,0,.7-.7.7-1.1V78.308a4.334,4.334,0,0,0-2.181-3.745L237.118,28.482a.961.961,0,0,0-.491-.133m0-.7a1.641,1.641,0,0,1,.842.231l79.779,46.075a5.021,5.021,0,0,1,2.511,4.355v92.241c0,1.143-.568,1.8-1.4,1.8a2.307,2.307,0,0,1-1.129-.344l-79.765-46.061c-1.4-.806-2.532-1.83-2.532-3.436V29.33a1.7,1.7,0,0,1,1.69-1.69Z" transform="translate(-234.93 -24.359)" fill="#e0e0e0"/>
        <path id="Path_2740" data-name="Path 2740" d="M228.89,27.2v.7a1.69,1.69,0,0,1,2.532-1.4L311.2,72.559a4.965,4.965,0,0,1,1.837,1.837v.056l4.909-2.847a3.78,3.78,0,0,0-1.318-1.4l-81.1-46.79a4.018,4.018,0,0,0-3.654,0l-1.143.652A4.018,4.018,0,0,0,228.89,27.2Z" transform="translate(-228.883 -22.966)" fill="#f0f0f0"/>
        <path id="Path_2755" data-name="Path 2755" d="M316.185,113.056,246.07,72.57V78.8l70.115,40.486Z" transform="translate(-239.169 -37.78)" fill="#e0e0e0"/>
        <path id="Path_2768" data-name="Path 2768" d="M316.185,139.7,246.07,99.21v6.227l70.115,40.486Z" transform="translate(-239.169 -45.738)" fill="#e0e0e0"/>
        <path id="Path_2776" data-name="Path 2776" d="M316.185,166.339,246.07,125.86v21.8l70.115,40.479Z" transform="translate(-239.169 -53.699)" fill="#e0e0e0"/>
      </g>
    </g>
    <g id="freepik--character-2--inject-125" transform="translate(174.989 31.432)">
      <g id="freepik--window--inject-125-3" data-name="freepik--window--inject-125" transform="translate(11.618)">
        <path id="Path_2777" data-name="Path 2777" d="M99.744,68.229l81.168,46.8a4.046,4.046,0,0,1,1.823,3.163v180.3a4.011,4.011,0,0,1-1.83,3.156l-1.143.652a4.039,4.039,0,0,1-3.654,0L94.94,255.411a4.039,4.039,0,0,1-1.83-3.163V72.016a4.011,4.011,0,0,1,1.837-3.156l1.136-.652a4.053,4.053,0,0,1,3.661.021Z" transform="translate(-93.11 -67.782)" fill="#e0e0e0"/>
        <path id="Path_2778" data-name="Path 2778" d="M99.96,253.775c0,1.606,1.129,2.63,2.532,3.429l79.765,46.068c1.4.806,2.525.154,2.525-1.459V123.131h0a5.021,5.021,0,0,0-2.511-4.355L102.492,72.694a1.69,1.69,0,0,0-2.532,1.459h0Z" transform="translate(-99.96 -69.182)" fill="#fafafa"/>
        <path id="Path_2779" data-name="Path 2779" d="M101.65,73.171h0a.982.982,0,0,0-.982.982V253.775c0,1.087.7,1.957,2.174,2.805l79.765,46.082a1.6,1.6,0,0,0,.778.253c.6,0,.7-.7.7-1.1V123.131a4.341,4.341,0,0,0-2.16-3.745L102.141,73.3a.961.961,0,0,0-.491-.133m0-.7a1.7,1.7,0,0,1,.842.224l79.779,46.082a5.021,5.021,0,0,1,2.511,4.355V301.814c0,1.143-.568,1.8-1.4,1.8a2.307,2.307,0,0,1-1.129-.344l-79.758-46.061c-1.4-.8-2.532-1.823-2.532-3.429V74.153a1.69,1.69,0,0,1,1.69-1.683Z" transform="translate(-99.96 -69.182)" fill="#e0e0e0"/>
        <path id="Path_2780" data-name="Path 2780" d="M93.92,72.036v.7a1.69,1.69,0,0,1,2.532-1.459l79.779,46.11a4.951,4.951,0,0,1,1.837,1.83v.056l4.909-2.847a3.759,3.759,0,0,0-1.318-1.4l-81.1-46.79a4.075,4.075,0,0,0-3.661,0l-1.136.652a4.018,4.018,0,0,0-1.837,3.149Z" transform="translate(-93.92 -67.788)" fill="#f0f0f0"/>
        <path id="Path_2781" data-name="Path 2781" d="M121.343,140.6a.224.224,0,0,0,0-.119v-.589l.919.533c.056,0,.077,0,.077-.084v-.21a.6.6,0,0,0,0-.119.633.633,0,0,0,0-.112l-.975-2.672a.794.794,0,0,0-.049-.105.168.168,0,0,0-.063-.056l-.126-.077h-.084v2.188l-.2-.119h-.084a.287.287,0,0,0,0,.133v.14a.406.406,0,0,0,0,.147.2.2,0,0,0,.084.084l.2.119v.589a.287.287,0,0,0,0,.147.154.154,0,0,0,.084.091l.154.091A.044.044,0,0,0,121.343,140.6Zm-.042-1.248v-1.466l.7,1.851Z" transform="translate(-52.097 -88.455)" fill="#455a64"/>
        <path id="Path_2782" data-name="Path 2782" d="M124.881,139.118a1.971,1.971,0,0,0,.266-1.2,3.794,3.794,0,0,0-.273-1.515,1.823,1.823,0,0,0-.757-.919,1.023,1.023,0,0,0-.372-.14.393.393,0,0,0-.288.042.056.056,0,0,0,0,.049.266.266,0,0,0,0,.07l.084.309a.217.217,0,0,0,0,.063h.042a.519.519,0,0,1,.47.07,1.333,1.333,0,0,1,.519.638,2.848,2.848,0,0,1,.189,1.115,1.592,1.592,0,0,1-.182.912c-.126.147-.295.161-.5.035a1.206,1.206,0,0,1-.224-.161,1.163,1.163,0,0,1-.182-.2v-.961l.386.224h.077a.182.182,0,0,0,0-.126V137.3a.3.3,0,0,0,0-.154.175.175,0,0,0-.077-.084l-.617-.351h-.091a.33.33,0,0,0,0,.154v1.361a.5.5,0,0,0,0,.119.168.168,0,0,0,0,.091,1.9,1.9,0,0,0,.7.7C124.447,139.343,124.692,139.308,124.881,139.118Z" transform="translate(-56.73 -87.961)" fill="#455a64"/>
        <path id="Path_2783" data-name="Path 2783" d="M133.28,133.762a1.4,1.4,0,0,0,.533,1.129c.295.175.533-.056.533-.512a1.4,1.4,0,0,0-.533-1.129C133.518,133.1,133.28,133.327,133.28,133.762Z" transform="translate(-72.892 -87.323)" fill="#455a64"/>
        <path id="Path_2784" data-name="Path 2784" d="M133.466,131.314a3.2,3.2,0,0,1,1.241,1.865.4.4,0,0,1-.056.372h0c-.1.063-.252-.063-.309-.274a2.272,2.272,0,0,0-.877-1.318.568.568,0,0,0-.877.309c-.056.14-.21.1-.309-.084h0a.54.54,0,0,1-.056-.442.8.8,0,0,1,1.241-.428Z" transform="translate(-72.517 -86.714)" fill="#455a64"/>
        <path id="Path_2785" data-name="Path 2785" d="M133.17,129.4a4.993,4.993,0,0,1,1.908,2.714c.063.175.042.358-.042.414h0c-.1.063-.245-.063-.309-.259a4.081,4.081,0,0,0-1.557-2.223,1.031,1.031,0,0,0-1.557.421c-.07.126-.21.084-.309-.091h0a.526.526,0,0,1-.042-.463,1.269,1.269,0,0,1,1.908-.512Z" transform="translate(-72.221 -86.114)" fill="#455a64"/>
        <path id="Path_2786" data-name="Path 2786" d="M159.355,117.155a.056.056,0,0,0-.07,0,.147.147,0,0,0,0,.084v.533a.406.406,0,0,0,0,.126.189.189,0,0,0,.07.077l.33.189a.049.049,0,0,0,.063,0,.119.119,0,0,0,0-.091v-.533a.245.245,0,0,0,0-.119.2.2,0,0,0-.063-.084Zm0,1.908a.056.056,0,0,0-.07,0,.119.119,0,0,0,0,.084v.533a.33.33,0,0,0,0,.119.175.175,0,0,0,.07.084l.33.189a.042.042,0,0,0,.063,0v-.617a.245.245,0,0,0,0-.119.168.168,0,0,0-.063-.084Z" transform="translate(-116.534 -82.526)" fill="#455a64"/>
        <path id="Path_2787" data-name="Path 2787" d="M161.552,117.817a.056.056,0,0,0,.063,0,.119.119,0,0,0,0-.091v-.659l1.094.638a.056.056,0,0,0,.07,0,.112.112,0,0,0,0-.084v-.386a.463.463,0,0,0,0-.147.186.186,0,0,0-.056-.154l-1.08-2.707a.442.442,0,0,0-.147-.217l-.266-.154a.056.056,0,0,0-.07,0,.119.119,0,0,0,0,.091v2.174l-.3-.175a.056.056,0,0,0-.07,0,.105.105,0,0,0,0,.084v.386a.232.232,0,0,0,0,.119.175.175,0,0,0,.07.084l.3.175v.666a.232.232,0,0,0,0,.119.175.175,0,0,0,.07.084Zm.091-1.438v-1.164l.6,1.515Z" transform="translate(-120.617 -81.541)" fill="#455a64"/>
        <path id="Path_2788" data-name="Path 2788" d="M156.357,120.774a.056.056,0,0,0,.07,0,.154.154,0,0,0,0-.091v-.659l1.094.638a.056.056,0,0,0,.07,0,.147.147,0,0,0,0-.084v-.393a.315.315,0,0,0,0-.14,1.312,1.312,0,0,0-.049-.154l-1.087-2.707a.4.4,0,0,0-.14-.217l-.274-.161a.049.049,0,0,0-.063,0,.119.119,0,0,0,0,.091v2.146l-.309-.175a.042.042,0,0,0-.063,0s0,.042,0,.084v.386a.231.231,0,0,0,0,.119.168.168,0,0,0,.063.084l.309.175v.729a.246.246,0,0,0,0,.119.168.168,0,0,0,.063.084Zm.1-1.4v-1.164l.6,1.515Z" transform="translate(-111.797 -82.422)" fill="#455a64"/>
        <path id="Path_2789" data-name="Path 2789" d="M165.85,112.693a.245.245,0,0,0,0-.119.175.175,0,0,0-.07-.084l-1.325-.764a.063.063,0,0,0-.07,0,.154.154,0,0,0,0,.091v.386a.372.372,0,0,0,0,.119.175.175,0,0,0,.07.084l.989.575.042.7a.863.863,0,0,0-.189-.175l-.154-.105a.842.842,0,0,0-.365-.126.421.421,0,0,0-.295.07.61.61,0,0,0-.2.281,1.445,1.445,0,0,0-.07.5,2.539,2.539,0,0,0,.07.638,2.223,2.223,0,0,0,.2.526,1.549,1.549,0,0,0,.295.407,1.907,1.907,0,0,0,.358.281,1.15,1.15,0,0,0,.421.154.435.435,0,0,0,.288-.07.54.54,0,0,0,.175-.245,1.129,1.129,0,0,0,.063-.365.175.175,0,0,0,0-.119.168.168,0,0,0-.063-.084l-.288-.168h-.063a.105.105,0,0,0-.042.077.386.386,0,0,1-.063.161.2.2,0,0,1-.112.063.232.232,0,0,1-.133,0,.969.969,0,0,1-.154-.07.806.806,0,0,1-.323-.358,1.129,1.129,0,0,1-.126-.533.379.379,0,0,1,.126-.337.288.288,0,0,1,.323,0,.877.877,0,0,1,.168.126.469.469,0,0,1,.1.112l.07.1a.267.267,0,0,0,.084.07l.323.189a.056.056,0,0,0,.07,0v-.084Z" transform="translate(-126.339 -80.905)" fill="#455a64"/>
        <path id="Path_2790" data-name="Path 2790" d="M108.652,150.414v-1.136l-.982-.568v1.136Z" transform="translate(-29.237 -91.956)" fill="#455a64"/>
        <path id="Path_2791" data-name="Path 2791" d="M110.752,148.72v-2.272l-.982-.568v2.272Z" transform="translate(-32.81 -91.111)" fill="#455a64"/>
        <path id="Path_2792" data-name="Path 2792" d="M112.852,147.019v-3.4l-.982-.568v3.4Z" transform="translate(-36.383 -90.265)" fill="#455a64"/>
        <path id="Path_2793" data-name="Path 2793" d="M114.959,145.325v-4.537l-.989-.568v4.537Z" transform="translate(-39.963 -89.42)" fill="#455a64"/>
        <path id="Path_2794" data-name="Path 2794" d="M206.192,85.355a.259.259,0,0,1,.365-.119l3.675,2.1a1.4,1.4,0,0,1,.421,1.115v2.062a1.171,1.171,0,0,1-.161.659.294.294,0,0,1-.147.133.217.217,0,0,1-.217,0l-3.668-2.1a1.4,1.4,0,0,1-.421-1.115V86.014a1.255,1.255,0,0,1,.154-.659Zm4.208,5.561a.582.582,0,0,0,.063-.3V88.567a1.1,1.1,0,0,0-.33-.849l-3.668-2.1a.147.147,0,0,0-.119,0,.12.12,0,0,0-.042.042.554.554,0,0,0-.063.3V88.02a1.1,1.1,0,0,0,.323.849l3.675,2.1a.105.105,0,0,0,.154-.056Z" transform="translate(-200.224 -72.985)" fill="#455a64"/>
        <path id="Path_2795" data-name="Path 2795" d="M206.8,88.71v2.44l.575.33a.077.077,0,0,0,.112-.063v-1.8a.848.848,0,0,0-.238-.631Z" transform="translate(-197.591 -74.033)" fill="#455a64"/>
        <path id="Path_2796" data-name="Path 2796" d="M208.847,88.33l-.687-.4v2.441l.687.393Z" transform="translate(-199.906 -73.8)" fill="#455a64"/>
        <path id="Path_2797" data-name="Path 2797" d="M210.214,87.547l-.694-.407v2.448l.694.4Z" transform="translate(-202.227 -73.564)" fill="#455a64"/>
        <path id="Path_2798" data-name="Path 2798" d="M210.89,86.551v1.76a.912.912,0,0,0,.456.785l.231.133v-2.44l-.547-.316a.091.091,0,0,0-.14.077Z" transform="translate(-204.55 -73.361)" fill="#455a64"/>
        <path id="Path_2799" data-name="Path 2799" d="M212.739,86.266c-.1-.063-.182.231-.182.652V87.3a1.571,1.571,0,0,0,.182.891l.189.126v-1.95Z" transform="translate(-207.065 -73.301)" fill="#455a64"/>
        <path id="Path_2800" data-name="Path 2800" d="M201.66,93.81l-3.57-3.17,1.1,4.643.519-1.929Z" transform="translate(-185.656 -74.61)" fill="#455a64"/>
        <path id="Path_2801" data-name="Path 2801" d="M166.8,143.784l-57.436-33.143c-.954-.547-1.725-.1-1.725,1V117a3.822,3.822,0,0,0,1.725,2.987L166.8,153.146c.954.547,1.725.105,1.725-1v-5.358A3.8,3.8,0,0,0,166.8,143.784Z" transform="translate(-89.091 -80.515)" fill="#7c1e60"/>
        <path id="Path_2802" data-name="Path 2802" d="M207.837,115.67a.659.659,0,0,0,.575-.33.652.652,0,0,0-.238-.9l-7.6-4.446a.7.7,0,0,0-.7,1.15l7.637,4.46a.631.631,0,0,0,.33.07Z" transform="translate(-193.622 -80.382)" fill="#e0e0e0"/>
        <path id="Path_2803" data-name="Path 2803" d="M207.966,110.974a.659.659,0,0,0,.337-1.234l-7.6-4.432a.671.671,0,0,0-.7,1.143l7.6,4.432a.631.631,0,0,0,.372.091Z" transform="translate(-193.751 -78.962)" fill="#e0e0e0"/>
        <path id="Path_2804" data-name="Path 2804" d="M208.053,106.32a.7.7,0,0,0,.337-1.241l-7.6-4.432a.7.7,0,0,0-.912.238.659.659,0,0,0,.238.9l7.595,4.439A.7.7,0,0,0,208.053,106.32Z" transform="translate(-193.838 -77.575)" fill="#e0e0e0"/>
      </g>
      <g id="freepik--Character--inject-125" transform="translate(0 81.405)">
        <g id="freepik--Botom--inject-125" transform="translate(48.625 112.831)">
          <path id="Path_2805" data-name="Path 2805" d="M147.786,344.75v38.466c0,1.55-1.094,2.174-2.426,1.4L121.3,370.726l-2.335-1.346-18.577-10.73c-.105-3.506-.2-6.466-.259-8.647-.084-2.518-.126-3.983-.126-3.983Z" transform="translate(-100 -344.75)" fill="#455a64"/>
        </g>
        <g id="freepik--Top--inject-125" transform="translate(0 1.09)">
          <path id="Path_2806" data-name="Path 2806" d="M178.724,261.461a19.024,19.024,0,0,1-.407-2.959c-.393-4.783-2.868-9.026-5.526-12.911-.449-.659-.912-1.318-1.4-1.978a9.757,9.757,0,0,1-.645-.975c-.168-.33-.323-.6-.785-.5a1.318,1.318,0,0,0-.771.575,3.9,3.9,0,0,0-.47,3.142,18.692,18.692,0,0,0,1.143,3.058c.323.778-.6.54-1.024.365-2.062-.863-4.131-3.745-5.428-5.519a28.154,28.154,0,0,0-2.5-3.506,4.39,4.39,0,0,0-2.293-1.311c-.6-.105-1.178,0-1.241.757a3.058,3.058,0,0,0,.365,1.354,3.189,3.189,0,0,1,.281,2.665,7.581,7.581,0,0,0-.7,1.8,21,21,0,0,0,.231,2.462,14.6,14.6,0,0,1-.533,2.041,6.458,6.458,0,0,0,.631,2.455,19.957,19.957,0,0,0,2.469,4.586,38.086,38.086,0,0,0,5.351,5.849,10.463,10.463,0,0,1,2.805,3.373,22.209,22.209,0,0,1,1.185,4.264c.379,1.809.7,3.633,1.1,5.442,4.025,19.636,6.038,20.723,8.591,23.648,1.543,1.767,6,3.436,12.048-2.805,6.718-6.943,19.566-24.9,19.566-24.9l2.679-23.991s-2.391.645-5.414,1.508c-2.805.806-5.793,3.64-7.8,6.81-4.145,6.557-14.839,23.626-14.839,23.626S179.537,264.014,178.724,261.461Z" transform="translate(-157 -201.391)" fill="#ffbda7"/>
          <path id="Path_2807" data-name="Path 2807" d="M179.367,252.11c-4.432.589-7.013,1.964-9.629,5.035s-12.658,19.833-12.658,19.833a25.243,25.243,0,0,0,12.658,11.27l11.48-15.05Z" transform="translate(-124.837 -205.337)" fill="#45bdf1"/>
          <path id="Path_2808" data-name="Path 2808" d="M179.367,252.11c-4.432.589-7.013,1.964-9.629,5.035s-12.658,19.833-12.658,19.833a25.243,25.243,0,0,0,12.658,11.27l11.48-15.05Z" transform="translate(-124.837 -205.337)" opacity="0.15"/>
          <path id="Path_2809" data-name="Path 2809" d="M192.273,296.372a37.723,37.723,0,0,1,3.037,10.723s1.276-7.455-1.634-12.995Z" transform="translate(-163.887 -217.88)" fill="#f0997a"/>
          <path id="Path_2810" data-name="Path 2810" d="M216.65,257.85a14.272,14.272,0,0,0,1.83,7.819,8.464,8.464,0,0,1-2.251-3.717C215.745,259.708,216.1,258.72,216.65,257.85Z" transform="translate(-203.419 -207.051)" fill="#f0997a"/>
          <path id="Path_2811" data-name="Path 2811" d="M100.234,321.665c9.285,6.592,39.686,8.794,48.593,2.9V253.36l-.7-.14-8.717-1.837-4.72-1-1.2-.252h0l-4.208-.884-10.968.638h0l-3.3.2h-.323s-3.815.456-7.777,1.143c-.147.133-.281.274-.428.421h0c-2.749,2.966-5.119,10.519-5.793,18.605-.252,3.079-.435,7.714-.575,12.911v.484C99.708,299.568,100.234,321.665,100.234,321.665Z" transform="translate(-52.387 -204.482)" fill="#8c4483"/>
          <g id="freepik--Head--inject-125" transform="translate(54.153)">
            <path id="Path_2812" data-name="Path 2812" d="M109.046,203.911c-1.943-4.46-.042-10.379,2.286-13.156,3.359-4.018,8.584-5.751,16.466-5.26,6,.372,11.887,2.861,13.009,9.012,4.818,1.438,4.271,9.348,3.072,12.841-2.433,7.076-7.216,13.24-7.293,16.831Z" transform="translate(-108.227 -185.414)" fill="#455a64"/>
            <path id="Path_2813" data-name="Path 2813" d="M108.992,224.358c.947,3.422,2.924,5.926,6.087,6.417a26.251,26.251,0,0,0,4.986,0l-.119,4.355c-4.257,3.64-2.7,8.415.14,12.735,3.506-3.92,7.56-5.323,11.087-6.873a11.291,11.291,0,0,0,5.14-4.979l.449-14.727s1.936,2.2,5.126.119a6.957,6.957,0,0,0,2.16-8.514c-1.578-3.338-4.741-1.957-5.716-.947s-2.1,2.917-2.924,2.651a2.925,2.925,0,0,1-1.957-2,17.876,17.876,0,0,1-1.038-6.466,8.83,8.83,0,0,1-2.476-1.908,8.044,8.044,0,0,1-2.146-4.951c-6.831-2.1-14.692-1.129-17.532,1.066-1.634,2.882-1.69,9.573-1.964,13.43A31.713,31.713,0,0,0,108.992,224.358Z" transform="translate(-108.166 -189.205)" fill="#ffbda7"/>
            <path id="Path_2814" data-name="Path 2814" d="M121.86,240.587c3.506-.2,10.519-1.83,12.4-3.78s2.672-5.947,2.672-5.947-.28,5.042-1.732,7.265-5.105,3.2-7.329,3.752a53.735,53.735,0,0,1-6.08.919Z" transform="translate(-109.954 -198.989)" fill="#f0997a"/>
            <path id="Path_2815" data-name="Path 2815" d="M113.34,261.558c1.83-1.122,5.87-5.709,7.883-3.577s3.079,2.714,4.411,2.321,4.25-3.289,6.164-5.4a12.238,12.238,0,0,0,2.525-5.155,33.288,33.288,0,0,1-2.7-3.752c-.912-1.613-.7-2.069-1.879-2.146l-.105,3.044s-.7,1.662-4.025,3.906S115.7,256.382,113.34,261.558Z" transform="translate(-101.42 -202.869)" fill="#00e1ff"/>
            <path id="Path_2816" data-name="Path 2816" d="M113.34,261.558c1.83-1.122,5.87-5.709,7.883-3.577s3.079,2.714,4.411,2.321,4.25-3.289,6.164-5.4a12.238,12.238,0,0,0,2.525-5.155,33.288,33.288,0,0,1-2.7-3.752c-.912-1.613-.7-2.069-1.879-2.146l-.105,3.044s-.7,1.662-4.025,3.906S115.7,256.382,113.34,261.558Z" transform="translate(-101.42 -202.869)" fill="#3ba1cd"/>
            <path id="Path_2817" data-name="Path 2817" d="M149.69,262.454c-1.087-1-2.861-5.61-3.331-5.5-.7.2-1.95,3.4-2.553,2.658-.954-1.178-.666-6.564.926-8.521s3.71-4.039,4.909-4.243l-.084,2.868a11.627,11.627,0,0,0-1.178,4.628C148.379,255.981,149.466,260.89,149.69,262.454Z" transform="translate(-137.77 -203.766)" fill="#00e1ff"/>
            <path id="Path_2818" data-name="Path 2818" d="M149.69,262.454c-1.087-1-2.861-5.61-3.331-5.5-.7.2-1.95,3.4-2.553,2.658-.954-1.178-.666-6.564.926-8.521s3.71-4.039,4.909-4.243l-.084,2.868a11.627,11.627,0,0,0-1.178,4.628C148.379,255.981,149.466,260.89,149.69,262.454Z" transform="translate(-137.77 -203.766)" fill="#3ba1cd"/>
            <path id="Path_2823" data-name="Path 2823" d="M151.24,212.99l-1.024,10.169-5.456-1.648Z" transform="translate(-140.372 -193.651)" fill="#f0997a"/>
          </g>
          <path id="Path_2826" data-name="Path 2826" d="M101.334,278.246l2.1,5.176V255.11S97.393,266.737,101.334,278.246Z" transform="translate(-7.027 -206.233)" fill="#00e1ff"/>
          <path id="Path_2827" data-name="Path 2827" d="M101.334,278.246l2.1,5.176V255.11S97.393,266.737,101.334,278.246Z" transform="translate(-7.027 -206.233)" fill="#3ba1cd"/>
        </g>
        <path id="Path_2828" data-name="Path 2828" d="M165.641,224.73a17.476,17.476,0,0,0-3.787,1.76,3.338,3.338,0,0,0-1.164,4.53l1.445-.281s-.743-1.69.126-2.6a10.608,10.608,0,0,1,3.4-1.683Z" transform="translate(-111.496 -196.068)" fill="#263238"/>
        <path id="Path_2829" data-name="Path 2829" d="M163.295,232.29c1.171-.568,1.732.161,2.56,2.146s.259,2.532-.743,2.924-1.781-.266-2.4-1.908C162.018,233.6,162.032,232.9,163.295,232.29Z" transform="translate(-113.498 -198.271)" fill="#00e1ff"/>
        <path id="Path_2830" data-name="Path 2830" d="M163.295,232.29c1.171-.568,1.732.161,2.56,2.146s.259,2.532-.743,2.924-1.781-.266-2.4-1.908C162.018,233.6,162.032,232.9,163.295,232.29Z" transform="translate(-113.498 -198.271)" opacity="0.1"/>
        <path id="Path_2831" data-name="Path 2831" d="M125.856,187.465c3.506,3.233,6.852,7.826,4.362,18.451a5.786,5.786,0,0,1,1.452,6c-.968,3.282-4.117,5.435-7.013,4.818s-4.516-3.78-3.556-7.062c.7-2.455,3.352-4.832,5.519-4.671a16.433,16.433,0,0,0,.133-10.982c-2.658-8.78-12.883-9.5-17.385-8.794C110.855,183.082,121.241,183.208,125.856,187.465Z" transform="translate(-42.131 -183.86)" fill="#263238"/>
        <path id="Path_2832" data-name="Path 2832" d="M107.062,218.144c1.066-3.64,4.558-6.031,7.8-5.344a5.077,5.077,0,0,1,1.4.526c.358.2,1.466.961,1.683,1.1a6.278,6.278,0,0,1,2.167,7.083c-1.066,3.64-4.551,6.031-7.791,5.344a5.141,5.141,0,0,1-1.676-.7c-.259-.168-1.29-.856-1.55-1.038A6.226,6.226,0,0,1,107.062,218.144Z" transform="translate(-28.744 -192.47)" fill="#00e1ff"/>
        <path id="Path_2833" data-name="Path 2833" d="M107.062,218.144c1.066-3.64,4.558-6.031,7.8-5.344a5.077,5.077,0,0,1,1.4.526c.358.2,1.466.961,1.683,1.1a6.278,6.278,0,0,1,2.167,7.083c-1.066,3.64-4.551,6.031-7.791,5.344a5.141,5.141,0,0,1-1.676-.7c-.259-.168-1.29-.856-1.55-1.038A6.226,6.226,0,0,1,107.062,218.144Z" transform="translate(-28.744 -192.47)" opacity="0.3"/>
        <path id="Path_2834" data-name="Path 2834" d="M107.047,219.407c1.066-3.633,4.558-6.024,7.8-5.337s5,4.208,3.934,7.819-4.551,6.031-7.791,5.344S105.981,223.046,107.047,219.407Z" transform="translate(-27.403 -192.849)" fill="#00e1ff"/>
        <path id="Path_2835" data-name="Path 2835" d="M107.047,219.407c1.066-3.633,4.558-6.024,7.8-5.337s5,4.208,3.934,7.819-4.551,6.031-7.791,5.344S105.981,223.046,107.047,219.407Z" transform="translate(-27.403 -192.849)" fill="#ed0909" opacity="0.58"/>
        <path id="Path_2836" data-name="Path 2836" d="M111.537,221.571a3.348,3.348,0,0,1,3.675-2.525,2.787,2.787,0,0,1,1.858,3.7,3.375,3.375,0,0,1-3.675,2.518A2.769,2.769,0,0,1,111.537,221.571Z" transform="translate(-28.794 -194.354)" fill="#fff"/>
      </g>
      <g id="freepik--speech-bubble--inject-125" transform="translate(16.513 50.991)">
        <path id="Path_2848" data-name="Path 2848" d="M193.485,188.81a.912.912,0,0,0,.645-1.55,10,10,0,0,1-2.483-5.716c4.39-.9,7.013-4.706,7.013-10.232,0-9.818-7.974-22.364-17.778-28.052h0c-5.218-3.009-10.19-3.6-13.64-1.606-2.861,1.648-4.432,4.944-4.432,9.271,0,9.818,7.974,22.357,17.778,28.052a23.248,23.248,0,0,0,4.082,1.886c2.342,5.218,5.954,7.188,8.584,7.918a.744.744,0,0,0,.231.028Zm-12.911-45c9.636,5.561,17.476,17.9,17.476,27.5,0,5.414-2.476,8.948-6.789,9.7l-.281.049v.281a10.462,10.462,0,0,0,2.693,6.312.323.323,0,0,1-.316.533c-2.518-.7-6-2.609-8.247-7.714l-.056-.119-.126-.042a23.268,23.268,0,0,1-4.1-1.879c-9.636-5.568-17.476-17.9-17.476-27.5,0-4.11,1.466-7.216,4.131-8.759,3.261-1.879,8.016-1.29,13.051,1.613Z" transform="translate(-162.81 -140.493)" fill="#00e1ff"/>
      </g>
    </g>
  </g>
</svg>
