<svg xmlns="http://www.w3.org/2000/svg" width="35.248" height="32.155" viewBox="0 0 35.248 32.155">
  <g id="Group_3808" data-name="Group 3808" transform="translate(24507.004 5106.555)">
    <path id="Icon_awesome-info-circle" data-name="Icon awesome-info-circle" d="M9.075.563a8.513,8.513,0,1,0,8.513,8.513A8.514,8.514,0,0,0,9.075.563Zm0,3.776A1.442,1.442,0,1,1,7.634,5.78,1.442,1.442,0,0,1,9.075,4.338ZM11,13.057a.412.412,0,0,1-.412.412H7.565a.412.412,0,0,1-.412-.412v-.824a.412.412,0,0,1,.412-.412h.412v-2.2H7.565a.412.412,0,0,1-.412-.412V8.389a.412.412,0,0,1,.412-.412h2.2a.412.412,0,0,1,.412.412v3.433h.412a.412.412,0,0,1,.412.412Z" transform="translate(-24489.344 -5091.988)" fill="#02827f"/>
    <path id="Icon_awesome-business-time" data-name="Icon awesome-business-time" d="M25.9,12.968a7.139,7.139,0,0,1,.835.055v-3.3c0-1.729-1.17-3.242-2.506-3.242H20.051V3.242C20.051,1.513,18.881,0,17.544,0H9.19C7.853,0,6.684,1.513,6.684,3.242V6.484H2.506C1.17,6.484,0,8,0,9.726v5.4H20.631A7.812,7.812,0,0,1,25.9,12.968Zm-9.19-6.484H10.025V4.323h6.684Zm.356,15.13h-6.2a.982.982,0,0,1-.835-1.081V17.291H0v9.726c0,1.729,1.17,3.242,2.506,3.242H17.723a14.673,14.673,0,0,1-1.015-5.4A15.1,15.1,0,0,1,17.065,21.614Z" transform="translate(-24507.004 -5106.555)" fill="#02827f"/>
  </g>
</svg>
