<svg xmlns="http://www.w3.org/2000/svg" width="25.28" height="27.153" viewBox="0 0 25.28 27.153">
  <g id="Icon_material-notifications-active" data-name="Icon material-notifications-active" transform="translate(-3.045 -3.75)" fill="none" stroke-linecap="round" stroke-linejoin="round">
    <path d="M10.081,5.95,8.268,3.959A14.983,14.983,0,0,0,3.045,14.89H5.581A12.079,12.079,0,0,1,10.081,5.95ZM25.789,14.89h2.536A15.075,15.075,0,0,0,23.1,3.959L21.3,5.95a12.154,12.154,0,0,1,4.488,8.939Zm-2.5.7c0-4.275-2.079-7.853-5.705-8.8V5.839a2,2,0,0,0-1.9-2.089,2,2,0,0,0-1.9,2.089v.947c-3.639.947-5.705,4.512-5.705,8.8v6.962L5.543,25.333v1.392H25.827V25.333l-2.536-2.785ZM15.685,30.9a2.029,2.029,0,0,0,.507-.056A2.643,2.643,0,0,0,18.018,29.2a3.037,3.037,0,0,0,.19-1.086H13.137A2.687,2.687,0,0,0,15.685,30.9Z" stroke="none"/>
    <path d="M 15.68499755859375 7.405418395996094 C 15.47796154022217 8.040275573730469 14.96011161804199 8.545888900756836 14.28697967529297 8.72105598449707 C 13.01999855041504 9.050756454467773 12.00142860412598 9.816396713256836 11.25956916809082 10.9967155456543 C 10.4867000579834 12.22638511657715 10.07818031311035 13.81324577331543 10.07818031311035 15.58574676513672 L 10.07818031311035 22.54794692993164 C 10.07818031311035 23.04600524902344 9.892339706420898 23.52614593505859 9.557029724121094 23.89442443847656 L 8.800546646118164 24.72527694702148 L 22.56945037841797 24.72527694702148 L 21.81296920776367 23.89442443847656 C 21.47765922546387 23.52614593505859 21.29182052612305 23.04600524902344 21.29182052612305 22.54794692993164 L 21.29182052612305 15.58574676513672 C 21.29182052612305 13.82098579406738 20.88174057006836 12.23606491088867 20.10590934753418 11.0023250579834 C 19.3610897064209 9.817886352539063 18.34347915649414 9.050216674804688 17.08137893676758 8.720636367797852 C 16.40896606445313 8.545045852661133 15.89183521270752 8.039770126342773 15.68499755859375 7.405418395996094 M 15.68499946594238 3.749996185302734 C 16.73727989196777 3.749996185302734 17.58670043945313 4.68293571472168 17.58670043945313 5.838655471801758 L 17.58670043945313 6.785526275634766 C 21.21261978149414 7.732376098632813 23.29182052612305 11.31095504760742 23.29182052612305 15.58574676513672 L 23.29182052612305 22.54794692993164 L 25.82742881774902 25.33282470703125 L 25.82742881774902 26.72527694702148 L 5.542570114135742 26.72527694702148 L 5.542570114135742 25.33282470703125 L 8.078180313110352 22.54794692993164 L 8.078180313110352 15.58574676513672 C 8.078180313110352 11.29702568054199 10.14469909667969 7.732376098632813 13.78330039978027 6.785516738891602 L 13.78330039978027 5.838655471801758 C 13.78330039978027 4.68293571472168 14.63271903991699 3.749996185302734 15.68499946594238 3.749996185302734 Z M 8.268348693847656 3.958866119384766 L 10.0813102722168 5.950056076049805 C 7.494989395141602 7.969095230102539 5.770778656005859 11.19955635070801 5.580610275268555 14.8895263671875 L 3.045000076293945 14.8895263671875 C 3.222490310668945 10.4337158203125 5.225620269775391 6.507036209106445 8.268348693847656 3.958866119384766 Z M 23.10163879394531 3.958866119384766 C 26.13169860839844 6.507036209106445 28.13483047485352 10.4337158203125 28.32499885559082 14.8895263671875 L 25.78939056396484 14.8895263671875 C 25.59922027587891 11.19955635070801 23.86232948303223 7.969095230102539 21.30135917663574 5.950056076049805 L 23.10163879394531 3.958866119384766 Z M 13.13671875 28.11770629882813 L 18.20792961120605 28.11770629882813 C 18.20792961120605 28.50759506225586 18.14453887939453 28.86962509155273 18.01775932312012 29.20381546020508 C 17.68812942504883 30.03927612304688 17.01618957519531 30.65195655822754 16.19211959838867 30.84688568115234 C 16.02730941772461 30.88867568969727 15.86248970031738 30.90259552001953 15.68499946594238 30.90259552001953 C 14.27773857116699 30.90259552001953 13.14939880371094 29.64939498901367 13.13671875 28.11770629882813 Z" stroke="none" fill="#02827f"/>
  </g>
</svg>
