<svg xmlns="http://www.w3.org/2000/svg" width="25" height="23.825" viewBox="0 0 25 23.825">
  <path id="notifications-active" d="M6.6,2.087A10.25,10.25,0,0,0,3.635,5.443,9.734,9.734,0,0,0,2.4,9.75H0A12.047,12.047,0,0,1,1.426,4.492,12.14,12.14,0,0,1,4.921.409Zm16,7.662a9.531,9.531,0,0,0-1.258-4.307,10.549,10.549,0,0,0-2.992-3.355L20.079.409a11.859,11.859,0,0,1,3.468,4.083A12.89,12.89,0,0,1,25,9.75H22.6Zm-2.349.615v6.544l2.4,2.4v1.175H2.349V19.313l2.4-2.4V10.365a7.74,7.74,0,0,1,5.929-7.55V2.031A1.694,1.694,0,0,1,11.213.745,1.8,1.8,0,0,1,12.5.242a1.707,1.707,0,0,1,1.258.5,1.742,1.742,0,0,1,.5,1.286v.783a7.71,7.71,0,0,1,5.985,7.55Zm-7.774,13.7a2.387,2.387,0,0,1-2.349-2.349h4.754a2.535,2.535,0,0,1-.168.9,2.222,2.222,0,0,1-1.734,1.4,2.085,2.085,0,0,1-.5.056Z" transform="translate(0 -0.242)" fill="#01345b"/>
</svg>
