<svg xmlns="http://www.w3.org/2000/svg" width="25" height="20.119" viewBox="0 0 25 20.119">
  <g id="Group_3808" data-name="Group 3808" transform="translate(24507.004 5106.555)">
    <path id="Icon_awesome-info-circle" data-name="Icon awesome-info-circle" d="M6.643.563a6.081,6.081,0,1,0,6.081,6.081A6.082,6.082,0,0,0,6.643.563Zm0,2.7a1.03,1.03,0,1,1-1.03,1.03A1.03,1.03,0,0,1,6.643,3.26ZM8.017,9.488a.294.294,0,0,1-.294.294H5.565a.294.294,0,0,1-.294-.294V8.9a.294.294,0,0,1,.294-.294h.294V7.036H5.565a.294.294,0,0,1-.294-.294V6.153a.294.294,0,0,1,.294-.294H7.134a.294.294,0,0,1,.294.294V8.605h.294a.294.294,0,0,1,.294.294Z" transform="translate(-24494.729 -5099.16)" fill="#02827f"/>
    <path id="Icon_awesome-business-time" data-name="Icon awesome-business-time" d="M18.5,7.161c.2,0,.4.012.6.03V5.371a1.836,1.836,0,0,0-1.79-1.79H14.323V1.79A1.836,1.836,0,0,0,12.532,0H6.565a1.836,1.836,0,0,0-1.79,1.79v1.79H1.79A1.836,1.836,0,0,0,0,5.371V8.355H14.737A6.524,6.524,0,0,1,18.5,7.161ZM11.935,3.581H7.161V2.387h4.774Zm.254,8.355H7.758a.6.6,0,0,1-.6-.6V9.548H0v5.371a1.836,1.836,0,0,0,1.79,1.79H12.66a6.476,6.476,0,0,1-.47-4.774Z" transform="translate(-24507.004 -5106.555)" fill="#02827f"/>
  </g>
</svg>
