<svg xmlns="http://www.w3.org/2000/svg" width="29.099" height="25" viewBox="0 0 29.099 25">
  <g id="Group_3724" data-name="Group 3724" transform="translate(1390.049 -11303.05)">
    <g id="Group_3723" data-name="Group 3723" transform="translate(-37 2.766)">
      <path id="phone-alt" d="M2.51,0a2.51,2.51,0,1,0,2.51,2.51A2.51,2.51,0,0,0,2.51,0Zm-.9,1a.153.153,0,0,1,.134.083l.343.651a.189.189,0,0,1-.038.215L1.889,2.1a.076.076,0,0,0-.016.045,1.341,1.341,0,0,0,.4.6,1.341,1.341,0,0,0,.56.4.088.088,0,0,0,.082-.008L3.1,2.945a.209.209,0,0,1,.222-.032h0l.619.365a.149.149,0,0,1,.035.234l-.427.423a.309.309,0,0,1-.228.086,1.973,1.973,0,0,1-.978-.368A3.773,3.773,0,0,1,1.206,2.408,1.611,1.611,0,0,1,1,1.7a.311.311,0,0,1,.087-.231l.426-.426A.166.166,0,0,1,1.608,1Z" transform="translate(-1350 11304)" fill="#02827f"/>
      <path id="bxs-edit-location" d="M8.008,3A2.01,2.01,0,0,0,6,5.006C5.993,6.624,7.931,7.965,8.008,8.019c0,0,2.015-1.4,2.008-3.011A2.01,2.01,0,0,0,8.008,3ZM7.455,6.259H7V5.808L8.253,4.56l.452.452L7.455,6.259ZM8.917,4.8l-.452-.452L8.81,4l.452.452L8.917,4.8Z" transform="translate(-1355.442 11307.273)" fill="#02827f"/>
      <path id="Path_2535" data-name="Path 2535" d="M14.625,5.625H24.977V6.88H14.625Z" transform="translate(-1357.933 11300.257)" fill="#02827f"/>
      <path id="Path_2537" data-name="Path 2537" d="M14.625,16.875H24.977V18.13H14.625Z" transform="translate(-1357.933 11295.281)" fill="#02827f"/>
      <path id="Path_2539" data-name="Path 2539" d="M14.625,28.125H24.977V29.38H14.625Z" transform="translate(-1357.933 11290.305)" fill="#02827f"/>
      <g id="Path_2545" data-name="Path 2545" transform="translate(-1354.5 11309.798)" fill="none">
        <path d="M9.519,9.26A2.51,2.51,0,1,1,7.01,6.75,2.51,2.51,0,0,1,9.519,9.26Z" stroke="none"/>
        <path d="M 7.009551525115967 7.750001907348633 C 6.177181720733643 7.750001907348633 5.500001907348633 8.427182197570801 5.500001907348633 9.259552001953125 C 5.500001907348633 10.09192180633545 6.177181720733643 10.76910209655762 7.009551525115967 10.76910209655762 C 7.841921329498291 10.76910209655762 8.519102096557617 10.09192180633545 8.519102096557617 9.259552001953125 C 8.519102096557617 8.427182197570801 7.841921329498291 7.750001907348633 7.009551525115967 7.750001907348633 M 7.009551525115967 6.750001907348633 C 8.395542144775391 6.750001907348633 9.519102096557617 7.873561859130859 9.519102096557617 9.259552001953125 C 9.519102096557617 10.64554214477539 8.395542144775391 11.76910209655762 7.009551525115967 11.76910209655762 C 5.623561859130859 11.76910209655762 4.500001907348633 10.64554214477539 4.500001907348633 9.259552001953125 C 4.500001907348633 7.873561859130859 5.623561859130859 6.750001907348633 7.009551525115967 6.750001907348633 Z" stroke="none" fill="#02827f"/>
      </g>
    </g>
    <g id="Path_2546" data-name="Path 2546" transform="translate(-1390.049 11328.05) rotate(-90)" fill="none" stroke-linejoin="bevel">
      <path d="M3,0H22a3,3,0,0,1,3,3V22a3,3,0,0,1-3,3H16.876l-3.95,4.1L8.858,25H3a3,3,0,0,1-3-3V3A3,3,0,0,1,3,0Z" stroke="none"/>
      <path d="M 3 0.9999961853027344 C 1.897199630737305 0.9999961853027344 1 1.897195816040039 1 2.999996185302734 L 1 21.99999618530273 C 1 23.10279655456543 1.897199630737305 23.99999618530273 3 23.99999618530273 L 8.858030319213867 23.99999618530273 L 9.56781005859375 24.29556655883789 L 12.91528606414795 27.6684627532959 L 16.15581130981445 24.30605697631836 L 16.87585067749023 23.99999618530273 L 22 23.99999618530273 C 23.1028003692627 23.99999618530273 24 23.10279655456543 24 21.99999618530273 L 24 2.999996185302734 C 24 1.897195816040039 23.1028003692627 0.9999961853027344 22 0.9999961853027344 L 3 0.9999961853027344 M 3 -3.814697265625e-06 L 22 -3.814697265625e-06 C 23.65685081481934 -3.814697265625e-06 25 1.343147277832031 25 2.999996185302734 L 25 21.99999618530273 C 25 23.65685653686523 23.65685081481934 24.99999618530273 22 24.99999618530273 L 16.87585067749023 24.99999618530273 L 12.92578029632568 29.09863662719727 L 8.858030319213867 24.99999618530273 L 3 24.99999618530273 C 1.3431396484375 24.99999618530273 0 23.65685653686523 0 21.99999618530273 L 0 2.999996185302734 C 0 1.343147277832031 1.3431396484375 -3.814697265625e-06 3 -3.814697265625e-06 Z" stroke="none" fill="#02827f"/>
    </g>
  </g>
</svg>
