<svg xmlns="http://www.w3.org/2000/svg" width="25" height="25" viewBox="0 0 25 25">
  <path id="Icon_awesome-question-circle" data-name="Icon awesome-question-circle" d="M25.563,13.063A12.606,12.606,0,0,1,17.7,24.675a12.082,12.082,0,0,1-4.635.887,12.5,12.5,0,1,1,12.5-12.5ZM13.4,4.7A6.529,6.529,0,0,0,7.523,7.909a.606.606,0,0,0,.137.819l1.749,1.326a.6.6,0,0,0,.84-.107c.9-1.142,1.518-1.8,2.888-1.8,1.03,0,2.3.663,2.3,1.661,0,.755-.623,1.142-1.64,1.712-1.186.665-2.755,1.492-2.755,3.561v.2a.6.6,0,0,0,.6.6h2.823a.6.6,0,0,0,.6-.6v-.067c0-1.435,4.193-1.494,4.193-5.376C19.271,6.913,16.239,4.7,13.4,4.7Zm-.335,12.5a2.319,2.319,0,1,0,2.319,2.319A2.321,2.321,0,0,0,13.063,17.2Z" transform="translate(-0.563 -0.563)" fill="#02827f"/>
</svg>
