<svg xmlns="http://www.w3.org/2000/svg" width="35" height="30.07" viewBox="0 0 35 30.07">
  <g id="Group_3724" data-name="Group 3724" transform="translate(1390.049 -11303.05)">
    <g id="Group_3723" data-name="Group 3723" transform="translate(-1386.382 11307.52)">
      <path id="phone-alt" d="M3.019,0A3.019,3.019,0,1,0,6.037,3.019,3.019,3.019,0,0,0,3.019,0ZM1.934,1.2a.184.184,0,0,1,.161.1l.413.783a.227.227,0,0,1-.046.258l-.189.189a.092.092,0,0,0-.019.054,1.613,1.613,0,0,0,.486.717,1.613,1.613,0,0,0,.673.476.106.106,0,0,0,.1-.01l.22-.224A.251.251,0,0,1,4,3.5H4l.745.44a.179.179,0,0,1,.042.282l-.513.509a.372.372,0,0,1-.274.1,2.373,2.373,0,0,1-1.177-.443A4.538,4.538,0,0,1,1.451,2.9,1.938,1.938,0,0,1,1.2,2.043a.374.374,0,0,1,.1-.278l.513-.513A.2.2,0,0,1,1.934,1.2Z" fill="#02827f"/>
      <path id="bxs-edit-location" d="M8.415,3A2.417,2.417,0,0,0,6,5.413C5.991,7.359,8.323,8.972,8.415,9.037c0,0,2.423-1.678,2.415-3.622A2.418,2.418,0,0,0,8.415,3ZM7.75,6.92H7.207V6.377l1.5-1.5.543.543-1.5,1.5ZM9.508,5.164l-.543-.543.414-.414.543.543-.414.414Z" transform="translate(-5.329 4.546)" fill="#02827f"/>
      <path id="Path_2535" data-name="Path 2535" d="M14.625,5.625H27.077V7.134H14.625Z" transform="translate(-6.576 -3.362)" fill="#02827f"/>
      <path id="Path_2537" data-name="Path 2537" d="M14.625,16.875H27.077v1.509H14.625Z" transform="translate(-6.576 -7.065)" fill="#02827f"/>
      <path id="Path_2539" data-name="Path 2539" d="M14.625,28.125H27.077v1.509H14.625Z" transform="translate(-6.576 -10.769)" fill="#02827f"/>
      <g id="Path_2545" data-name="Path 2545" transform="translate(-4.5 8.343)" fill="none">
        <path d="M10.537,9.769A3.019,3.019,0,1,1,7.519,6.75,3.019,3.019,0,0,1,10.537,9.769Z" stroke="none"/>
        <path d="M 7.518502712249756 8.250002861022949 C 6.68120288848877 8.250002861022949 6.000002861022949 8.93120288848877 6.000002861022949 9.768503189086914 C 6.000002861022949 10.60580348968506 6.68120288848877 11.28700351715088 7.518502712249756 11.28700351715088 C 8.355802536010742 11.28700351715088 9.037002563476563 10.60580348968506 9.037002563476563 9.768503189086914 C 9.037002563476563 8.93120288848877 8.355802536010742 8.250002861022949 7.518502712249756 8.250002861022949 M 7.518502712249756 6.750002861022949 C 9.185572624206543 6.750002861022949 10.53700256347656 8.101432800292969 10.53700256347656 9.768503189086914 C 10.53700256347656 11.43557357788086 9.185572624206543 12.78700256347656 7.518502712249756 12.78700256347656 C 5.851432800292969 12.78700256347656 4.500002861022949 11.43557357788086 4.500002861022949 9.768503189086914 C 4.500002861022949 8.101432800292969 5.851432800292969 6.750002861022949 7.518502712249756 6.750002861022949 Z" stroke="none" fill="#02827f"/>
      </g>
    </g>
    <g id="Path_2546" data-name="Path 2546" transform="translate(-1390.049 11333.12) rotate(-90)" fill="none" stroke-linejoin="bevel">
      <path d="M3.608,0H26.462A3.608,3.608,0,0,1,30.07,3.608V26.462a3.608,3.608,0,0,1-3.608,3.608H20.3L15.547,35l-4.893-4.93H3.608A3.608,3.608,0,0,1,0,26.462V3.608A3.608,3.608,0,0,1,3.608,0Z" stroke="none"/>
      <path d="M 3.608421325683594 1.5 C 2.445831298828125 1.5 1.5 2.445831298828125 1.5 3.608419418334961 L 1.5 26.46171951293945 C 1.5 27.62430953979492 2.445831298828125 28.57014083862305 3.608421325683594 28.57014083862305 L 10.65448951721191 28.57014083862305 L 11.71915054321289 29.01350021362305 L 15.53145790100098 32.85475540161133 L 19.21832084655762 29.02923011779785 L 20.29837036132813 28.57014083862305 L 26.46171951293945 28.57014083862305 C 27.62430953979492 28.57014083862305 28.57014083862305 27.62430953979492 28.57014083862305 26.46171951293945 L 28.57014083862305 3.608419418334961 C 28.57014083862305 2.445831298828125 27.62430953979492 1.5 26.46171951293945 1.5 L 3.608421325683594 1.5 M 3.608421325683594 0 L 26.46171951293945 0 C 28.4546012878418 0 30.07014083862305 1.61553955078125 30.07014083862305 3.608419418334961 L 30.07014083862305 26.46171951293945 C 30.07014083862305 28.45459938049316 28.4546012878418 30.07014083862305 26.46171951293945 30.07014083862305 L 20.29837036132813 30.07014083862305 L 15.54720020294189 35 L 10.65448951721191 30.07014083862305 L 3.608421325683594 30.07014083862305 C 1.61553955078125 30.07014083862305 0 28.45459938049316 0 26.46171951293945 L 0 3.608419418334961 C 0 1.61553955078125 1.61553955078125 0 3.608421325683594 0 Z" stroke="none" fill="#02827f"/>
    </g>
  </g>
</svg>
