<svg xmlns="http://www.w3.org/2000/svg" width="35" height="33.264" viewBox="0 0 35 33.264">
  <g id="Group_3637" data-name="Group 3637" transform="translate(-24.282 -27.161)">
    <path id="Icon_awesome-hand-holding" data-name="Icon awesome-hand-holding" d="M34.348,22.942a2.19,2.19,0,0,0-2.588,0l-5.614,4.031a4.153,4.153,0,0,1-2.43.764H16.527a.878.878,0,1,1,0-1.745h4.758a1.987,1.987,0,0,0,2.023-1.451,1.817,1.817,0,0,0-1.92-2.04H11.666a7.672,7.672,0,0,0-4.5,1.434L4.338,25.991H.972A.929.929,0,0,0,0,26.863V32.1a.929.929,0,0,0,.972.873H22.652a4.181,4.181,0,0,0,2.43-.764l9.187-6.6A1.633,1.633,0,0,0,34.348,22.942Z" transform="translate(24.282 27.453)" fill="#02827f"/>
    <path id="Icon_material-person" data-name="Icon material-person" d="M15.283,15.754a4.762,4.762,0,0,0,4.642-4.877A4.762,4.762,0,0,0,15.283,6a4.762,4.762,0,0,0-4.642,4.877A4.762,4.762,0,0,0,15.283,15.754Zm0,2.438c-3.1,0-9.283,1.634-9.283,4.877v2.438H24.566V23.069C24.566,19.826,18.381,18.192,15.283,18.192Z" transform="translate(26.499 21.161)" fill="#02827f"/>
  </g>
</svg>
