<svg xmlns="http://www.w3.org/2000/svg" width="50" height="50.669" viewBox="0 0 50 50.669">
  <g id="Icon_ionic-ios-link" data-name="Icon ionic-ios-link" transform="translate(-3.375 -1.415)">
    <path id="Path_2436" data-name="Path 2436" d="M28.26,30.844l-.129.011a1.731,1.731,0,0,0-1.03.514l-6.929,7.383a7.509,7.509,0,0,1-11.048,0,8.754,8.754,0,0,1,0-11.772l7.358-7.84a7.889,7.889,0,0,1,1.223-1.063,7.71,7.71,0,0,1,1.587-.857,7.513,7.513,0,0,1,2.7-.5c.15,0,.3.011.493.023a7.581,7.581,0,0,1,5.02,2.4,8.289,8.289,0,0,1,1.834,3.12,1.67,1.67,0,0,0,2.07,1.154c.011,0,.021-.011.032-.011s.021,0,.021-.011a1.806,1.806,0,0,0,1.126-2.183,10.508,10.508,0,0,0-2.639-4.686,11.062,11.062,0,0,0-6.178-3.349c-.2-.034-.408-.069-.611-.091a10.394,10.394,0,0,0-1.191-.069c-.279,0-.558.011-.826.034a10.2,10.2,0,0,0-1.738.286c-.118.023-.225.057-.343.091a10.736,10.736,0,0,0-2.092.834A11.066,11.066,0,0,0,14,16.535l-7.358,7.84a12.474,12.474,0,0,0-3.272,8.514,12.344,12.344,0,0,0,3.293,8.5,10.83,10.83,0,0,0,15.95-.011l7-7.463A1.815,1.815,0,0,0,28.26,30.844Z" transform="translate(0 7.194)" fill="#01345b"/>
    <path id="Path_2437" data-name="Path 2437" d="M39.4,6.884a10.818,10.818,0,0,0-15.95,0l-6.833,7.28A1.864,1.864,0,0,0,17.7,17.3a1.681,1.681,0,0,0,1.362-.526L25.906,9.5a7.509,7.509,0,0,1,11.048,0,8.546,8.546,0,0,1,2.274,5.886,8.546,8.546,0,0,1-2.274,5.886L29.6,29.113a7.886,7.886,0,0,1-1.223,1.063,7.71,7.71,0,0,1-1.587.857,7.513,7.513,0,0,1-2.7.5c-.15,0-.311-.011-.493-.023a7.581,7.581,0,0,1-5.02-2.4A8.311,8.311,0,0,1,16.81,26.2a1.693,1.693,0,0,0-2.049-1.12,1.865,1.865,0,0,0-1.212,2.343,10.556,10.556,0,0,0,2.542,4.286h0l.021.023a11.023,11.023,0,0,0,6.79,3.44,10.4,10.4,0,0,0,1.191.069q.418,0,.837-.034A11.575,11.575,0,0,0,27,34.838,10.735,10.735,0,0,0,29.092,34a11.066,11.066,0,0,0,2.971-2.274l7.358-7.84a12.344,12.344,0,0,0,3.293-8.5A12.363,12.363,0,0,0,39.4,6.884Z" transform="translate(10.661 1.165)" fill="#01345b"/>
    <path id="Path_2438" data-name="Path 2438" d="M16.933,11.047l-4.4-8.963" transform="translate(7.195)" fill="none" stroke="#ff784f" stroke-linecap="round" stroke-width="1"/>
    <path id="Path_2439" data-name="Path 2439" d="M21.313,9.168,4.158,7.318" transform="translate(0.615 4.725)" fill="none" stroke="#ff784f" stroke-linecap="round" stroke-width="1"/>
    <path id="Path_2440" data-name="Path 2440" d="M19.187,23.17l1.736,7.113" transform="translate(12.424 19.034)" fill="none" stroke="#ff784f" stroke-linecap="round" stroke-width="1"/>
    <path id="Path_2441" data-name="Path 2441" d="M21.505,22.2l16.824,3.841" transform="translate(14.245 18.156)" fill="none" stroke="#ff784f" stroke-linecap="round" stroke-width="1"/>
  </g>
</svg>
