<svg xmlns="http://www.w3.org/2000/svg" width="40" height="50" viewBox="0 0 40 50">
  <path id="Icon_material-lock-outline" data-name="Icon material-lock-outline" d="M26,39.6a4.768,4.768,0,1,0-5-4.762A4.9,4.9,0,0,0,26,39.6ZM41,18.167H38.5V13.4C38.5,6.833,32.9,1.5,26,1.5S13.5,6.833,13.5,13.4v4.762H11a4.9,4.9,0,0,0-5,4.762v23.81A4.9,4.9,0,0,0,11,51.5H41a4.9,4.9,0,0,0,5-4.762V22.929A4.9,4.9,0,0,0,41,18.167ZM18.25,13.4A7.579,7.579,0,0,1,26,6.024,7.579,7.579,0,0,1,33.75,13.4v4.762H18.25ZM41,46.738H11V22.929H41Z" transform="translate(-6 -1.5)" fill="#01345b"/>
</svg>
