<svg xmlns="http://www.w3.org/2000/svg" width="330" height="330" viewBox="0 0 330 330">
  <g id="Completed-rafiki" transform="translate(36.5 -38)">
    <g id="freepik--background-complete--inject-32" transform="translate(-14.535 80)">
      <rect id="Rectangle_3086" data-name="Rectangle 3086" width="285.827" height="0.165" transform="translate(0 216.084)" fill="#7d7d7d"/>
      <rect id="Rectangle_3087" data-name="Rectangle 3087" width="18.933" height="0.165" transform="translate(29.989 222.367)" fill="#7d7d7d"/>
      <rect id="Rectangle_3088" data-name="Rectangle 3088" width="30.789" height="0.165" transform="translate(97.833 222.453)" fill="#7d7d7d"/>
      <rect id="Rectangle_3089" data-name="Rectangle 3089" width="10.97" height="0.165" transform="translate(60.464 225.773)" fill="#ebebeb"/>
      <rect id="Rectangle_3090" data-name="Rectangle 3090" width="10.993" height="0.165" transform="translate(243.965 225.694)" fill="#ebebeb"/>
      <rect id="Rectangle_3091" data-name="Rectangle 3091" width="17.315" height="0.165" transform="translate(221.556 225.694)" fill="#ebebeb"/>
      <rect id="Rectangle_3092" data-name="Rectangle 3092" width="24.33" height="0.165" transform="translate(187.691 224.605)" fill="#ebebeb"/>
      <path id="Path_2547" data-name="Path 2547" d="M151.849,241.648H41.468a3.545,3.545,0,0,1-3.258-3.769V58.735A3.54,3.54,0,0,1,41.468,55h110.38a3.543,3.543,0,0,1,3.264,3.768V237.879A3.544,3.544,0,0,1,151.849,241.648ZM41.468,55.132a3.39,3.39,0,0,0-3.116,3.6V237.879a3.39,3.39,0,0,0,3.116,3.6h110.38a3.4,3.4,0,0,0,3.121-3.6V58.735a3.4,3.4,0,0,0-3.121-3.6Z" transform="translate(-16.367 -55)" fill="#d0d0d0"/>
      <path id="Path_2548" data-name="Path 2548" d="M368.151,241.648H257.765a3.551,3.551,0,0,1-3.265-3.769V58.735A3.545,3.545,0,0,1,257.765,55H368.151a3.54,3.54,0,0,1,3.252,3.735V237.879A3.545,3.545,0,0,1,368.151,241.648ZM257.765,55.132a3.4,3.4,0,0,0-3.121,3.6V237.879a3.4,3.4,0,0,0,3.121,3.6H368.151a3.4,3.4,0,0,0,3.121-3.6V58.735a3.4,3.4,0,0,0-3.121-3.6Z" transform="translate(-109.015 -55)" fill="#ebebeb"/>
      <rect id="Rectangle_3093" data-name="Rectangle 3093" width="66.369" height="91.489" transform="translate(173.657 23.773)" fill="#e6e6e6"/>
      <rect id="Rectangle_3094" data-name="Rectangle 3094" width="66.369" height="91.489" transform="translate(175.315 23.773)" fill="#f5f5f5"/>
      <rect id="Rectangle_3095" data-name="Rectangle 3095" width="83.774" height="60.418" transform="translate(238.711 27.628) rotate(90)" fill="#ddd"/>
      <rect id="Rectangle_3096" data-name="Rectangle 3096" width="83.774" height="1.252" transform="translate(238.705 27.628) rotate(90)" fill="#e6e6e6"/>
      <rect id="Rectangle_3097" data-name="Rectangle 3097" width="63.905" height="5.181" transform="translate(176.544 91.555)" fill="#f5f5f5"/>
      <path id="Path_2549" data-name="Path 2549" d="M372.277,81.35h-74.51a.5.5,0,0,0-.457.528h0a.5.5,0,0,0,.457.527h74.51a.5.5,0,0,0,.457-.527h0A.5.5,0,0,0,372.277,81.35Z" transform="translate(-127.35 -63.959)" fill="#e6e6e6"/>
      <ellipse id="Ellipse_325" data-name="Ellipse 325" cx="2.287" cy="2.64" rx="2.287" ry="2.64" transform="translate(243.096 15.279)" fill="#e6e6e6"/>
      <path id="Path_2550" data-name="Path 2550" d="M304.4,85.107h0a.671.671,0,0,1-.617-.713V82.863a.677.677,0,0,1,.617-.713h0a.669.669,0,0,1,.615.713v1.531A.669.669,0,0,1,304.4,85.107Z" transform="translate(-130.122 -64.231)" fill="#e6e6e6"/>
      <path id="Path_2551" data-name="Path 2551" d="M415.9,85.107h0a.669.669,0,0,1-.613-.713V82.863a.672.672,0,0,1,.613-.713h0a.669.669,0,0,1,.617.713v1.531A.669.669,0,0,1,415.9,85.107Z" transform="translate(-177.889 -64.231)" fill="#e6e6e6"/>
      <rect id="Rectangle_3098" data-name="Rectangle 3098" width="68.233" height="38.425" transform="translate(176.544 17.919)" fill="#ebf5ff" opacity="0.5"/>
      <ellipse id="Ellipse_326" data-name="Ellipse 326" cx="2.287" cy="2.64" rx="2.287" ry="2.64" transform="translate(179.351 15.279)" fill="#e6e6e6"/>
      <path id="Path_2552" data-name="Path 2552" d="M71.57,227.677H47.36L49.5,194.96H69.425Z" transform="translate(-20.286 -102.586)" fill="#ebebeb"/>
      <path id="Path_2553" data-name="Path 2553" d="M76.638,227.677H72.476L71.59,194.96h3.841Z" transform="translate(-30.665 -102.586)" fill="#f5f5f5"/>
      <rect id="Rectangle_3099" data-name="Rectangle 3099" width="2.424" height="90.994" transform="translate(37.969 125.09)" fill="#ddd"/>
      <rect id="Rectangle_3100" data-name="Rectangle 3100" width="5.053" height="10.593" rx="2.527" transform="translate(36.654 138.494)" fill="#ddd"/>
      <rect id="Rectangle_3101" data-name="Rectangle 3101" width="5.053" height="10.593" rx="2.527" transform="translate(36.654 155.47)" fill="#ddd"/>
      <path id="Path_2554" data-name="Path 2554" d="M69.5,381.43H61.83a1.776,1.776,0,0,1,1.635-1.89h4.4A1.776,1.776,0,0,1,69.5,381.43Z" transform="translate(-26.485 -165.344)" fill="#f0f0f0"/>
      <rect id="Rectangle_3102" data-name="Rectangle 3102" width="2.424" height="1.709" transform="translate(37.969 125.09)" fill="#e0e0e0"/>
      <rect id="Rectangle_3103" data-name="Rectangle 3103" width="66.906" height="77.458" transform="translate(121.962 97.944) rotate(180)" fill="#f0f0f0"/>
      <rect id="Rectangle_3104" data-name="Rectangle 3104" width="1.155" height="77.458" transform="translate(53.901 20.486)" fill="#e0e0e0"/>
      <rect id="Rectangle_3105" data-name="Rectangle 3105" width="55.09" height="67.67" transform="translate(116.057 93.047) rotate(180)" fill="#ddd"/>
      <rect id="Rectangle_3106" data-name="Rectangle 3106" width="30.675" height="37.679" rx="15.337" transform="translate(103.852 78.052) rotate(180)" fill="#f5f5f5"/>
      <rect id="Rectangle_3107" data-name="Rectangle 3107" width="25.467" height="89.067" transform="translate(207.493 127.01)" fill="#e6e6e6"/>
      <path id="Path_2555" data-name="Path 2555" d="M376,376.067h12.434v-12.3H362.97Z" transform="translate(-155.476 -159.981)" fill="#fafafa"/>
      <rect id="Rectangle_3108" data-name="Rectangle 3108" width="25.467" height="89.067" transform="translate(105.927 127.01)" fill="#e6e6e6"/>
      <rect id="Rectangle_3109" data-name="Rectangle 3109" width="112.41" height="84.836" transform="translate(120.545 127.01)" fill="#6f90ac"/>
      <path id="Path_2556" data-name="Path 2556" d="M223.31,376.067H210.88v-12.3h25.468Z" transform="translate(-90.33 -159.981)" fill="#6f90ac"/>
      <rect id="Rectangle_3110" data-name="Rectangle 3110" width="93.122" height="21.232" transform="translate(130.194 158.624)" fill="#f0f0f0"/>
      <rect id="Rectangle_3111" data-name="Rectangle 3111" width="93.122" height="21.232" transform="translate(130.194 184.397)" fill="#f0f0f0"/>
      <path id="Path_2557" data-name="Path 2557" d="M312.644,296.664H263.875a3.86,3.86,0,0,1-3.555-4.1H316.2a4.465,4.465,0,0,1-1.04,2.905A3.327,3.327,0,0,1,312.644,296.664Z" transform="translate(-111.507 -135.771)" fill="#fafafa"/>
      <rect id="Rectangle_3112" data-name="Rectangle 3112" width="93.122" height="21.232" transform="translate(130.194 132.858)" fill="#f0f0f0"/>
      <path id="Path_2558" data-name="Path 2558" d="M312.644,257.624H263.875a3.87,3.87,0,0,1-3.555-4.114H316.2a4.456,4.456,0,0,1-1.04,2.908A3.335,3.335,0,0,1,312.644,257.624Z" transform="translate(-111.507 -122.494)" fill="#fafafa"/>
      <path id="Path_2559" data-name="Path 2559" d="M312.644,335.711H263.875a3.866,3.866,0,0,1-3.555-4.111H316.2a4.444,4.444,0,0,1-1.04,2.905A3.326,3.326,0,0,1,312.644,335.711Z" transform="translate(-111.507 -149.043)" fill="#fafafa"/>
    </g>
    <g id="freepik--Shadow--inject-32" transform="translate(17.54 310.947)">
      <ellipse id="freepik--path--inject-32" cx="110.838" cy="7.471" rx="110.838" ry="7.471" fill="#ddd"/>
    </g>
    <g id="freepik--complete-list--inject-32" transform="translate(17.214 127.519)">
      <path id="Path_2560" data-name="Path 2560" d="M66.979,196.784h85.314c-5.251-.074-9.573-4.789-9.935-10.836l-1.509-29.358H55.54l1.5,29.358C57.407,192,61.728,196.71,66.979,196.784Z" transform="translate(-55.54 -137.059)" fill="#407bff"/>
      <path id="Path_2561" data-name="Path 2561" d="M66.979,196.784h85.314c-5.251-.074-9.573-4.789-9.935-10.836l-1.509-29.358H55.54l1.5,29.358C57.407,192,61.728,196.71,66.979,196.784Z" transform="translate(-55.54 -137.059)" fill="#fff" opacity="0.6"/>
      <path id="Path_2562" data-name="Path 2562" d="M167.19,127H91.246a8.233,8.233,0,0,0-6.474,3.177,11.077,11.077,0,0,0-2.352,7.653l1.966,38.063a11.059,11.059,0,0,1-2.349,7.657,8.224,8.224,0,0,1-6.477,3.174h85.307a8.224,8.224,0,0,0,6.478-3.174,11.062,11.062,0,0,0,2.349-7.657l.211,4.119-2.161-42.155a11.063,11.063,0,0,1,2.34-7.675A8.22,8.22,0,0,1,176.57,127Z" transform="translate(-64.116 -126.999)" fill="#407bff"/>
      <path id="Path_2563" data-name="Path 2563" d="M188.324,127H103c5.25.068,9.574,4.783,9.934,10.831l7.346,143.015h85.308l-7.329-142.99C197.906,131.8,193.581,127.074,188.324,127Z" transform="translate(-75.869 -126.999)" fill="#407bff"/>
      <path id="Path_2564" data-name="Path 2564" d="M188.324,127H103c5.25.068,9.574,4.783,9.934,10.831l7.346,143.015h85.308l-7.329-142.99C197.906,131.8,193.581,127.074,188.324,127Z" transform="translate(-75.869 -126.999)" fill="#fff" opacity="0.8"/>
      <path id="Path_2565" data-name="Path 2565" d="M158.1,179.268H142.285L141.33,161h15.818ZM144,177.116h12.1l-.668-13.971H143.308Z" transform="translate(-92.288 -138.559)" fill="#fff"/>
      <path id="Path_2566" data-name="Path 2566" d="M161.956,244.374H146.127L145.19,226.1h15.828Zm-14.08-2.151h12.1l-.714-13.972h-12.1Z" transform="translate(-93.941 -160.694)" fill="#fff"/>
      <path id="Path_2567" data-name="Path 2567" d="M165.79,309.486H149.961L149,291.21h15.831Zm-14.074-2.153h12.1l-.721-13.972H151Z" transform="translate(-95.573 -182.831)" fill="#fff"/>
      <rect id="Rectangle_3113" data-name="Rectangle 3113" width="36.391" height="2.152" transform="translate(73.538 22.434)" fill="#fff"/>
      <rect id="Rectangle_3114" data-name="Rectangle 3114" width="32.115" height="2.152" transform="translate(73.949 30.5)" fill="#fff"/>
      <rect id="Rectangle_3115" data-name="Rectangle 3115" width="36.391" height="2.152" transform="translate(74.361 38.558)" fill="#fff"/>
      <rect id="Rectangle_3116" data-name="Rectangle 3116" width="36.391" height="2.152" transform="translate(75.738 65.407)" fill="#fff"/>
      <rect id="Rectangle_3117" data-name="Rectangle 3117" width="21.363" height="2.152" transform="translate(76.15 73.472)" fill="#fff"/>
      <rect id="Rectangle_3118" data-name="Rectangle 3118" width="11.027" height="2.152" transform="translate(76.567 81.531)" fill="#fff"/>
      <rect id="Rectangle_3119" data-name="Rectangle 3119" width="18.196" height="2.152" transform="translate(94.763 81.531)" fill="#fff"/>
      <rect id="Rectangle_3120" data-name="Rectangle 3120" width="36.391" height="2.152" transform="translate(77.939 108.38)" fill="#fff"/>
      <rect id="Rectangle_3121" data-name="Rectangle 3121" width="36.391" height="2.152" transform="translate(78.357 116.445)" fill="#fff"/>
      <rect id="Rectangle_3122" data-name="Rectangle 3122" width="20.128" height="2.152" transform="translate(78.768 124.503)" fill="#fff"/>
      <path id="Path_2568" data-name="Path 2568" d="M154.57,175.722a1.432,1.432,0,0,1-1.063-.488L149.638,171a1.989,1.989,0,0,1-.061-2.531,1.409,1.409,0,0,1,2.193-.07l2.756,3,6.2-7.61a1.409,1.409,0,0,1,2.193-.076,1.992,1.992,0,0,1,.066,2.532l-7.267,8.916a1.436,1.436,0,0,1-1.086.56Z" transform="translate(-95.638 -139.315)" fill="#83a9ff"/>
      <path id="Path_2569" data-name="Path 2569" d="M158.4,240.833a1.428,1.428,0,0,1-1.064-.488l-3.888-4.238a1.968,1.968,0,0,1-.472-1.729,1.706,1.706,0,0,1,1.077-1.316,1.408,1.408,0,0,1,1.521.444l2.761,3,6.2-7.61a1.411,1.411,0,0,1,2.193-.076,1.992,1.992,0,0,1,.066,2.532l-7.266,8.916a1.432,1.432,0,0,1-1.081.562Z" transform="translate(-97.259 -161.454)" fill="#83a9ff"/>
      <path id="Path_2570" data-name="Path 2570" d="M162.247,306.016a1.441,1.441,0,0,1-1.063-.493l-3.888-4.241a1.957,1.957,0,0,1-.471-1.724,1.707,1.707,0,0,1,1.076-1.321,1.41,1.41,0,0,1,1.521.447l2.761,3,6.2-7.61a1.4,1.4,0,0,1,2.071.059,1.993,1.993,0,0,1,.169,2.385l-7.266,8.916a1.454,1.454,0,0,1-1.087.562Z" transform="translate(-98.908 -183.659)" fill="#83a9ff"/>
    </g>
    <g id="freepik--Character--inject-32" transform="translate(151.435 115.576)">
      <path id="Path_3058" data-name="Path 3058" d="M0,0,11.534-.41,6.561,158.623l-11.534.41Z" transform="matrix(0.971, -0.239, 0.239, 0.971, 0, 36.297)" fill="#83a9ff"/>
      <path id="Path_3059" data-name="Path 3059" d="M8.484,0,12-.125,7.024,158.908l-3.512.125Z" transform="matrix(0.971, -0.239, 0.239, 0.971, -0.523, 36.13)" opacity="0.2"/>
      <path id="Path_3060" data-name="Path 3060" d="M1.966-.07l7.6-.27a1.95,1.95,0,0,1,1.9,2.163l-.169,5.4a2.29,2.29,0,0,1-2.036,2.3l-7.6.27a1.95,1.95,0,0,1-1.9-2.163l.169-5.4A2.29,2.29,0,0,1,1.966-.07Z" transform="matrix(0.971, -0.239, 0.239, 0.971, 33.543, 193.879)" fill="#407bff"/>
      <path id="Path_3061" data-name="Path 3061" d="M1.966-.07l7.6-.27a1.95,1.95,0,0,1,1.9,2.163l-.169,5.4a2.29,2.29,0,0,1-2.036,2.3l-7.6.27a1.95,1.95,0,0,1-1.9-2.163l.169-5.4A2.29,2.29,0,0,1,1.966-.07Z" transform="matrix(0.971, -0.239, 0.239, 0.971, 33.543, 193.879)" fill="#f14545" opacity="0.7"/>
      <path id="Path_3062" data-name="Path 3062" d="M1.817-.065,11.544-.41a1.8,1.8,0,0,1,1.753,2l-.1,3.129a2.117,2.117,0,0,1-1.882,2.129l-9.727.345a1.8,1.8,0,0,1-1.753-2l.1-3.129A2.117,2.117,0,0,1,1.817-.065Z" transform="matrix(0.971, -0.239, 0.239, 0.971, 31.755, 189.851)" fill="#e0e0e0"/>
      <path id="Path_2571" data-name="Path 2571" d="M301.44,151.657l-11.1,3.156,1.3-10.725.833-6.877,3.5,5.643Z" transform="translate(-290.337 -118.527)" fill="#e0e0e0"/>
      <path id="Path_2572" data-name="Path 2572" d="M296.961,142.853l-4.341,1.234.835-6.877Z" transform="translate(-291.314 -118.527)" fill="#83a9ff"/>
      <path id="Path_2573" data-name="Path 2573" d="M351.942,143.68c-.057,3.96-.721,11.425,1.085,13.86a25.014,25.014,0,0,0-10.8,8.131c-2.478-4.673.753-7.187.753-7.187,3.561-1.32,3.343-4.417,2.6-7.26Z" transform="translate(-312.162 -120.727)" fill="#ffb573"/>
      <path id="Path_2574" data-name="Path 2574" d="M341.09,166.79c.945-4.045-1.713-4.619,2.715-6.6,3.466-1.584,10.011-1.808,11.55-.535.852.712-.321,3.208-.321,3.208Z" transform="translate(-312.075 -125.879)" fill="#263238"/>
      <path id="Path_2575" data-name="Path 2575" d="M370.025,168.665c.256.475.438.837.645,1.254s.374.8.569,1.2c.368.8.711,1.609,1.043,2.428.662,1.63,1.241,3.3,1.772,4.989a61.034,61.034,0,0,1,2.286,10.56l.148,1.36c.03.192.053.533.07.831s0,.566,0,.833a29.084,29.084,0,0,1-.188,2.91c-.2,1.821-.5,3.544-.835,5.281a95.927,95.927,0,0,1-2.554,9.985,1.656,1.656,0,0,1-1.935,1.241,1.919,1.919,0,0,1-1.313-2.054h0c.228-3.352.5-6.732.708-10.032.1-1.65.184-3.3.207-4.858,0-.771,0-1.537-.063-2.177l-.051-.443-.074-.427-.214-1.15a66.74,66.74,0,0,0-2.457-9.067c-.514-1.479-1.07-2.944-1.652-4.39q-.435-1.089-.909-2.139l-.48-1.044-.45-.956-.082-.172a4.213,4.213,0,0,1,1.267-5.2,3.111,3.111,0,0,1,4.538,1.311Z" transform="translate(-321.805 -128.625)" fill="#ffb573"/>
      <path id="Path_2576" data-name="Path 2576" d="M371.771,232.861l.474-.911,1.341-2.6,2.451,1.6a7.428,7.428,0,0,1-1.047,4.978l-.691.659a1.114,1.114,0,0,1-1.681-.073l-.531-.566A2.914,2.914,0,0,1,371.771,232.861Z" transform="translate(-325.087 -149.854)" fill="#ffb573"/>
      <path id="Path_2577" data-name="Path 2577" d="M309.936,231.2l-.4-1.65a1.325,1.325,0,0,0-1.611-1.084l-1.715.508-1.057.3a3,3,0,0,0-1.977,2.886v.984a1.611,1.611,0,0,0,1.353,1.7l1.059.117a6.89,6.89,0,0,0,4.126-2.561A1.482,1.482,0,0,0,309.936,231.2Z" transform="translate(-295.835 -149.538)" fill="#ffb573"/>
      <path id="Path_2578" data-name="Path 2578" d="M366.509,164.994c3,1.539,5.75,5.2,8,11.98-.721,2.793-8.158,7.367-8.158,7.367S357.076,161.63,366.509,164.994Z" transform="translate(-321.151 -127.857)" fill="#407bff"/>
      <path id="Path_2579" data-name="Path 2579" d="M325.184,173.307c.025,2.515-3.58,8.342.569,11.721.362,5.089.846,10.1,1.791,18.447h22.2c-2.11-9.24-.285-15.443,3.1-31.681a7.043,7.043,0,0,0-.808-5.133,5.321,5.321,0,0,0-3.9-2.634c-.884-.1-1.823-.186-2.776-.244a61,61,0,0,0-10.085,0c-1.093.112-2.218.271-3.3.442C328.066,164.881,325.171,168.751,325.184,173.307Z" transform="translate(-304.649 -127.491)" fill="#da8989"/>
      <path id="Path_2580" data-name="Path 2580" d="M326.159,172.675c.051,1.886,0,3.7,0,5.543s-.1,3.677-.205,5.525a102.108,102.108,0,0,1-1.144,11.166c-.07.469-.178.957-.275,1.432s-.184.952-.315,1.453l-.182.732-.1.37c-.038.166-.085.328-.135.488a8.409,8.409,0,0,1-.975,1.981,20.927,20.927,0,0,1-1.823,2.356c-.6.692-1.214,1.32-1.829,1.979a66.19,66.19,0,0,1-7.729,6.6,1.529,1.529,0,0,1-2.17-.378,2.176,2.176,0,0,1,0-2.532h0c2.041-2.686,4.142-5.353,6.1-7.993.48-.66.949-1.32,1.394-1.979a15.879,15.879,0,0,0,1.142-1.855c.14-.245.224-.542.152-.376s0-.085,0-.159l.049-.291.112-.575c.078-.369.125-.785.182-1.188s.125-.8.161-1.227c.387-3.334.569-6.844.681-10.356s.176-7.087.19-10.559h0a3.392,3.392,0,1,1,6.714-.085Z" transform="translate(-298.275 -129.306)" fill="#ffb573"/>
      <path id="Path_2581" data-name="Path 2581" d="M329.9,165.211c-2.738,1.572-5.456,4.622-6.581,11.6.715,2.764,10.5,8.092,10.5,8.092S339.268,161.173,329.9,165.211Z" transform="translate(-304.464 -127.89)" fill="#da8989"/>
      <path id="Path_2586" data-name="Path 2586" d="M349.571,128.516c.571,6.2.914,8.818-1.277,12.54-3.3,5.643-9.928,5.281-12.06-.547-1.922-5.281-2.521-14.52,2.258-18.124a6.3,6.3,0,0,1,7.069-.62A8.29,8.29,0,0,1,349.571,128.516Z" transform="translate(-309.384 -113.002)" fill="#ffb573"/>
      <path id="Path_2587" data-name="Path 2587" d="M336.333,128.952c-3.432-.7-4.261-5.248-2.99-7.227-5.779.3-9.672-7.168-3.43-11.426s11.753,2.336,11.307,4.824c7.689-.8,12.195,6.5,8.006,11.934,5.528,1.036,13.8,8.23,7.727,15.786,8.215,1.394,9.108,31.094-13.259,25.814C320.12,163.087,340.6,139.4,340.6,139.4S334.628,137.459,336.333,128.952Z" transform="translate(-305.923 -108.902)" fill="#263238"/>
      <path id="Path_2589" data-name="Path 2589" d="M364.391,134.655c1.971-.376,1.04-4.092-.412-5.076s-8.41.614-7.642,3.174S361.741,135.161,364.391,134.655Z" transform="translate(-318.58 -115.833)" fill="#fff"/>
      <path id="Path_2590" data-name="Path 2590" d="M365.771,133.531c1.969-.436,1.178-3.446-.3-4.388s-7.551-.245-6.722,2.283S363.142,134.132,365.771,133.531Z" transform="translate(-319.609 -115.647)" fill="#ffaeae"/>
      <path id="Path_2592" data-name="Path 2592" d="M343.058,139.045c-.256,1.622-.336,2.316-1.066,3.075a1.415,1.415,0,0,1-1.7.483,1.8,1.8,0,0,1-1.007-1.652c-.116-1.493.326-3.894,1.635-4.4S343.318,137.426,343.058,139.045Z" transform="translate(-311.296 -118.268)" fill="#ffb573"/>
      <path id="Path_2594" data-name="Path 2594" d="M327.132,224s-.782,33.091-1.829,54.858c-1.11,19.978-2.533,66.7-2.533,66.7l4.373.264s9.674-39.316,9.266-63.069C347.764,249.527,343.681,225,343.681,225Z" transform="translate(-304.228 -148.036)" fill="#ffb573"/>
      <path id="Path_2595" data-name="Path 2595" d="M316.085,404.935a.513.513,0,0,0-.67,0,11.2,11.2,0,0,1-7.253,2.783c-2.9.151-2.191,1.982,1.969,2.6,4.887.7,5.934,1.86,7.509,2.314s2.829-.928,2.8-4.756a.663.663,0,0,0-.366-.6A18.281,18.281,0,0,1,316.085,404.935Z" transform="translate(-297.217 -209.511)" fill="#263238"/>
      <path id="Path_2596" data-name="Path 2596" d="M340.55,224s8,39.163,12.639,57.419c4.876,19.141,8.742,62.82,8.712,64.265h3.783s4.887-35.4-1.144-64.285c-.569-46.86-7.568-57.368-7.568-57.368Z" transform="translate(-311.843 -148.036)" fill="#ffb573"/>
      <path id="Path_2597" data-name="Path 2597" d="M372.975,405.979a.452.452,0,0,0-.571.171c-.979,1.465-1.685,3.091-4.574,4.517-2.389,1.172-1.07,2.783,2.669,2.2,4.4-.7,4.462.127,5.942.127s2.178-1.709,1.1-5.41a.635.635,0,0,0-.48-.474A15.477,15.477,0,0,1,372.975,405.979Z" transform="translate(-323.014 -209.894)" fill="#263238"/>
      <path id="Path_2598" data-name="Path 2598" d="M327.929,223.524a534.166,534.166,0,0,0-3.237,68.64,106.451,106.451,0,0,0,35.2-6.27s.171-51.362-9.759-62.351C344.4,221.762,328.063,222.943,327.929,223.524Z" transform="translate(-305.029 -147.56)" fill="#263238"/>
      <path id="Path_2599" data-name="Path 2599" d="M330.87,287.689a.152.152,0,0,1-.144-.159c-1.068-25.31,1.525-61.042,1.55-61.379a.172.172,0,0,1,.049-.115.129.129,0,0,1,.1-.037.146.146,0,0,1,.1.059.192.192,0,0,1,.036.12c-.03.364-2.62,36.069-1.55,61.379a.184.184,0,0,1-.038.122.122.122,0,0,1-.1.049Z" transform="translate(-307.525 -148.715)" fill="#fff" opacity="0.2"/>
      <path id="Path_2600" data-name="Path 2600" d="M357.3,270.87l3.254-19.89,1.309,4.758Z" transform="translate(-319.019 -157.209)" opacity="0.2"/>
    </g>
    <g id="Rectangle_3187" data-name="Rectangle 3187" transform="translate(-36.5 38)" fill="none" stroke="#707070" stroke-width="1">
      <rect width="330" height="330" rx="3" stroke="none"/>
      <rect x="0.5" y="0.5" width="329" height="329" rx="2.5" fill="none"/>
    </g>
  </g>
</svg>
