<svg xmlns="http://www.w3.org/2000/svg" width="57.71" height="43.283" viewBox="0 0 57.71 43.283">
  <path id="Icon_metro-profile" data-name="Icon metro-profile" d="M58.087,13.9H54.051V7.84L45.72,7.712l.043,6.183H20.73L20.9,7.712l-8.158.128v6.183L8.621,13.9A4.124,4.124,0,0,0,4.5,18.018V46.873a4.124,4.124,0,0,0,4.122,4.122H58.087a4.124,4.124,0,0,0,4.122-4.122V18.018A4.124,4.124,0,0,0,58.087,13.9ZM47.781,9.773H51.9v8.244H47.781ZM20.987,23.813c2.49,0,4.51,2.653,4.51,5.926s-2.02,5.926-4.51,5.926-4.51-2.653-4.51-5.926,2.02-5.926,4.51-5.926ZM14.8,9.773h4.122v8.244H14.8Zm-2.747,32.87s.488-3.92,1.6-4.66a15.807,15.807,0,0,1,4.308-1.233s2.073,2.216,2.956,2.216,2.954-2.216,2.954-2.216a15.759,15.759,0,0,1,4.31,1.233c1.3.87,1.63,4.66,1.63,4.66H12.057Zm41.908-1.954H35.415V38.628h18.55Zm0-4.122H35.415V34.506h18.55Zm0-4.122H35.415V30.384h18.55Zm0-4.122H35.415V26.262h18.55Z" transform="translate(-4.499 -7.712)" fill="#01345b"/>
</svg>
