<svg xmlns="http://www.w3.org/2000/svg" width="330" height="338.518" viewBox="0 0 330 338.518">
  <g id="Image_upload-amico" data-name="Image upload-amico" transform="translate(-30.46 -32.636)" opacity="0.8">
    <g id="freepik--Floor--inject-7" transform="translate(30.46 189.751)">
      <ellipse id="freepik--floor--inject-7-2" data-name="freepik--floor--inject-7" cx="165" cy="90.701" rx="165" ry="90.701" transform="translate(0 0)" fill="#f5f5f5"/>
    </g>
    <g id="freepik--Shadows--inject-7" transform="translate(45.768 195.687)">
      <ellipse id="freepik--Shadow--inject-7" cx="28.812" cy="16.637" rx="28.812" ry="16.637" transform="translate(218.118 85.731)" fill="#e0e0e0" opacity="0.4"/>
      <path id="freepik--shadow--inject-7-2" data-name="freepik--shadow--inject-7" d="M58.439,364.736l-6.227-3.6c-1.962-1.133-1.962-2.966,0-4.1L238.476,249.494a7.862,7.862,0,0,1,7.11,0l6.22,3.594c1.962,1.14,1.962,2.974,0,4.1L65.542,364.736A7.863,7.863,0,0,1,58.439,364.736Z" transform="translate(-50.74 -248.645)" fill="#e0e0e0"/>
    </g>
    <g id="freepik--Clouds--inject-7" transform="translate(51.18 53.67)">
      <g id="freepik--clouds--inject-7-2" data-name="freepik--clouds--inject-7" transform="translate(0 0)">
        <path id="Path_3058" data-name="Path 3058" d="M89.4,65.309l-5.367,3.117a7.58,7.58,0,0,0,.045-.815V65.8c0-3.193-1.94-4.665-4.34-3.283a7.949,7.949,0,0,0-2.582,2.642c-.392-4.053-3.125-5.789-6.439-3.88-3.586,2.068-6.492,7.624-6.492,12.4v2.687a8.437,8.437,0,0,0,.544,3.156L60.318,82.1a5.774,5.774,0,0,0-2.408,4.6c0,1.774,1.079,2.589,2.408,1.819L89.4,71.724a5.75,5.75,0,0,0,2.408-4.6C91.81,65.354,90.73,64.546,89.4,65.309Z" transform="translate(-57.91 -60.502)" fill="#e0d0e8"/>
        <path id="Path_3059" data-name="Path 3059" d="M137.575,78.114l-4.047,2.341a5.826,5.826,0,0,0,0-.62V78.483c0-2.415-1.464-3.525-3.268-2.476A5.972,5.972,0,0,0,128.305,78c-.294-3.019-2.355-4.37-4.854-2.928-2.71,1.562-4.9,5.751-4.9,9.36v2.023a6.337,6.337,0,0,0,.415,2.385L115.6,90.78a4.355,4.355,0,0,0-1.813,3.472c0,1.336.808,1.956,1.813,1.374l21.973-12.673a4.333,4.333,0,0,0,1.819-3.465C139.394,78.151,138.58,77.532,137.575,78.114Z" transform="translate(-71.609 -63.932)" fill="#e0d0e8"/>
      </g>
    </g>
    <g id="freepik--Window--inject-7" transform="translate(48.455 32.636)">
      <g id="freepik--window--inject-7-2" data-name="freepik--window--inject-7" transform="translate(0 0)">
        <path id="Path_3060" data-name="Path 3060" d="M61,161.988,254.37,50.325V39h0a4.129,4.129,0,0,0-.068-.71.45.45,0,0,0,0-.091,2.9,2.9,0,0,0-.166-.544l-.046-.113a2.189,2.189,0,0,0-.256-.407l-.09-.1a1.45,1.45,0,0,0-.325-.28,1.538,1.538,0,0,0-.242-.136.6.6,0,0,1,.1.045c-.415-.256-1.623-.951-2.891-1.683l-3.638-2.076-.09-.053-.249-.121a2.717,2.717,0,0,0-2.265.37L72.725,132.1l-14.877,8.575a5.469,5.469,0,0,0-.71.5,7.956,7.956,0,0,0-2.838,5.654v11.322L60.965,162Z" transform="translate(-54.3 -32.636)" fill="#00688b"/>
        <path id="Path_3061" data-name="Path 3061" d="M318.262,38.273l-.122-.083Z" transform="translate(-118.983 -33.998)" fill="#f5f5f5"/>
        <path id="Path_3062" data-name="Path 3062" d="M318.088,38.153a1.231,1.231,0,0,0-.168-.113l.071.038Z" transform="translate(-118.931 -33.96)" fill="#f5f5f5"/>
        <path id="Path_3063" data-name="Path 3063" d="M318.5,38.5a1.172,1.172,0,0,0-.2-.2A1.6,1.6,0,0,1,318.5,38.5Z" transform="translate(-119.022 -34.025)" fill="#f5f5f5"/>
        <path id="Path_3064" data-name="Path 3064" d="M66.725,145.774,252.989,38.233c1.963-1.133,3.555-.211,3.555,2.053V197.609a7.847,7.847,0,0,1-3.555,6.152L66.725,311.3c-1.962,1.132-3.555.211-3.555-2.053V151.919A7.85,7.85,0,0,1,66.725,145.774Z" transform="translate(-56.475 -33.889)" fill="#f0f0f0"/>
        <path id="Path_3065" data-name="Path 3065" d="M252.989,38.233,66.725,145.774a7.85,7.85,0,0,0-3.555,6.144v11.323L256.544,51.578V40.256C256.544,38.021,254.952,37.1,252.989,38.233Z" transform="translate(-56.475 -33.889)" fill="#00688b"/>
        <path id="Path_3066" data-name="Path 3066" d="M55.371,179.28a7.26,7.26,0,0,0-1.041,3.5V194.1L61,197.955V186.616a7.275,7.275,0,0,1,1.042-3.5Z" transform="translate(-54.307 -68.587)" opacity="0.1"/>
        <path id="Path_3067" data-name="Path 3067" d="M246.991,32.926a2.5,2.5,0,0,0-2.513.249L58.184,140.687a7.244,7.244,0,0,0-2.514,2.657l6.673,3.85a7.24,7.24,0,0,1,2.514-2.657L251.15,36.995a2.507,2.507,0,0,1,2.446-.28C252.638,36.142,247.648,33.251,246.991,32.926Z" transform="translate(-54.636 -32.651)" fill="#fff" opacity="0.4"/>
        <path id="Path_3068" data-name="Path 3068" d="M61.975,351.009c-.913-.513-6.039-3.442-6.65-3.843a2.509,2.509,0,0,1-.989-2.263V198.88l6.673,3.85V348.753A2.538,2.538,0,0,0,61.975,351.009Z" transform="translate(-54.305 -73.393)" fill="#e6e6e6"/>
        <path id="Path_3069" data-name="Path 3069" d="M288.32,59a5.527,5.527,0,0,0-2.1,4.438c0,1.781.938,2.687,2.1,2.023s2.1-2.657,2.1-4.446S289.491,58.335,288.32,59Z" transform="translate(-111.159 -39.045)" fill="#455a64"/>
        <path id="Path_3070" data-name="Path 3070" d="M298.32,53.218a5.536,5.536,0,0,0-2.1,4.438c0,1.782.945,2.687,2.1,2.015a5.546,5.546,0,0,0,2.1-4.438C300.417,53.452,299.5,52.546,298.32,53.218Z" transform="translate(-113.609 -37.627)" fill="#455a64"/>
        <path id="Path_3071" data-name="Path 3071" d="M308.322,47.428a5.543,5.543,0,0,0-2.092,4.438c0,1.782.938,2.687,2.092,2.023a5.539,5.539,0,0,0,2.1-4.446C310.419,47.654,309.5,46.756,308.322,47.428Z" transform="translate(-116.063 -36.208)" fill="#455a64"/>
        <path id="Path_3072" data-name="Path 3072" d="M76.42,199.851l90.022-51.971V267.221L76.42,319.191Z" transform="translate(-59.723 -60.888)" fill="#00688b" opacity="0.15"/>
        <path id="Path_3073" data-name="Path 3073" d="M76.236,218.082a.575.575,0,0,1-.566-.566v-1.13a.554.554,0,0,1,.287-.493l.981-.564a.558.558,0,0,1,.756.2.574.574,0,0,1-.2.754l-.7.4v.808a.565.565,0,0,1-.551.588Z" transform="translate(-59.539 -77.408)" fill="#00688b"/>
        <path id="Path_3074" data-name="Path 3074" d="M81.928,198.633a.57.57,0,0,1-.491-.278.561.561,0,0,1,.2-.756l1.985-1.146a.565.565,0,0,1,.754.2.575.575,0,0,1-.211.756l-1.985,1.14A.54.54,0,0,1,81.928,198.633Zm5.284-3.057a.552.552,0,0,1-.28-1.034l1.985-1.139a.566.566,0,0,1,.566.973l-1.978,1.095a.579.579,0,0,1-.287.1Zm5.284-3.019a.569.569,0,0,1-.491-.28.574.574,0,0,1,.2-.754l1.993-1.149a.556.556,0,0,1,.551.967l-1.954,1.11a.521.521,0,0,1-.28.068Zm5.284-3.057a.567.567,0,0,1-.287-1.057l1.985-1.149a.576.576,0,0,1,.754.211.566.566,0,0,1-.212.756l-1.984,1.149a.578.578,0,0,1-.219.021Zm5.284-3.02a.567.567,0,0,1-.28-1.057l1.985-1.146a.566.566,0,1,1,.566.98l-1.985,1.147a.557.557,0,0,1-.242.007Zm5.284-3.058a.557.557,0,0,1-.28-1.041l1.985-1.147a.566.566,0,1,1,.566.981l-1.985,1.146a.508.508,0,0,1-.226-.015Zm5.284-3.057a.57.57,0,0,1-.49-.287.559.559,0,0,1,.2-.756l1.985-1.146a.566.566,0,1,1,.566.98l-1.985,1.149a.546.546,0,0,1-.2-.016Zm5.284-3.02a.566.566,0,0,1-.287-1.056l1.985-1.147a.567.567,0,0,1,.754.2.575.575,0,0,1-.211.756l-1.985,1.149a.7.7,0,0,1-.167-.016Zm5.284-3.055a.567.567,0,0,1-.279-1.058l1.985-1.146a.558.558,0,0,1,.754.2.567.567,0,0,1-.2.756l-1.986,1.146a.594.594,0,0,1-.173-.015Zm5.284-3.065a.567.567,0,0,1-.286-1.058l1.985-1.139a.567.567,0,0,1,.755.205.558.558,0,0,1-.211.753l-1.985,1.147a.441.441,0,0,1-.143-.023Zm5.284-3.02a.549.549,0,0,1-.49-.278.565.565,0,0,1,.2-.756l1.985-1.147a.555.555,0,0,1,.544.967l-1.985,1.147a.571.571,0,0,1-.129-.084Zm5.284-3.057a.567.567,0,0,1-.49-.28.573.573,0,0,1,.211-.754l1.985-1.147a.566.566,0,0,1,.756.211.56.56,0,0,1-.2.756l-1.986,1.146a.589.589,0,0,1-.135-.082Zm5.284-3.019a.554.554,0,0,1-.287-1.034l1.992-1.149a.567.567,0,0,1,.566.981l-1.993,1.147a.528.528,0,0,1-.129-.137Zm5.284-3.059a.565.565,0,0,1-.287-1.055l1.985-1.149a.567.567,0,0,1,.566.981L150.9,159a.631.631,0,0,1-.114-.115Zm5.284-3.057a.565.565,0,0,1-.28-1.055l1.985-1.149a.559.559,0,0,1,.756.2.566.566,0,0,1-.2.754l-1.986,1.149a.575.575,0,0,1-.1-.092ZM161.185,153a.56.56,0,0,1-.287-1.041l1.992-1.147a.56.56,0,0,1,.756.2.568.568,0,0,1-.2.756l-1.993,1.149a.5.5,0,0,1-.075-.145Z" transform="translate(-60.936 -61.589)" fill="#00688b"/>
        <path id="Path_3075" data-name="Path 3075" d="M195.184,149.4a.567.567,0,0,1-.566-.565v-.159l-.137.083a.566.566,0,0,1-.754-.212.558.558,0,0,1,.2-.754l.981-.566a.549.549,0,0,1,.566,0,.564.564,0,0,1,.288.491v1.133A.574.574,0,0,1,195.184,149.4Z" transform="translate(-88.464 -60.709)" fill="#00688b"/>
        <path id="Path_3076" data-name="Path 3076" d="M195.494,264.31a.564.564,0,0,1-.4-.162.554.554,0,0,1-.161-.4v-2.264a.565.565,0,1,1,1.13,0v2.264A.567.567,0,0,1,195.494,264.31Zm0-5.963a.565.565,0,0,1-.564-.566v-2.264a.565.565,0,1,1,1.13,0v2.264A.573.573,0,0,1,195.494,258.347Zm0-5.97a.565.565,0,0,1-.4-.164.552.552,0,0,1-.161-.4v-2.263a.565.565,0,1,1,1.13,0v2.263A.567.567,0,0,1,195.494,252.377Zm0-5.964a.558.558,0,0,1-.4-.162.552.552,0,0,1-.161-.4v-2.264a.565.565,0,1,1,1.13,0v2.264A.566.566,0,0,1,195.494,246.412Zm0-5.963a.564.564,0,0,1-.564-.565V237.62a.565.565,0,1,1,1.13,0v2.264A.573.573,0,0,1,195.494,240.449Zm0-5.97a.558.558,0,0,1-.4-.162.552.552,0,0,1-.161-.4v-2.264a.565.565,0,1,1,1.13,0v2.264A.566.566,0,0,1,195.494,234.479Zm0-5.963a.564.564,0,0,1-.564-.565v-2.264a.565.565,0,1,1,1.13,0v2.264A.573.573,0,0,1,195.494,228.516Zm0-5.962a.565.565,0,0,1-.564-.568v-2.264a.565.565,0,1,1,1.13,0v2.264a.571.571,0,0,1-.159.413.58.58,0,0,1-.408.177Zm0-5.972a.56.56,0,0,1-.4-.164.552.552,0,0,1-.161-.4v-2.264a.565.565,0,1,1,1.13,0v2.264A.567.567,0,0,1,195.494,216.582Zm0-5.962a.565.565,0,0,1-.564-.568v-2.264a.565.565,0,1,1,1.13,0v2.264A.575.575,0,0,1,195.494,210.62Zm0-5.964a.564.564,0,0,1-.564-.568v-2.263a.565.565,0,1,1,1.13,0v2.263A.574.574,0,0,1,195.494,204.656Zm0-5.972a.553.553,0,0,1-.564-.565v-2.264a.565.565,0,1,1,1.13,0v2.264A.567.567,0,0,1,195.494,198.684Zm0-5.962a.565.565,0,0,1-.564-.568V189.89a.565.565,0,1,1,1.13,0v2.264A.574.574,0,0,1,195.494,192.722Zm0-5.963a.565.565,0,0,1-.564-.566v-2.266a.565.565,0,1,1,1.13,0v2.264A.574.574,0,0,1,195.494,186.759Zm0-5.97a.561.561,0,0,1-.4-.165.551.551,0,0,1-.161-.4v-2.264a.565.565,0,1,1,1.13,0v2.264A.567.567,0,0,1,195.494,180.788Zm0-5.964a.564.564,0,0,1-.564-.565v-2.266a.565.565,0,1,1,1.13,0v2.266A.574.574,0,0,1,195.494,174.824Zm0-5.963a.564.564,0,0,1-.564-.565v-2.264a.565.565,0,1,1,1.13,0V168.3A.573.573,0,0,1,195.494,168.861Zm0-5.97a.561.561,0,0,1-.4-.165.547.547,0,0,1-.161-.4V160.06a.565.565,0,1,1,1.13,0v2.266A.566.566,0,0,1,195.494,162.891Zm0-5.963a.565.565,0,0,1-.564-.566V154.1a.565.565,0,1,1,1.13,0v2.263a.574.574,0,0,1-.566.544Z" transform="translate(-88.777 -62.275)" fill="#00688b"/>
        <path id="Path_3077" data-name="Path 3077" d="M194.195,306.56a.566.566,0,0,1-.288-1.057l.7-.4v-.811a.566.566,0,0,1,1.133,0v1.15a.563.563,0,0,1-.288.488l-.979.569A.56.56,0,0,1,194.195,306.56Z" transform="translate(-88.456 -99.098)" fill="#00688b"/>
        <path id="Path_3078" data-name="Path 3078" d="M81.921,356.7a.55.55,0,0,1-.483-.278.57.57,0,0,1,.2-.757l1.985-1.147a.576.576,0,0,1,.755.212.565.565,0,0,1-.212.754l-1.985,1.147A.557.557,0,0,1,81.921,356.7Zm5.284-3.059a.549.549,0,0,1-.491-.286.566.566,0,0,1,.211-.754l1.986-1.147a.566.566,0,1,1,.565.981l-1.985,1.145a.528.528,0,0,1-.272.061Zm5.284-3.054A.569.569,0,0,1,92,350.3a.561.561,0,0,1,.2-.757l1.993-1.145a.557.557,0,0,1,.755.2.571.571,0,0,1-.2.754L92.753,350.5a.51.51,0,0,1-.234.085Zm5.284-3.059a.559.559,0,0,1-.551-.415.572.572,0,0,1,.264-.642l1.985-1.145a.563.563,0,0,1,.754.2.572.572,0,0,1-.211.754l-1.985,1.147a.676.676,0,0,1-.212.1Zm5.284-3.018a.567.567,0,0,1-.28-1.057l1.985-1.147a.558.558,0,0,1,.755.205.566.566,0,0,1-.2.754l-1.917,1.13a.6.6,0,0,1-.287.076Zm5.284-3.064a.568.568,0,0,1-.287-1.052l1.993-1.147a.57.57,0,0,1,.722.232.565.565,0,0,1-.157.742l-1.992,1.147a.513.513,0,0,1-.211.007Zm5.284-3.059a.562.562,0,0,1-.551-.415.57.57,0,0,1,.264-.642l1.985-1.147a.577.577,0,0,1,.754.21.568.568,0,0,1-.211.757l-1.985,1.147a.552.552,0,0,1-.174.061Zm5.284-3.057a.565.565,0,0,1-.28-1.055l1.986-1.147a.556.556,0,0,1,.551.967l-1.985,1.143a.441.441,0,0,1-.181.054Zm5.284-3.057a.572.572,0,0,1-.49-.278.565.565,0,0,1,.212-.754l2.09-1.187a.567.567,0,1,1,.566.981l-1.985,1.147a.553.553,0,0,1-.287.051Zm5.284-3.057a.568.568,0,0,1-.286-1.06l1.985-1.147a.555.555,0,0,1,.544.967l-1.985,1.147a.545.545,0,0,1-.136.054Zm5.284-3.018a.568.568,0,0,1-.286-1.06l1.985-1.147a.567.567,0,0,1,.566.981l-1.985,1.147a.471.471,0,0,1-.143,0Zm5.284-3.059a.566.566,0,0,1-.278-1.057l1.985-1.147a.559.559,0,0,1,.755.2.569.569,0,0,1-.2.757l-1.985,1.147a.754.754,0,0,1-.129.02Zm5.284-3.059a.568.568,0,0,1-.491-.286.559.559,0,0,1,.2-.754l1.985-1.147a.566.566,0,1,1,.566.979l-1.985,1.143a.5.5,0,0,1-.121-.007Zm5.284-3.064a.54.54,0,0,1-.491-.278.57.57,0,0,1,.2-.757l1.985-1.138a.566.566,0,1,1,.566.974l-1.985,1.147a.772.772,0,0,1-.106-.022Zm5.283-3.054a.553.553,0,0,1-.279-1.035l1.984-1.147a.557.557,0,0,1,.552.967l-1.985,1.145a.366.366,0,0,1-.09-.007Zm5.284-3.059a.553.553,0,0,1-.287-1.033l1.993-1.15a.566.566,0,0,1,.755.212.559.559,0,0,1-.2.754l-1.992,1.15a.59.59,0,0,1-.068-.012Z" transform="translate(-60.936 -100.303)" fill="#00688b"/>
        <path id="Path_3079" data-name="Path 3079" d="M76.236,374.846a.566.566,0,0,1-.4-.166.554.554,0,0,1-.164-.4v-1.133a.566.566,0,0,1,1.133,0v.151l.128-.078a.578.578,0,0,1,.756.215.554.554,0,0,1-.212.752l-.981.566A.5.5,0,0,1,76.236,374.846Z" transform="translate(-59.539 -115.976)" fill="#00688b"/>
        <path id="Path_3080" data-name="Path 3080" d="M76.236,333.161a.566.566,0,0,1-.566-.566v-2.263a.566.566,0,1,1,1.133,0v2.263A.566.566,0,0,1,76.236,333.161Zm0-5.964a.574.574,0,0,1-.566-.566v-2.263a.566.566,0,0,1,1.133,0v2.263A.574.574,0,0,1,76.236,327.2Zm0-5.962a.575.575,0,0,1-.566-.566V318.4a.566.566,0,0,1,1.133,0v2.266A.575.575,0,0,1,76.236,321.235Zm0-5.972h0a.566.566,0,0,1-.566-.566v-2.263a.566.566,0,0,1,.566-.566h0a.566.566,0,0,1,.566.566V314.7A.566.566,0,0,1,76.236,315.263Zm0-5.962a.576.576,0,0,1-.566-.569v-2.263a.566.566,0,0,1,1.133,0v2.263A.576.576,0,0,1,76.236,309.3Zm0-5.964a.574.574,0,0,1-.566-.566v-2.266a.566.566,0,0,1,1.133,0v2.266A.574.574,0,0,1,76.236,303.337Zm0-5.972a.565.565,0,0,1-.566-.566v-2.263a.566.566,0,0,1,1.133,0V296.8A.565.565,0,0,1,76.236,297.365Zm0-5.962a.575.575,0,0,1-.566-.566v-2.266a.566.566,0,0,1,1.133,0v2.266A.575.575,0,0,1,76.236,291.4Zm0-5.964a.571.571,0,0,1-.566-.564v-2.268a.566.566,0,0,1,1.133,0v2.268A.571.571,0,0,1,76.236,285.439Zm0-5.969h0a.567.567,0,0,1-.566-.569v-2.263a.566.566,0,0,1,.566-.566h0a.575.575,0,0,1,.4.164.562.562,0,0,1,.164.4V278.9a.565.565,0,0,1-.566.559Zm0-5.964a.574.574,0,0,1-.566-.566v-2.266a.566.566,0,0,1,1.133,0v2.266A.574.574,0,0,1,76.236,273.506Zm0-5.969a.567.567,0,0,1-.566-.569V264.7a.566.566,0,0,1,1.133,0v2.263A.567.567,0,0,1,76.236,267.536Zm0-5.964a.566.566,0,0,1-.566-.566V258.74a.566.566,0,0,1,1.133,0v2.266A.566.566,0,0,1,76.236,261.572Zm0-5.964a.571.571,0,0,1-.566-.564v-2.266a.566.566,0,0,1,1.133,0v2.266A.571.571,0,0,1,76.236,255.608Zm0-5.969a.566.566,0,0,1-.566-.566v-2.266a.566.566,0,0,1,1.133,0v2.266A.566.566,0,0,1,76.236,249.638Zm0-5.964a.571.571,0,0,1-.566-.564v-2.266a.566.566,0,0,1,1.133,0v2.266A.571.571,0,0,1,76.236,243.674Zm0-5.962a.575.575,0,0,1-.566-.566V234.88a.566.566,0,0,1,1.133,0v2.266A.566.566,0,0,1,76.236,237.712Zm0-5.972a.566.566,0,0,1-.566-.566v-2.263a.566.566,0,0,1,1.133,0v2.263a.562.562,0,0,1-.164.4A.555.555,0,0,1,76.236,231.74Zm0-5.964a.571.571,0,0,1-.566-.564v-2.266a.566.566,0,0,1,1.133,0v2.266A.564.564,0,0,1,76.236,225.776Z" transform="translate(-59.539 -79.153)" fill="#00688b"/>
        <path id="Path_3081" data-name="Path 3081" d="M127.474,258.256a.731.731,0,0,1-.377-.1.752.752,0,0,1-.377-.654v-7.036a.755.755,0,0,1,1.51,0v5.73L139.3,249.8v-6.6a.754.754,0,0,1,1.509,0v7.036a.75.75,0,0,1-.377.657l-12.574,7.261A.736.736,0,0,1,127.474,258.256Z" transform="translate(-72.055 -84.075)" fill="#00688b"/>
        <path id="Path_3082" data-name="Path 3082" d="M130.546,242.174a.793.793,0,0,1-.272-.046.753.753,0,0,1-.431-.979l3.774-9.814a.757.757,0,0,1,.619-.476.765.765,0,0,1,.71.317l3.773,5.427a.754.754,0,1,1-1.237.862l-3.005-4.236-3.254,8.447A.75.75,0,0,1,130.546,242.174Z" transform="translate(-72.808 -81.231)" fill="#00688b"/>
        <path id="Path_3083" data-name="Path 3083" d="M135.543,247.542a.753.753,0,0,1-.753-.754V233.154a.754.754,0,1,1,1.509,0v13.633A.754.754,0,0,1,135.543,247.542Z" transform="translate(-74.033 -81.61)" fill="#00688b"/>
        <path id="Path_3084" data-name="Path 3084" d="M113.535,290.7l33.129-19.141c.981-.566,1.775-.107,1.775,1.028v9.353a3.936,3.936,0,0,1-1.775,3.076L113.535,304.14c-.981.566-1.775.1-1.775-1.025v-9.353A3.943,3.943,0,0,1,113.535,290.7Z" transform="translate(-68.387 -91.152)" fill="#00688b"/>
        <path id="Path_3085" data-name="Path 3085" d="M121.217,297.879a.522.522,0,0,1,.061-.249.347.347,0,0,1,.135-.171l.558-.325a.114.114,0,0,1,.144,0,.245.245,0,0,1,.06.181V300.2a1.911,1.911,0,0,0,.189.986c.128.2.332.212.619.054a1.458,1.458,0,0,0,.6-.754,3.35,3.35,0,0,0,.2-1.216v-2.891a.593.593,0,0,1,.061-.247.351.351,0,0,1,.143-.168l.559-.322a.107.107,0,0,1,.143,0,.244.244,0,0,1,.061.181V301.1a.613.613,0,0,1-.061.249.451.451,0,0,1-.143.176l-.559.322a.119.119,0,0,1-.143,0,.25.25,0,0,1-.061-.183v-.261a4.477,4.477,0,0,1-.422.715,1.936,1.936,0,0,1-.6.562,1.238,1.238,0,0,1-.756.21.679.679,0,0,1-.468-.3,1.767,1.767,0,0,1-.256-.7,6.307,6.307,0,0,1-.068-.984Z" transform="translate(-70.704 -97.107)" fill="#fafafa"/>
        <path id="Path_3086" data-name="Path 3086" d="M129.325,299.076a1.282,1.282,0,0,1-.415.164.7.7,0,0,1-.317,0,.671.671,0,0,1-.233-.081.892.892,0,0,1-.151-.137v2.424a.592.592,0,0,1-.06.247.4.4,0,0,1-.144.176l-.559.325a.112.112,0,0,1-.143,0,.284.284,0,0,1-.052-.19v-7.456a.578.578,0,0,1,.052-.249.431.431,0,0,1,.143-.173L128,293.8a.121.121,0,0,1,.144,0,.289.289,0,0,1,.06.19v.256c0-.09.092-.2.151-.308a3.889,3.889,0,0,1,.233-.356,3.126,3.126,0,0,1,.317-.356,2.022,2.022,0,0,1,.415-.3.971.971,0,0,1,.664-.166.813.813,0,0,1,.514.3,1.857,1.857,0,0,1,.332.662,4.3,4.3,0,0,1,.137.93v.793a6.957,6.957,0,0,1-.137,1.086,6.253,6.253,0,0,1-.332,1.04,4.063,4.063,0,0,1-.514.894A2.376,2.376,0,0,1,129.325,299.076Zm.687-3.149a4.59,4.59,0,0,0,0-.635,1.111,1.111,0,0,0-.3-.9.539.539,0,0,0-.612,0,1.66,1.66,0,0,0-.612.686,2.732,2.732,0,0,0-.28,1.1,3.854,3.854,0,0,0,0,.444,3.483,3.483,0,0,0,0,.422,1.079,1.079,0,0,0,.28.754.5.5,0,0,0,.612,0,1.6,1.6,0,0,0,.612-.679,2.854,2.854,0,0,0,.3-1.169Z" transform="translate(-72.185 -96.408)" fill="#fafafa"/>
        <path id="Path_3087" data-name="Path 3087" d="M134.267,295.437a.605.605,0,0,1-.061.251.431.431,0,0,1-.143.171l-.558.327h-.145a.286.286,0,0,1-.06-.188V288.54a.613.613,0,0,1,.06-.249.354.354,0,0,1,.145-.176l.558-.322a.107.107,0,0,1,.143,0,.242.242,0,0,1,.061.178Z" transform="translate(-73.667 -95.185)" fill="#fafafa"/>
        <path id="Path_3088" data-name="Path 3088" d="M137.561,288.2a1.554,1.554,0,0,1,.754-.232.884.884,0,0,1,.566.2,1.313,1.313,0,0,1,.385.574,2.751,2.751,0,0,1,.167.884,2.288,2.288,0,0,1,0,.259v.9a5.374,5.374,0,0,1-.167,1.074,5.065,5.065,0,0,1-.385,1.008,4.172,4.172,0,0,1-.566.859,2.8,2.8,0,0,1-.754.615,1.524,1.524,0,0,1-.754.232.816.816,0,0,1-.566-.2,1.253,1.253,0,0,1-.377-.566,3,3,0,0,1-.175-.884c0-.083,0-.166,0-.247v-.9a4.806,4.806,0,0,1,.166-1.069,5.353,5.353,0,0,1,.386-1.021,3.982,3.982,0,0,1,.566-.859A2.686,2.686,0,0,1,137.561,288.2Zm.89,2.041a1.563,1.563,0,0,0-.106-.522.542.542,0,0,0-.211-.249.425.425,0,0,0-.27,0,1.105,1.105,0,0,0-.3.127,1.417,1.417,0,0,0-.3.229,1.37,1.37,0,0,0-.281.339,2.964,2.964,0,0,0-.211.488,3.244,3.244,0,0,0-.106.652c0,.078,0,.154,0,.232v.574c0,.073,0,.149,0,.217a1.661,1.661,0,0,0,.106.525.572.572,0,0,0,.211.249.426.426,0,0,0,.281,0,1.659,1.659,0,0,0,.3-.122,1.867,1.867,0,0,0,.3-.227,1.614,1.614,0,0,0,.27-.347,2.247,2.247,0,0,0,.211-.491,2.91,2.91,0,0,0,.106-.649,1.761,1.761,0,0,0,0-.227v-.574a1.507,1.507,0,0,0,0-.21Z" transform="translate(-74.252 -95.235)" fill="#fafafa"/>
        <path id="Path_3089" data-name="Path 3089" d="M141.659,287.4a2.415,2.415,0,0,1,.137-.591,3.481,3.481,0,0,1,.3-.684,3.231,3.231,0,0,1,.483-.674,2.6,2.6,0,0,1,.658-.537,1.628,1.628,0,0,1,.677-.239.755.755,0,0,1,.522.149,1.173,1.173,0,0,1,.339.552,3.43,3.43,0,0,1,.112.959v3.345a.557.557,0,0,1-.052.247.4.4,0,0,1-.144.176l-.558.322h-.144a.241.241,0,0,1-.06-.181v-.376a3.535,3.535,0,0,1-.446.823,2.519,2.519,0,0,1-.754.664,1.5,1.5,0,0,1-.575.2.58.58,0,0,1-.414-.129.819.819,0,0,1-.264-.413,2.023,2.023,0,0,1-.1-.657,3,3,0,0,1,.363-1.433,4.1,4.1,0,0,1,.973-1.167l1.2-1.011c0-.308-.067-.488-.2-.542a.573.573,0,0,0-.5.09.932.932,0,0,0-.287.242,2.049,2.049,0,0,0-.2.332.951.951,0,0,1-.129.2.321.321,0,0,1-.12.1l-.687.4h-.121C141.651,287.568,141.645,287.485,141.659,287.4Zm1.23,2.49a1.67,1.67,0,0,0,.444-.361,2.145,2.145,0,0,0,.333-.483,2.349,2.349,0,0,0,.2-.52,2.163,2.163,0,0,0,.067-.508v-.083l-1,.852a2.082,2.082,0,0,0-.437.483,1.031,1.031,0,0,0-.128.493c0,.159.052.249.157.261A.584.584,0,0,0,142.89,289.894Z" transform="translate(-75.649 -94.425)" fill="#fafafa"/>
        <path id="Path_3090" data-name="Path 3090" d="M148.754,280.827a1.47,1.47,0,0,1,.417-.168.981.981,0,0,1,.316,0,.6.6,0,0,1,.233.09.654.654,0,0,1,.151.139v-2.441a.607.607,0,0,1,.061-.254.348.348,0,0,1,.135-.168l.565-.322a.116.116,0,0,1,.145,0,.242.242,0,0,1,.051.181v7.466a.581.581,0,0,1-.051.249.4.4,0,0,1-.145.164l-.565.327a.1.1,0,0,1-.135,0,.25.25,0,0,1-.061-.183v-.264a2.941,2.941,0,0,1-.151.308,2.971,2.971,0,0,1-.233.364,3.116,3.116,0,0,1-.316.354,2.566,2.566,0,0,1-.417.3,1,1,0,0,1-.663.164.819.819,0,0,1-.513-.3,1.828,1.828,0,0,1-.333-.654,3.577,3.577,0,0,1-.135-.93v-.8a5.484,5.484,0,0,1,.135-1.079,6.488,6.488,0,0,1,.333-1.047,4.141,4.141,0,0,1,.513-.884A2.181,2.181,0,0,1,148.754,280.827Zm-.686,3.154a4.555,4.555,0,0,0,0,.632,1.124,1.124,0,0,0,.3.894.54.54,0,0,0,.618,0,1.6,1.6,0,0,0,.6-.684,2.637,2.637,0,0,0,.287-1.106v-.864a1.014,1.014,0,0,0-.287-.752.5.5,0,0,0-.6,0,1.768,1.768,0,0,0-.618.679,3.013,3.013,0,0,0-.3,1.179Z" transform="translate(-77.054 -92.709)" fill="#fafafa"/>
        <path id="Path_3091" data-name="Path 3091" d="M204.388,161.535a.4.4,0,0,1-.188-.046.379.379,0,0,1-.19-.332V138.066a.38.38,0,0,1,.19-.323l26.667-15.4a.381.381,0,0,1,.378,0,.364.364,0,0,1,.188.325v23.091a.378.378,0,0,1-.188.332l-26.67,15.4A.4.4,0,0,1,204.388,161.535Zm.378-23.25v22.223l25.913-14.961V123.325Z" transform="translate(-91.004 -54.616)" fill="#00688b"/>
        <path id="Path_3092" data-name="Path 3092" d="M204.389,162.256a.382.382,0,0,1-.322-.183.378.378,0,0,1-.01-.367l8.882-17.452a.377.377,0,0,1,.244-.188.359.359,0,0,1,.3.045l9.624,6.16a.377.377,0,0,1-.408.632l-9.277-5.931-8.665,17.083A.382.382,0,0,1,204.389,162.256Z" transform="translate(-91.005 -59.951)" fill="#00688b"/>
        <path id="Path_3093" data-name="Path 3093" d="M225.107,148.186a.428.428,0,0,1-.212-.06.38.38,0,0,1-.1-.521l4.7-7.2a.373.373,0,0,1,.234-.162.362.362,0,0,1,.278.05l6.333,3.9a.384.384,0,0,1,.122.52.366.366,0,0,1-.52.121l-6.04-3.712-4.529,6.891A.358.358,0,0,1,225.107,148.186Z" transform="translate(-96.082 -59.014)" fill="#00688b"/>
        <path id="Path_3094" data-name="Path 3094" d="M223.463,141.229a1.333,1.333,0,0,1-.679-.181,1.691,1.691,0,0,1-.757-1.556,4.534,4.534,0,0,1,2.092-3.607,1.509,1.509,0,0,1,2.461,1.418,4.576,4.576,0,0,1-2.083,3.616A2.182,2.182,0,0,1,223.463,141.229Zm1.7-4.9a1.354,1.354,0,0,0-.654.2,3.848,3.848,0,0,0-1.714,2.959,1.006,1.006,0,0,0,.371.907,1.023,1.023,0,0,0,.964-.137,3.857,3.857,0,0,0,1.707-2.959.979.979,0,0,0-.371-.9A.554.554,0,0,0,225.16,136.33Z" transform="translate(-95.418 -57.861)" fill="#00688b"/>
        <path id="Path_3095" data-name="Path 3095" d="M305.931,96.811l-.962-.929,1.064-2.264a.49.49,0,1,0-.881-.416l-.928,1.963-.754-.7a.492.492,0,1,0-.681.709l.959.928-1.064,2.266a.491.491,0,0,0,.234.656.508.508,0,0,0,.212.045.49.49,0,0,0,.437-.28l.93-1.962.752.695a.5.5,0,0,0,.342.135.481.481,0,0,0,.339-.159.48.48,0,0,0,0-.686Z" transform="translate(-115.181 -47.404)" fill="#455a64"/>
        <path id="Path_3096" data-name="Path 3096" d="M245.87,133.937c0,1.064.8,1.465,1.782.9l39.785-22.97a3.773,3.773,0,0,0,1.775-2.95c0-1.066-.791-1.465-1.775-.9l-39.785,22.969A3.817,3.817,0,0,0,245.87,133.937Z" transform="translate(-101.265 -51.053)" fill="#e0e0e0"/>
        <path id="Path_3097" data-name="Path 3097" d="M245.87,137.23c0,1.064.8,1.465,1.782.9L269.867,125.3a3.776,3.776,0,0,0,1.775-2.952c0-1.064-.793-1.465-1.775-.9l-22.214,12.832A3.815,3.815,0,0,0,245.87,137.23Z" transform="translate(-101.265 -54.345)" fill="#00688b"/>
        <path id="Path_3098" data-name="Path 3098" d="M246.445,125.9a.071.071,0,0,1,.1,0,.175.175,0,0,1,.046.135v.642a.386.386,0,0,1-.046.181.268.268,0,0,1-.1.121l-.464.264a.058.058,0,0,1-.049.022.057.057,0,0,1-.046-.022.156.156,0,0,1-.046-.128v-.641a.362.362,0,0,1,.046-.181.225.225,0,0,1,.1-.121Zm.112,5.532a.568.568,0,0,1,0,.182.312.312,0,0,1-.107.128l-.4.234a.112.112,0,0,1-.107,0,.182.182,0,0,1-.037-.135V128.01a.355.355,0,0,1,.037-.173.275.275,0,0,1,.107-.128l.4-.234a.088.088,0,0,1,.107,0,.26.26,0,0,1,0,.137Z" transform="translate(-101.258 -55.497)" fill="#455a64"/>
        <path id="Path_3099" data-name="Path 3099" d="M248.465,126.667a3.151,3.151,0,0,1,.31-.543,1.513,1.513,0,0,1,.386-.347.69.69,0,0,1,.544-.121.594.594,0,0,1,.339.309,2.59,2.59,0,0,1,.171-.392,2.409,2.409,0,0,1,.212-.348,2.248,2.248,0,0,1,.234-.271,1.647,1.647,0,0,1,.242-.182.753.753,0,0,1,.505-.143.515.515,0,0,1,.332.234,1.2,1.2,0,0,1,.173.505,4.064,4.064,0,0,1,.054.709v2.2a.425.425,0,0,1-.044.182.261.261,0,0,1-.1.128l-.408.234a.074.074,0,0,1-.1,0,.174.174,0,0,1-.044-.135v-2.167a1.112,1.112,0,0,0-.137-.695c-.1-.1-.227-.1-.393,0a.964.964,0,0,0-.361.422,1.943,1.943,0,0,0-.168.846v2.2a.466.466,0,0,1-.037.182.3.3,0,0,1-.1.128l-.408.234a.094.094,0,0,1-.1,0,.167.167,0,0,1-.044-.137v-2.166a1.193,1.193,0,0,0-.137-.7c-.09-.09-.22-.09-.386,0a.97.97,0,0,0-.378.438,2,2,0,0,0-.159.868v2.167a.392.392,0,0,1-.037.182.276.276,0,0,1-.1.12l-.408.234a.085.085,0,0,1-.107,0,.192.192,0,0,1,0-.128v-3.827a.568.568,0,0,1,0-.182.3.3,0,0,1,.107-.121l.408-.233a.064.064,0,0,1,.049-.021.068.068,0,0,1,.049.021.327.327,0,0,1,.037.128Z" transform="translate(-101.74 -55.189)" fill="#455a64"/>
        <path id="Path_3100" data-name="Path 3100" d="M254.2,124.362a2.5,2.5,0,0,1,.1-.422,2.7,2.7,0,0,1,.566-.981,1.9,1.9,0,0,1,.476-.385,1.246,1.246,0,0,1,.491-.175.582.582,0,0,1,.376.106.891.891,0,0,1,.242.4,2.556,2.556,0,0,1,.083.693v2.416a.425.425,0,0,1-.044.182.251.251,0,0,1-.1.121l-.408.233a.074.074,0,0,1-.049.022.075.075,0,0,1-.051-.022.176.176,0,0,1-.046-.128v-.272a2.559,2.559,0,0,1-.315.59,1.73,1.73,0,0,1-.537.476.974.974,0,0,1-.415.143.406.406,0,0,1-.3-.092.62.62,0,0,1-.19-.293,1.5,1.5,0,0,1-.068-.476,2.1,2.1,0,0,1,.264-1.034,2.95,2.95,0,0,1,.7-.839l.867-.754c0-.226-.044-.355-.142-.393a.416.416,0,0,0-.354.068.624.624,0,0,0-.212.173,1.856,1.856,0,0,0-.144.242.629.629,0,0,1-.083.137.259.259,0,0,1-.09.076l-.5.287a.086.086,0,0,1-.09,0A.156.156,0,0,1,254.2,124.362Zm.894,1.8a1.17,1.17,0,0,0,.315-.264,1.706,1.706,0,0,0,.242-.348,1.907,1.907,0,0,0,.144-.377,1.511,1.511,0,0,0,.044-.363v-.083l-.752.612a1.271,1.271,0,0,0-.31.355.628.628,0,0,0-.1.354c0,.111.037.171.112.182a.4.4,0,0,0,.3-.1Z" transform="translate(-103.261 -54.642)" fill="#455a64"/>
        <path id="Path_3101" data-name="Path 3101" d="M259.458,125.185a1.13,1.13,0,0,0,.232-.189,1.431,1.431,0,0,0,.212-.287,2.381,2.381,0,0,0,.161-.386,2.163,2.163,0,0,0,.061-.453v-.3c-.032.071-.071.146-.115.227a2.208,2.208,0,0,1-.168.256,2.251,2.251,0,0,1-.225.256,1.387,1.387,0,0,1-.3.219.753.753,0,0,1-.483.121.557.557,0,0,1-.361-.219,1.267,1.267,0,0,1-.242-.476,2.6,2.6,0,0,1-.1-.671v-.574a4.3,4.3,0,0,1,.339-1.51,2.809,2.809,0,0,1,.361-.641,1.673,1.673,0,0,1,.483-.438.862.862,0,0,1,.3-.121.466.466,0,0,1,.225,0,.38.38,0,0,1,.168.061l.115.09v-.182a.388.388,0,0,1,.042-.181.261.261,0,0,1,.1-.128l.41-.234a.074.074,0,0,1,.1,0,.167.167,0,0,1,.044.137V123.4a3.743,3.743,0,0,1-.359,1.707,2.559,2.559,0,0,1-1,1.079,1.263,1.263,0,0,1-.5.182.716.716,0,0,1-.405-.061.659.659,0,0,1-.271-.265.883.883,0,0,1-.115-.415.426.426,0,0,1,.046-.181.231.231,0,0,1,.1-.121l.361-.211a.093.093,0,0,1,.063-.027.085.085,0,0,1,.063.027l.085.09a.3.3,0,0,0,.2.121A.7.7,0,0,0,259.458,125.185Zm-.635-2.816a2.072,2.072,0,0,0,0,.46.777.777,0,0,0,.212.642.377.377,0,0,0,.444,0,1.244,1.244,0,0,0,.439-.491,2.072,2.072,0,0,0,.205-.8v-.627a.788.788,0,0,0-.205-.551.363.363,0,0,0-.439,0,1.17,1.17,0,0,0-.444.49A2.064,2.064,0,0,0,258.823,122.369Z" transform="translate(-104.272 -53.909)" fill="#455a64"/>
        <path id="Path_3102" data-name="Path 3102" d="M262.48,120.639a4.587,4.587,0,0,1,.09-.913,3.775,3.775,0,0,1,.264-.861,3.513,3.513,0,0,1,.408-.71,1.876,1.876,0,0,1,.544-.482.819.819,0,0,1,.537-.144.6.6,0,0,1,.413.212,1.146,1.146,0,0,1,.264.513,2.633,2.633,0,0,1,.1.756v.383a.335.335,0,0,1-.044.175.3.3,0,0,1-.1.128l-1.785,1.027a.9.9,0,0,0,.044.3.4.4,0,0,0,.139.166.3.3,0,0,0,.205,0,.583.583,0,0,0,.225-.083,1.148,1.148,0,0,0,.278-.211,1.392,1.392,0,0,0,.173-.233.941.941,0,0,1,.1-.151.375.375,0,0,1,.1-.083l.432-.242a.068.068,0,0,1,.1,0,.148.148,0,0,1,.044.128,2.116,2.116,0,0,1-.081.348,2.667,2.667,0,0,1-.234.482,2.991,2.991,0,0,1-.386.514,2.028,2.028,0,0,1-.52.43.929.929,0,0,1-.544.151.577.577,0,0,1-.408-.219,1.227,1.227,0,0,1-.264-.552A3.387,3.387,0,0,1,262.48,120.639Zm1.306-1.985a.929.929,0,0,0-.266.226,1.186,1.186,0,0,0-.181.287,1.741,1.741,0,0,0-.122.31c-.02.094-.032.19-.044.287l1.2-.695a1.09,1.09,0,0,0-.037-.234.355.355,0,0,0-.1-.188.24.24,0,0,0-.173-.083.54.54,0,0,0-.278.074Z" transform="translate(-105.338 -53.447)" fill="#455a64"/>
        <path id="Path_3103" data-name="Path 3103" d="M266.724,121.75a.074.074,0,0,1-.051.021.068.068,0,0,1-.049-.021.156.156,0,0,1-.044-.128v-.544a.391.391,0,0,1,.044-.181.243.243,0,0,1,.1-.121l3.115-1.781a.092.092,0,0,1,.107,0,.185.185,0,0,1,0,.135v.537a.444.444,0,0,1,0,.179.326.326,0,0,1-.107.129Z" transform="translate(-106.342 -53.803)" fill="#455a64"/>
        <path id="Path_3104" data-name="Path 3104" d="M271.627,113.057a.151.151,0,0,1,0-.144.391.391,0,0,1,.051-.181l1.155-2.068.09-.151a.306.306,0,0,1,.1-.1l.413-.242a.071.071,0,0,1,.051-.022.06.06,0,0,1,.046.022.158.158,0,0,1,.046.128v5.283a.4.4,0,0,1-.046.182.227.227,0,0,1-.1.121l-.43.249a.078.078,0,0,1-.1,0,.167.167,0,0,1,0-.128v-4.054l-.757,1.344a.121.121,0,0,1-.1.1.074.074,0,0,1-.1,0Z" transform="translate(-107.576 -51.64)" fill="#455a64"/>
        <path id="Path_3105" data-name="Path 3105" d="M204.385,203.783a.331.331,0,0,1-.188-.052.361.361,0,0,1-.2-.355v-23.1a.394.394,0,0,1,.188-.325l26.67-15.4a.37.37,0,0,1,.376,0,.375.375,0,0,1,.188.325v23.1a.357.357,0,0,1-.188.323l-26.667,15.4A.34.34,0,0,1,204.385,203.783Zm.376-23.257v22.223l25.916-14.96V165.566Z" transform="translate(-91 -64.965)" fill="#00688b"/>
        <path id="Path_3106" data-name="Path 3106" d="M204.389,204.52a.347.347,0,0,1-.173,0,.375.375,0,0,1-.159-.505l8.884-17.451a.384.384,0,0,1,.544-.151l9.624,6.16a.381.381,0,0,1-.125.688.363.363,0,0,1-.283-.054l-9.277-5.933-8.667,17.043A.384.384,0,0,1,204.389,204.52Z" transform="translate(-91.005 -70.322)" fill="#00688b"/>
        <path id="Path_3107" data-name="Path 3107" d="M225.107,190.417a.374.374,0,0,1-.317-.582l4.7-7.2a.377.377,0,0,1,.513-.112l6.333,3.909a.377.377,0,1,1-.4.641l-6.04-3.712-4.529,6.892A.377.377,0,0,1,225.107,190.417Z" transform="translate(-96.082 -69.369)" fill="#00688b"/>
        <path id="Path_3108" data-name="Path 3108" d="M223.463,183.477a1.389,1.389,0,0,1-.679-.172,1.693,1.693,0,0,1-.757-1.556,4.537,4.537,0,0,1,2.092-3.616,1.511,1.511,0,0,1,2.461,1.42,4.533,4.533,0,0,1-2.083,3.616A2.153,2.153,0,0,1,223.463,183.477Zm1.7-4.9a1.351,1.351,0,0,0-.654.211,3.833,3.833,0,0,0-1.746,2.93.792.792,0,0,0,1.335.753,3.836,3.836,0,0,0,1.709-2.959,1,1,0,0,0-.371-.9A.563.563,0,0,0,225.16,178.579Z" transform="translate(-95.418 -68.219)" fill="#00688b"/>
        <path id="Path_3109" data-name="Path 3109" d="M305.919,139.066l-.959-.929,1.064-2.264a.491.491,0,1,0-.884-.424l-.925,1.964-.754-.695a.492.492,0,1,0-.684.7l.962.928-1.064,2.264a.476.476,0,0,0-.02.375.462.462,0,0,0,.254.275.491.491,0,0,0,.212.045.469.469,0,0,0,.435-.278l.93-1.963.752.7a.5.5,0,0,0,.349.145.483.483,0,0,0,.347-.145.488.488,0,0,0-.015-.7Z" transform="translate(-115.171 -57.765)" fill="#455a64"/>
        <path id="Path_3110" data-name="Path 3110" d="M245.87,176.2c0,1.057.8,1.462,1.782.9l39.785-22.976a3.778,3.778,0,0,0,1.775-2.953c0-1.056-.791-1.464-1.775-.9l-39.785,22.979A3.813,3.813,0,0,0,245.87,176.2Z" transform="translate(-101.265 -61.412)" fill="#e0e0e0"/>
        <path id="Path_3111" data-name="Path 3111" d="M245.87,178.039c0,1.058.8,1.464,1.782.9l29.937-17.278a3.84,3.84,0,0,0,1.782-2.952c0-1.063-.8-1.51-1.782-.9L247.652,175.1A3.808,3.808,0,0,0,245.87,178.039Z" transform="translate(-101.265 -63.255)" fill="#00688b"/>
        <path id="Path_3112" data-name="Path 3112" d="M246.438,168.154a.066.066,0,0,1,.049-.022.074.074,0,0,1,.049.022.156.156,0,0,1,.044.128v.641a.425.425,0,0,1-.044.182.289.289,0,0,1-.1.128l-.483.31a.078.078,0,0,1-.1,0,.185.185,0,0,1-.044-.137v-.641a.388.388,0,0,1,.044-.173.269.269,0,0,1,.1-.129Zm.112,5.541a.568.568,0,0,1,0,.182.3.3,0,0,1-.1.121l-.4.233h-.1c-.032,0-.039-.068-.039-.129v-3.8a.386.386,0,0,1,.039-.181.231.231,0,0,1,.1-.121l.4-.233a.081.081,0,0,1,.1,0,.189.189,0,0,1,0,.127Z" transform="translate(-101.251 -65.855)" fill="#455a64"/>
        <path id="Path_3113" data-name="Path 3113" d="M248.466,168.928a2.683,2.683,0,0,1,.308-.544,1.41,1.41,0,0,1,.388-.348.7.7,0,0,1,.542-.127.594.594,0,0,1,.339.317,2.415,2.415,0,0,1,.173-.393,1.941,1.941,0,0,1,.212-.347,2.169,2.169,0,0,1,.234-.272,1.2,1.2,0,0,1,.242-.19.819.819,0,0,1,.505-.134.528.528,0,0,1,.332.233,1.241,1.241,0,0,1,.173.505,4.078,4.078,0,0,1,.054.71v2.2a.423.423,0,0,1-.046.182.238.238,0,0,1-.1.121l-.408.233a.07.07,0,0,1-.049.022.066.066,0,0,1-.049-.022.157.157,0,0,1-.046-.127v-2.168a1.134,1.134,0,0,0-.137-.7c-.1-.092-.225-.092-.391,0a.935.935,0,0,0-.364.422,1.975,1.975,0,0,0-.166.837v2.212a.581.581,0,0,1-.037.182.324.324,0,0,1-.1.121l-.41.233a.064.064,0,0,1-.046.022.062.062,0,0,1-.049-.022.155.155,0,0,1-.046-.127V169.8a1.148,1.148,0,0,0-.137-.7c-.09-.092-.22-.092-.386,0a1.031,1.031,0,0,0-.376.444,1.932,1.932,0,0,0-.159.861v2.174a.352.352,0,0,1-.037.173.326.326,0,0,1-.1.129l-.408.233a.084.084,0,0,1-.1,0,.192.192,0,0,1,0-.128v-3.827a.561.561,0,0,1,0-.181.321.321,0,0,1,.1-.129l.408-.233a.081.081,0,0,1,.1,0,.179.179,0,0,1,.037.135Z" transform="translate(-101.741 -65.549)" fill="#455a64"/>
        <path id="Path_3114" data-name="Path 3114" d="M254.2,166.58a2.577,2.577,0,0,1,.1-.43,2.609,2.609,0,0,1,.22-.492,2.364,2.364,0,0,1,.347-.483,1.878,1.878,0,0,1,.476-.385,1.133,1.133,0,0,1,.491-.172.5.5,0,0,1,.378.106.86.86,0,0,1,.242.4,2.5,2.5,0,0,1,.081.686v2.416a.384.384,0,0,1-.044.181.264.264,0,0,1-.1.129l-.408.233a.075.075,0,0,1-.1,0,.181.181,0,0,1-.044-.135v-.272a2.581,2.581,0,0,1-.317.6,1.934,1.934,0,0,1-.535.475,1,1,0,0,1-.415.143.409.409,0,0,1-.3-.092.665.665,0,0,1-.19-.293,1.528,1.528,0,0,1-.073-.514,2.13,2.13,0,0,1,.264-1.041,3.189,3.189,0,0,1,.7-.839l.867-.753c0-.22-.046-.356-.144-.393a.409.409,0,0,0-.354.067.774.774,0,0,0-.212.181,1.488,1.488,0,0,0-.142.236.85.85,0,0,1-.085.143l-.09.076-.5.287a.067.067,0,0,1-.09,0S254.188,166.641,254.2,166.58Zm.891,1.8a1.272,1.272,0,0,0,.317-.271,1.994,1.994,0,0,0,.242-.339,1.88,1.88,0,0,0,.142-.386,1.407,1.407,0,0,0,.046-.363v-.083l-.754.62a1.394,1.394,0,0,0-.31.345.674.674,0,0,0-.1.355c0,.114,0,.182.112.188A.457.457,0,0,0,255.086,168.385Z" transform="translate(-103.259 -64.993)" fill="#455a64"/>
        <path id="Path_3115" data-name="Path 3115" d="M259.46,167.441a1.222,1.222,0,0,0,.232-.188,2.01,2.01,0,0,0,.21-.294,2.7,2.7,0,0,0,.161-.377,2.023,2.023,0,0,0,.061-.453v-.3l-.115.227a1.717,1.717,0,0,1-.168.256l-.225.258a1.881,1.881,0,0,1-.3.217.724.724,0,0,1-.483.115.566.566,0,0,1-.364-.212,1.258,1.258,0,0,1-.242-.476,2.712,2.712,0,0,1-.1-.671v-.574a4.118,4.118,0,0,1,.1-.754,4.055,4.055,0,0,1,.242-.754,2.844,2.844,0,0,1,.364-.635,1.616,1.616,0,0,1,.483-.444,1.232,1.232,0,0,1,.3-.122.769.769,0,0,1,.225,0,.379.379,0,0,1,.168.068l.115.09v-.188a.364.364,0,0,1,.044-.182.24.24,0,0,1,.127-.129l.41-.233a.062.062,0,0,1,.046-.02.073.073,0,0,1,.051.02.154.154,0,0,1,.042.128v3.85a3.709,3.709,0,0,1-.361,1.705,2.5,2.5,0,0,1-.994,1.079,1.263,1.263,0,0,1-.5.182.716.716,0,0,1-.405-.067.647.647,0,0,1-.273-.258.913.913,0,0,1-.112-.414.36.36,0,0,1,.046-.182.255.255,0,0,1,.1-.129l.361-.2a.106.106,0,0,1,.127,0l.085.09a.307.307,0,0,0,.2.121A.622.622,0,0,0,259.46,167.441Zm-.635-2.815a2.007,2.007,0,0,0,0,.453.852.852,0,0,0,.21.649.4.4,0,0,0,.444,0,1.2,1.2,0,0,0,.439-.491,2.1,2.1,0,0,0,.205-.8v-.626a.773.773,0,0,0-.205-.551.356.356,0,0,0-.439,0,1.156,1.156,0,0,0-.444.49A2.026,2.026,0,0,0,258.826,164.626Z" transform="translate(-104.272 -64.268)" fill="#455a64"/>
        <path id="Path_3116" data-name="Path 3116" d="M262.48,162.9a4.662,4.662,0,0,1,.093-.92,3.83,3.83,0,0,1,.264-.852,3.183,3.183,0,0,1,.408-.71,2.037,2.037,0,0,1,.542-.491.928.928,0,0,1,.537-.144.659.659,0,0,1,.413.212,1.209,1.209,0,0,1,.266.513,2.718,2.718,0,0,1,.1.754v.371a.369.369,0,0,1-.044.181.251.251,0,0,1-.1.121l-1.782,1.034a.977.977,0,0,0,.044.3.517.517,0,0,0,.137.166.39.39,0,0,0,.205,0,.557.557,0,0,0,.225-.084,1.434,1.434,0,0,0,.281-.211,1.287,1.287,0,0,0,.173-.242.777.777,0,0,1,.1-.143.3.3,0,0,1,.1-.084l.432-.249a.077.077,0,0,1,.1,0,.167.167,0,0,1,.044.137,2.018,2.018,0,0,1-.081.339,2.785,2.785,0,0,1-.234.491,2.949,2.949,0,0,1-.388.513,2.1,2.1,0,0,1-.52.422.943.943,0,0,1-.542.16.613.613,0,0,1-.408-.22,1.2,1.2,0,0,1-.264-.551A3.4,3.4,0,0,1,262.48,162.9Zm1.306-1.985a1.123,1.123,0,0,0-.264.219,1.59,1.59,0,0,0-.183.287,2.117,2.117,0,0,0-.12.317,2.8,2.8,0,0,0-.044.287l1.2-.695a1.157,1.157,0,0,0-.037-.242.463.463,0,0,0-.1-.188.228.228,0,0,0-.173-.076A.476.476,0,0,0,263.786,160.912Z" transform="translate(-105.338 -63.806)" fill="#455a64"/>
        <path id="Path_3117" data-name="Path 3117" d="M266.724,164a.071.071,0,0,1-.051.022.07.07,0,0,1-.049-.022.175.175,0,0,1-.044-.128v-.558a.416.416,0,0,1,.044-.182.269.269,0,0,1,.1-.129l3.115-1.8a.085.085,0,0,1,.107,0v.671a.377.377,0,0,1,0,.181.28.28,0,0,1-.107.121Z" transform="translate(-106.343 -64.151)" fill="#455a64"/>
        <path id="Path_3118" data-name="Path 3118" d="M273.5,154.941a2.026,2.026,0,0,0,.212-.522,2.072,2.072,0,0,0,.044-.406.765.765,0,0,0-.134-.492c-.09-.1-.234-.1-.447,0a1.057,1.057,0,0,0-.43.469,2.87,2.87,0,0,0-.188.68.529.529,0,0,1-.071.2.307.307,0,0,1-.09.112l-.422.242a.088.088,0,0,1-.1,0,.168.168,0,0,1-.037-.143,3.3,3.3,0,0,1,.12-.756,3.478,3.478,0,0,1,.286-.754,3.067,3.067,0,0,1,.417-.635,1.865,1.865,0,0,1,.52-.437.97.97,0,0,1,.581-.175.657.657,0,0,1,.4.205,1.055,1.055,0,0,1,.244.452,2.243,2.243,0,0,1,.076.6v.4a2.972,2.972,0,0,1-.076.414,3.249,3.249,0,0,1-.173.483,4.94,4.94,0,0,1-.3.6l-.989,1.956,1.511-.852h.107a.169.169,0,0,1,.042.127v.657a.422.422,0,0,1-.042.175.3.3,0,0,1-.107.127l-2.485,1.436a.081.081,0,0,1-.1,0,.328.328,0,0,1-.037-.129v-.5a.658.658,0,0,1,.051-.272.728.728,0,0,1,.09-.2Z" transform="translate(-107.629 -61.977)" fill="#455a64"/>
        <path id="Path_3119" data-name="Path 3119" d="M204.388,247.148a.332.332,0,0,1-.188-.054.364.364,0,0,1-.19-.325V223.679a.388.388,0,0,1,.19-.332l26.667-15.361a.409.409,0,0,1,.376,0,.368.368,0,0,1,.188.332v23.069a.373.373,0,0,1-.188.332l-26.667,15.391A.34.34,0,0,1,204.388,247.148Zm.376-23.25v22.214l25.916-14.961V208.93Z" transform="translate(-91.004 -75.613)" fill="#00688b"/>
        <path id="Path_3120" data-name="Path 3120" d="M204.389,247.858a.388.388,0,0,1-.322-.183.376.376,0,0,1-.01-.366l8.882-17.454a.4.4,0,0,1,.244-.19.375.375,0,0,1,.3.049l9.624,6.16a.378.378,0,0,1-.02.667.383.383,0,0,1-.388-.034l-9.277-5.933-8.665,17.075A.374.374,0,0,1,204.389,247.858Z" transform="translate(-91.005 -80.936)" fill="#00688b"/>
        <path id="Path_3121" data-name="Path 3121" d="M225.107,233.787a.429.429,0,0,1-.212-.061.383.383,0,0,1-.1-.527l4.7-7.195a.377.377,0,0,1,.513-.122l6.333,3.911a.384.384,0,0,1,.122.52.373.373,0,0,1-.234.173.368.368,0,0,1-.286-.051l-6.04-3.713-4.529,6.892A.361.361,0,0,1,225.107,233.787Z" transform="translate(-96.083 -80)" fill="#00688b"/>
        <path id="Path_3122" data-name="Path 3122" d="M223.463,226.826a1.321,1.321,0,0,1-.679-.181,1.691,1.691,0,0,1-.757-1.555,4.53,4.53,0,0,1,2.092-3.616,1.509,1.509,0,0,1,2.461,1.426,4.536,4.536,0,0,1-2.083,3.608A2.084,2.084,0,0,1,223.463,226.826Zm1.7-4.9a1.332,1.332,0,0,0-.654.205,3.82,3.82,0,0,0-1.714,2.959.971.971,0,0,0,.371.9.992.992,0,0,0,.964-.127,3.864,3.864,0,0,0,1.707-2.959,1.014,1.014,0,0,0-.371-.906A.641.641,0,0,0,225.16,221.926Z" transform="translate(-95.418 -78.843)" fill="#00688b"/>
        <path id="Path_3123" data-name="Path 3123" d="M305.924,182.416l-.959-.929,1.064-2.264a.485.485,0,0,0-.232-.649.479.479,0,0,0-.652.236l-.925,1.962-.757-.7a.492.492,0,0,0-.349-.145.485.485,0,0,0-.344.145.477.477,0,0,0-.146.342.482.482,0,0,0,.146.344l.955.928-1.062,2.264a.5.5,0,0,0-.017.375.472.472,0,0,0,.251.275.4.4,0,0,0,.21.052.477.477,0,0,0,.439-.286l.928-1.964.754.7a.5.5,0,0,0,.7,0A.491.491,0,0,0,305.924,182.416Z" transform="translate(-115.179 -68.402)" fill="#455a64"/>
        <path id="Path_3124" data-name="Path 3124" d="M245.87,219.5c0,1.062.8,1.462,1.782.9l39.785-22.969a3.776,3.776,0,0,0,1.775-2.952c0-1.062-.791-1.465-1.775-.9l-39.785,22.966A3.817,3.817,0,0,0,245.87,219.5Z" transform="translate(-101.265 -72.029)" fill="#e0e0e0"/>
        <path id="Path_3125" data-name="Path 3125" d="M245.87,224.626c0,1.064.8,1.465,1.782.9l12.439-7.178a3.779,3.779,0,0,0,1.775-2.952c0-1.064-.793-1.465-1.775-.9l-12.439,7.178A3.817,3.817,0,0,0,245.87,224.626Z" transform="translate(-101.265 -77.157)" fill="#00688b"/>
        <path id="Path_3126" data-name="Path 3126" d="M246.445,211.5a.055.055,0,0,1,.046-.02.06.06,0,0,1,.049.02.157.157,0,0,1,.046.127v.645a.405.405,0,0,1-.046.181.271.271,0,0,1-.1.12l-.464.264a.058.058,0,0,1-.049.022.057.057,0,0,1-.046-.022.154.154,0,0,1-.046-.127v-.642a.378.378,0,0,1,.046-.183.241.241,0,0,1,.1-.12Zm.112,5.532a.561.561,0,0,1,0,.181.293.293,0,0,1-.107.129l-.4.234a.1.1,0,0,1-.107,0,.183.183,0,0,1-.037-.137v-3.818a.375.375,0,0,1,.037-.181.267.267,0,0,1,.107-.129l.4-.234a.1.1,0,0,1,.107,0,.26.26,0,0,1,0,.137Z" transform="translate(-101.258 -76.482)" fill="#455a64"/>
        <path id="Path_3127" data-name="Path 3127" d="M248.465,212.268a3.052,3.052,0,0,1,.31-.542,1.5,1.5,0,0,1,.386-.349.7.7,0,0,1,.544-.12.592.592,0,0,1,.339.308,2.525,2.525,0,0,1,.171-.391,2.4,2.4,0,0,1,.212-.347,2.075,2.075,0,0,1,.234-.271,1.574,1.574,0,0,1,.242-.183.76.76,0,0,1,.505-.134.472.472,0,0,1,.332.225,1.207,1.207,0,0,1,.173.515,3.968,3.968,0,0,1,.054.7v2.212a.388.388,0,0,1-.044.173.258.258,0,0,1-.1.127l-.408.237a.068.068,0,0,1-.049.02.078.078,0,0,1-.049-.02.163.163,0,0,1-.044-.129v-2.175a1.109,1.109,0,0,0-.137-.693c-.1-.1-.227-.1-.393,0a.964.964,0,0,0-.361.422,1.944,1.944,0,0,0-.168.845v2.2a.451.451,0,0,1-.037.181.288.288,0,0,1-.1.129l-.408.234a.074.074,0,0,1-.1,0,.167.167,0,0,1-.044-.137v-2.166a1.2,1.2,0,0,0-.137-.7c-.09-.09-.22-.09-.386,0a1.017,1.017,0,0,0-.378.439,1.99,1.99,0,0,0-.159.867v2.168a.387.387,0,0,1-.037.181.279.279,0,0,1-.1.122l-.408.232a.088.088,0,0,1-.107,0,.189.189,0,0,1,0-.127v-3.828a.561.561,0,0,1,0-.181.27.27,0,0,1,.107-.12l.408-.237a.068.068,0,0,1,.049-.02.073.073,0,0,1,.049.02.166.166,0,0,1,.037.129Z" transform="translate(-101.74 -76.177)" fill="#455a64"/>
        <path id="Path_3128" data-name="Path 3128" d="M254.2,209.922a2.473,2.473,0,0,1,.1-.422,2.823,2.823,0,0,1,.217-.5,2.618,2.618,0,0,1,.349-.483,1.965,1.965,0,0,1,.476-.386,1.207,1.207,0,0,1,.491-.173.574.574,0,0,1,.376.1.9.9,0,0,1,.242.4,2.574,2.574,0,0,1,.083.7v2.415a.439.439,0,0,1-.044.183.26.26,0,0,1-.1.12l-.408.234a.078.078,0,0,1-.049.02.079.079,0,0,1-.051-.02.18.18,0,0,1-.046-.129v-.271a2.533,2.533,0,0,1-.315.588,1.761,1.761,0,0,1-.537.476.956.956,0,0,1-.415.142.405.405,0,0,1-.3-.09.6.6,0,0,1-.188-.293,1.435,1.435,0,0,1-.071-.476,2.107,2.107,0,0,1,.264-1.035,2.978,2.978,0,0,1,.7-.837l.867-.754c0-.225-.044-.354-.142-.391a.407.407,0,0,0-.354.066.61.61,0,0,0-.212.173,2.426,2.426,0,0,0-.144.242.586.586,0,0,1-.083.134.207.207,0,0,1-.09.076l-.5.288a.077.077,0,0,1-.09,0A.154.154,0,0,1,254.2,209.922Zm.894,1.8a1.17,1.17,0,0,0,.315-.264,1.714,1.714,0,0,0,.242-.349,1.637,1.637,0,0,0,.144-.376,1.524,1.524,0,0,0,.044-.361v-.085l-.752.613a1.384,1.384,0,0,0-.31.354.631.631,0,0,0-.1.354c0,.115,0,.176.112.19a.481.481,0,0,0,.3-.039Z" transform="translate(-103.261 -75.618)" fill="#455a64"/>
        <path id="Path_3129" data-name="Path 3129" d="M259.46,210.784a1.222,1.222,0,0,0,.232-.188,1.339,1.339,0,0,0,.21-.288,2.278,2.278,0,0,0,.161-.383,1.97,1.97,0,0,0,.061-.447v-.31c-.032.071-.071.146-.115.227a1.366,1.366,0,0,1-.168.256,1.877,1.877,0,0,1-.225.256,1.483,1.483,0,0,1-.3.22.758.758,0,0,1-.483.122.563.563,0,0,1-.364-.222,1.2,1.2,0,0,1-.242-.474,2.663,2.663,0,0,1-.1-.664v-.581a4.172,4.172,0,0,1,.1-.757,3.749,3.749,0,0,1,.242-.752,2.8,2.8,0,0,1,.364-.645,1.65,1.65,0,0,1,.483-.435.949.949,0,0,1,.3-.122.5.5,0,0,1,.225,0,.343.343,0,0,1,.168.061.436.436,0,0,1,.115.1v-.188a.354.354,0,0,1,.044-.181.259.259,0,0,1,.1-.129l.408-.234a.074.074,0,0,1,.1,0,.164.164,0,0,1,.044.137v3.848a3.709,3.709,0,0,1-.359,1.7,2.518,2.518,0,0,1-1,1.079,1.224,1.224,0,0,1-.5.181.694.694,0,0,1-.408-.061.664.664,0,0,1-.271-.261.93.93,0,0,1-.115-.417.361.361,0,0,1,.046-.173.224.224,0,0,1,.1-.127l.364-.212a.1.1,0,0,1,.063-.027.106.106,0,0,1,.063.027l.083.093a.307.307,0,0,0,.2.12A.655.655,0,0,0,259.46,210.784Zm-.635-2.815a2.061,2.061,0,0,0,0,.459.785.785,0,0,0,.21.642.374.374,0,0,0,.444,0,1.218,1.218,0,0,0,.439-.491,2.025,2.025,0,0,0,.205-.8v-.618a.762.762,0,0,0-.205-.559.374.374,0,0,0-.439,0,1.166,1.166,0,0,0-.444.491A2.022,2.022,0,0,0,258.826,207.969Z" transform="translate(-104.272 -74.895)" fill="#455a64"/>
        <path id="Path_3130" data-name="Path 3130" d="M262.48,206.24a4.765,4.765,0,0,1,.09-.913,3.708,3.708,0,0,1,.266-.862,3.451,3.451,0,0,1,.405-.708,1.876,1.876,0,0,1,.544-.483.872.872,0,0,1,.537-.144.62.62,0,0,1,.413.212,1.15,1.15,0,0,1,.266.513,2.819,2.819,0,0,1,.1.754v.371a.366.366,0,0,1-.044.173.279.279,0,0,1-.1.127l-1.782,1.028a.8.8,0,0,0,.044.3.372.372,0,0,0,.137.164.3.3,0,0,0,.205,0,.512.512,0,0,0,.225-.076,1.4,1.4,0,0,0,.278-.217,1.176,1.176,0,0,0,.176-.234.746.746,0,0,1,.1-.149.239.239,0,0,1,.1-.076l.435-.251a.063.063,0,0,1,.046-.02.079.079,0,0,1,.051.02.158.158,0,0,1,.042.129,1.874,1.874,0,0,1-.078.347,2.535,2.535,0,0,1-.237.483,3.355,3.355,0,0,1-.386.522,2.229,2.229,0,0,1-.52.422.971.971,0,0,1-.544.151.582.582,0,0,1-.405-.22,1.238,1.238,0,0,1-.266-.552A3.382,3.382,0,0,1,262.48,206.24Zm1.306-1.985a.982.982,0,0,0-.266.227,1.155,1.155,0,0,0-.181.286,1.6,1.6,0,0,0-.12.31,2.279,2.279,0,0,0-.044.288l1.2-.7a1.3,1.3,0,0,0-.037-.234.4.4,0,0,0-.1-.188.241.241,0,0,0-.176-.083A.625.625,0,0,0,263.786,204.255Z" transform="translate(-105.338 -74.435)" fill="#455a64"/>
        <path id="Path_3131" data-name="Path 3131" d="M266.724,207.344a.079.079,0,0,1-.051.02.073.073,0,0,1-.049-.02.157.157,0,0,1-.044-.129v-.542a.38.38,0,0,1,.044-.181.236.236,0,0,1,.1-.122l3.115-1.8a.088.088,0,0,1,.107,0,.189.189,0,0,1,0,.137v.535a.45.45,0,0,1,0,.181.326.326,0,0,1-.107.129Z" transform="translate(-106.342 -74.782)" fill="#455a64"/>
        <path id="Path_3132" data-name="Path 3132" d="M274.36,195.12h.1a.233.233,0,0,1,0,.129v.581a.538.538,0,0,1,0,.2c0,.059-.054.12-.076.173l-.754,1.711a.987.987,0,0,1,.43-.066.537.537,0,0,1,.332.151.8.8,0,0,1,.22.369,2.342,2.342,0,0,1,.073.6,2.922,2.922,0,0,1-.112.823,3.123,3.123,0,0,1-.754,1.36,2.781,2.781,0,0,1-.574.454,1.54,1.54,0,0,1-.649.232.7.7,0,0,1-.461-.083.606.606,0,0,1-.269-.315,1.168,1.168,0,0,1-.115-.479.325.325,0,0,1,0-.181.276.276,0,0,1,.1-.12l.415-.242h.09a.467.467,0,0,1,.073.112.462.462,0,0,0,.085.137.294.294,0,0,0,.144.076.467.467,0,0,0,.217,0,1.225,1.225,0,0,0,.327-.144,1.494,1.494,0,0,0,.527-.505,1.317,1.317,0,0,0,.2-.686c0-.242-.071-.386-.2-.415a.853.853,0,0,0-.527.142l-.447.256a.066.066,0,0,1-.051.022.064.064,0,0,1-.046-.022.154.154,0,0,1-.046-.127v-.581a.51.51,0,0,1,.046-.2c0-.066.054-.12.073-.173l.757-1.638-1.472.847a.088.088,0,0,1-.107,0,.2.2,0,0,1-.037-.129V196.8a.643.643,0,0,1,.037-.181.3.3,0,0,1,.107-.127Z" transform="translate(-107.609 -72.471)" fill="#455a64"/>
        <path id="Path_3133" data-name="Path 3133" d="M204.388,289.383a.416.416,0,0,1-.188-.051.386.386,0,0,1-.19-.327V265.877a.379.379,0,0,1,.19-.325l26.667-15.4a.375.375,0,0,1,.378,0,.361.361,0,0,1,.188.325v23.1a.36.36,0,0,1-.188.322l-26.67,15.4A.436.436,0,0,1,204.388,289.383Zm.378-23.257v22.222l25.913-14.922V251.165Z" transform="translate(-91.004 -85.951)" fill="#00688b"/>
        <path id="Path_3134" data-name="Path 3134" d="M204.388,290.1a.516.516,0,0,1-.173,0,.386.386,0,0,1-.159-.515l8.884-17.441a.384.384,0,0,1,.242-.2.369.369,0,0,1,.3.046l9.624,6.16a.378.378,0,1,1-.408.635l-9.277-5.935-8.667,17.061A.379.379,0,0,1,204.388,290.1Z" transform="translate(-91.004 -91.3)" fill="#00688b"/>
        <path id="Path_3135" data-name="Path 3135" d="M225.106,276.035a.346.346,0,0,1-.212-.059.381.381,0,0,1-.1-.522l4.7-7.2a.376.376,0,0,1,.234-.164.369.369,0,0,1,.281.049l6.333,3.911a.38.38,0,0,1,.12.513.385.385,0,0,1-.52.129l-6.04-3.713-4.529,6.892A.361.361,0,0,1,225.106,276.035Z" transform="translate(-96.082 -90.359)" fill="#00688b"/>
        <path id="Path_3136" data-name="Path 3136" d="M223.461,269.078a1.327,1.327,0,0,1-.679-.181,1.664,1.664,0,0,1-.754-1.555,4.537,4.537,0,0,1,2.09-3.608,1.51,1.51,0,0,1,2.461,1.421,4.573,4.573,0,0,1-2.083,3.616A2.149,2.149,0,0,1,223.461,269.078Zm1.7-4.9a1.263,1.263,0,0,0-.657.212,3.811,3.811,0,0,0-1.714,2.949.794.794,0,0,0,1.335.757,3.859,3.859,0,0,0,1.707-2.961.987.987,0,0,0-.371-.9A.511.511,0,0,0,225.16,264.181Z" transform="translate(-95.419 -89.206)" fill="#00688b"/>
        <path id="Path_3137" data-name="Path 3137" d="M305.926,224.677l-.959-.928,1.064-2.266a.484.484,0,0,0,.02-.374.489.489,0,0,0-.9-.039l-.925,1.96-.757-.7a.5.5,0,0,0-.693,0,.483.483,0,0,0,0,.693l.955.93-1.062,2.263a.485.485,0,0,0,.234.657.516.516,0,0,0,.21.046.5.5,0,0,0,.439-.281l.928-1.963.754.7a.492.492,0,0,0,.7,0,.5.5,0,0,0,0-.7Z" transform="translate(-115.178 -78.765)" fill="#455a64"/>
        <path id="Path_3138" data-name="Path 3138" d="M245.87,261.788c0,1.064.8,1.465,1.785.9l39.785-22.969a3.78,3.78,0,0,0,1.775-2.954c0-1.064-.793-1.462-1.775-.9l-39.785,22.969A3.83,3.83,0,0,0,245.87,261.788Z" transform="translate(-101.265 -82.397)" fill="#e0e0e0"/>
        <path id="Path_3139" data-name="Path 3139" d="M245.87,262.754c0,1.067.8,1.465,1.782.9l34.631-19.99a3.813,3.813,0,0,0,1.782-2.949c0-1.057-.8-1.465-1.782-.9l-34.631,20A3.823,3.823,0,0,0,245.87,262.754Z" transform="translate(-101.265 -83.367)" fill="#00688b"/>
        <path id="Path_3140" data-name="Path 3140" d="M246.446,253.754a.071.071,0,0,1,.1,0,.17.17,0,0,1,.046.129v.64a.4.4,0,0,1-.046.183.292.292,0,0,1-.1.127l-.461.264a.069.069,0,0,1-.1,0,.172.172,0,0,1-.046-.134v-.635a.362.362,0,0,1,.046-.181.246.246,0,0,1,.1-.129Zm.112,5.542a.546.546,0,0,1,0,.178.275.275,0,0,1-.107.122l-.4.234h-.107c-.029,0-.037-.068-.037-.129v-3.826a.4.4,0,0,1,.037-.183.267.267,0,0,1,.107-.12l.4-.234a.088.088,0,0,1,.107,0,.2.2,0,0,1,0,.129Z" transform="translate(-101.258 -86.841)" fill="#455a64"/>
        <path id="Path_3141" data-name="Path 3141" d="M248.464,254.528a2.612,2.612,0,0,1,.31-.544,1.377,1.377,0,0,1,.386-.347.685.685,0,0,1,.544-.12.589.589,0,0,1,.337.308,2.436,2.436,0,0,1,.173-.391,2.415,2.415,0,0,1,.447-.62,1.394,1.394,0,0,1,.242-.188.825.825,0,0,1,.505-.137.526.526,0,0,1,.332.234,1.167,1.167,0,0,1,.173.505,4.06,4.06,0,0,1,.054.71v2.2a.422.422,0,0,1-.046.181.253.253,0,0,1-.1.127l-.408.234a.074.074,0,0,1-.1,0,.156.156,0,0,1-.046-.129v-2.173a1.146,1.146,0,0,0-.134-.7c-.1-.09-.227-.09-.393,0a.929.929,0,0,0-.364.422,2.013,2.013,0,0,0-.166.837v2.212a.46.46,0,0,1-.037.181.3.3,0,0,1-.1.122l-.408.232a.069.069,0,0,1-.049.022.061.061,0,0,1-.049-.022.154.154,0,0,1-.046-.127V255.4a1.154,1.154,0,0,0-.134-.7c-.09-.09-.22-.09-.386,0a.955.955,0,0,0-.378.437,2,2,0,0,0-.159.869v2.158a.4.4,0,0,1-.037.183.311.311,0,0,1-.1.12l-.408.234a.088.088,0,0,1-.107,0,.233.233,0,0,1,0-.129V254.74a.561.561,0,0,1,0-.181.29.29,0,0,1,.107-.122l.408-.234a.074.074,0,0,1,.1,0,.17.17,0,0,1,.037.134Z" transform="translate(-101.741 -86.535)" fill="#455a64"/>
        <path id="Path_3142" data-name="Path 3142" d="M254.2,252.179a2.481,2.481,0,0,1,.317-.92,2.331,2.331,0,0,1,.347-.483,1.991,1.991,0,0,1,.476-.383,1.089,1.089,0,0,1,.491-.173.5.5,0,0,1,.378.1.857.857,0,0,1,.242.4,2.451,2.451,0,0,1,.081.693v2.407a.38.38,0,0,1-.044.181.259.259,0,0,1-.1.129l-.408.234a.084.084,0,0,1-.1,0,.182.182,0,0,1-.044-.137v-.271a2.541,2.541,0,0,1-.317.6,1.919,1.919,0,0,1-.535.476,1.016,1.016,0,0,1-.415.144.41.41,0,0,1-.3-.093.658.658,0,0,1-.19-.293,1.482,1.482,0,0,1-.066-.474,2.121,2.121,0,0,1,.264-1.042,3.1,3.1,0,0,1,.693-.837l.869-.757c0-.217-.046-.354-.144-.393a.418.418,0,0,0-.354.071.744.744,0,0,0-.21.181,1.748,1.748,0,0,0-.144.232.762.762,0,0,1-.083.144.451.451,0,0,1-.09.076l-.5.286a.068.068,0,0,1-.093,0A.138.138,0,0,1,254.2,252.179Zm.891,1.8a1.324,1.324,0,0,0,.317-.264,1.851,1.851,0,0,0,.242-.349,2.052,2.052,0,0,0,.142-.376,1.467,1.467,0,0,0,.046-.369v-.083l-.754.618a1.4,1.4,0,0,0-.31.347.675.675,0,0,0-.1.356c0,.112,0,.181.112.188A.451.451,0,0,0,255.089,253.984Z" transform="translate(-103.262 -85.979)" fill="#455a64"/>
        <path id="Path_3143" data-name="Path 3143" d="M259.46,253.043a1.325,1.325,0,0,0,.232-.188,1.957,1.957,0,0,0,.21-.3,2.127,2.127,0,0,0,.161-.376,2.033,2.033,0,0,0,.061-.454v-.3c-.032.071-.071.146-.115.227a1.6,1.6,0,0,1-.168.256l-.225.259a1.881,1.881,0,0,1-.3.217.7.7,0,0,1-.483.112.553.553,0,0,1-.364-.21,1.276,1.276,0,0,1-.242-.476,2.72,2.72,0,0,1-.1-.671v-.574a4.4,4.4,0,0,1,.1-.757,4.031,4.031,0,0,1,.242-.752,2.872,2.872,0,0,1,.364-.635,1.633,1.633,0,0,1,.483-.439,1.09,1.09,0,0,1,.3-.127.693.693,0,0,1,.225,0,.379.379,0,0,1,.168.068l.115.09v-.2a.366.366,0,0,1,.044-.181.226.226,0,0,1,.1-.12l.408-.234a.081.081,0,0,1,.049-.022.07.07,0,0,1,.049.022.147.147,0,0,1,.044.127v3.85a3.74,3.74,0,0,1-.359,1.707,2.518,2.518,0,0,1-1,1.079,1.224,1.224,0,0,1-.5.181.735.735,0,0,1-.408-.061.67.67,0,0,1-.271-.264.911.911,0,0,1-.115-.413.4.4,0,0,1,.046-.183.27.27,0,0,1,.1-.127l.364-.205a.11.11,0,0,1,.127,0l.083.09a.31.31,0,0,0,.2.122A.632.632,0,0,0,259.46,253.043Zm-.635-2.815a2.061,2.061,0,0,0,0,.459.834.834,0,0,0,.21.642.4.4,0,0,0,.444,0,1.2,1.2,0,0,0,.439-.491,2.111,2.111,0,0,0,.205-.8v-.625a.78.78,0,0,0-.205-.552.366.366,0,0,0-.439,0,1.166,1.166,0,0,0-.444.491A2.022,2.022,0,0,0,258.826,250.229Z" transform="translate(-104.272 -85.253)" fill="#455a64"/>
        <path id="Path_3144" data-name="Path 3144" d="M262.48,248.5a4.65,4.65,0,0,1,.09-.92,3.77,3.77,0,0,1,.266-.854,3.092,3.092,0,0,1,.405-.708,2.1,2.1,0,0,1,.544-.493.94.94,0,0,1,.537-.142.678.678,0,0,1,.413.212,1.225,1.225,0,0,1,.264.513,2.624,2.624,0,0,1,.1.754v.371a.366.366,0,0,1-.044.181.293.293,0,0,1-.1.127l-1.782,1.028a.977.977,0,0,0,.044.3.506.506,0,0,0,.139.166.407.407,0,0,0,.2,0,.608.608,0,0,0,.227-.085,1.542,1.542,0,0,0,.278-.21,1.371,1.371,0,0,0,.173-.242.83.83,0,0,1,.1-.144.316.316,0,0,1,.1-.083l.432-.242a.074.074,0,0,1,.1,0,.17.17,0,0,1,.044.137,2.018,2.018,0,0,1-.081.339,2.745,2.745,0,0,1-.234.491,3.063,3.063,0,0,1-.386.513,2.291,2.291,0,0,1-.52.425.878.878,0,0,1-.544.156.609.609,0,0,1-.405-.217,1.2,1.2,0,0,1-.266-.552A3.334,3.334,0,0,1,262.48,248.5Zm1.306-1.985a1.129,1.129,0,0,0-.266.217,1.4,1.4,0,0,0-.181.288,1.985,1.985,0,0,0-.122.317,2.726,2.726,0,0,0-.044.288l1.2-.7a1.133,1.133,0,0,0-.037-.242.435.435,0,0,0-.1-.188.224.224,0,0,0-.173-.076A.457.457,0,0,0,263.787,246.512Z" transform="translate(-105.339 -84.793)" fill="#455a64"/>
        <path id="Path_3145" data-name="Path 3145" d="M266.724,249.6a.068.068,0,0,1-.051.02.072.072,0,0,1-.051-.02.171.171,0,0,1-.042-.127v-.544a.417.417,0,0,1,.042-.181.207.207,0,0,1,.1-.12l3.115-1.807a.088.088,0,0,1,.107,0v.671a.462.462,0,0,1,0,.183.284.284,0,0,1-.107.12Z" transform="translate(-106.343 -85.142)" fill="#455a64"/>
        <path id="Path_3146" data-name="Path 3146" d="M273.6,243.6a.069.069,0,0,1-.046.022.081.081,0,0,1-.051-.022.175.175,0,0,1-.046-.127v-1l-1.65.959a.074.074,0,0,1-.1,0,.184.184,0,0,1-.049-.134v-.583a.725.725,0,0,1,.078-.452l1.638-4.077a.673.673,0,0,1,.212-.332l.405-.232a.082.082,0,0,1,.107,0,.194.194,0,0,1,.037.127v3.284l.461-.264a.061.061,0,0,1,.049-.022.06.06,0,0,1,.046.022.186.186,0,0,1,.049.137v.579a.367.367,0,0,1-.049.183.229.229,0,0,1-.1.12l-.461.266v.994a.521.521,0,0,1-.037.183.284.284,0,0,1-.107.12Zm-.144-2.158v-1.75l-.913,2.263Z" transform="translate(-107.585 -82.887)" fill="#455a64"/>
      </g>
    </g>
    <g id="freepik--Character--inject-7" transform="translate(270.132 53.666)">
      <g id="freepik--character--inject-7-2" data-name="freepik--character--inject-7" transform="translate(0 0)">
        <path id="Path_3153" data-name="Path 3153" d="M357.581,174.57c-.229,3.942-1.064,20.631-.754,22.3.488,2.952,9.436,16.184,9.436,16.184s.564,5.284-6.589,7.609c-2.124-3.773-9.485-15.059-10.986-18.373a12.954,12.954,0,0,1-.6-5.918c.7-7.805,2.544-19.21,2.749-21.725Z" transform="translate(-347.974 -88.463)" fill="#f4c1c0"/>
        <path id="Path_3154" data-name="Path 3154" d="M368.756,219.9a31.473,31.473,0,0,1-4.182-3.818,83.1,83.1,0,0,1-4.822-7.549c-3.02-.264-7.725,3.706-7.6,7.661,1.667,3.843,5.149,8.74,8.069,13.074Z" transform="translate(-348.998 -96.788)" fill="#a2b2b7"/>
        <path id="Path_3155" data-name="Path 3155" d="M395.84,378.858l-5.376.151L390.2,368.4l5.376-.151Z" transform="translate(-358.326 -135.947)" fill="#f4c1c0"/>
        <path id="Path_3156" data-name="Path 3156" d="M387.448,378.691v-.757c-.5.244-1.934,4.312-3.647,6.8-1.284,1.9-5,4.16-5.537,5.9s3.3,2.686,4.868,2.363a12.013,12.013,0,0,0,6.445-3.257c.957-1.079,1.509-3.457,2.114-4.355s2.09-1.924,2.417-2.949a6.61,6.61,0,0,0-.4-2.808c-.269-.947-.571-1.982-.894-1.88v.581a4.213,4.213,0,0,1-2.651.986C389.372,379.384,387.463,379.277,387.448,378.691Z" transform="translate(-355.389 -138.275)" fill="#263238"/>
        <path id="Path_3157" data-name="Path 3157" d="M373.811,366.47l-5.356.332-.544-11.135,5.63-.347Z" transform="translate(-352.861 -132.775)" fill="#f4c1c0"/>
        <path id="Path_3158" data-name="Path 3158" d="M363.788,367.849a3.438,3.438,0,0,0-1.458,1.184,13.98,13.98,0,0,1-3.735,2.974,59.283,59.283,0,0,1-8.372,3.665c-1.143.413-1.511,2.036.344,3.318,2.117,1.433,4.629,1.24,7.92.4,1.8-.454,4.854-2.5,6.492-2.822,1.465-.293,4.3-.413,5.647-1.677a8.038,8.038,0,0,0-.061-3.486c-.378-1.509-.876-3.857-1.372-3.774v.527c-.61,1-3.936,1.511-5.374.811Z" transform="translate(-348.291 -135.794)" fill="#263238"/>
        <path id="Path_3159" data-name="Path 3159" d="M387.916,273.32c.144,5.125.757,40.552.757,40.552.168,1.47,1.66,4.05,1.924,9.365.378,7.7-1.575,25.989-1.575,25.989a7.056,7.056,0,0,1-5.979.3s-3.655-25.664-4.841-33.267c-1.084-7.026-1.265-6.514-3.2-24.438l-1.7,15.8a30.76,30.76,0,0,1,.913,8.513c-.151,3.535-1.614,25.469-1.614,25.469a7.353,7.353,0,0,1-6.191.647s-3.579-31.091-3.735-34.329c-.176-3.684-.757-35.945-.757-35.945Z" transform="translate(-351.393 -112.341)" fill="#455a64"/>
        <path id="Path_3160" data-name="Path 3160" d="M375.762,288.464S373.269,288.018,370,285c0,0,.913,2.407,4.485,4.233l1.277,5.776-.32,13.955L376.953,295Z" transform="translate(-353.373 -115.535)" fill="#37474f"/>
        <path id="Path_3161" data-name="Path 3161" d="M385.415,225.995c2.754,1.58,3.662,2.551,4.136,3.777.422,1.069.9,1.116.9,3.162l-2.871,13.618.291,14.543c-7.715,4.06-17.756,4.658-25.977-1.35,0,0-.7-24.238.3-28.555s3.42-8.154,7.4-9.06c1.458-.325,12.344,2.056,12.344,2.056S383.5,224.894,385.415,225.995Z" transform="translate(-351.328 -100.115)" fill="#f0f0f0"/>
        <circle id="Ellipse_330" data-name="Ellipse 330" cx="7.382" cy="7.382" r="7.382" transform="translate(13.697 97.686)" fill="#263238"/>
        <path id="Path_3162" data-name="Path 3162" d="M391.79,206.64a65.658,65.658,0,0,1-1.675,6.543,2.564,2.564,0,0,1-1.475,1.187l.083-3.958Z" transform="translate(-357.944 -96.326)" fill="#263238"/>
        <path id="Path_3163" data-name="Path 3163" d="M390.566,195.995a2.767,2.767,0,0,1,2.261.808c.981,1.011.43,4.16-.791,7.246l-2.266.256Z" transform="translate(-358.222 -93.712)" fill="#263238"/>
        <path id="Path_3164" data-name="Path 3164" d="M383.776,203.176c.449.273,1.094-.6,1.653-1.177a1.96,1.96,0,0,1,3.281.527c.908,1.912-.8,4.529-2.261,4.976-2.471.754-2.842-.808-2.842-.808l-.181,9.98h0c-3.064,3.938-11.584,3.635-8.04-.469v-3.555a18.006,18.006,0,0,1-3.079,0c-1.819-.281-2.908-1.548-3.494-3.5a35.838,35.838,0,0,1-.757-11.912c.588-6.794,8.735-6.868,13.005-4.182S383.776,203.176,383.776,203.176Z" transform="translate(-352.859 -92.592)" fill="#f4c1c0"/>
        <path id="Path_3165" data-name="Path 3165" d="M383.083,203.071c.225,0,1.084-1.423,1.653-1.938.754-.71-.225-7.134-.225-7.134a3.025,3.025,0,0,0-.757-3.245c-1.064-1.177-2.229-1.917-5.283-2.083q-3.157-.007-6.3.3c-3.018.205-4.16-.542-5.913-1.033s-1.885,4.255,1.89,6.038a10.343,10.343,0,0,0,3.992,1.057,42.628,42.628,0,0,0,8.01-.151c.835-.112,1.018.7,1.47,2.92C381.987,199.753,382.319,203.071,383.083,203.071Z" transform="translate(-352.167 -91.732)" fill="#263238"/>
        <path id="Path_3167" data-name="Path 3167" d="M377.87,218.393a31.09,31.09,0,0,0,5.474-1.57,4.634,4.634,0,0,0,1.953-1.934,6.349,6.349,0,0,1-1.108,2.266c-1.035,1.328-6.318,2.3-6.318,2.3Z" transform="translate(-355.305 -98.349)" fill="#f28f8f"/>
        <path id="Path_3174" data-name="Path 3174" d="M352.56,68.354v56.326a2.058,2.058,0,0,0,.93,1.616l56.018,32.352c.513.295.925.053.925-.543V155.16l-54.875-31.7V69l-2.043-1.177C352.977,67.516,352.56,67.757,352.56,68.354Z" transform="translate(-349.099 -62.26)" fill="#263238"/>
        <path id="Path_3175" data-name="Path 3175" d="M369.451,99.52a1.72,1.72,0,0,1,.181-.143h0l3.481-2.017h0a1.186,1.186,0,0,1,1.57.386l12.358,30.48,8.21-5.4a1.38,1.38,0,0,1,.173-.121h.039l3.433-1.985h0a1.18,1.18,0,0,1,1.594.347l11.973,24.275v16.108l-3.5,2.017L355.086,132.34a1.993,1.993,0,0,1-1-1.729V115.273Z" transform="translate(-349.474 -69.498)" fill="#00688b"/>
        <path id="Path_3176" data-name="Path 3176" d="M369.451,99.52a1.72,1.72,0,0,1,.181-.143h0l3.481-2.017h0a1.186,1.186,0,0,1,1.57.386l12.358,30.48,8.21-5.4a1.38,1.38,0,0,1,.173-.121h.039l3.433-1.985h0a1.18,1.18,0,0,1,1.594.347l11.973,24.275v16.108l-3.5,2.017L355.086,132.34a1.993,1.993,0,0,1-1-1.729V115.273Z" transform="translate(-349.474 -69.498)" opacity="0.15"/>
        <path id="Path_3177" data-name="Path 3177" d="M409.058,164.048V147.94l-11.992-24.268a1.177,1.177,0,0,0-1.75-.242l-11.489,7.549L371.25,100.354a1.176,1.176,0,0,0-1.8-.21L354.16,115.9v15.284a2,2,0,0,0,1,1.73Z" transform="translate(-349.491 -70.137)" fill="#00688b"/>
        <path id="Path_3178" data-name="Path 3178" d="M393.49,140.834l3.623,8.811-2.3-9.685Z" transform="translate(-359.132 -79.978)" opacity="0.15"/>
        <path id="Path_3179" data-name="Path 3179" d="M349.56,63.277v70.457a2.063,2.063,0,0,0,.928,1.615L410.5,170a.876.876,0,0,0,.151.076h.059a2.076,2.076,0,0,0,1.646-.1l1.631-.936a2.06,2.06,0,0,0,.933-1.616V96.988a1.864,1.864,0,0,0-.271-.914,1.945,1.945,0,0,0-.662-.695l-60-34.662a2.067,2.067,0,0,0-1.86,0l-1.638.913a2.114,2.114,0,0,0-.9,1.351V63.1C349.592,63.133,349.56,63.224,349.56,63.277Zm2.263,3.314c0-.6.415-.838.93-.536l56.018,32.352a1.773,1.773,0,0,1,.654.695,1.809,1.809,0,0,1,.271.914v56.326c0,.6-.413.838-.925.544l-56-32.353a2.048,2.048,0,0,1-.928-1.615Z" transform="translate(-348.361 -60.497)" fill="#455a64"/>
        <path id="Path_3180" data-name="Path 3180" d="M430.57,181.657a2.071,2.071,0,0,0,1.646-.1l1.631-.935a2.054,2.054,0,0,0,.933-1.616V108.543a1.883,1.883,0,0,0-.269-.913l-3.5,2.015a1.861,1.861,0,0,1,.273.92v70.458C431.288,181.528,430.975,181.778,430.57,181.657Z" transform="translate(-368.225 -72.052)" fill="#263238"/>
        <path id="Path_3181" data-name="Path 3181" d="M349.56,63.964v70.457a2.061,2.061,0,0,0,.928,1.615L410.5,170.69a.763.763,0,0,0,.151.076h.059c.408.121.715-.128.715-.634V99.7a1.835,1.835,0,0,0-.271-.92,1.962,1.962,0,0,0-.654-.695L350.488,63.429c-.422-.249-.752-.121-.9.272v.114C349.592,63.852,349.56,63.911,349.56,63.964Zm2.263,3.314c0-.6.415-.838.93-.536l56.018,32.352a1.773,1.773,0,0,1,.654.695,1.807,1.807,0,0,1,.271.913v56.327c0,.6-.413.837-.925.543l-56-32.352a2.05,2.05,0,0,1-.928-1.615Z" transform="translate(-348.361 -61.185)" fill="#37474f"/>
        <path id="Path_3182" data-name="Path 3182" d="M399.733,110.272l-1.353-2.264,2.778-1.616h0a2.649,2.649,0,0,1,2.656.265,8.3,8.3,0,0,1,3.774,6.514,2.643,2.643,0,0,1-1.079,2.408h0l-2.7,1.563-1.289-2.2A8.738,8.738,0,0,1,399.733,110.272Z" transform="translate(-360.333 -71.69)" fill="#00688b"/>
        <path id="Path_3183" data-name="Path 3183" d="M399.733,110.272l-1.353-2.264,2.778-1.616h0a2.649,2.649,0,0,1,2.656.265,8.3,8.3,0,0,1,3.774,6.514,2.643,2.643,0,0,1-1.079,2.408h0l-2.7,1.563-1.289-2.2A8.738,8.738,0,0,1,399.733,110.272Z" transform="translate(-360.333 -71.69)" opacity="0.15"/>
        <path id="Path_3184" data-name="Path 3184" d="M400.774,108.7c-2.075-1.193-3.774-.226-3.774,2.174a8.309,8.309,0,0,0,3.774,6.506c2.075,1.2,3.774.227,3.774-2.166A8.3,8.3,0,0,0,400.774,108.7Z" transform="translate(-359.993 -72.19)" fill="#00688b"/>
        <path id="Path_3185" data-name="Path 3185" d="M409.521,228c.757-.129,1.611,2.341,1.88,4.438s.7,5.4-.308,5.776-2.515-2.493-3.022-4.795S407.788,228.111,409.521,228Z" transform="translate(-362.651 -101.561)" fill="#00688b"/>
        <path id="Path_3186" data-name="Path 3186" d="M409.521,228c.757-.129,1.611,2.341,1.88,4.438s.7,5.4-.308,5.776-2.515-2.493-3.022-4.795S407.788,228.111,409.521,228Z" transform="translate(-362.651 -101.561)" opacity="0.3"/>
        <path id="Path_3187" data-name="Path 3187" d="M414.783,198.724h0c-.352-.164-1.113-.942-1.6-3.857-.337-1.96-.493-2.808-1.353-3.093s-.581.642-.83,2.937c-.244,2.151-.84,5.156-.547,7.546a37.119,37.119,0,0,1-.586,8.545c-.483,3.193-1.8,7.9-1.8,7.9-1.011,1.079-14.175,3.464-14.175,3.464-2.749,5.073.752,10.32.752,10.32,8.34-2.4,11.538-3.7,15.742-5.088,3.076-1.018,3.96-1.562,4.419-3.7,1.094-5.042,1.509-12.749,1.909-16.553.308-2.673,3.271-3.569,3.779-5.066Z" transform="translate(-358.975 -92.668)" fill="#f4c1c0"/>
        <path id="Path_3188" data-name="Path 3188" d="M394.573,228.906a3.736,3.736,0,0,0-2.373,2.266c-.4,1.1-1.89,9.729,3.12,10.989.469-.059,2.783-.981,6-1.895a49.038,49.038,0,0,0,5.815-2.053c-1.938-.278-3.735-8.845-1.567-10.212Z" transform="translate(-358.689 -101.563)" fill="#a2b2b7"/>
        <path id="Path_3189" data-name="Path 3189" d="M361.911,165.97c-.7-.43,0-2.437.151-4.6.156-2.3.64-3.177-.3-3.019s-1.2.936-1.873,2.808a10.121,10.121,0,0,1-1.4,2.816l-4.075-2.394c-1.233,1.421-2.358,2.264-2.559,4.734-.369,4.325-.422,5.381-.845,8.787s7.275-3.774,7.275-3.774c.31-2.679,3.5-3.594,4.023-5.079l-.393-.236Z" transform="translate(-348.712 -84.484)" fill="#f4c1c0"/>
      </g>
    </g>
  </g>
</svg>
