<svg xmlns="http://www.w3.org/2000/svg" width="289.286" height="299.36" viewBox="0 0 289.286 299.36">
  <g id="Group_3765" data-name="Group 3765" transform="translate(-1416 -15844.257)">
    <g id="freepik--Gears--inject-225" transform="translate(1416 15844.257)">
      <g id="Group_3766" data-name="Group 3766" transform="translate(6.093 2.872)">
        <path id="Path_2966" data-name="Path 2966" d="M79.706,46.44a27.2,27.2,0,1,0,27.2,27.2,27.2,27.2,0,0,0-27.2-27.2Zm0,39.875a12.678,12.678,0,1,0,0-.013Z" transform="translate(-46.061 -40.172)" fill="#b1a1ae"/>
        <path id="Path_2971" data-name="Path 2971" d="M96.891,44.155H86.44l.576-7.395h9.3Z" transform="translate(-58.02 -36.76)" fill="#b1a1ae"/>
        <path id="Path_2972" data-name="Path 2972" d="M65.2,50.994l-7.388,7.395-4.824-5.64,6.572-6.579Z" transform="translate(-46.23 -40.077)" fill="#b1a1ae"/>
        <path id="Path_2973" data-name="Path 2973" d="M49.945,79.2V89.651l-7.395-.576v-9.3Z" transform="translate(-42.55 -51.719)" fill="#b1a1ae"/>
        <path id="Path_2974" data-name="Path 2974" d="M56.784,109.92l7.395,7.395-5.64,4.824-6.579-6.572Z" transform="translate(-45.867 -62.546)" fill="#b1a1ae"/>
        <path id="Path_2975" data-name="Path 2975" d="M84.98,127.81H95.438l-.576,7.395h-9.3Z" transform="translate(-57.505 -68.852)" fill="#b1a1ae"/>
        <path id="Path_2976" data-name="Path 2976" d="M115.71,118.345l7.395-7.395,4.824,5.64-6.579,6.579Z" transform="translate(-68.336 -62.909)" fill="#b1a1ae"/>
        <path id="Path_2977" data-name="Path 2977" d="M133.59,91.1V80.65l7.4.576v9.3Z" transform="translate(-74.638 -52.229)" fill="#b1a1ae"/>
        <path id="Path_2978" data-name="Path 2978" d="M124.135,59.412l-7.395-7.388,5.64-4.824,6.572,6.572Z" transform="translate(-68.699 -40.439)" fill="#b1a1ae"/>
      </g>
      <path id="Path_2982" data-name="Path 2982" d="M134,160.968a32.532,32.532,0,1,0,32.513,32.526A32.532,32.532,0,0,0,134,160.968Zm0,58.136a25.61,25.61,0,1,1,25.591-25.6A25.61,25.61,0,0,1,134,219.1Zm0-58.136a32.532,32.532,0,1,0,32.513,32.526A32.532,32.532,0,0,0,134,160.968Zm0,58.136a25.61,25.61,0,1,1,25.591-25.6A25.61,25.61,0,0,1,134,219.1Zm0-80.443a54.816,54.816,0,1,0,.009,0Zm0,90.486a35.653,35.653,0,1,1,35.614-35.614A35.653,35.653,0,0,1,134,229.146Zm0-68.179a32.532,32.532,0,1,0,32.513,32.526A32.532,32.532,0,0,0,134,160.968Zm0,58.136a25.61,25.61,0,1,1,25.591-25.6A25.61,25.61,0,0,1,134,219.1Z" transform="translate(-49.357 -69.805)" fill="#899297"/>
      <path id="Path_2991" data-name="Path 2991" d="M166.946,133.38H154.39l1.25-12.53H165.7Z" transform="translate(-75.876 -63.527)" fill="#005250"/>
      <path id="Path_2992" data-name="Path 2992" d="M122.132,140.8l-10.872,6.275L106.08,135.6l8.7-5.031Z" transform="translate(-58.849 -66.953)" fill="#005250"/>
      <path id="Path_2993" data-name="Path 2993" d="M87.816,170.34l-6.281,10.872-10.225-7.35,5.025-8.7Z" transform="translate(-46.594 -79.145)" fill="#899297"/>
      <path id="Path_2994" data-name="Path 2994" d="M73.866,213.4v12.556l-12.536-1.25V214.65Z" transform="translate(-43.076 -96.148)" fill="#899297"/>
      <path id="Path_2995" data-name="Path 2995" d="M81.285,256.31l6.281,10.872-11.481,5.18-5.025-8.709Z" transform="translate(-46.505 -111.272)" fill="#899297"/>
      <path id="Path_2996" data-name="Path 2996" d="M110.827,290.38l10.872,6.275-7.35,10.231-8.709-5.025Z" transform="translate(-58.694 -123.281)" fill="#005250"/>
      <path id="Path_2997" data-name="Path 2997" d="M153.89,306.49h12.556l-1.256,12.536H155.14Z" transform="translate(-75.7 -128.959)" fill="#005250"/>
      <path id="Path_2998" data-name="Path 2998" d="M196.79,296.9l10.872-6.275,5.187,11.481-8.709,5.025Z" transform="translate(-90.821 -123.369)" fill="#005250"/>
      <path id="Path_2999" data-name="Path 2999" d="M230.87,267.612l6.275-10.872,10.231,7.35-5.031,8.709Z" transform="translate(-102.833 -111.424)" fill="#005250"/>
      <path id="Path_3000" data-name="Path 3000" d="M246.98,226.456V213.9l12.53,1.25v10.056Z" transform="translate(-108.511 -96.324)" fill="#899297"/>
      <path id="Path_3001" data-name="Path 3001" d="M237.395,181.642,231.12,170.77l11.474-5.18,5.031,8.709Z" transform="translate(-102.921 -79.296)" fill="#005250"/>
      <path id="Path_3002" data-name="Path 3002" d="M208.1,147.326l-10.872-6.275,7.343-10.231,8.709,5.031Z" transform="translate(-90.976 -67.041)" fill="#005250"/>
      <path id="Path_3004" data-name="Path 3004" d="M222.337,176.607l-3.885,2.927-7.162-9.448-2.59-3.458a5.989,5.989,0,0,0,1.5-.848,6.236,6.236,0,0,0,1.981-2.59l2.784,3.665Z" transform="translate(-95.019 -78.451)" fill="#263238"/>
      <path id="Path_3005" data-name="Path 3005" d="M207.712,147.309a10.542,10.542,0,1,0-1.943,14.79,10.826,10.826,0,0,0,2.189-2.273A10.555,10.555,0,0,0,207.712,147.309Zm-4.533,11.423a5.989,5.989,0,0,1-1.5.848,6.268,6.268,0,1,1,1.5-.848Z" transform="translate(-88.009 -71.402)" fill="#263238"/>
      <path id="Path_3006" data-name="Path 3006" d="M421.25,110.689a12.394,12.394,0,1,0-2.8,9.071A12.4,12.4,0,0,0,421.25,110.689Zm-11.332,11.992a10.892,10.892,0,1,1,9.83-11.85,10.892,10.892,0,0,1-9.83,11.85Zm11.332-11.992a12.394,12.394,0,1,0-2.8,9.071A12.4,12.4,0,0,0,421.25,110.689Zm-11.332,11.992a10.892,10.892,0,1,1,9.83-11.85,10.892,10.892,0,0,1-9.83,11.85Zm11.332-11.992a12.394,12.394,0,1,0-2.8,9.071A12.4,12.4,0,0,0,421.25,110.689Zm-11.332,11.992a10.892,10.892,0,1,1,9.83-11.85,10.892,10.892,0,0,1-9.83,11.85Zm25.014-13.262a26.141,26.141,0,1,0-23.6,28.453,26.141,26.141,0,0,0,23.6-28.453Zm-24.7,16.687a14.336,14.336,0,1,1,12.951-15.593A14.336,14.336,0,0,1,410.235,126.107Zm-2.474-26.614a12.407,12.407,0,1,0,13.488,11.2,12.407,12.407,0,0,0-13.488-11.2Zm2.156,23.195a12.192,12.192,0,1,0,0-.006ZM421.25,110.7a16.114,16.114,0,1,1,0-.006Zm-11.332,11.992a12.192,12.192,0,1,0,0-.006ZM421.25,110.7a16.114,16.114,0,1,1,0-.006Zm-11.332,11.992a12.192,12.192,0,1,0,0-.006Z" transform="translate(-156.369 -51.139)" fill="#c6fdfb"/>
      <path id="Path_3007" data-name="Path 3007" d="M421.774,82.982l-10.011.932-.1-7.136,8.9-.829Z" transform="translate(-166.555 -47.701)" fill="#c6fdfb"/>
      <path id="Path_3008" data-name="Path 3008" d="M392.059,92.518l-6.417,7.732-5.122-4.967,5.711-6.883Z" transform="translate(-155.579 -52.09)" fill="#c6fdfb"/>
      <path id="Path_3009" data-name="Path 3009" d="M379.669,120.84l.926,10-7.136.11-.829-8.9Z" transform="translate(-152.799 -63.524)" fill="#c6fdfb"/>
      <path id="Path_3010" data-name="Path 3010" d="M389.2,149.78l7.732,6.417-4.973,5.122-6.877-5.711Z" transform="translate(-157.187 -73.724)" fill="#c6fdfb"/>
      <path id="Path_3011" data-name="Path 3011" d="M417.52,164.116l10.011-.926.1,7.136-8.9.829Z" transform="translate(-168.621 -78.451)" fill="#c6fdfb"/>
      <path id="Path_3012" data-name="Path 3012" d="M446.46,152.468l6.417-7.738L458,149.7l-5.711,6.883Z" transform="translate(-178.821 -71.944)" fill="#c6fdfb"/>
      <path id="Path_3013" data-name="Path 3013" d="M460.8,125.094l-.926-10.011,7.136-.1.829,8.9Z" transform="translate(-183.548 -61.458)" fill="#c6fdfb"/>
      <path id="Path_3014" data-name="Path 3014" d="M449.148,95.379l-7.738-6.417,4.973-5.122,6.883,5.711Z" transform="translate(-177.041 -50.482)" fill="#c6fdfb"/>
      <g id="Group_3767" data-name="Group 3767" transform="translate(141.693 33.539)">
        <path id="Path_3030" data-name="Path 3030" d="M299.548,96.52a34.811,34.811,0,1,0,34.8,34.809,34.813,34.813,0,0,0-34.8-34.809Zm0,51.065A16.26,16.26,0,1,1,315.8,131.329a16.26,16.26,0,0,1-16.253,16.255Z" transform="translate(-256.461 -88.49)" fill="#ffe8e4"/>
        <path id="Path_3031" data-name="Path 3031" d="M321.544,93.593H308.16l.745-9.473h11.9Z" transform="translate(-271.769 -84.12)" fill="#ffe8e4"/>
        <path id="Path_3032" data-name="Path 3032" d="M280.974,102.357l-9.467,9.46-6.177-7.22,8.418-8.418Z" transform="translate(-256.672 -88.371)" fill="#ffe8e4"/>
        <path id="Path_3033" data-name="Path 3033" d="M261.433,138.46v13.385l-9.473-.738V139.2Z" transform="translate(-251.96 -103.273)" fill="#ffe8e4"/>
        <path id="Path_3034" data-name="Path 3034" d="M270.2,177.81l9.46,9.46-7.22,6.178-8.418-8.418Z" transform="translate(-256.211 -117.142)" fill="#ffe8e4"/>
        <path id="Path_3035" data-name="Path 3035" d="M306.3,200.7h13.385l-.738,9.473H307.038Z" transform="translate(-271.113 -125.21)" fill="#ffe8e4"/>
        <path id="Path_3036" data-name="Path 3036" d="M345.65,188.587l9.461-9.467,6.177,7.226-8.418,8.418Z" transform="translate(-284.983 -117.604)" fill="#ffe8e4"/>
        <path id="Path_3037" data-name="Path 3037" d="M368.54,153.7V140.32l9.473.738v11.908Z" transform="translate(-293.051 -103.928)" fill="#ffe8e4"/>
        <path id="Path_3038" data-name="Path 3038" d="M356.427,113.134l-9.467-9.467,7.227-6.177,8.418,8.418Z" transform="translate(-285.444 -88.832)" fill="#ffe8e4"/>
      </g>
      <path id="Path_3049" data-name="Path 3049" d="M55.792,43.793l-.382-.531c.68-.486,1.081-.725,1.1-.732l.33.557a12.074,12.074,0,0,0-1.049.706Z" transform="translate(-40.989 -35.922)" fill="#263238"/>
      <path id="Path_3050" data-name="Path 3050" d="M217.6,156.967c-.881,0-1.755-.039-2.59-.091l.039-.648c.835.052,1.7.078,2.59.091Zm2.59-.052-.032-.648c.861-.039,1.722-.11,2.545-.214l.078.648c-.8.091-1.671.168-2.551.214Zm-7.8-.259c-.868-.1-1.729-.22-2.59-.363l.11-.648c.835.142,1.684.265,2.545.363Zm12.951-.363-.13-.648c.848-.168,1.684-.376,2.48-.609l.181.648a21.089,21.089,0,0,1-2.5.609Zm-18.086-.518c-.855-.207-1.7-.434-2.512-.693l.188-.648c.8.246,1.638.473,2.474.648Zm23.13-.926-.24-.6a23.31,23.31,0,0,0,2.305-1.068l.3.576C231.985,154.13,231.195,154.493,230.379,154.849Zm-28.051-.648c-.809-.317-1.612-.648-2.389-1.036l.278-.583c.764.363,1.554.706,2.344,1.017Zm32.662-1.833-.363-.537a23.568,23.568,0,0,0,2.04-1.528l.414.5a25.919,25.919,0,0,1-2.092,1.593Zm-37.363-.408c-.751-.427-1.5-.887-2.221-1.373l.363-.537c.706.473,1.444.926,2.176,1.347Zm-4.339-2.894c-.648-.518-1.353-1.075-2.007-1.651l.421-.486c.648.563,1.3,1.114,1.981,1.625ZM239,149.034l-.46-.453c.583-.589,1.159-1.23,1.71-1.9l.5.408A21.618,21.618,0,0,1,239,149.06Zm-49.634-3.387c-.6-.6-1.211-1.224-1.813-1.871l.473-.44c.6.648,1.2,1.3,1.794,1.845ZM242.326,145l-.531-.369c.479-.686.945-1.412,1.392-2.156l.557.33c-.46.8-.932,1.535-1.418,2.234Zm-56.5-3.192c-.537-.648-1.088-1.3-1.638-2.02l.505-.4c.55.7,1.1,1.373,1.632,2Zm59.178-1.3-.57-.3c.376-.732.758-1.509,1.12-2.312l.589.266c-.369.868-.751,1.658-1.14,2.4Zm-62.377-2.752c-.512-.693-1.017-1.4-1.522-2.1l.531-.376c.5.706,1,1.405,1.509,2.1Zm64.566-1.943-.6-.246c.311-.771.648-1.58.926-2.409l.609.227c-.324.848-.641,1.664-.958,2.441Zm-67.57-2.312c-.486-.712-.965-1.425-1.45-2.15l.544-.356c.479.719.958,1.431,1.444,2.143Zm69.364-2.59-.615-.2c.272-.816.531-1.632.79-2.467l.615.194c-.272.861-.537,1.684-.809,2.5Zm-72.245-1.729-1.438-2.169.544-.356,1.431,2.169Zm73.774-3.238-.648-.181c.24-.822.466-1.651.7-2.493l.648.168q-.356,1.289-.719,2.532Zm-76.649-1.088c-.486-.712-.971-1.431-1.463-2.137l.531-.369c.492.712.984,1.425,1.463,2.143Zm78.015-3.931-.647-.162q.317-1.243.647-2.506l.648.155c-.24.868-.453,1.71-.667,2.538Zm-80.942-.324c-.505-.7-1.017-1.4-1.535-2.085l.518-.389c.524.693,1.036,1.392,1.541,2.092Zm-3.121-4.125c-.544-.686-1.1-1.353-1.645-1.988l.492-.421c.55.648,1.107,1.3,1.664,2.007Zm85.358-.583-.648-.155.648-2.519.648.155Zm-88.712-3.335c-.589-.648-1.2-1.256-1.794-1.852l.453-.46c.609.6,1.217,1.23,1.813,1.871Zm89.962-1.69-.648-.162c.207-.835.421-1.671.648-2.512l.648.162c-.278.861-.492,1.7-.7,2.538ZM67.291,109.308c-.868,0-1.748-.065-2.59-.142l.058-.648c.848.071,1.709.123,2.59.136Zm2.59-.045v-.648c.848-.052,1.709-.13,2.551-.24l.084.648c-.9.136-1.781.214-2.648.265Zm90.881-.311c-.648-.576-1.3-1.133-1.943-1.664l.408-.505c.648.537,1.334,1.107,1.981,1.69Zm-98.71-.078c-.855-.142-1.716-.317-2.59-.518l.149-.648c.822.2,1.671.369,2.512.505Zm13-.253-.13-.648a24.317,24.317,0,0,0,2.493-.648l.175.648c-.829.253-1.684.46-2.538.641Zm-18.079-.952c-.829-.265-1.658-.557-2.461-.874l.24-.6c.784.311,1.6.6,2.415.855Zm23.1-.434-.194-.648,2.474-.777.194.615c-.816.291-1.645.55-2.474.8Zm175.585-1.353-.648-.168c.22-.835.447-1.677.68-2.512l.648.175c-.233.822-.46,1.664-.68,2.5Zm-98.93-.123c-.693-.5-1.405-.984-2.124-1.438l.343-.544c.732.46,1.457.952,2.163,1.457Zm-104.629,0c-.784-.382-1.561-.79-2.312-1.217l.324-.563c.732.421,1.5.822,2.266,1.191Zm32.9-.084-.194-.615,2.461-.8.2.615Zm4.928-1.6-.2-.615,2.467-.8.2.648Zm-42.362-.919c-.719-.492-1.425-1.01-2.1-1.548l.4-.512c.648.531,1.36,1.043,2.072,1.522Zm104.829-.13c-.745-.408-1.515-.8-2.279-1.172l.278-.583c.777.369,1.554.771,2.312,1.191Zm-57.54-.544-.194-.648,2.493-.732.194.648Zm4.947-1.535-.188-.648c.835-.253,1.664-.492,2.493-.725l.175.648Zm157.221-.058-.648-.181c.24-.829.492-1.664.745-2.487l.648.194c-.246.8-.492,1.632-.732,2.461Zm-109.258-.078c-.712-.291-1.444-.563-2.176-.822l-.227-.078.214-.615.168.058c.8.285,1.548.563,2.266.861ZM43.514,99.9c-.648-.6-1.256-1.217-1.839-1.858l.479-.434c.57.648,1.179,1.237,1.8,1.82Zm61.3-.356-.162-.648c.842-.22,1.677-.434,2.519-.648l.149.648c-.848.2-1.684.414-2.525.635Zm38.133-.427c-.822-.253-1.658-.486-2.48-.7l.162-.648c.829.22,1.671.453,2.506.706Zm-33.108-.79-.136-.648c.848-.181,1.7-.356,2.545-.518l.123.648c-.861.149-1.709.324-2.551.505Zm28.122-.505c-.835-.175-1.69-.343-2.532-.486l.11-.648c.855.149,1.71.311,2.558.5Zm-23.046-.453-.1-.648c.868-.136,1.735-.259,2.59-.363l.078.648c-.894.091-1.729.214-2.584.35Zm17.969-.408c-.855-.11-1.716-.2-2.59-.265l.052-.648c.861.071,1.729.162,2.59.266Zm-12.854-.22-.058-.648c.868-.071,1.742-.13,2.59-.168v.648c-.8,0-1.69.084-2.551.155Zm7.719-.2q-1.127-.039-2.234-.039h-.343v-.648h.343c.745,0,1.5,0,2.26.039Zm-87.76-.5c-.531-.686-1.043-1.405-1.515-2.13l.544-.356c.46.712.965,1.418,1.483,2.092Zm218.608-.091-.615-.2c.272-.829.557-1.645.848-2.461l.609.22c-.311.8-.589,1.612-.861,2.415ZM37.135,91.656c-.414-.764-.8-1.554-1.14-2.351l.589-.259c.343.784.719,1.554,1.12,2.305Zm223.2-.576-.6-.233c.317-.816.648-1.612.984-2.409l.6.259C260.981,89.481,260.645,90.277,260.334,91.08Zm-225.3-4.222c-.278-.816-.525-1.658-.738-2.506l.648-.155c.207.829.453,1.651.725,2.454Zm227.336-.505-.583-.278c.382-.8.771-1.586,1.166-2.331l.57.3c-.382.725-.771,1.515-1.153,2.3Zm2.4-4.533-.557-.324c.44-.758.907-1.5,1.373-2.221l.544.356c-.466.673-.919,1.4-1.36,2.156Zm-231.008,0c-.078-.466-.149-.932-.207-1.405s-.1-.8-.136-1.185l.648-.065c.039.389.084.777.13,1.172s.123.919.2,1.373Zm233.838-4.3-.525-.382c.518-.7,1.062-1.392,1.606-2.04l.5.414c-.537.609-1.075,1.289-1.58,1.975ZM33.192,76.627c-.032-.725-.052-1.457-.052-2.176v-.427h.648v.427c0,.712,0,1.431.052,2.15ZM270.837,73.6l-.466-.447c.6-.648,1.224-1.25,1.852-1.826l.44.479c-.57.537-1.185,1.14-1.781,1.761ZM33.924,71.427l-.648-.045c.058-.868.149-1.742.259-2.59l.648.084C34.072,69.711,33.988,70.573,33.924,71.427Zm240.727-1.3-.408-.505c.648-.537,1.379-1.062,2.091-1.554l.369.531a25.1,25.1,0,0,0-2.053,1.5Zm4.209-2.914-.337-.557c.745-.44,1.515-.861,2.292-1.25l.291.576c-.764.35-1.522.8-2.247,1.2ZM34.61,66.338l-.648-.13c.175-.855.382-1.709.609-2.538l.648.175C34.992,64.661,34.785,65.489,34.61,66.338Zm1.366-4.947-.609-.214c.291-.816.648-1.632.958-2.428l.609.265C36.578,59.785,36.287,60.588,35.976,61.391ZM38.035,56.7l-.576-.272c.408-.771.842-1.528,1.3-2.266l.55.343C38.877,55.187,38.43,55.938,38.035,56.7Zm2.713-4.351-.524-.382c.512-.706,1.055-1.392,1.619-2.059l.492.421C41.785,50.972,41.254,51.652,40.749,52.345Zm3.309-3.918-.46-.453c.615-.648,1.256-1.23,1.9-1.794l.427.492C45.307,47.223,44.7,47.812,44.057,48.427Z" transform="translate(-33.14 -37.209)" fill="#263238"/>
      <path id="Path_3051" data-name="Path 3051" d="M419.973,74.271l-.253-.6c.4-.168.8-.33,1.217-.486l.233.609C420.763,73.948,420.367,74.109,419.973,74.271Z" transform="translate(-169.396 -46.729)" fill="#263238"/>
      <circle id="Ellipse_332" data-name="Ellipse 332" cx="5.277" cy="5.277" r="5.277" transform="translate(8.792 4.019) rotate(-22.38)" fill="#263238" opacity="0.33"/>
      <circle id="Ellipse_333" data-name="Ellipse 333" cx="5.277" cy="5.277" r="5.277" transform="translate(102.861 55.464)" fill="#263238"/>
      <circle id="Ellipse_334" data-name="Ellipse 334" cx="5.277" cy="5.277" r="5.277" transform="translate(246.38 21.488)" fill="#e2cce9"/>
      <circle id="Ellipse_335" data-name="Ellipse 335" cx="5.277" cy="5.277" r="5.277" transform="translate(179.736 115.199)" fill="#263238"/>
    </g>
    <g id="Agreement-amico" transform="translate(1419.885 15860.278)">
      <g id="freepik--Floor--inject-16" transform="translate(0 134.208)">
        <path id="freepik--floor--inject-16-2" data-name="freepik--floor--inject-16" d="M73.38,374.281c55.727,29.139,146.084,29.139,201.811,0s55.727-76.318,0-105.432-146.084-29.139-201.811,0S17.653,345.168,73.38,374.281Z" transform="translate(-31.585 -247.005)" fill="#fff"/>
      </g>
      <g id="freepik--Shadows--inject-16" transform="translate(166.426 185.321)">
        <ellipse id="freepik--Shadow--inject-16" cx="26.478" cy="15.288" rx="26.478" ry="15.288" transform="translate(0 22.851)" fill="#e0e0e0"/>
        <ellipse id="freepik--shadow--inject-16-2" data-name="freepik--shadow--inject-16" cx="23.421" cy="13.521" rx="23.421" ry="13.521" transform="translate(51.44)" fill="#e0e0e0"/>
      </g>
      <g id="freepik--Pen--inject-16" transform="translate(75.545 173.205)">
        <g id="freepik--pen--inject-16-2" data-name="freepik--pen--inject-16">
          <path id="Path_2859" data-name="Path 2859" d="M278.836,309.8a8.016,8.016,0,0,0,3.633,6.288,2.921,2.921,0,0,0,2.085.44,1.819,1.819,0,0,1-.395.311l.874-.5.045-.032.129-.084a1.155,1.155,0,0,0,.162-.142l.1-.1h0c0-.032.058-.065.084-.1a2.59,2.59,0,0,0,.3-.544l.065-.175a.468.468,0,0,0,0-.091,1.362,1.362,0,0,0,.039-.155,3.933,3.933,0,0,0,.1-.907,8.016,8.016,0,0,0-3.626-6.281,3.238,3.238,0,0,0-1.625-.5h-.227l-.207.039-.123.032h-.078a.7.7,0,0,0-.149.058h0l-.136.071-.758.434a1.536,1.536,0,0,1,.389-.136A2.888,2.888,0,0,0,278.836,309.8Zm5.977,6.644h0Z" transform="translate(-194.274 -307.23)" fill="#65bab9"/>
          <path id="Path_2860" data-name="Path 2860" d="M162.43,351.84l5.122,8.9.868-.505L243.132,317.1a1.819,1.819,0,0,0,.395-.311,2.888,2.888,0,0,0,.648-2.04,8.042,8.042,0,0,0-3.633-6.288,3.283,3.283,0,0,0-1.625-.492,1.822,1.822,0,0,0-.46.052,1.536,1.536,0,0,0-.388.136l-.065.032h0Z" transform="translate(-153.248 -307.491)" fill="#ebebeb"/>
          <path id="Path_2861" data-name="Path 2861" d="M164.423,375.84c-2.007-1.159-3.633-.22-3.633,2.092a8.016,8.016,0,0,0,3.633,6.288c2,1.159,3.626.22,3.626-2.1a8.016,8.016,0,0,0-3.626-6.281Z" transform="translate(-152.67 -331.237)" fill="#65bab9"/>
          <path id="Path_2862" data-name="Path 2862" d="M154.176,381.239a.473.473,0,0,1,.091-.1l4.63-5.1h0l.039-.039.084-.091.045-.052h0c.648-.648,1.709-.686,2.9,0a8.017,8.017,0,0,1,3.626,6.281,2.372,2.372,0,0,1-1.4,2.5h-.052a1.936,1.936,0,0,1-.266.058h-.058l-6.708,1.463a1.625,1.625,0,0,1-1.172-.253,4.578,4.578,0,0,1-2.079-3.587A1.684,1.684,0,0,1,154.176,381.239Z" transform="translate(-150.226 -331.243)" fill="#e0e0e0"/>
          <path id="Path_2863" data-name="Path 2863" d="M214.983,333.334h0l.123-.071a.939.939,0,0,1,.842.123,2.849,2.849,0,0,1,1.3,2.234.952.952,0,0,1-.3.777h0l-.162.091-55.151,31.839-3.626-2.1Z" transform="translate(-151.687 -316.389)" fill="#455a64"/>
          <path id="Path_2864" data-name="Path 2864" d="M166.738,381.147l-5.122,2.959-3.626-2.1L164.925,378a8.787,8.787,0,0,1,1.813,3.147Z" transform="translate(-151.683 -332.174)" fill="#37474f"/>
          <path id="Path_2865" data-name="Path 2865" d="M151.412,385.378h0l4.19-4.643.11-.123a1.633,1.633,0,0,1,2.072,0,5.659,5.659,0,0,1,2.59,4.442,1.676,1.676,0,0,1-.978,1.761h-.039l-.168.039-6.177,1.36h0a.991.991,0,0,1-.648-.142,2.59,2.59,0,0,1-1.166-2.027.919.919,0,0,1,.214-.667Z" transform="translate(-149.288 -332.966)" fill="#65bab9"/>
          <path id="Path_2866" data-name="Path 2866" d="M151.412,385.378h0l4.19-4.643.11-.123a1.633,1.633,0,0,1,2.072,0,5.659,5.659,0,0,1,2.59,4.442,1.676,1.676,0,0,1-.978,1.761h-.039l-.168.039-6.177,1.36h0a.991.991,0,0,1-.648-.142,2.59,2.59,0,0,1-1.166-2.027.919.919,0,0,1,.214-.667Z" transform="translate(-149.288 -332.966)" opacity="0.1"/>
          <path id="Path_2867" data-name="Path 2867" d="M151.168,387.4a2.59,2.59,0,0,0,1.166,2.027.939.939,0,0,0,.648.136h0l3.108-.68c.492-.1.816-.563.816-1.3a4.125,4.125,0,0,0-1.865-3.238,1.2,1.2,0,0,0-1.5,0l-.084.091-2.085,2.292h0A.894.894,0,0,0,151.168,387.4Z" transform="translate(-149.277 -334.319)" fill="#65bab9"/>
          <path id="Path_2868" data-name="Path 2868" d="M152.366,388.074c-.648-.369-1.166-.071-1.166.648a2.59,2.59,0,0,0,1.166,2.027c.648.369,1.166.065,1.166-.68A2.59,2.59,0,0,0,152.366,388.074Z" transform="translate(-149.29 -335.669)" opacity="0.1"/>
          <path id="Path_2869" data-name="Path 2869" d="M259.768,321.1a.9.9,0,0,1,.913.091,2.843,2.843,0,0,1,1.3,2.221.887.887,0,0,1-.376.829h0L248,332.08a.952.952,0,0,0,.3-.777,2.849,2.849,0,0,0-1.3-2.234.939.939,0,0,0-.842-.123Z" transform="translate(-182.763 -312.091)" fill="#fafafa"/>
          <path id="Path_2870" data-name="Path 2870" d="M266.581,321.917a2.855,2.855,0,0,0,1.3,2.228.784.784,0,0,0,1.3-.745,2.843,2.843,0,0,0-1.3-2.221.784.784,0,0,0-1.3.738Z" transform="translate(-189.952 -312.074)" fill="#f5f5f5"/>
          <path id="Path_2871" data-name="Path 2871" d="M270.511,312.175h.045l.052-.032,5.355-3.089.13-.071h0a2.344,2.344,0,0,1,2.215.278,7.2,7.2,0,0,1,3.238,5.653,2.3,2.3,0,0,1-.965,2.124h0l-5.42,3.128h-.032a2.344,2.344,0,0,1-2.266-.253,7.227,7.227,0,0,1-3.238-5.659A2.338,2.338,0,0,1,270.511,312.175Z" transform="translate(-191.026 -307.792)" fill="#65bab9"/>
          <path id="Path_2872" data-name="Path 2872" d="M270.511,312.175h.045l.052-.032,5.355-3.089.13-.071h0a2.344,2.344,0,0,1,2.215.278,7.2,7.2,0,0,1,3.238,5.653,2.3,2.3,0,0,1-.965,2.124h0l-5.42,3.128h-.032a2.344,2.344,0,0,1-2.266-.253,7.227,7.227,0,0,1-3.238-5.659A2.338,2.338,0,0,1,270.511,312.175Z" transform="translate(-191.026 -307.792)" opacity="0.05"/>
          <path id="Path_2873" data-name="Path 2873" d="M272.928,313.987c-1.8-1.043-3.238-.194-3.238,1.884a7.227,7.227,0,0,0,3.238,5.659c1.807,1.043,3.27.194,3.27-1.884A7.22,7.22,0,0,0,272.928,313.987Z" transform="translate(-191.053 -309.454)" opacity="0.1"/>
          <path id="Path_2874" data-name="Path 2874" d="M148.665,390.427h0l2.215-1.334h0a.4.4,0,0,1,.434.032,1.3,1.3,0,0,1,.6,1.036.44.44,0,0,1-.175.388h0l-2.208,1.334h0a.894.894,0,0,1-.414.1.845.845,0,0,1-.453-1.561Z" transform="translate(-148.257 -336.067)" fill="#455a64"/>
          <path id="Path_2875" data-name="Path 2875" d="M148.528,391.267h0l.117-.1h0a.447.447,0,0,1,.389.065,1.3,1.3,0,0,1,.6,1.036.421.421,0,0,1-.168.382h-.091a.647.647,0,0,1-.272.045.848.848,0,0,1-.848-.848A.861.861,0,0,1,148.528,391.267Z" transform="translate(-148.25 -336.809)" fill="#263238"/>
        </g>
      </g>
      <g id="freepik--Agreement--inject-16" transform="translate(29.524 0)">
        <g id="freepik--Contract--inject-16">
          <path id="Path_2876" data-name="Path 2876" d="M80.735,273.224l-2.26-1.3a2.856,2.856,0,0,1-1.3-2.234V102.262a2.849,2.849,0,0,1,1.3-2.234L182.34,40.06a2.843,2.843,0,0,1,2.59,0l2.26,1.3a2.856,2.856,0,0,1,1.3,2.234V211.022a2.843,2.843,0,0,1-1.3,2.234L83.312,273.224a2.83,2.83,0,0,1-2.577,0Z" transform="translate(-77.18 -39.746)" fill="#65bab9" opacity="0.5"/>
          <path id="Path_2877" data-name="Path 2877" d="M188.644,43.388c-.084-.648-.648-.913-1.3-.537L83.517,102.818a2.713,2.713,0,0,0-.913.958l-4.844-2.791a2.713,2.713,0,0,1,.913-.958L182.544,40.059a2.83,2.83,0,0,1,2.59,0l2.266,1.3A2.868,2.868,0,0,1,188.644,43.388Z" transform="translate(-77.384 -39.745)" fill="#fff" opacity="0.4"/>
          <path id="Path_2878" data-name="Path 2878" d="M83.1,306.651a.2.2,0,0,1-.078,0l-.13.045h-.052a1.17,1.17,0,0,0-.24.058h0a2.92,2.92,0,0,1-1.535-.123,2.339,2.339,0,0,1-.285-.13l-2.266-1.3a2.875,2.875,0,0,1-1.3-2.234V135.585a2.726,2.726,0,0,1,.376-1.3l4.844,2.791a2.59,2.59,0,0,0-.382,1.3V305.809a1.049,1.049,0,0,0,.2.68.648.648,0,0,0,.686.22.842.842,0,0,0,.155-.058Z" transform="translate(-77.194 -73.069)" opacity="0.15"/>
          <path id="Path_2879" data-name="Path 2879" d="M174.468,80.526l-.188-.117-2.143-1.23a7.932,7.932,0,0,0-2.506-.887c-.369-.084-.7-.181-.991-.278a7.525,7.525,0,0,1-.945-.382l.155-.2h0l-2.409-1.405h0a2.545,2.545,0,0,0-.648-.253c-.913-.227-2.279.3-3.639.149a3.387,3.387,0,0,1-2.474-1.47c-.829-1.114-1.327-3.063-2.059-4.682l.648-.939a1.989,1.989,0,0,0-.2-.11l-2.221-1.3a2.435,2.435,0,0,0-1.237-.337,4.74,4.74,0,0,0-2.331.758c-5.316,3.076-5.5,10.361-7.414,15.165s-4.63,6.3-6.106,8.366-1.58,3.594-4.85,8.1-3.4,5.608-3.4,6.475v6.715l2.422,1.4,43.527-25.144Zm-39.914,25.9c-.563.317-1.03-.117-1.03-.991a2.752,2.752,0,0,1,1.03-2.182c.563-.324,1.023.123,1.023,1a2.733,2.733,0,0,1-1.023,2.163Zm19.122-18.85a2.189,2.189,0,0,1-3.348-1.023c-1.69.324-2.946-1.3-2.946-4.105,0-3.3,1.742-6.974,3.885-8.217a2.189,2.189,0,0,1,3.348,1.03c1.69-.337,2.94,1.3,2.94,4.1,0,3.289-1.729,6.961-3.879,8.2Zm14.459-.544c-.57.33-1.03-.11-1.03-.984a2.687,2.687,0,0,1,1.03-2.182c.57-.33,1.03.11,1.03.984a2.694,2.694,0,0,1-1.03,2.169Z" transform="translate(-95.625 -49.383)" fill="#455a64"/>
          <path id="Path_2880" data-name="Path 2880" d="M134.367,128.2l-4.682-2.7a3.341,3.341,0,0,0-.155,1.043v6.715l2.422,1.4,2.415-1.4Z" transform="translate(-95.631 -69.971)" fill="#37474f" opacity="0.5"/>
          <path id="Path_2881" data-name="Path 2881" d="M142.037,112.462l2.422-5.588-3.846-2.253h0c-1.127,1.561-1.457,2.823-2.972,5.3Z" transform="translate(-98.49 -62.612)" fill="#37474f" opacity="0.5"/>
          <path id="Path_2882" data-name="Path 2882" d="M156.236,91.282l.311-1.632c-1.068-.447-1.781-1.891-1.781-4a11.135,11.135,0,0,1,2.946-7.492l-3.354-1.943c-1.425,3.238-1.943,7.123-3.121,10.017a16.33,16.33,0,0,1-.777,1.7Z" transform="translate(-103.009 -52.601)" fill="#37474f" opacity="0.5"/>
          <path id="Path_2883" data-name="Path 2883" d="M175.779,81.309l-.188-.117a9.759,9.759,0,0,0-2.234-.725,6.942,6.942,0,0,1-3.406-1.645,4.953,4.953,0,0,0-.79-.583,2.253,2.253,0,0,0-.648-.259c-1.463-.356-4.131,1.243-6.048-1.243a.35.35,0,0,1-.058-.078c-1.34-1.8-1.833-5.828-3.84-7.013a1.988,1.988,0,0,0-.2-.11c-.829-.389-1.9-.317-3.38.525-5.316,3.076-5.5,10.361-7.414,15.165s-4.623,6.3-6.1,8.366-1.574,3.594-4.85,8.1-3.393,5.614-3.393,6.475v6.721l43.527-25.144V83A1.684,1.684,0,0,0,175.779,81.309Zm-37.518,27.3c-.57.33-1.03-.11-1.03-.991a2.707,2.707,0,0,1,1.03-2.176c.57-.33,1.023.117,1.023.991A2.707,2.707,0,0,1,138.261,108.609Zm16.706-20.242a2.189,2.189,0,0,1-3.348-1.023,6.164,6.164,0,0,1-.531-2.713c0-3.3,1.735-6.974,3.885-8.211a3.069,3.069,0,0,1,.939-.369c1.69-.337,2.94,1.3,2.94,4.1.013,3.283-1.716,6.955-3.866,8.2Zm16.894.816c-.57.33-1.03-.11-1.03-.978a2.687,2.687,0,0,1,1.03-2.176c.563-.33,1.023.11,1.023.984A2.7,2.7,0,0,1,171.862,89.183Z" transform="translate(-96.936 -50.166)" fill="#37474f"/>
          <path id="Path_2884" data-name="Path 2884" d="M168.883,83.747c0,3.3-1.729,6.974-3.885,8.217a2.189,2.189,0,0,1-3.348-1.023,3.238,3.238,0,0,0,.939-.369c2.143-1.243,3.885-4.915,3.885-8.217a6.21,6.21,0,0,0-.531-2.707C167.633,79.324,168.883,80.949,168.883,83.747Z" transform="translate(-106.953 -53.795)" fill="#263238"/>
          <path id="Path_2885" data-name="Path 2885" d="M140.439,128.218c-.57.324-1.03-.117-1.03-.984a2.72,2.72,0,0,1,1.03-2.182c.563-.33,1.023.123,1.023.991a2.726,2.726,0,0,1-1.023,2.176" transform="translate(-99.114 -69.775)" fill="#263238"/>
          <path id="Path_2886" data-name="Path 2886" d="M192.329,98.219c-.57.324-1.03-.11-1.03-.984a2.72,2.72,0,0,1,1.03-2.182c.563-.324,1.023.123,1.023,1a2.72,2.72,0,0,1-1.023,2.169" transform="translate(-117.403 -59.202)" fill="#263238"/>
          <path id="Path_2887" data-name="Path 2887" d="M96.637,132.834,187.02,80.65a1.716,1.716,0,0,1,1.548,0l.874.505a1.709,1.709,0,0,1,.771,1.34V220.381a1.7,1.7,0,0,1-.771,1.34L99.059,273.906a1.716,1.716,0,0,1-1.548,0l-.874-.505a1.7,1.7,0,0,1-.777-1.34V134.175A1.716,1.716,0,0,1,96.637,132.834Z" transform="translate(-83.764 -54.098)" fill="#f5f5f5" opacity="0.85"/>
          <path id="Path_2888" data-name="Path 2888" d="M190.31,82.262c-.1-.317-.395-.421-.745-.214L99.182,134.233a1.476,1.476,0,0,0-.55.576l-2.422-1.392a1.593,1.593,0,0,1,.55-.583L187.143,80.65a1.716,1.716,0,0,1,1.548,0l.874.505a1.716,1.716,0,0,1,.745,1.107Z" transform="translate(-83.887 -54.098)" fill="#fafafa"/>
          <path id="Path_2889" data-name="Path 2889" d="M98.875,302.813a1.834,1.834,0,0,1-.285.078h-.149a2.313,2.313,0,0,1-.473,0,2.054,2.054,0,0,1-.285-.078l-.175-.084-.868-.5a1.716,1.716,0,0,1-.771-1.34V163a1.5,1.5,0,0,1,.22-.758l2.422,1.392a1.625,1.625,0,0,0-.227.764V302.282C98.285,302.7,98.544,302.91,98.875,302.813Z" transform="translate(-83.768 -82.921)" fill="#e0e0e0" opacity="0.55"/>
          <path id="Path_2890" data-name="Path 2890" d="M180.234,97.875l-2.409-1.392a2.59,2.59,0,0,0-2.415.071c-2.81,1.237-4.028,1.8-5.478,2.409l-1.049.421c-.57.227-1.7.032-1.353-1.943l3.736-10.056h-.058l-2.364-1.366a.984.984,0,0,0-.4-.142h-.259c-1.528-.039-1.943-9.9-1.975-10.205h0l-.11-.058-2.338-1.347a2.59,2.59,0,0,0-1.334-.337,4.914,4.914,0,0,0-2.221.648c-3.672,1.943-7.382,7.647-8.288,12.782-.57,3.238-3.827,8.224-5.711,10.063a6.019,6.019,0,0,0-2.014,3.367l-1.463,8.3-.473,2.661a8.612,8.612,0,0,1-2.376,3.885l-7.583,5.608c-4.746,3.937-6.087,7.919-6.993,12.841v.039c0,.175,0,.291.084.337a.078.078,0,0,0,.084,0h0l.971-.55,52.165-30.084a1.127,1.127,0,0,0,.473-.725h0c.3-1.794,1.166-5.18,1.166-5.18ZM165.153,82.639c-.563,3.153-2.836,6.676-5.1,7.861-1.561.816-2.7.311-3.082-1.127a1.794,1.794,0,0,1-1.71-.22c-.725-.57,5.918-11.979,6.475-11.727a1.943,1.943,0,0,1,1,1.36C164.609,78.223,165.651,79.8,165.153,82.639Z" transform="translate(-94.144 -51.794)" fill="#455a64"/>
          <path id="Path_2891" data-name="Path 2891" d="M132.894,154.365l-3.8-2.2a21.036,21.036,0,0,0-3.743,9.493v.039c0,.175,0,.291.084.337a.078.078,0,0,0,.084,0h0l3-2.37Z" transform="translate(-94.158 -79.371)" fill="#37474f" opacity="0.5"/>
          <path id="Path_2892" data-name="Path 2892" d="M151.1,126.089l5.362,3.089,2.415-13.967-4.831-2.791a4.6,4.6,0,0,0-.758,1.845l-1.463,8.3-.473,2.661A4.209,4.209,0,0,1,151.1,126.089Z" transform="translate(-103.234 -65.361)" fill="#37474f" opacity="0.5"/>
          <path id="Path_2893" data-name="Path 2893" d="M167.919,84.23a20.928,20.928,0,0,0-2.538,6.67,16.784,16.784,0,0,1-1.891,4.74l4.591,2.655,2.286-5.277a1.774,1.774,0,0,1-1.645-.233c-.376-.3,1.2-3.451,2.894-6.417Z" transform="translate(-107.601 -55.425)" fill="#37474f" opacity="0.5"/>
          <path id="Path_2894" data-name="Path 2894" d="M180.372,98.643h-.032a2.642,2.642,0,0,0-2.409.078c-3.445,1.522-4.487,2.02-6.534,2.83-.544.22-1.651.045-1.36-1.82a.882.882,0,0,1,0-.13l.473-2.655,1.3-7.233s.3-1.14-.453-1.567h-.058a1.405,1.405,0,0,0-.6-.13,2.946,2.946,0,0,1-2.156-1.379,5.439,5.439,0,0,1-.809-4.138c.55-3.1-.052-5.277-1.425-6.087l-.11-.065a3.685,3.685,0,0,0-3.471.337c-3.678,1.943-7.388,7.647-8.288,12.782-.576,3.238-3.833,8.23-5.718,10.063a5.958,5.958,0,0,0-2.007,3.367l-1.418,8.256-.466,2.655a8.66,8.66,0,0,1-2.383,3.885l-7.576,5.685a18.28,18.28,0,0,0-6.236,9.435s-2.843,2.208-3.018,2.383h0l.971-.55L178.9,104.575s.6-.33.732-.414,2.24-2.072,2.24-2.072C181.751,100.391,181.246,99.168,180.372,98.643ZM165.259,83.387c-.563,3.153-2.836,6.676-5.1,7.861-1.561.816-2.7.311-3.082-1.127a5.918,5.918,0,0,1,0-2.448c.563-3.16,2.843-6.676,5.1-7.855a4.066,4.066,0,0,1,.648-.285C164.715,78.971,165.757,80.551,165.259,83.387Z" transform="translate(-94.25 -52.542)" fill="#37474f"/>
          <path id="Path_2895" data-name="Path 2895" d="M182.388,85.221c-.563,3.153-2.836,6.676-5.1,7.861-1.561.816-2.7.311-3.082-1.127a4.468,4.468,0,0,0,.648-.272c2.266-1.185,4.533-4.708,5.1-7.868a5.938,5.938,0,0,0,0-2.448C181.844,80.805,182.887,82.385,182.388,85.221Z" transform="translate(-111.38 -54.376)" fill="#263238"/>
          <path id="Path_2896" data-name="Path 2896" d="M180.137,81.541h0a1.23,1.23,0,0,1,1.088.531c.939,1.334.039,4.727-.35,5.828-.537,1.509-4.047,5.057-5.012,5.057a2.383,2.383,0,0,1-1.586-1.017,5.874,5.874,0,0,1,0-2.357c.55-3.121,2.8-6.592,5.025-7.77a4.3,4.3,0,0,1,.615-.265h.214m0-.149h-.24a4.065,4.065,0,0,0-.648.285c-2.26,1.179-4.533,4.695-5.1,7.855a5.918,5.918,0,0,0,0,2.448,2.551,2.551,0,0,0,1.716,1.1h0c1.049,0,4.578-3.581,5.141-5.18s1.787-6.547-.881-6.547Z" transform="translate(-111.31 -54.413)" fill="#263238"/>
          <path id="Path_2897" data-name="Path 2897" d="M125.564,149.395l53.279-30.628.738-.408c.129-.078,2.234-2.079,2.234-2.079l-53.24,30.732S125.351,149.511,125.564,149.395Z" transform="translate(-94.23 -66.721)" fill="#263238"/>
          <path id="Path_2908" data-name="Path 2908" d="M186.54,320.675c3.327-2.979,7.04-8,6.44-13.94-.357-3.609-2.556-5-5.041-3.724-4.869,2.5-7.939,12.3-9.638,18.217-1.428,5.175-3.384,14.933,2.427,16.594,6.811,1.91,12.08-11.458,13.622-18.409.214-.974-.971-1.509-1.314-.63-.6,1.585-4.612,12.05-.2,10.732,1.571-.458,2.47-3.724,3.041-5.385,1-2.979,1.5-7.123,3.07-9.682l-1.157-.707c.071,2.75,0,4.621,1.428,6.76a.594.594,0,0,0,.971.21c2.256-2.807,2.413-7.371,4.9-9.911l-1.014-.649c0,.878-.3,3.38-.343,4.545,0,.554.557.917.885.745a2.231,2.231,0,0,0,1.428-1.642l-1.085-.535c.942,6.741,5.241,0,6.711-2.559,4.284-7.638,7.34-15.831,7.454-25.608,0-.783-1.1-1.184-1.114-.248-.1,7.524-2.556,14.417-4.141,21.521-1.7,7.638-3.113,15.449-4.284,23.316l1.014.5a59.789,59.789,0,0,1,3.141-16.079,35.159,35.159,0,0,1,5.412-12.069l-.942-.477a17.053,17.053,0,0,1-2.285,11.114c-.3.516.371,1.49.671.974,1.571-2.635,4.155-3.475,5.84-6.034a73.436,73.436,0,0,0,4.212-9.09l-.771-.516c-.1,6.416,4.427-3.59,5.041-4.659l-.743-.382c.3,1.318.7,2.2,1.813,2.215,2.213,0,3.041-4.316,4.712-4.812,0,0,.728.821.985.859a3.315,3.315,0,0,0,2.67-.668,15.959,15.959,0,0,0,4.369-6.531c.257-.611-.614-1.375-.9-.707-1.1,2.482-4.527,9.071-7.011,5.843-.157-.191-.485-.382-.657-.115-.671,1.108-4.512,6.989-5.226,3.819-.086-.382-.5-.8-.728-.382-.585,1.031-1.057,2.177-1.6,3.265-.3.592-1.971,4.354-1.913,2.444,0-.458-.528-.993-.771-.516-1.556,3.189-2.7,7.371-4.869,9.968-1.614,1.91-3.727,2.635-5.126,4.946l.671.974a18.2,18.2,0,0,0,2.613-12.069.775.775,0,0,0-.374-.582.479.479,0,0,0-.568.1c-2.67,3.284-4.17,7.906-5.5,12.336a61.632,61.632,0,0,0-3.2,16.4c0,.592.9,1.26,1.014.5q1.81-12.734,4.7-25.13c1.571-6.645,3.7-13.042,3.8-20.108l-1.114-.248a46.025,46.025,0,0,1-4.955,20.433c-.8,1.661-1.642,3.323-2.556,4.889-.4.707-3.941,6.894-4.4,3.3-.071-.516-.828-1.241-1.085-.535l-1.028,1.222.885.726c.071-1.547.3-3,.357-4.564,0-.592-.685-.974-1.014-.63-2.527,2.578-2.713,7.142-4.983,9.949l.971.21a13.152,13.152,0,0,1-1.085-5.729c0-.668-.771-1.318-1.157-.707-1.742,2.788-2.285,7.237-3.427,10.484-.628,1.776-2.856,6.512-2.142,1.47a29.477,29.477,0,0,1,2.013-5.939l-1.314-.63c-1.342,6.072-4.926,15.277-9.824,17.186-6.254,2.5-5.169-7.867-4.027-12.489a58.8,58.8,0,0,1,5.969-14.933,16.211,16.211,0,0,1,1.614-2.482c1.271-1.528,1.642-1.91,3.413-.554s1.856,2.1,1.428,4.659a16.852,16.852,0,0,1-1.171,3.609,22.646,22.646,0,0,1-4.2,6c-.228.248.1,1.069.357.821Z" transform="translate(-148.216 -176.015)" fill="#e7e9ea"/>
        </g>
      </g>
      <g id="freepik--Characters--inject-16" transform="translate(173.84 86.714)" opacity="0.44">
        <g id="freepik--characters--inject-16-2" data-name="freepik--characters--inject-16">
          <path id="Path_2909" data-name="Path 2909" d="M311.673,240.323c-2.344-.557-4.928,1.114-6.436,4.792s-4.533,13.08-5.18,15.541c-.285,1.1,8.081,10.853,7.77,10.71-.091-.045,2.726-4.759,2.726-4.759l-4.06-6.249,2.59-6.78Z" transform="translate(-300.049 -197.119)" fill="#b16668"/>
          <path id="Path_2910" data-name="Path 2910" d="M309.356,372.111c-.317.123-.4.725-.447,1.943-.039.913-.233,2.5.835,2.817a3.35,3.35,0,0,0,3.315-.7,42.064,42.064,0,0,1,2.648-3.322,9.282,9.282,0,0,0,2.622-3.788c.389-1.438.065-2.059-.913-2.48-1.353-.57-3.471,1.3-4.533,1.6C311.985,368.427,309.673,371.995,309.356,372.111Z" transform="translate(-303.158 -241.62)" fill="#263238"/>
          <path id="Path_2911" data-name="Path 2911" d="M309.62,373.167v1.476a3.626,3.626,0,0,0,3.736.1c.065-.142.389-2.117.389-2.117Z" transform="translate(-303.422 -243.79)" fill="#b16668"/>
          <path id="Path_2912" data-name="Path 2912" d="M326.1,387.31a24.837,24.837,0,0,0-.648,2.409,6.372,6.372,0,0,0-.129,3.056c.317.667,1.528,1.107,3.425,1.094a11.232,11.232,0,0,1,4.442,1.554,6.851,6.851,0,0,0,4.241.589c1.684-.2,3.432-1.179,3.7-1.871s-.078-1.036-4.047-2.726c-.039,0-4.183-1.891-6.106-4.008Z" transform="translate(-308.903 -248.964)" fill="#263238"/>
          <path id="Path_2913" data-name="Path 2913" d="M326.6,384.84v1.722c0,.628.738,1.561,2.655,1.5,1.347-.052,2.286-.414,2.228-1.522v-1.593Z" transform="translate(-309.407 -248.094)" fill="#b16668"/>
          <path id="Path_2914" data-name="Path 2914" d="M307.3,319.707a35.111,35.111,0,0,1,1.807-7.6s-.835-6.54-1.3-12.821c-.861-11.261-.168-14.939,2.046-19.989,0,0,18.889-1.943,19.465,5.938.719,9.778-.233,28.673-.492,32.124s-.583,5.012-1.8,12.225c-.932,5.491-2.37,18.086-2.37,18.086a5.18,5.18,0,0,1-4.882-.1s-1.541-15.722-1.379-19.7a33.855,33.855,0,0,1,1.483-8.683s-1.172-15.936-1.509-18.474c0,0-.6,5.057-.855,8.509s-1.3,6.754-2.279,13.171c-.868,5.562-2.48,18-2.48,18-2.506,1.36-4-.175-4-.175S306.625,324.531,307.3,319.707Z" transform="translate(-302.558 -210.818)" fill="#65bab9"/>
          <g id="Group_3755" data-name="Group 3755" transform="translate(4.609 68.265)" opacity="0.35">
            <path id="Path_2915" data-name="Path 2915" d="M307.3,319.707a35.111,35.111,0,0,1,1.807-7.6s-.835-6.54-1.3-12.821c-.861-11.261-.168-14.939,2.046-19.989,0,0,18.889-1.943,19.465,5.938.719,9.778-.233,28.673-.492,32.124s-.583,5.012-1.8,12.225c-.932,5.491-2.37,18.086-2.37,18.086a5.18,5.18,0,0,1-4.882-.1s-1.541-15.722-1.379-19.7a33.855,33.855,0,0,1,1.483-8.683s-1.172-15.936-1.509-18.474c0,0-.6,5.057-.855,8.509s-1.3,6.754-2.279,13.171c-.868,5.562-2.48,18-2.48,18-2.506,1.36-4-.175-4-.175S306.625,324.531,307.3,319.707Z" transform="translate(-307.167 -279.083)"/>
          </g>
          <path id="Path_2916" data-name="Path 2916" d="M328.934,235.7l-.887,7.3-6.417-.576.732-8.1Z" transform="translate(-307.656 -195.041)" fill="#b16668"/>
          <path id="Path_2917" data-name="Path 2917" d="M309.6,244.006c.706-1.943,3.108-4.06,5.575-3.6l1.813.33c.052,1.684,3.238,2.551,6.385,1.535.945.272,1.82.55,2.59.829,2.26.809,3.166,4.533,3.238,10.84s.719,21.932.719,21.932l-2.674.848-1.23-4.578-.5,5.485a19.666,19.666,0,0,1-9.124-.045c-6.786-1.483-8.9-5.141-8.9-5.141a33.121,33.121,0,0,1,4.857-11.869C308.963,251.524,308.562,246.874,309.6,244.006Z" transform="translate(-302.675 -197.163)" fill="#ebf5ff"/>
          <path id="Path_2918" data-name="Path 2918" d="M330.55,217.385a5.64,5.64,0,0,0-.486-5.426c-2.156-3.38-6.307-3.956-11.228-2.635a8.722,8.722,0,0,0-6.158,7.926c-.24,3.607,9.83,6.268,9.6,8.742Z" transform="translate(-304.499 -185.999)" fill="#263238"/>
          <path id="Path_2920" data-name="Path 2920" d="M328.924,213.188c1.36.751,3.717,2.137,4.2,7.252.492,5.245-.725,7.032-1.457,7.7-.492.453-2.985.55-4.267.117-1.606-.55-5.077-2.376-6.65-5.122-1.852-3.238-2.137-7.479.142-9.065A8.347,8.347,0,0,1,328.924,213.188Z" transform="translate(-306.823 -187.364)" fill="#b16668"/>
          <path id="Path_2921" data-name="Path 2921" d="M327,212.773s1.075,4.8-.453,7.77c0,0-.79-1.884-2.409-1.392s-1.535,2.648-.3,3.782a2.4,2.4,0,0,0,2.487.6,10.755,10.755,0,0,1-2.4,3.626s-4.785,2.13-8.923-2.545c-3.762-4.241-3.063-11.656,2.694-13.385A9.84,9.84,0,0,1,327,212.773Z" transform="translate(-304.495 -186.723)" fill="#263238"/>
          <path id="Path_2923" data-name="Path 2923" d="M361.13,258.485c.932-1.062,1.3-3.432,2.525-5.051s1.7-2.8,2.189-2.1c.648.939-.816,2.81-.492,3a9.744,9.744,0,0,1,1.664,4.028c.123,1.373-3.51,4.818-3.51,4.818Z" transform="translate(-321.578 -200.965)" fill="#b16668"/>
          <path id="Path_2924" data-name="Path 2924" d="M367.49,255.659s4.39-.376,5.031,0,.447,2.279,0,3.445-2.687,1.943-4.766,3.328C367.755,262.225,367.49,255.659,367.49,255.659Z" transform="translate(-323.82 -202.503)" fill="#b16668"/>
          <path id="Path_2925" data-name="Path 2925" d="M334.2,244.33c1.884.648,3.536,1.418,5.3,4.727,2.26,4.254,6.378,12.582,6.378,12.582L351,256.089s.745-1.049,2.13,1.243.777,2.927.777,2.927-5.964,7.991-7.058,9.007-2.894.227-4.073-1.373-8.58-10.866-8.58-10.866S330.154,251.705,334.2,244.33Z" transform="translate(-311.452 -198.569)" fill="#b16668"/>
          <path id="Path_2926" data-name="Path 2926" d="M321.136,309.186l-.363-3.814a14.493,14.493,0,0,1-5.763-2.182,7.974,7.974,0,0,0,4.6,2.862l.35,4.857.207,7.965Z" transform="translate(-305.322 -219.315)" opacity="0.2"/>
          <path id="Path_2927" data-name="Path 2927" d="M303.7,233.524h0a6.65,6.65,0,0,0,6.67-6.644v-10.1h0a5.077,5.077,0,0,0-6.644,4.831Z" transform="translate(-301.336 -188.773)" fill="#263238"/>
          <path id="Path_2928" data-name="Path 2928" d="M338.593,267.923s-3.684-4.753-4.863-6.663l4.992,10.542Z" transform="translate(-311.92 -204.536)" fill="#e0e0e0"/>
          <path id="Path_2929" data-name="Path 2929" d="M383.252,209.219c-1.4,4.125-4.384,16.428-4.384,16.428s-5.692,7.57-7.259,9.014c-.868.8-2.83,2.247-2.83,2.247l1.632,1.2s2.72-.829,2.946.648a82.847,82.847,0,0,0,8.029-7.382,5.18,5.18,0,0,0,1.3-2.37l2.428-10.445s0-8.418,1.3-9.519.784-3.594.784-3.594C386.3,205.476,384.353,205.987,383.252,209.219Z" transform="translate(-324.274 -184.865)" fill="#ffa8a7"/>
          <path id="Path_2930" data-name="Path 2930" d="M389.244,204.81a23.4,23.4,0,0,0,1.438,3.238c.57.978-3.788,18.558-4.079,19.866s-8.742,8.929-8.742,8.929a6.346,6.346,0,0,1-3.38-3.393l6.1-7.939s1.9-8.327,2.894-12.148S385.533,205.224,389.244,204.81Z" transform="translate(-326.283 -184.639)" fill="#65bab9"/>
          <path id="Path_2931" data-name="Path 2931" d="M389.244,204.81a23.4,23.4,0,0,0,1.438,3.238c.57.978-3.788,18.558-4.079,19.866s-8.742,8.929-8.742,8.929a6.346,6.346,0,0,1-3.38-3.393l6.1-7.939s1.9-8.327,2.894-12.148S385.533,205.224,389.244,204.81Z" transform="translate(-326.283 -184.639)" fill="#ddd" stroke="#e4e4e4" stroke-width="0.5"/>
          <rect id="Rectangle_3158" data-name="Rectangle 3158" width="4.209" height="7.214" transform="translate(76.597 102.79)" fill="#ffa8a7"/>
          <path id="Path_2932" data-name="Path 2932" d="M395.836,330.948l-4.209.149-.207-7.634,4.416-.142Z" transform="translate(-332.254 -226.41)" fill="#ffa8a7"/>
          <path id="Path_2933" data-name="Path 2933" d="M412.2,252.434c0,4.021.278,27.41.278,27.41.1,1.153,1.211,3.238,1.3,7.382.123,6.048-.809,20.287-.809,20.287a5.543,5.543,0,0,1-4.688.091s-3.309-20.138-4.06-26.128c-.648-5.219-2.933-19.161-2.933-19.161l-3.238,17.652a23.96,23.96,0,0,1,.524,6.7c-.2,2.765-2.765,16.629-2.765,16.629a5.75,5.75,0,0,1-4.863.376s-.253-21.764-.3-24.3c-.058-2.894,1.2-27.805,1.2-27.805Z" transform="translate(-331.978 -201.117)" fill="#37474f"/>
          <path id="Path_2934" data-name="Path 2934" d="M415.4,340v-.6c-.227,0-.363.22-.453.758a10.94,10.94,0,0,1-.246,1.191,14.15,14.15,0,0,1-.732,2.156,13.061,13.061,0,0,1-2.461,3.73,15.913,15.913,0,0,0-1.3,1.509c-.253.453-.343,1.71.091,2a7.315,7.315,0,0,0,5.711.589,3.458,3.458,0,0,0,2.48-2.784c.065-.388.039-.79.084-1.178a5.621,5.621,0,0,1,1.056-2.448,7.552,7.552,0,0,0,.809-1.334,4.346,4.346,0,0,0-.155-2.7c-.194-.745-.408-1.561-.648-1.489v.453a3.3,3.3,0,0,1-2.111.712C416.891,340.589,415.395,340.466,415.4,340Z" transform="translate(-338.804 -232.075)" fill="#263238"/>
          <path id="Path_2935" data-name="Path 2935" d="M386.219,333.17c-.22,0-.4.317-.881.842a9.306,9.306,0,0,1-2.474,1.781c-1.58.79-4.643,2-6.035,2.629-.868.388-.822,1.438.071,2.033a8.144,8.144,0,0,0,5.659.447c1.412-.317,3.238-1.625,4.423-1.554s3.348.052,4.209-.544.518-1.858.272-2.946c-.266-1.185-.6-3.043-.991-2.959v.408c-.505.771-3.121,1.081-4.228.518Z" transform="translate(-326.891 -229.785)" fill="#263238"/>
          <path id="Path_2936" data-name="Path 2936" d="M403.88,266.348A15.639,15.639,0,0,1,398,263a12.065,12.065,0,0,0,4.533,4.092L400.9,282.8Z" transform="translate(-334.573 -205.149)" fill="#263238"/>
          <path id="Path_2937" data-name="Path 2937" d="M405.361,205.148c1.438.35,4.326.822,4.973,3.678a83.465,83.465,0,0,1,1.03,10.892l.265,16.616c-2.9,2.111-13.553,3.238-19.659-1.2,0,0,.751-19.944.751-23.052s1.722-6.838,6.475-7.123Z" transform="translate(-332.448 -184.692)" fill="#f5f5f5"/>
          <path id="Path_2938" data-name="Path 2938" d="M399.038,204.254a8.483,8.483,0,0,0-2.72,4.209c-.583,2.512-.648,30.57-.648,30.57a12.731,12.731,0,0,1-4.371-1.645s.175-22.146.46-25.811c.434-5.549.388-7.123,7.3-7.738Z" transform="translate(-332.212 -184.297)" fill="#ddd" stroke="#e4e4e4" stroke-width="0.5"/>
          <path id="Path_2939" data-name="Path 2939" d="M412.232,203.84s-3.969,2.441-4.015,12.161c-.039,8.418-.317,23.033-.317,23.033s6.573.965,10.736-1.522c0,0,.5-20.371.414-23.525-.091-3.613-.932-8.282-2.092-8.748A33.073,33.073,0,0,0,412.232,203.84Z" transform="translate(-338.063 -184.297)" fill="#ddd" stroke="#e4e4e4" stroke-width="0.5"/>
          <path id="Path_2940" data-name="Path 2940" d="M430.6,226.612c-3.95-16.15-6.87-21.537-11.656-21.472-1.405,1.671-1.017,6.734,1.2,9.8,0,0,4.941,10.412,5.724,14.116a52.328,52.328,0,0,1,1.431,10.147,2.04,2.04,0,0,1-.55,1.327c-.9.978-.907,1.768-1.489,2.849-.46.842-.958,1.159-.816,1.353a1.1,1.1,0,0,0,1.483.11,5.658,5.658,0,0,0,1.12-1.081,11.272,11.272,0,0,1-.887,3c-1.017,2.286-.771,3.451,2.318,2.635,1.943-.512,3.147-2.117,3.432-6.767a35.251,35.251,0,0,0,.052-5.141A89.466,89.466,0,0,0,430.6,226.612Z" transform="translate(-341.664 -184.755)" fill="#ffa8a7"/>
          <path id="Path_2941" data-name="Path 2941" d="M417.821,204.728s3.179-.142,4.9,1.6,4.047,5.407,6.3,13.417a73.639,73.639,0,0,1,3.056,18.371,6.464,6.464,0,0,1-5.426-.181s-1.153-6.974-2.176-10.684-4.837-11.526-4.837-11.526S416,210.3,417.821,204.728Z" transform="translate(-341.379 -184.61)" fill="#65bab9"/>
          <path id="Path_2942" data-name="Path 2942" d="M417.821,204.728s3.179-.142,4.9,1.6,4.047,5.407,6.3,13.417a73.639,73.639,0,0,1,3.056,18.371,6.464,6.464,0,0,1-5.426-.181s-1.153-6.974-2.176-10.684-4.837-11.526-4.837-11.526S416,210.3,417.821,204.728Z" transform="translate(-341.379 -184.61)" fill="#ddd" stroke="#e4e4e4" stroke-width="0.5"/>
          <path id="Path_2943" data-name="Path 2943" d="M413.486,212.05l-1.82,2.247.913,2.564-2.389,6.126,2.875-6.126-1-2.422Z" transform="translate(-338.87 -187.191)" opacity="0.1"/>
          <path id="Path_2944" data-name="Path 2944" d="M394.838,210.93l.395,2.325-1.573,2.053,2.189,6.89-1.7-6.812,1.45-1.917Z" transform="translate(-333.044 -186.796)" opacity="0.1"/>
          <path id="Path_2945" data-name="Path 2945" d="M416.248,190.23s-.939,4.41-1.3,5.135a2,2,0,0,1-1.153.926l.065-3.1Z" transform="translate(-340.142 -179.5)" fill="#263238"/>
          <path id="Path_2946" data-name="Path 2946" d="M415.425,180.473a2.169,2.169,0,0,1,1.8.648c.771.79.343,3.238-.648,5.679l-1.768.2Z" transform="translate(-340.498 -176.057)" fill="#263238"/>
          <path id="Path_2947" data-name="Path 2947" d="M407.158,185.514c.356.207.861-.473,1.3-.926a1.535,1.535,0,0,1,2.59.414c.725,1.528-.648,3.548-1.748,3.885-1.943.609-2.228-.648-2.228-.648l-.142,7.194h0c-1.34,1.716-4.345,3.736-5.964,3.445-1.3-.227-1.574-2.409-.337-3.84v-2.111a12.051,12.051,0,0,1-2.59.129,3.548,3.548,0,0,1-2.752-2.882c-.693-2.474-.958-4.468-.369-9.337.648-5.336,6.851-5.387,10.2-3.283S407.158,185.514,407.158,185.514Z" transform="translate(-333.371 -174.577)" fill="#ffa8a7"/>
          <path id="Path_2948" data-name="Path 2948" d="M406.747,185.193c.181,0,.861-1.12,1.3-1.522.609-.557-.181-5.595-.181-5.595a2.441,2.441,0,0,0-.421-2.72c-.835-.919-2-2.046-5.828-1.593-2.707.317-5.653,1.159-8.036,0a4.054,4.054,0,0,0,1.412,4.306,8.074,8.074,0,0,0,3.128.829,33.456,33.456,0,0,0,6.281-.117c.648-.091.8.544,1.153,2.286C405.912,182.59,406.171,185.18,406.747,185.193Z" transform="translate(-332.96 -173.66)" fill="#263238"/>
          <path id="Path_2950" data-name="Path 2950" d="M403.93,200.5a24.538,24.538,0,0,0,4.287-1.23,3.652,3.652,0,0,0,1.535-1.522,4.967,4.967,0,0,1-.874,1.794c-.809,1.036-4.947,1.8-4.947,1.8Z" transform="translate(-336.663 -182.151)" fill="#f28f8f"/>
          <path id="Path_2957" data-name="Path 2957" d="M400.87,209.662c.389.932,1.114,1.3,2.415,1.457a4.863,4.863,0,0,0,3.613-1.3l-1.619-1.612-2.066,1.548-.175-1.729Z" transform="translate(-335.585 -185.774)" fill="#65bab9"/>
          <path id="Path_2958" data-name="Path 2958" d="M400.87,209.662c.389.932,1.114,1.3,2.415,1.457a4.863,4.863,0,0,0,3.613-1.3l-1.619-1.612-2.066,1.548-.175-1.729Z" transform="translate(-335.585 -185.774)" fill="#c7c7c7"/>
          <path id="Path_2959" data-name="Path 2959" d="M402.325,209.77a4.275,4.275,0,0,0-.214,1.742,2.96,2.96,0,0,0,.583,1.444,1.58,1.58,0,0,0,1.4.155,3.846,3.846,0,0,0,1.34-2.907l-1.787.2Z" transform="translate(-336.017 -186.388)" fill="#ddd"/>
          <path id="Path_2960" data-name="Path 2960" d="M401.8,214.69s-2.117,11.656-2.2,12.614,1.211,4.287,2.02,4.313,2.389-3,2.409-3.885-.829-12.918-.829-12.918Z" transform="translate(-335.135 -188.122)" fill="#ddd" stroke="#e4e4e4" stroke-width="0.5"/>
          <path id="Path_2961" data-name="Path 2961" d="M404.419,214.845a1.4,1.4,0,0,1-1.4-.155v.188a1.606,1.606,0,0,0,1.457.285Z" transform="translate(-336.343 -188.122)" opacity="0.1"/>
          <path id="Path_2962" data-name="Path 2962" d="M404.49,207.55l5.957-4.533V201.67s1.386.525,1.7,2.966a10.452,10.452,0,0,1-4.643,4.941l-1.25-2.228Z" transform="translate(-336.861 -183.533)" fill="#e0e0e0"/>
          <path id="Path_2963" data-name="Path 2963" d="M402.615,202.62a2.985,2.985,0,0,0-1.943,1.185c-.6.978-.46,4.74-.46,4.74l1.425-1.3,1.3.648c-.123-1.25-.369-3.529-.369-3.529Z" transform="translate(-335.349 -183.867)" fill="#e0e0e0"/>
          <path id="Path_2964" data-name="Path 2964" d="M368,263.771a5.115,5.115,0,0,0,.939-2.661c.168-1.224,3.523-2.538,3.633-1.625s.414,1.671-.647,2.778S369.561,264.593,368,263.771Z" transform="translate(-323.999 -203.803)" fill="#ffa8a7"/>
          <path id="Path_2965" data-name="Path 2965" d="M367.046,253.4c-.8,1.036-1.3,3.05-1.722,3.73s-.932,1.3,0,1.392,2.286-1.69,2.791-2.791a2.978,2.978,0,0,1,.868-1.114,1.942,1.942,0,0,1,.486-.285c-.434-.149-.207-1.9-.512-2.137C368.956,252.2,367.376,252.848,367.046,253.4Z" transform="translate(-322.87 -201.343)" fill="#ffa8a7"/>
        </g>
      </g>
      <g id="freepik--Table--inject-33" transform="translate(69.299 195.023)">
        <g id="freepik--table--inject-33-2" data-name="freepik--table--inject-33" transform="translate(0)">
          <g id="freepik--table--inject-33-3" data-name="freepik--table--inject-33">
            <path id="Path_3056" data-name="Path 3056" d="M229.821,352.312a17.177,17.177,0,0,0-15.537,0c-2.145,1.238-3.214,2.862-3.214,4.482v1.395c.035,1.6,1.1,3.188,3.214,4.407a17.177,17.177,0,0,0,15.537,0c2.123-1.226,3.192-2.821,3.214-4.429v-1.4C233.025,355.155,231.956,353.544,229.821,352.312Z" transform="translate(-190.134 -296.247)" fill="#37474f"/>
            <path id="Path_3057" data-name="Path 3057" d="M214.277,361.289c-4.289-2.476-4.289-6.491,0-8.967a17.177,17.177,0,0,1,15.537,0c4.289,2.476,4.289,6.491,0,8.967A17.187,17.187,0,0,1,214.277,361.289Z" transform="translate(-190.127 -296.254)" fill="#455a64"/>
            <path id="Path_3058" data-name="Path 3058" d="M243.973,289.941h0V255h-3.546v34.941h0a.827.827,0,0,0,.5.815,2.785,2.785,0,0,0,2.508,0A.837.837,0,0,0,243.973,289.941Z" transform="translate(-210.284 -230.711)" fill="#37474f"/>
            <path id="Path_3059" data-name="Path 3059" d="M198.743,190.518c-12.458-7.19-32.651-7.19-45.109,0-6.227,3.6-9.338,8.306-9.335,13.017v.915c0,4.7,3.107,9.422,9.335,13.017,12.458,7.187,32.651,7.187,45.109,0,6.227-3.6,9.338-8.306,9.335-13.017v-.915C208.081,198.824,204.97,194.113,198.743,190.518Z" transform="translate(-144.3 -182.737)" fill="#455a64"/>
            <path id="Path_3060" data-name="Path 3060" d="M198.813,182.9c-12.458-7.19-32.651-7.19-45.109,0-6.227,3.6-9.338,8.306-9.335,13.017v1.567c0,4.7,3.107,9.425,9.335,13.017,12.458,7.19,32.651,7.19,45.109,0,6.227-3.592,9.338-8.958,9.335-13.669v-.915C208.157,191.2,205.047,186.493,198.813,182.9Z" transform="translate(-144.348 -177.505)" fill="#ffafc5"/>
            <path id="Path_3061" data-name="Path 3061" d="M198.813,182.9c-12.458-7.19-32.651-7.19-45.109,0-6.227,3.6-9.338,8.306-9.335,13.017v1.567c0,4.7,3.107,9.425,9.335,13.017,12.458,7.19,32.651,7.19,45.109,0,6.227-3.592,9.338-8.958,9.335-13.669v-.915C208.157,191.2,205.047,186.493,198.813,182.9Z" transform="translate(-144.348 -177.505)" fill="#fff" opacity="0.4"/>
            <path id="Path_3062" data-name="Path 3062" d="M198.813,182.9c-12.458-7.19-32.651-7.19-45.109,0-6.227,3.6-9.338,8.306-9.335,13.017v1.567c0,4.7,3.107,9.425,9.335,13.017,12.458,7.19,32.651,7.19,45.109,0,6.227-3.592,9.338-8.958,9.335-13.669v-.915C208.157,191.2,205.047,186.493,198.813,182.9Z" transform="translate(-144.348 -177.505)" opacity="0.1"/>
            <ellipse id="Ellipse_336" data-name="Ellipse 336" cx="31.895" cy="18.408" rx="31.895" ry="18.408" transform="translate(0.022 0.002)" fill="#f2f2f2"/>
          </g>
          <g id="freepik--Plates--inject-33" transform="translate(9.938 2.797)">
            <g id="freepik--Cake--inject-33" transform="translate(2.555)">
              <path id="Path_3063" data-name="Path 3063" d="M197.852,199.146c3.136,1.812,3.136,4.748,0,6.557a12.562,12.562,0,0,1-11.36,0c-3.136-1.812-3.136-4.745,0-6.557A12.562,12.562,0,0,1,197.852,199.146Z" transform="translate(-184.14 -194.229)" opacity="0.15"/>
              <g id="freepik--Slice--inject-33" transform="translate(0.252)">
                <g id="freepik--Plate--inject-33" transform="translate(0 2.831)">
                  <path id="Path_3064" data-name="Path 3064" d="M198.226,197.782a12.173,12.173,0,0,0-11,0h0v-.313c-1.59.915-2.345,2.131-2.273,3.332-.072,1.2.684,2.417,2.273,3.332a12.153,12.153,0,0,0,11,0C201.264,202.376,201.267,199.537,198.226,197.782Z" transform="translate(-184.944 -196.153)" fill="#e0e0e0"/>
                  <path id="Path_3065" data-name="Path 3065" d="M198.224,196.779c3.038,1.752,3.038,4.595,0,6.35a12.163,12.163,0,0,1-11,0c-3.038-1.752-3.038-4.6,0-6.35A12.163,12.163,0,0,1,198.224,196.779Z" transform="translate(-184.942 -195.464)" fill="#ffafc5"/>
                  <path id="Path_3066" data-name="Path 3066" d="M198.224,196.779c3.038,1.752,3.038,4.595,0,6.35a12.163,12.163,0,0,1-11,0c-3.038-1.752-3.038-4.6,0-6.35A12.163,12.163,0,0,1,198.224,196.779Z" transform="translate(-184.942 -195.464)" fill="#fafafa"/>
                  <path id="Path_3067" data-name="Path 3067" d="M194.431,201.853c-2.088,1.207-2.088,3.159,0,4.366a8.356,8.356,0,0,0,7.56,0c2.088-1.2,2.088-3.159,0-4.366A8.366,8.366,0,0,0,194.431,201.853Z" transform="translate(-190.381 -199.23)" fill="#e0e0e0"/>
                  <path id="Path_3068" data-name="Path 3068" d="M195.483,202.456c-1.947,1.122-1.947,2.943,0,4.075a7.765,7.765,0,0,0,7.046,0c1.947-1.122,1.947-2.943,0-4.075A7.756,7.756,0,0,0,195.483,202.456Z" transform="translate(-191.175 -199.684)" fill="#ebebeb"/>
                </g>
                <g id="freepik--slice--inject-33-2" data-name="freepik--slice--inject-33" transform="translate(2.84)">
                  <path id="freepik--shadow--inject-33" d="M194,207.747c0,.207.019.429.216.429l10.2-.034c.423,0,.486-.266.288-.912a4.9,4.9,0,0,0-3-2.99Z" transform="translate(-194 -198.658)" opacity="0.15"/>
                  <g id="freepik--slice--inject-33-3" data-name="freepik--slice--inject-33" transform="translate(0 0.117)">
                    <path id="Path_3069" data-name="Path 3069" d="M194,192.11v3.909a.226.226,0,0,0,.251.223l9.018-1.222a.467.467,0,0,0,.4-.464v-3.793a.226.226,0,0,0-.088-.179l-4.622-3.448a.442.442,0,0,0-.593.056l-4.271,4.664A.382.382,0,0,0,194,192.11Z" transform="translate(-194 -186.971)" fill="#263238"/>
                    <path id="Path_3070" data-name="Path 3070" d="M201.2,187.739a11.291,11.291,0,0,0-2.044-.909.546.546,0,0,0-.574.15l-4.327,4.727a.041.041,0,0,0,.038.069L203.7,190.5c.16-.019.16.091.16.091h0a.5.5,0,0,0-.044-.213A6.08,6.08,0,0,0,201.2,187.739Z" transform="translate(-194.165 -186.803)" fill="#455a64"/>
                    <g id="Group_3762" data-name="Group 3762" transform="translate(0 4.48)" opacity="0.7">
                      <path id="Path_3071" data-name="Path 3071" d="M194.248,210.537l8.8-1.191v-1.094a.367.367,0,0,0-.426-.373L194,209.042v1.285a.213.213,0,0,0,.248.21Z" transform="translate(-194 -205.749)" fill="#ffafc5"/>
                      <path id="Path_3072" data-name="Path 3072" d="M202.623,202.632a.5.5,0,0,0,.426-.486v-.674a.367.367,0,0,0-.426-.373L194,202.262v1.53Z" transform="translate(-194 -201.094)" fill="#ffafc5"/>
                    </g>
                  </g>
                  <path id="Path_3073" data-name="Path 3073" d="M206.064,191.444a2.989,2.989,0,0,1,2.719,0,.826.826,0,0,1,0,1.567,3.011,3.011,0,0,1-2.719,0A.826.826,0,0,1,206.064,191.444Z" transform="translate(-201.894 -189.648)" opacity="0.2"/>
                  <path id="Path_3074" data-name="Path 3074" d="M213.13,188.53a3.048,3.048,0,0,1,1.022.6,1.09,1.09,0,0,1,.248,1.254,1.126,1.126,0,0,1-.988.611,2.9,2.9,0,0,0-.022-1.21C213.237,189.182,213.13,188.53,213.13,188.53Z" transform="translate(-207.132 -187.872)" fill="#ffafc5"/>
                  <path id="Path_3075" data-name="Path 3075" d="M213.13,188.53a3.048,3.048,0,0,1,1.022.6,1.09,1.09,0,0,1,.248,1.254,1.126,1.126,0,0,1-.988.611,2.9,2.9,0,0,0-.022-1.21C213.237,189.182,213.13,188.53,213.13,188.53Z" transform="translate(-207.132 -187.872)" opacity="0.2"/>
                  <path id="Path_3076" data-name="Path 3076" d="M207.07,188.42c-.144.207-.652.313-.991.539a1.172,1.172,0,0,0-.6.658.743.743,0,0,0,.354.9c.379.179,1.151-.439,1.235-.661A8.327,8.327,0,0,0,207.07,188.42Z" transform="translate(-201.852 -187.796)" fill="#9a4a4d"/>
                  <path id="Path_3077" data-name="Path 3077" d="M207.07,188.42c-.144.207-.652.313-.991.539a1.172,1.172,0,0,0-.6.658.743.743,0,0,0,.354.9c.379.179,1.151-.439,1.235-.661A8.327,8.327,0,0,0,207.07,188.42Z" transform="translate(-201.852 -187.796)" fill="#ffafc5"/>
                  <path id="Path_3078" data-name="Path 3078" d="M207.07,188.42c-.144.207-.652.313-.991.539a1.172,1.172,0,0,0-.6.658.743.743,0,0,0,.354.9c.379.179,1.151-.439,1.235-.661A8.327,8.327,0,0,0,207.07,188.42Z" transform="translate(-201.852 -187.796)" opacity="0.3"/>
                  <path id="Path_3079" data-name="Path 3079" d="M208.149,187.22a.708.708,0,0,0-.254.646,1.153,1.153,0,0,1-.677,1.157c-.611.313-.684.649-.357.94a1.022,1.022,0,0,0,.743.213s.909-.207,1.091-.887A2.493,2.493,0,0,0,208.149,187.22Z" transform="translate(-202.697 -186.972)" fill="#ffafc5"/>
                  <path id="Path_3080" data-name="Path 3080" d="M208.149,187.22a.708.708,0,0,0-.254.646,1.153,1.153,0,0,1-.677,1.157c-.611.313-.684.649-.357.94a1.022,1.022,0,0,0,.743.213s.909-.207,1.091-.887A2.493,2.493,0,0,0,208.149,187.22Z" transform="translate(-202.697 -186.972)" opacity="0.2"/>
                  <path id="Path_3081" data-name="Path 3081" d="M210.179,189.824c-.589,0-.828-.254-.555-.592.135-.166.383-.235.536-.4a1.069,1.069,0,0,0,.314-.643c.053-.6-.677-1.229-.251-1.755.047.288.166.451.589.8a1.67,1.67,0,0,1,.521,1.862A1.383,1.383,0,0,1,210.179,189.824Z" transform="translate(-204.648 -186.43)" fill="#ffafc5"/>
                  <path id="Path_3082" data-name="Path 3082" d="M210.179,189.824c-.589,0-.828-.254-.555-.592.135-.166.383-.235.536-.4a1.069,1.069,0,0,0,.314-.643c.053-.6-.677-1.229-.251-1.755.047.288.166.451.589.8a1.67,1.67,0,0,1,.521,1.862A1.383,1.383,0,0,1,210.179,189.824Z" transform="translate(-204.648 -186.43)" opacity="0.1"/>
                  <path id="Path_3083" data-name="Path 3083" d="M208.5,193.174a1.372,1.372,0,0,0,.031-.671,1.122,1.122,0,0,1-.9.871,1.666,1.666,0,0,1-.6.066c-.232-.022-.364-.11-.354-.2a.2.2,0,0,1,.031-.041l.038-.047.022-.019a.037.037,0,0,1,.016-.016l.053-.041.022-.019h0l.107-.069c.072-.044.135-.081.176-.113l.025-.022.044-.038h0l.038-.041a.53.53,0,0,0,.056-.066l.028-.034h0l.044-.06a.746.746,0,0,0,.041-.066.993.993,0,0,0,.082-.179v-.038h0a1.232,1.232,0,0,1-.68.6,1.39,1.39,0,0,1-.8.088c-.251-.038-.26-.175-.26-.191h0a1.314,1.314,0,0,1,.458-.354,1.662,1.662,0,0,0,.279-.188,1.415,1.415,0,0,1-.336.157,1.537,1.537,0,0,1-.593.06c-.223-.047-.257-.154-.223-.313l-.019.053a.743.743,0,0,0,.354.9h0a.53.53,0,0,0,.182.263,1.022,1.022,0,0,0,.743.213h0a.768.768,0,0,0,.627.2,1.474,1.474,0,0,0,.749-.263h0a1.126,1.126,0,0,0,.988-.611.99.99,0,0,0,.1-.533h0A.859.859,0,0,1,208.5,193.174Z" transform="translate(-201.749 -190.385)" opacity="0.2"/>
                </g>
              </g>
            </g>
            <g id="freepik--plate--inject-33-2" data-name="freepik--plate--inject-33" transform="translate(30.524 10.366)">
              <path id="Path_3084" data-name="Path 3084" d="M287.052,223.286c3.136,1.812,3.136,4.745,0,6.557a12.552,12.552,0,0,1-11.36,0c-3.136-1.812-3.136-4.745,0-6.557A12.562,12.562,0,0,1,287.052,223.286Z" transform="translate(-273.34 -221.169)" opacity="0.15"/>
              <g id="freepik--plate--inject-33-3" data-name="freepik--plate--inject-33" transform="translate(0.252)">
                <path id="Path_3085" data-name="Path 3085" d="M287.426,221.822a12.173,12.173,0,0,0-11,0h0v-.313c-1.59.915-2.345,2.131-2.273,3.332-.072,1.2.684,2.417,2.273,3.332a12.153,12.153,0,0,0,11,0C290.464,226.416,290.464,223.577,287.426,221.822Z" transform="translate(-274.144 -220.193)" fill="#ffafc5"/>
                <path id="Path_3086" data-name="Path 3086" d="M287.426,221.822a12.173,12.173,0,0,0-11,0h0v-.313c-1.59.915-2.345,2.131-2.273,3.332-.072,1.2.684,2.417,2.273,3.332a12.153,12.153,0,0,0,11,0C290.464,226.416,290.464,223.577,287.426,221.822Z" transform="translate(-274.144 -220.193)" opacity="0.4"/>
                <path id="Path_3087" data-name="Path 3087" d="M287.424,220.819c3.038,1.752,3.038,4.595,0,6.35a12.163,12.163,0,0,1-11,0c-3.038-1.752-3.038-4.6,0-6.35A12.163,12.163,0,0,1,287.424,220.819Z" transform="translate(-274.143 -219.504)" fill="#ffafc5"/>
                <path id="Path_3088" data-name="Path 3088" d="M287.424,220.819c3.038,1.752,3.038,4.595,0,6.35a12.163,12.163,0,0,1-11,0c-3.038-1.752-3.038-4.6,0-6.35A12.163,12.163,0,0,1,287.424,220.819Z" transform="translate(-274.143 -219.504)" fill="#ffafc5"/>
                <path id="Path_3089" data-name="Path 3089" d="M287.424,220.819c3.038,1.752,3.038,4.595,0,6.35a12.163,12.163,0,0,1-11,0c-3.038-1.752-3.038-4.6,0-6.35A12.163,12.163,0,0,1,287.424,220.819Z" transform="translate(-274.143 -219.504)" opacity="0.2"/>
                <path id="Path_3090" data-name="Path 3090" d="M283.631,225.882c-2.088,1.207-2.088,3.159,0,4.363a8.362,8.362,0,0,0,7.563,0c2.088-1.207,2.088-3.156,0-4.363A8.333,8.333,0,0,0,283.631,225.882Z" transform="translate(-279.581 -223.26)" opacity="0.3"/>
                <path id="Path_3091" data-name="Path 3091" d="M284.683,226.5c-1.947,1.122-1.947,2.943,0,4.075a7.765,7.765,0,0,0,7.046,0c1.947-1.122,1.947-2.943,0-4.075A7.756,7.756,0,0,0,284.683,226.5Z" transform="translate(-280.375 -223.724)" fill="#ffafc5"/>
                <path id="Path_3092" data-name="Path 3092" d="M284.683,226.5c-1.947,1.122-1.947,2.943,0,4.075a7.765,7.765,0,0,0,7.046,0c1.947-1.122,1.947-2.943,0-4.075A7.756,7.756,0,0,0,284.683,226.5Z" transform="translate(-280.375 -223.724)" opacity="0.2"/>
              </g>
            </g>
            <g id="freepik--Spoon--inject-33" transform="translate(0 11.934)">
              <path id="Path_3093" data-name="Path 3093" d="M183.908,228.629l-7.635-2.667-.172-.132.044.163a.373.373,0,0,0,.238.254l7.566,2.639Z" transform="translate(-176.066 -225.415)" fill="#263238"/>
              <path id="Path_3094" data-name="Path 3094" d="M201,234.56a1.51,1.51,0,0,0,1.1,1.536c1.1.489,2.342-.063,2.339-.793Z" transform="translate(-193.159 -231.408)" fill="#37474f"/>
              <path id="Path_3095" data-name="Path 3095" d="M201.742,233.9a2.748,2.748,0,0,0,2.386.251c.53-.31.336-1-.442-1.47a2.719,2.719,0,0,0-2.411-.238.627.627,0,0,0-.295.533C200.986,233.274,201.247,233.619,201.742,233.9Z" transform="translate(-193.145 -229.828)" fill="#455a64"/>
              <path id="Path_3096" data-name="Path 3096" d="M176.027,224.7h0a.386.386,0,0,1,.458-.172l7.839,2.743c.238.085.314.251.172.376h0a.79.79,0,0,1-.69.072l-7.667-2.677a.238.238,0,0,1-.113-.342Z" transform="translate(-175.993 -224.505)" fill="#455a64"/>
              <path id="Path_3097" data-name="Path 3097" d="M187.077,227.826a1.918,1.918,0,0,0-.539-.467,2.757,2.757,0,0,0-2.411-.238l-.069.05-7.569-2.645a.386.386,0,0,0-.458.172.251.251,0,0,0-.031.141c.091-.313.336-.2.706-.078s7.419,2.58,7.419,2.58a1.92,1.92,0,0,1,1.383-.191A3.547,3.547,0,0,1,187.077,227.826Z" transform="translate(-175.996 -224.505)" fill="#fff" opacity="0.1"/>
              <path id="Path_3098" data-name="Path 3098" d="M204.6,234.524a.689.689,0,0,0-.241-.339c.031.423-.486.6-1.163.533-.781-.081-1.521-.567-1.48-.969a.517.517,0,0,0-.075.157c-.138.555.994,1.282,1.881,1.32S204.711,234.91,204.6,234.524Z" transform="translate(-193.594 -230.852)" opacity="0.1"/>
            </g>
            <g id="freepik--spoon--inject-33-2" data-name="freepik--spoon--inject-33" transform="translate(28.523 6.644)">
              <path id="Path_3099" data-name="Path 3099" d="M277.911,211.756l7.632-2.664.176-.132-.044.16a.383.383,0,0,1-.238.257l-7.566,2.636Z" transform="translate(-274.449 -208.543)" fill="#263238"/>
              <path id="Path_3100" data-name="Path 3100" d="M270.463,217.69a1.509,1.509,0,0,1-1.107,1.533c-1.107.489-2.342-.06-2.336-.793Z" transform="translate(-267.001 -214.536)" fill="#37474f"/>
              <path id="Path_3101" data-name="Path 3101" d="M269.647,217.021a2.747,2.747,0,0,1-2.389.254c-.53-.31-.336-1,.445-1.473a2.714,2.714,0,0,1,2.408-.238.646.646,0,0,1,.3.533C270.422,216.394,270.139,216.742,269.647,217.021Z" transform="translate(-266.96 -212.949)" fill="#455a64"/>
              <path id="Path_3102" data-name="Path 3102" d="M284.137,207.82h0a.383.383,0,0,0-.461-.169l-7.839,2.743c-.238.081-.314.251-.172.373h0a.787.787,0,0,0,.693.072l7.663-2.677a.238.238,0,0,0,.116-.342Z" transform="translate(-272.886 -207.628)" fill="#455a64"/>
              <path id="Path_3103" data-name="Path 3103" d="M267.61,210.948a1.925,1.925,0,0,1,.539-.467,2.751,2.751,0,0,1,2.408-.238.59.59,0,0,1,.072.05l7.566-2.642a.383.383,0,0,1,.461.169.235.235,0,0,1,.028.144c-.088-.313-.336-.2-.706-.078s-7.425,2.58-7.425,2.58a1.882,1.882,0,0,0-1.38-.191A3.531,3.531,0,0,0,267.61,210.948Z" transform="translate(-267.406 -207.628)" fill="#fff" opacity="0.1"/>
              <path id="Path_3104" data-name="Path 3104" d="M267.774,217.654a.7.7,0,0,1,.245-.339c-.034.42.483.6,1.163.533.781-.081,1.518-.57,1.477-.969a.467.467,0,0,1,.075.154c.138.555-.991,1.285-1.881,1.323S267.668,218.04,267.774,217.654Z" transform="translate(-267.505 -213.98)" opacity="0.1"/>
            </g>
            <g id="freepik--Pot--inject-33" transform="translate(15.797 14.966)">
              <g id="Group_3763" data-name="Group 3763" transform="translate(0.119 9.828)" opacity="0.15">
                <path id="Path_3105" data-name="Path 3105" d="M228.011,266.261c-1.674.965-1.674,2.533,0,3.5a6.7,6.7,0,0,0,6.064,0c1.674-.965,1.674-2.536,0-3.5A6.7,6.7,0,0,0,228.011,266.261Z" transform="translate(-226.755 -265.536)"/>
              </g>
              <path id="Path_3106" data-name="Path 3106" d="M233.547,260.052c1.48-1.511,2.349-5.278.906-6.472h-7.34c-1.442,1.194-.574,4.962.9,6.469l.041.041c0,.019.035.034.05.05a1.65,1.65,0,0,0,.135.119l.035.028.113.085a1.783,1.783,0,0,0,.191.122,4.871,4.871,0,0,0,4.405,0h0c.063-.038.129-.078.191-.122s.069-.053.1-.078l.044-.034a1.16,1.16,0,0,0,.129-.116l.06-.056Z" transform="translate(-226.374 -247.499)" fill="#ebebeb"/>
              <path id="Path_3107" data-name="Path 3107" d="M228.011,250.435c-1.674.965-1.674,2.533,0,3.5a6.7,6.7,0,0,0,6.064,0c1.674-.965,1.674-2.536,0-3.5A6.79,6.79,0,0,0,228.011,250.435Z" transform="translate(-226.636 -244.849)" fill="#fafafa"/>
              <path id="Path_3108" data-name="Path 3108" d="M232.877,253.263a1.123,1.123,0,0,0,0,2.128,4.078,4.078,0,0,0,3.691,0,1.123,1.123,0,0,0,0-2.128,4.078,4.078,0,0,0-3.691,0Z" transform="translate(-230.313 -246.979)" fill="#ebebeb"/>
              <path id="Path_3109" data-name="Path 3109" d="M236.868,256.483a4.078,4.078,0,0,0-3.691,0,1.652,1.652,0,0,0-.627.561,1.671,1.671,0,0,0,.627.558,4.078,4.078,0,0,0,3.691,0,1.684,1.684,0,0,0,.608-.558,1.665,1.665,0,0,0-.608-.561Z" transform="translate(-230.614 -249.189)" fill="#e0e0e0"/>
              <path id="Path_3110" data-name="Path 3110" d="M230.092,242a9.089,9.089,0,0,1-1.464-1.943c-.677-1.2-.8-2.8-.452-2.993s1.772,1.4,1.772,1.4a8.624,8.624,0,0,1-.151-2.037,3.577,3.577,0,0,1,.627-2.225c.314-.194.988,1.147,1.279,2.119s.467,1.771.467,1.771a15.269,15.269,0,0,1,.524-2.238c.354-1.009.677-1.238.941-1.138s.414.57.486,1.915a13.5,13.5,0,0,1-.06,1.924s.5-.549,1.057-1.084c.611-.586.875-.668,1.047-.555s.223,1.025-.724,2.736A9.531,9.531,0,0,1,233.657,242,4.14,4.14,0,0,1,230.092,242Z" transform="translate(-227.481 -234.18)" fill="#ffafc5"/>
              <g id="Group_3764" data-name="Group 3764" transform="translate(0.506)" opacity="0.25">
                <path id="Path_3111" data-name="Path 3111" d="M230.092,242a9.089,9.089,0,0,1-1.464-1.943c-.677-1.2-.8-2.8-.452-2.993s1.772,1.4,1.772,1.4a8.624,8.624,0,0,1-.151-2.037,3.577,3.577,0,0,1,.627-2.225c.314-.194.988,1.147,1.279,2.119s.467,1.771.467,1.771a15.269,15.269,0,0,1,.524-2.238c.354-1.009.677-1.238.941-1.138s.414.57.486,1.915a13.5,13.5,0,0,1-.06,1.924s.5-.549,1.057-1.084c.611-.586.875-.668,1.047-.555s.223,1.025-.724,2.736A9.531,9.531,0,0,1,233.657,242,4.14,4.14,0,0,1,230.092,242Z" transform="translate(-227.987 -234.18)"/>
              </g>
              <path id="Path_3112" data-name="Path 3112" d="M234.9,242.008a17.253,17.253,0,0,1-1.007-4.338,7.261,7.261,0,0,0-.151,1.15,8.622,8.622,0,0,0,.151,2.037A3.915,3.915,0,0,0,234.9,242.008Z" transform="translate(-231.425 -236.576)" opacity="0.1"/>
              <path id="Path_3113" data-name="Path 3113" d="M232.452,250.116a4.9,4.9,0,0,1-2-.824,8.96,8.96,0,0,1-2.458-3.8,5.11,5.11,0,0,0,.627,2.332,9.09,9.09,0,0,0,1.464,1.943A5.116,5.116,0,0,0,232.452,250.116Z" transform="translate(-227.483 -241.945)" opacity="0.1"/>
            </g>
          </g>
        </g>
      </g>
    </g>
  </g>
</svg>
