<svg xmlns="http://www.w3.org/2000/svg" width="24" height="24" viewBox="0 0 24 24">
  <path id="Icon_weather-time-7" data-name="Icon weather-time-7" d="M4.488,15.849a11.767,11.767,0,0,1,1.62-6.032,11.99,11.99,0,0,1,4.38-4.38,11.977,11.977,0,0,1,10.668-.661,12.108,12.108,0,0,1,3.826,2.558,11.75,11.75,0,0,1,2.558,3.837A11.917,11.917,0,0,1,21.156,26.88a11.96,11.96,0,0,1-9.336,0,11.809,11.809,0,0,1-6.394-6.373A11.549,11.549,0,0,1,4.488,15.849Zm2.643,0a9.057,9.057,0,0,0,2.76,6.586A9,9,0,0,0,16.5,25.2a9.06,9.06,0,0,0,4.679-1.258,9.455,9.455,0,0,0,3.421-3.41,9.283,9.283,0,0,0,0-9.368,9.4,9.4,0,0,0-3.421-3.421,9.332,9.332,0,0,0-9.357,0A9.6,9.6,0,0,0,8.389,11.16,9.024,9.024,0,0,0,7.131,15.849Zm6.043,4.519a.883.883,0,0,1,.085-.693l2.313-4.092V8.752a.885.885,0,1,1,1.769,0V15.86a.856.856,0,0,1-.2.565l-2.323,4.156a.963.963,0,0,1-1.226.341A1.031,1.031,0,0,1,13.174,20.368Z" transform="translate(-4.488 -3.828)" fill="#01345b"/>
</svg>
