<svg xmlns="http://www.w3.org/2000/svg" width="196" height="48" viewBox="0 0 196 48">
  <g id="Group_3970" data-name="Group 3970" transform="translate(-1086 -1014.631)">
    <rect id="Rectangle_1796" data-name="Rectangle 1796" width="196" height="48" rx="5" transform="translate(1086 1014.631)" fill="#fff"/>
    <g id="Group_3875" data-name="Group 3875" transform="translate(989.304 1009.922)">
      <g id="Component_195_1" data-name="Component 195 – 1" transform="translate(104.697 10.709)">
        <g id="icon_2-3" data-name="icon 2-3">
          <g id="Path_3360" data-name="Path 3360" transform="translate(8.051 7.438)" fill="none">
            <path d="M23.6,29.049H4.841A4.847,4.847,0,0,1,0,24.208v-8.22a10.9,10.9,0,0,0,17.3-3.88A10.884,10.884,0,0,0,14.8,0h9.411a4.847,4.847,0,0,1,4.842,4.842V23.6H24.207a.606.606,0,0,0-.605.605v4.841Z" stroke="none"/>
            <path d="M 20.1019401550293 25.54916191101074 L 20.1019401550293 24.20763206481934 C 20.1019401550293 21.94406127929688 21.94349098205566 20.10251235961914 24.20705986022949 20.10251235961914 L 25.54858016967773 20.10251235961914 L 25.54858016967773 4.841531753540039 C 25.54858016967773 4.10181188583374 24.94677925109863 3.500001907348633 24.20705986022949 3.500001907348633 L 20.98054313659668 3.500001907348633 C 21.42883682250977 4.906047821044922 21.6552906036377 6.369407653808594 21.6552906036377 7.867681980133057 C 21.6552906036377 9.808961868286133 21.27420043945313 11.69429206848145 20.52284049987793 13.47075176239014 C 19.79821014404297 15.1848316192627 18.76082992553711 16.72390174865723 17.44018936157227 18.04455184936523 C 16.11967086791992 19.36578178405762 14.5803804397583 20.40338134765625 12.86561965942383 21.1283016204834 C 11.08860969543457 21.87989234924316 9.203280448913574 22.26098251342773 7.262010097503662 22.26098251342773 C 5.980094432830811 22.26098251342773 4.716027736663818 22.09085083007813 3.5 21.76206398010254 L 3.5 24.20763206481934 C 3.5 24.94735145568848 4.101560115814209 25.54916191101074 4.840980052947998 25.54916191101074 L 20.1019401550293 25.54916191101074 M 23.6019401550293 29.04916191101074 L 23.6013298034668 29.04916191101074 L 4.840980052947998 29.04916191101074 C 2.171660184860229 29.04916191101074 8.483886659860218e-08 26.87726211547852 8.483886659860218e-08 24.20763206481934 L 8.483886659860218e-08 15.98755168914795 C 1.998580098152161 17.77587127685547 4.577250003814697 18.76098251342773 7.262010097503662 18.76098251342773 C 8.732339859008789 18.76098251342773 10.15894985198975 18.4729118347168 11.50222015380859 17.90477180480957 C 12.7998104095459 17.3562126159668 13.96473979949951 16.57079124450684 14.96465015411377 15.57034206390381 C 15.96551036834717 14.56948184967041 16.75091934204102 13.40455150604248 17.29907989501953 12.10790157318115 C 17.86721992492676 10.76463222503662 18.1552906036377 9.338022232055664 18.1552906036377 7.867681980133057 C 18.1552906036377 6.356031894683838 17.85145950317383 4.892391681671143 17.25223922729492 3.517452001571655 C 16.67355918884277 2.19025182723999 15.84728050231934 1.006811857223511 14.79635047912598 1.909179673020844e-06 L 24.20705986022949 1.909179673020844e-06 C 26.87668037414551 1.909179673020844e-06 29.04858016967773 2.171901941299438 29.04858016967773 4.841531753540039 L 29.04858016967773 23.60251235961914 L 24.20705986022949 23.60251235961914 C 23.87339019775391 23.60251235961914 23.6019401550293 23.87396240234375 23.6019401550293 24.20763206481934 L 23.6019401550293 29.04855155944824 L 23.6019401550293 29.04916191101074 Z" stroke="none" fill="#264653"/>
          </g>
          <g id="Group_3871" data-name="Group 3871">
            <g id="Path_2100" data-name="Path 2100" transform="translate(7.662 22.5) rotate(-135)" fill="#ff784f" stroke-dasharray="50 100">
              <path d="M.006,0a10.866,10.866,0,0,1,10.83,10.839,10.752,10.752,0,0,1-7.07,10.146c-.072-.107-.622-2.015-.622-2.015a8.565,8.565,0,0,0,5.587-8.157A8.7,8.7,0,0,0,0,2.113S.008,2.038.006,0Z" stroke="none"/>
              <path d="M 0.006030082702636719 -1.9073486328125e-06 C 5.974609851837158 0.01244735717773438 10.82318019866943 4.865306854248047 10.8356294631958 10.83917808532715 C 10.84521961212158 15.43905830383301 7.78400993347168 19.72049713134766 3.76540994644165 20.98473739624023 C 3.693709850311279 20.87813758850098 3.143869876861572 18.9697380065918 3.143869876861572 18.9697380065918 C 4.628870010375977 18.60470771789551 8.757719993591309 16.00286865234375 8.731180191040039 10.81234741210938 C 8.705450057983398 5.779277801513672 4.495979785919189 2.102497100830078 0.3851900100708008 2.102497100830078 C 0.2571315765380859 2.102497100830078 0.1293621063232422 2.106058120727539 0.001622200012207031 2.113256454467773 L 0.001796722412109375 2.029611587524414 C 0.003966331481933594 1.866598129272461 0.007188796997070313 1.389413833618164 0.006030082702636719 -1.9073486328125e-06 Z" stroke="none" fill="#ff784f"/>
            </g>
            <path id="Icon_ionic-md-arrow-dropdown" data-name="Icon ionic-md-arrow-dropdown" d="M0,.142,4.088,4.368,8.178,0Z" transform="matrix(0.391, -0.921, 0.921, 0.391, 15.822, 9.122)" fill="#ff784f"/>
          </g>
          <path id="Checkbox" d="M4.2,8.371,0,4.3.9,3.15l3.3,3.2L10.552,0l.977.977Z" transform="translate(11.407 11.656) rotate(-1)" fill="#ff784f" stroke="#ff784f" stroke-width="1"/>
          <g id="Polygon_18" data-name="Polygon 18" transform="translate(28.014 32.857) rotate(-45)" fill="#264653" stroke-linejoin="round">
            <path d="M 7.210258007049561 4.894044399261475 L 0.4997685849666595 4.894044399261475 L 3.855013370513916 0.4168802201747894 L 7.210258007049561 4.894044399261475 Z" stroke="none"/>
            <path d="M 3.855013370513916 0.8337526321411133 L 0.9995312690734863 4.644044399261475 L 6.710495471954346 4.644044399261475 L 3.855013370513916 0.8337526321411133 M 3.855013370513916 4.76837158203125e-06 L 7.710023403167725 5.144044399261475 L 3.337860107421875e-06 5.144044399261475 L 3.855013370513916 4.76837158203125e-06 Z" stroke="none" fill="#264653"/>
          </g>
        </g>
      </g>
      <path id="Path_3358" data-name="Path 3358" d="M6.532-18.8H7.6A4.07,4.07,0,0,0,9.9-19.316a1.861,1.861,0,0,0,.745-1.638,1.7,1.7,0,0,0-.761-1.574A4.616,4.616,0,0,0,7.532-23h-1Zm0,2.681v5.968h-3.3V-25.7H7.766a7.756,7.756,0,0,1,4.691,1.154,4.12,4.12,0,0,1,1.521,3.505,4.126,4.126,0,0,1-.755,2.441,5,5,0,0,1-2.138,1.675q3.511,5.245,4.574,6.776H12L8.287-16.114Zm15.755-3.84a2.058,2.058,0,0,0-1.617.654A3.028,3.028,0,0,0,20-17.444h4.553a2.7,2.7,0,0,0-.628-1.856A2.125,2.125,0,0,0,22.287-19.955Zm.457,10.021a6.139,6.139,0,0,1-4.489-1.585,6,6,0,0,1-1.617-4.489,6.6,6.6,0,0,1,1.495-4.622,5.322,5.322,0,0,1,4.133-1.633,5.238,5.238,0,0,1,3.925,1.436,5.433,5.433,0,0,1,1.4,3.968v1.574h-7.67a3.123,3.123,0,0,0,.819,2.16,2.882,2.882,0,0,0,2.149.777,8.921,8.921,0,0,0,2.032-.223,10.167,10.167,0,0,0,2-.713v2.511a7.619,7.619,0,0,1-1.819.633A11.469,11.469,0,0,1,22.744-9.934Zm15.787-3.745a3.274,3.274,0,0,1-1.271,2.787,6.281,6.281,0,0,1-3.8.957,11.945,11.945,0,0,1-2.213-.176,8.369,8.369,0,0,1-1.713-.516v-2.681a11.311,11.311,0,0,0,2.037.713,8.249,8.249,0,0,0,1.995.287q1.766,0,1.766-1.021a.852.852,0,0,0-.234-.622,3.393,3.393,0,0,0-.808-.543q-.574-.3-1.532-.707a9.623,9.623,0,0,1-2.016-1.064,2.994,2.994,0,0,1-.936-1.122,3.7,3.7,0,0,1-.293-1.558A2.825,2.825,0,0,1,30.739-21.4a5.985,5.985,0,0,1,3.484-.867,9.889,9.889,0,0,1,4.181.936l-.979,2.34q-.894-.383-1.67-.628a5.245,5.245,0,0,0-1.585-.245q-1.436,0-1.436.777a.913.913,0,0,0,.463.755,12.585,12.585,0,0,0,2.027.947,9.415,9.415,0,0,1,2.042,1.053,3.115,3.115,0,0,1,.957,1.128A3.465,3.465,0,0,1,38.531-13.678Zm7.457-6.276a2.058,2.058,0,0,0-1.617.654,3.028,3.028,0,0,0-.67,1.856h4.553a2.7,2.7,0,0,0-.628-1.856A2.125,2.125,0,0,0,45.988-19.955Zm.457,10.021a6.139,6.139,0,0,1-4.489-1.585,6,6,0,0,1-1.617-4.489,6.6,6.6,0,0,1,1.495-4.622,5.322,5.322,0,0,1,4.133-1.633,5.238,5.238,0,0,1,3.925,1.436,5.433,5.433,0,0,1,1.4,3.968v1.574h-7.67a3.123,3.123,0,0,0,.819,2.16,2.882,2.882,0,0,0,2.149.777,8.921,8.921,0,0,0,2.032-.223,10.167,10.167,0,0,0,2-.713v2.511a7.619,7.619,0,0,1-1.819.633A11.469,11.469,0,0,1,46.446-9.934ZM60.573-22.263a5.233,5.233,0,0,1,1.1.1l-.245,3.042a3.717,3.717,0,0,0-.957-.106,3.441,3.441,0,0,0-2.42.8A2.884,2.884,0,0,0,57.18-16.2v6.053H53.935V-22.04h2.457l.479,2h.16a4.471,4.471,0,0,1,1.495-1.612A3.685,3.685,0,0,1,60.573-22.263Zm6.085,12.117L62.126-22.04H65.52l2.3,6.776a12.091,12.091,0,0,1,.479,2.436h.064a10.594,10.594,0,0,1,.479-2.436l2.287-6.776h3.394L69.988-10.147Zm14.489-9.808a2.058,2.058,0,0,0-1.617.654,3.028,3.028,0,0,0-.67,1.856h4.553a2.7,2.7,0,0,0-.628-1.856A2.125,2.125,0,0,0,81.147-19.955ZM81.6-9.934a6.139,6.139,0,0,1-4.489-1.585A6,6,0,0,1,75.5-16.008a6.6,6.6,0,0,1,1.495-4.622,5.322,5.322,0,0,1,4.133-1.633,5.238,5.238,0,0,1,3.925,1.436,5.433,5.433,0,0,1,1.4,3.968v1.574h-7.67a3.123,3.123,0,0,0,.819,2.16,2.882,2.882,0,0,0,2.149.777,8.921,8.921,0,0,0,2.032-.223,10.167,10.167,0,0,0,2-.713v2.511a7.618,7.618,0,0,1-1.819.633A11.469,11.469,0,0,1,81.6-9.934Z" transform="translate(143.545 51.078)" fill="#264653"/>
      <path id="Path_3359" data-name="Path 3359" d="M15.979-10.8H12.692v-6.713H6.532V-10.8h-3.3V-26.352h3.3v6.1h6.159v-6.1h3.287Zm12.1,0-.436-1.521h-.17a3.423,3.423,0,0,1-1.479,1.282,5.048,5.048,0,0,1-2.181.452,4.153,4.153,0,0,1-3.159-1.122,4.516,4.516,0,0,1-1.064-3.229v-7.755H22.83v6.947a3.337,3.337,0,0,0,.457,1.931,1.664,1.664,0,0,0,1.457.644,2.191,2.191,0,0,0,1.968-.91,5.641,5.641,0,0,0,.606-3.016v-5.6h3.245V-10.8Zm12.51-12.117a3.847,3.847,0,0,1,3.3,1.644,7.541,7.541,0,0,1,1.191,4.505A7.409,7.409,0,0,1,43.845-12.2,3.977,3.977,0,0,1,40.5-10.586a3.944,3.944,0,0,1-3.287-1.521h-.223L36.446-10.8H33.967V-27.352h3.245V-23.5q0,.734-.128,2.351h.128A3.753,3.753,0,0,1,40.584-22.916Zm-1.043,2.6a2.049,2.049,0,0,0-1.755.739,4.245,4.245,0,0,0-.574,2.441v.351a5.011,5.011,0,0,0,.569,2.745,2.031,2.031,0,0,0,1.8.83,1.809,1.809,0,0,0,1.59-.92,4.981,4.981,0,0,0,.59-2.675,4.719,4.719,0,0,0-.6-2.633A1.868,1.868,0,0,0,39.542-20.32Zm16.51,5.989a3.274,3.274,0,0,1-1.271,2.787,6.281,6.281,0,0,1-3.8.957,11.945,11.945,0,0,1-2.213-.176,8.37,8.37,0,0,1-1.713-.516v-2.681a11.311,11.311,0,0,0,2.037.713,8.249,8.249,0,0,0,1.995.287q1.766,0,1.766-1.021a.852.852,0,0,0-.234-.622,3.393,3.393,0,0,0-.808-.543q-.574-.3-1.532-.707a9.623,9.623,0,0,1-2.016-1.064,2.994,2.994,0,0,1-.936-1.122,3.7,3.7,0,0,1-.293-1.558,2.825,2.825,0,0,1,1.229-2.452,5.985,5.985,0,0,1,3.484-.867,9.889,9.889,0,0,1,4.181.936l-.979,2.34q-.894-.383-1.67-.628a5.245,5.245,0,0,0-1.585-.245q-1.436,0-1.436.777a.913.913,0,0,0,.463.755,12.585,12.585,0,0,0,2.027.947,9.415,9.415,0,0,1,2.042,1.053,3.115,3.115,0,0,1,.957,1.128A3.465,3.465,0,0,1,56.052-14.331Z" transform="translate(229.481 51.52)" fill="#ff784f"/>
    </g>
  </g>
</svg>
