<svg xmlns="http://www.w3.org/2000/svg" width="262.562" height="52.988" viewBox="0 0 262.562 52.988">
  <g id="Group_3874" data-name="Group 3874" transform="translate(-104.697 -10.709)">
    <g id="Component_195_2" data-name="Component 195 – 2" transform="translate(104.697 10.709)">
      <g id="icon_2-3" data-name="icon 2-3">
        <g id="Path_3360" data-name="Path 3360" transform="translate(11.69 10.8)" fill="none">
          <path d="M34.268,42.177H7.029A7.037,7.037,0,0,1,0,35.148V23.213A15.826,15.826,0,0,0,25.117,17.58,15.8,15.8,0,0,0,21.483,0H35.147a7.038,7.038,0,0,1,7.03,7.03v27.24h-7.03a.88.88,0,0,0-.879.879v7.029Z" stroke="none"/>
          <path d="M 30.76844787597656 38.67741394042969 L 30.76844787597656 35.14783477783203 C 30.76844787597656 32.73347473144531 32.7326774597168 30.76924514770508 35.14704895019531 30.76924514770508 L 38.67661666870117 30.76924514770508 L 38.67661666870117 7.02956485748291 C 38.67661666870117 5.083354949951172 37.09325790405273 3.500005006790161 35.14704895019531 3.500005006790161 L 28.16517639160156 3.500005006790161 C 28.1963939666748 3.569388151168823 28.22719955444336 3.63892936706543 28.25764846801758 3.708765029907227 C 29.32108879089355 6.14887523651123 29.86028861999512 8.744424819946289 29.86028861999512 11.42334461212158 C 29.86028861999512 14.0291051864624 29.34900856018066 16.55916595458984 28.34087753295898 18.94272422790527 C 27.3685188293457 21.24278450012207 25.97618865966797 23.30831527709961 24.20322799682617 25.08128547668457 C 22.43082809448242 26.85463523864746 20.36506843566895 28.24719429016113 18.06386756896973 29.22004508972168 C 15.67977809906006 30.22839546203613 13.14971828460693 30.73967552185059 10.54395866394043 30.73967552185059 C 8.109793663024902 30.73967552185059 5.724051952362061 30.28270149230957 3.499998331069946 29.41202163696289 L 3.499998331069946 35.14783477783203 C 3.499998331069946 37.09405517578125 5.082998275756836 38.67741394042969 7.028778553009033 38.67741394042969 L 30.76844787597656 38.67741394042969 M 34.26844787597656 42.17741394042969 L 34.267578125 42.17741394042969 L 7.028778553009033 42.17741394042969 C 3.153098344802856 42.17741394042969 -1.665649392634805e-06 39.02395629882813 -1.665649392634805e-06 35.14783477783203 L -1.665649392634805e-06 23.21283531188965 C 2.901808261871338 25.80935478210449 6.645868301391602 27.23967552185059 10.54395866394043 27.23967552185059 C 12.67878818511963 27.23967552185059 14.75012874603271 26.82141494750977 16.70046806335449 25.99651527404785 C 18.5844783782959 25.20003509521484 20.27587890625 24.05966567993164 21.72768783569336 22.60707473754883 C 23.18085861206055 21.15389442443848 24.32122802734375 19.46249580383301 25.11712837219238 17.57985496520996 C 25.9420280456543 15.62951469421387 26.36028861999512 13.5581750869751 26.36028861999512 11.42334461212158 C 26.36028861999512 9.228525161743164 25.91914749145508 7.103425025939941 25.04911804199219 5.107095241546631 C 24.20891761779785 3.180094957351685 23.00920867919922 1.461815118789673 21.48331832885742 5.062866421212675e-06 L 35.14704895019531 5.062866421212675e-06 C 39.02316665649414 5.062866421212675e-06 42.17661666870117 3.153455018997192 42.17661666870117 7.02956485748291 L 42.17661666870117 34.26924514770508 L 35.14704895019531 34.26924514770508 C 34.66259002685547 34.26924514770508 34.26844787597656 34.66337585449219 34.26844787597656 35.14783477783203 L 34.26844787597656 42.17653656005859 L 34.26844787597656 42.17741394042969 Z" stroke="none" fill="#264653"/>
        </g>
        <g id="Group_3871" data-name="Group 3871">
          <path id="Path_2100" data-name="Path 2100" d="M.009,0A15.777,15.777,0,0,1,15.733,15.738c.014,6.679-4.431,12.9-10.266,14.731-.1-.155-.9-2.926-.9-2.926A12.435,12.435,0,0,0,12.677,15.7C12.639,8.163,6.14,2.721,0,3.068,0,3.068.011,2.96.009,0Z" transform="translate(11.125 32.669) rotate(-135)" fill="#ff784f"/>
          <path id="Icon_ionic-md-arrow-dropdown" data-name="Icon ionic-md-arrow-dropdown" d="M0,.206,5.935,6.342,11.874,0Z" transform="matrix(0.391, -0.921, 0.921, 0.391, 22.972, 13.245)" fill="#ff784f"/>
        </g>
        <path id="Checkbox" d="M6.1,12.155,0,6.25,1.306,4.574,6.1,9.217,15.32,0l1.418,1.418Z" transform="translate(16.562 16.923) rotate(-1)" fill="#ff784f"/>
        <g id="Polygon_18" data-name="Polygon 18" transform="translate(40.674 47.706) rotate(-45)" fill="#264653" stroke-linejoin="round">
          <path d="M 10.69467830657959 7.218821048736572 L 0.4997679591178894 7.218821048736572 L 5.597223281860352 0.4168773591518402 L 10.69467830657959 7.218821048736572 Z" stroke="none"/>
          <path d="M 5.597223281860352 0.8337502479553223 L 0.9995298385620117 6.968821048736572 L 10.19491672515869 6.968821048736572 L 5.597223281860352 0.8337502479553223 M 5.597223281860352 1.430511474609375e-06 L 11.19444370269775 7.468821048736572 L 2.86102294921875e-06 7.468821048736572 L 5.597223281860352 1.430511474609375e-06 Z" stroke="none" fill="#264653"/>
        </g>
      </g>
    </g>
    <path id="Path_3358" data-name="Path 3358" d="M8.023-15.675H9.567a5.909,5.909,0,0,0,3.352-.757A2.7,2.7,0,0,0,14-18.81,2.471,2.471,0,0,0,12.9-21.1a6.7,6.7,0,0,0-3.421-.68H8.023Zm0,3.892v8.665H3.234V-25.7h6.58q4.6,0,6.812,1.676a5.981,5.981,0,0,1,2.209,5.089,5.991,5.991,0,0,1-1.1,3.545,7.256,7.256,0,0,1-3.1,2.433q5.1,7.615,6.642,9.839H15.962l-5.391-8.665ZM30.9-17.359a2.988,2.988,0,0,0-2.348.95,4.4,4.4,0,0,0-.973,2.7h6.611a3.927,3.927,0,0,0-.911-2.7A3.085,3.085,0,0,0,30.9-17.359Zm.664,14.55a8.913,8.913,0,0,1-6.518-2.3A8.714,8.714,0,0,1,22.7-11.628a9.584,9.584,0,0,1,2.17-6.711,7.727,7.727,0,0,1,6-2.371,7.606,7.606,0,0,1,5.7,2.085A7.889,7.889,0,0,1,38.6-12.864v2.286H27.469a4.534,4.534,0,0,0,1.189,3.135,4.185,4.185,0,0,0,3.12,1.128,12.952,12.952,0,0,0,2.95-.324,14.761,14.761,0,0,0,2.9-1.035v3.645a11.062,11.062,0,0,1-2.641.919A16.653,16.653,0,0,1,31.562-2.809ZM54.483-8.246A4.754,4.754,0,0,1,52.637-4.2a9.12,9.12,0,0,1-5.522,1.39A17.343,17.343,0,0,1,43.9-3.064a12.152,12.152,0,0,1-2.487-.749V-7.705A16.422,16.422,0,0,0,44.374-6.67a11.977,11.977,0,0,0,2.9.417q2.564,0,2.564-1.483a1.238,1.238,0,0,0-.34-.9,4.927,4.927,0,0,0-1.174-.788q-.834-.44-2.224-1.027A13.972,13.972,0,0,1,43.169-12a4.348,4.348,0,0,1-1.359-1.63,5.379,5.379,0,0,1-.425-2.263,4.1,4.1,0,0,1,1.784-3.56,8.69,8.69,0,0,1,5.058-1.259,14.358,14.358,0,0,1,6.07,1.359l-1.421,3.4q-1.3-.556-2.425-.911a7.615,7.615,0,0,0-2.3-.355q-2.085,0-2.085,1.128a1.326,1.326,0,0,0,.672,1.1,18.272,18.272,0,0,0,2.942,1.375,13.67,13.67,0,0,1,2.966,1.529,4.523,4.523,0,0,1,1.39,1.637A5.031,5.031,0,0,1,54.483-8.246ZM65.31-17.359a2.988,2.988,0,0,0-2.348.95,4.4,4.4,0,0,0-.973,2.7H68.6a3.927,3.927,0,0,0-.911-2.7A3.085,3.085,0,0,0,65.31-17.359Zm.664,14.55a8.913,8.913,0,0,1-6.518-2.3,8.714,8.714,0,0,1-2.348-6.518,9.584,9.584,0,0,1,2.17-6.711,7.727,7.727,0,0,1,6-2.371,7.606,7.606,0,0,1,5.7,2.085,7.889,7.889,0,0,1,2.039,5.761v2.286H61.881a4.535,4.535,0,0,0,1.189,3.135,4.185,4.185,0,0,0,3.12,1.128,12.952,12.952,0,0,0,2.95-.324,14.761,14.761,0,0,0,2.9-1.035v3.645A11.062,11.062,0,0,1,69.4-3.11,16.653,16.653,0,0,1,65.975-2.809Zm20.512-17.9a7.6,7.6,0,0,1,1.591.139l-.355,4.417a5.4,5.4,0,0,0-1.39-.154,5,5,0,0,0-3.514,1.158,4.188,4.188,0,0,0-1.259,3.244v8.789H76.848V-20.386h3.568l.7,2.9h.232a6.491,6.491,0,0,1,2.17-2.34A5.351,5.351,0,0,1,86.486-20.71ZM95.321-3.118l-6.58-17.268h4.927L97-10.547a17.556,17.556,0,0,1,.7,3.537h.093a15.382,15.382,0,0,1,.7-3.537l3.321-9.839h4.927l-6.58,17.268Zm21.037-14.241a2.988,2.988,0,0,0-2.348.95,4.4,4.4,0,0,0-.973,2.7h6.611a3.927,3.927,0,0,0-.911-2.7A3.085,3.085,0,0,0,116.358-17.359Zm.664,14.55a8.913,8.913,0,0,1-6.518-2.3,8.714,8.714,0,0,1-2.348-6.518,9.584,9.584,0,0,1,2.17-6.711,7.727,7.727,0,0,1,6-2.371,7.606,7.606,0,0,1,5.7,2.085,7.889,7.889,0,0,1,2.039,5.761v2.286H112.929a4.534,4.534,0,0,0,1.189,3.135,4.185,4.185,0,0,0,3.12,1.128,12.952,12.952,0,0,0,2.95-.324,14.761,14.761,0,0,0,2.9-1.035v3.645a11.062,11.062,0,0,1-2.641.919A16.653,16.653,0,0,1,117.022-2.809Z" transform="translate(162.564 57.709)" fill="#264653"/>
    <path id="Path_3359" data-name="Path 3359" d="M21.738-3.318H16.966v-9.746H8.023v9.746H3.234V-25.9H8.023v8.85h8.943V-25.9h4.773Zm17.562,0-.633-2.209H38.42a4.97,4.97,0,0,1-2.147,1.861,7.33,7.33,0,0,1-3.166.656,6.03,6.03,0,0,1-4.587-1.63,6.557,6.557,0,0,1-1.545-4.688v-11.26h4.711V-10.5a4.845,4.845,0,0,0,.664,2.8,2.416,2.416,0,0,0,2.116.934,3.181,3.181,0,0,0,2.857-1.321,8.19,8.19,0,0,0,.88-4.379v-8.124h4.711V-3.318ZM57.464-20.911a5.586,5.586,0,0,1,4.788,2.386,10.95,10.95,0,0,1,1.73,6.541A10.757,10.757,0,0,1,62.2-5.357,5.774,5.774,0,0,1,57.34-3.009a5.727,5.727,0,0,1-4.773-2.209h-.324l-.788,1.9h-3.6V-27.352h4.711v5.591q0,1.066-.185,3.413h.185A5.45,5.45,0,0,1,57.464-20.911ZM55.95-17.142A2.975,2.975,0,0,0,53.4-16.069a6.163,6.163,0,0,0-.834,3.545v.51a7.275,7.275,0,0,0,.826,3.985,2.949,2.949,0,0,0,2.618,1.2A2.627,2.627,0,0,0,58.321-8.16a7.232,7.232,0,0,0,.857-3.885,6.851,6.851,0,0,0-.865-3.823A2.712,2.712,0,0,0,55.95-17.142Zm23.972,8.7A4.754,4.754,0,0,1,78.076-4.4a9.12,9.12,0,0,1-5.522,1.39,17.343,17.343,0,0,1-3.213-.255,12.152,12.152,0,0,1-2.487-.749V-7.906a16.423,16.423,0,0,0,2.958,1.035,11.977,11.977,0,0,0,2.9.417q2.564,0,2.564-1.483a1.238,1.238,0,0,0-.34-.9,4.927,4.927,0,0,0-1.174-.788q-.834-.44-2.224-1.027A13.972,13.972,0,0,1,68.608-12.2a4.348,4.348,0,0,1-1.359-1.63,5.379,5.379,0,0,1-.425-2.263,4.1,4.1,0,0,1,1.784-3.56,8.69,8.69,0,0,1,5.058-1.259,14.358,14.358,0,0,1,6.07,1.359l-1.421,3.4q-1.3-.556-2.425-.911a7.615,7.615,0,0,0-2.3-.355q-2.085,0-2.085,1.128a1.326,1.326,0,0,0,.672,1.1,18.272,18.272,0,0,0,2.942,1.375,13.67,13.67,0,0,1,2.966,1.529,4.523,4.523,0,0,1,1.39,1.637A5.031,5.031,0,0,1,79.922-8.446Z" transform="translate(287.337 57.604)" fill="#ff784f"/>
  </g>
</svg>