<svg xmlns="http://www.w3.org/2000/svg" width="290.303" height="61.061" viewBox="0 0 290.303 61.061">
  <g id="Group_5069" data-name="Group 5069" transform="translate(-104.697 -9.951)">
    <g id="Group_2564" data-name="Group 2564" transform="translate(-117 -32)">
      <g id="icon_2-3" data-name="icon 2-3" transform="translate(-295 -462)">
        <g id="Subtraction_30" data-name="Subtraction 30" transform="translate(530 517)" fill="none">
          <path d="M39,48H8a8.009,8.009,0,0,1-8-8V26.418a18.011,18.011,0,0,0,28.585-6.411A17.984,17.984,0,0,0,24.449,0H40a8.009,8.009,0,0,1,8,8V39H40a1,1,0,0,0-1,1v8Z" stroke="none"/>
          <path d="M 35.49970245361328 44.50060272216797 L 35.49970245361328 40.0004997253418 C 35.49970245361328 37.51925277709961 37.51835250854492 35.50060272216797 39.99959945678711 35.50060272216797 L 44.49970245361328 35.50060272216797 L 44.49970245361328 8.000101089477539 C 44.49970245361328 5.518741130828857 42.48096084594727 3.500001430511475 39.99959945678711 3.500001430511475 L 31.2921314239502 3.500001430511475 C 31.44017601013184 3.80065393447876 31.58144569396973 4.105199813842773 31.71603202819824 4.413871288299561 C 32.89958953857422 7.12960147857666 33.49970245361328 10.01856136322021 33.49970245361328 13.00050163269043 C 33.49970245361328 15.9010009765625 32.93067169189453 18.717041015625 31.80866050720215 21.3698616027832 C 30.72641181945801 23.92986106872559 29.17663192749023 26.22892189025879 27.20305061340332 28.20250129699707 C 25.23021125793457 30.17642211914062 22.93092155456543 31.72642135620117 20.36960029602051 32.80923080444336 C 17.71624183654785 33.93147277832031 14.90020084381104 34.5004997253418 11.99970149993896 34.5004997253418 C 9.048171997070312 34.5004997253418 6.160669326782227 33.89688873291016 3.500001192092896 32.75187683105469 L 3.500001192092896 40.0004997253418 C 3.500001192092896 42.48186111450195 5.518331050872803 44.50060272216797 7.99920129776001 44.50060272216797 L 35.49970245361328 44.50060272216797 M 38.99970245361328 48.00060272216797 L 7.99920129776001 48.00060272216797 C 3.588431119918823 48.00060272216797 1.226806602971919e-06 44.41176986694336 1.226806602971919e-06 40.0004997253418 L 1.226806602971919e-06 26.41770172119141 C 3.302441120147705 29.37270164489746 7.563421249389648 31.00050163269043 11.99970149993896 31.00050163269043 C 14.42927169799805 31.00050163269043 16.78659057617188 30.52449226379395 19.00620079040527 29.58570098876953 C 21.15033149719238 28.67926216125488 23.07525062561035 27.38145065307617 24.72750091552734 25.72830200195312 C 26.38131141662598 24.07449150085449 27.67912101745605 22.14957046508789 28.58490180969238 20.00700187683105 C 29.52369117736816 17.78739166259766 29.99970054626465 15.43007183074951 29.99970054626465 13.00050163269043 C 29.99970054626465 10.50265121459961 29.49765205383301 8.084151268005371 28.50750160217285 5.812201499938965 C 27.55130195617676 3.61915135383606 26.18596076965332 1.663641333580017 24.44940185546875 1.361083945994324e-06 L 39.99959945678711 1.361083945994324e-06 C 44.41086959838867 1.361083945994324e-06 47.99970245361328 3.588831424713135 47.99970245361328 8.000101089477539 L 47.99970245361328 39.00060272216797 L 39.99959945678711 39.00060272216797 C 39.44824981689453 39.00060272216797 38.99970245361328 39.44915008544922 38.99970245361328 40.0004997253418 L 38.99970245361328 48.00060272216797 Z" stroke="none" fill="#264653"/>
        </g>
        <g id="Path_2100" data-name="Path 2100" transform="translate(541.951 554.535) rotate(-135)" fill="none" stroke-dasharray="50 100">
          <path d="M17.858.037A17.956,17.956,0,0,1,35.752,17.948a17.776,17.776,0,0,1-17.82,17.836A17.956,17.956,0,0,1,.037,17.873,17.776,17.776,0,0,1,17.858.037Z" stroke="none"/>
          <path d="M 17.81951332092285 0.03718948364257812 C 17.8327522277832 0.03718948364257812 17.84427261352539 0.037200927734375 17.85751342773438 0.0372314453125 C 27.71993255615234 0.05780029296875 35.73169326782227 8.076629638671875 35.75225448608398 17.94779968261719 C 35.75225448608398 17.94779968261719 35.75225448608398 17.94779968261719 35.75225448608398 17.94779968261719 C 35.75225830078125 17.95110893249512 35.75226593017578 17.95463752746582 35.75226974487305 17.95794677734375 C 35.75227355957031 17.95854759216309 35.75227355957031 17.95949363708496 35.75227355957031 17.96009635925293 C 35.75227737426758 17.96340370178223 35.75228118896484 17.96678352355957 35.75228500366211 17.97009086608887 C 35.75228500366211 17.9706916809082 35.75228500366211 17.97088050842285 35.75228500366211 17.97148132324219 C 35.75228881835938 17.97455406188965 35.75228881835938 17.97760009765625 35.75229263305664 17.98067092895508 C 35.75229263305664 17.98127365112305 35.75229263305664 17.98191070556641 35.75229263305664 17.98251152038574 C 35.75229263305664 17.98581886291504 35.75229263305664 17.98911476135254 35.75229263305664 17.9924201965332 C 35.75229263305664 17.99302291870117 35.75228881835938 17.99387359619141 35.75228881835938 17.99447631835938 C 35.75228881835938 17.9975471496582 35.75228500366211 18.0007495880127 35.75228500366211 18.00381851196289 C 35.75228118896484 18.00441932678223 35.75228500366211 18.00412940979004 35.75228118896484 18.00473022460938 C 35.75227737426758 18.00827217102051 35.75227355957031 18.0114574432373 35.75226974487305 18.01499938964844 C 35.75226974487305 18.01560020446777 35.75226593017578 18.01616859436035 35.75226593017578 18.01677131652832 C 35.75225448608398 18.02385330200195 35.75223922729492 18.03042030334473 35.75222015380859 18.03750228881836 C 35.75221633911133 18.0381031036377 35.75221633911133 18.03875923156738 35.75221252441406 18.03936004638672 C 35.75220489501953 18.04290008544922 35.75219345092773 18.04616355895996 35.75218200683594 18.04970359802246 C 35.75217819213867 18.0503044128418 35.75218200683594 18.04957008361816 35.75217819213867 18.0501708984375 C 35.75216674804688 18.0537109375 35.75215530395508 18.0568675994873 35.75214004516602 18.0604076385498 C 35.75213623046875 18.06100845336914 35.75213623046875 18.06095123291016 35.75213623046875 18.06155204772949 C 35.75212097167969 18.06485557556152 35.75210571289062 18.06881904602051 35.7520866394043 18.07212257385254 C 35.7520866394043 18.07212257385254 35.75208282470703 18.07311058044434 35.75208282470703 18.07311058044434 C 35.75206756591797 18.07641410827637 35.75205230712891 18.07977485656738 35.75203323364258 18.08307647705078 C 35.75202941894531 18.08367729187012 35.75202941894531 18.0835075378418 35.75202941894531 18.0841064453125 C 35.75201034545898 18.087646484375 35.75199127197266 18.0909309387207 35.75196838378906 18.09446907043457 C 35.7519645690918 18.09506988525391 35.7519645690918 18.09535217285156 35.75196075439453 18.0959529876709 C 35.75191879272461 18.10302925109863 35.75187301635742 18.10974884033203 35.75182342529297 18.11682319641113 C 35.7518196105957 18.11742401123047 35.75181579589844 18.11791229248047 35.75181198120117 18.1185131072998 C 35.75178527832031 18.12204933166504 35.75175857543945 18.12535667419434 35.75173187255859 18.12889289855957 C 35.75172805786133 18.12949371337891 35.75173187255859 18.12899398803711 35.75172805786133 18.12959289550781 C 35.75170135498047 18.13289451599121 35.75167465209961 18.13625717163086 35.75164413452148 18.13955879211426 C 35.75164031982422 18.14015769958496 35.75164031982422 18.14029693603516 35.75163269042969 18.14089775085449 C 35.75160217285156 18.14443397521973 35.75157165527344 18.14797210693359 35.75154113769531 18.1515064239502 C 35.75154113769531 18.1515064239502 35.75153350830078 18.1520881652832 35.75153350830078 18.1520881652832 C 35.75147247314453 18.15915870666504 35.75139617919922 18.16691398620605 35.75132369995117 18.17398262023926 C 35.75131607055664 18.17458343505859 35.75131988525391 18.17415428161621 35.75131607055664 18.17475509643555 C 35.75123977661133 18.18182373046875 35.75115966796875 18.18939018249512 35.75107574462891 18.19645690917969 C 35.75107192993164 18.19705581665039 35.75107192993164 18.1967945098877 35.75106811523438 18.1973934173584 C 35.75098419189453 18.20446014404297 35.75089263916016 18.21195983886719 35.75080108642578 18.21902275085449 C 35.75080108642578 18.21902275085449 35.75079345703125 18.21987342834473 35.75079345703125 18.21987342834473 C 35.7507438659668 18.22364044189453 35.75070190429688 18.22691535949707 35.75064849853516 18.23068237304688 C 35.75064849853516 18.23068237304688 35.75064468383789 18.23117446899414 35.75064468383789 18.23117446899414 C 35.75054168701172 18.23871040344238 35.75044631958008 18.24564170837402 35.75033569335938 18.253173828125 C 35.75033569335938 18.253173828125 35.75032424926758 18.25385093688965 35.75032424926758 18.25385093688965 C 35.75021743774414 18.26114845275879 35.75010299682617 18.26863479614258 35.74998474121094 18.27593040466309 C 35.74998474121094 18.27593040466309 35.74998092651367 18.27617073059082 35.74998092651367 18.27617073059082 C 35.74980163574219 18.28746604919434 35.74961471557617 18.29852676391602 35.74941635131836 18.30981636047363 C 35.74941635131836 18.30981636047363 35.74940872192383 18.31017112731934 35.74940872192383 18.31017112731934 C 35.74927520751953 18.31769752502441 35.74914169311523 18.32495498657227 35.74899673461914 18.33247756958008 C 35.74899673461914 18.33247756958008 35.74899673461914 18.33255958557129 35.74899673461914 18.33255958557129 C 35.74885559082031 18.34008407592773 35.74870681762695 18.34749984741211 35.74855422973633 18.35502243041992 C 35.74855422973633 18.35502243041992 35.74855422973633 18.35514068603516 35.74855422973633 18.35514068603516 C 35.68118286132812 21.67976760864258 34.70618057250977 24.77838706970215 33.0609130859375 27.41365623474121 C 33.0609130859375 27.41365623474121 33.06070327758789 27.41399383544922 33.06070327758789 27.41399383544922 C 33.05698013305664 27.41995620727539 33.05339431762695 27.42569351196289 33.04966354370117 27.43165016174316 C 33.04966354370117 27.43165016174316 33.04961776733398 27.43172454833984 33.04961776733398 27.43172454833984 C 33.0458869934082 27.43768310546875 33.04219436645508 27.44357299804688 33.03845977783203 27.44952774047852 C 33.03845977783203 27.44952774047852 33.03842926025391 27.44956970214844 33.03842926025391 27.44956970214844 C 33.03656387329102 27.45254707336426 33.03474426269531 27.4554443359375 33.03287506103516 27.45841979980469 C 33.03287506103516 27.45841979980469 33.03276824951172 27.45858764648438 33.03276824951172 27.45858764648438 C 33.02902984619141 27.46453857421875 33.025390625 27.47031402587891 33.02164459228516 27.47626113891602 C 33.02164459228516 27.47626113891602 33.02154922485352 27.47641181945801 33.02154922485352 27.47641181945801 C 33.01792144775391 27.4821720123291 33.01420211791992 27.48806762695312 33.01056671142578 27.49382400512695 C 33.01056671142578 27.49382400512695 33.01019287109375 27.49441528320312 33.01019287109375 27.49441528320312 C 33.00643920898438 27.5003547668457 33.00290679931641 27.50593948364258 32.9991455078125 27.51187515258789 C 32.9991455078125 27.51187515258789 32.99905014038086 27.51202583312988 32.99905014038086 27.51202583312988 C 32.99716949462891 27.51499366760254 32.99540328979492 27.51778411865234 32.99352264404297 27.52075004577637 C 32.99352264404297 27.52075004577637 32.99330139160156 27.52109718322754 32.99330139160156 27.52109718322754 C 32.98953628540039 27.52703094482422 32.98601913452148 27.53256988525391 32.98225021362305 27.53849792480469 C 32.98225021362305 27.53849792480469 32.98202133178711 27.53885650634766 32.98202133178711 27.53885650634766 C 32.97837066650391 27.54460144042969 32.97471618652344 27.55033493041992 32.9710578918457 27.55607414245605 C 32.97076034545898 27.55654525756836 32.97092819213867 27.55628204345703 32.97062683105469 27.55675315856934 C 32.96696853637695 27.56249237060547 32.96318435668945 27.56841659545898 32.95951843261719 27.57415199279785 C 32.95951843261719 27.57415199279785 32.9594612121582 27.57424354553223 32.9594612121582 27.57424354553223 C 32.95756912231445 27.57720184326172 32.95576477050781 27.58002090454102 32.95387268066406 27.58297920227051 C 32.95387268066406 27.58297920227051 32.95368194580078 27.58327674865723 32.95368194580078 27.58327674865723 C 32.95178604125977 27.58623504638672 32.95014572143555 27.58879852294922 32.94824981689453 27.59175491333008 C 32.94824981689453 27.59175491333008 32.94806671142578 27.59204483032227 32.94806671142578 27.59204483032227 C 32.9462890625 27.59481811523438 32.94448089599609 27.59763717651367 32.94270324707031 27.60040664672852 C 32.94239807128906 27.60087776184082 32.94240188598633 27.60087203979492 32.94210052490234 27.60134315490723 C 32.93854522705078 27.60688591003418 32.93503570556641 27.61234283447266 32.93147277832031 27.61788177490234 C 32.93117141723633 27.61835098266602 32.93097686767578 27.61865615844727 32.9306755065918 27.61912536621094 C 32.92889404296875 27.62189483642578 32.92722702026367 27.62448120117188 32.92544174194336 27.62725067138672 C 32.92514038085938 27.62771987915039 32.92536544799805 27.62737083435059 32.92506408691406 27.62784194946289 C 32.92339706420898 27.63042449951172 32.92167663574219 27.63309478759766 32.92000961303711 27.63567733764648 C 32.91970825195312 27.63614654541016 32.91969680786133 27.63616180419922 32.91939544677734 27.63663101196289 C 32.91772842407227 27.63921356201172 32.91579055786133 27.64221954345703 32.91412353515625 27.64479827880859 C 32.913818359375 27.6452693939209 32.91384887695312 27.64522552490234 32.91354370117188 27.64569473266602 C 32.90996932983398 27.65122604370117 32.90639495849609 27.65675354003906 32.90281677246094 27.66228103637695 C 32.90251159667969 27.66275024414062 32.90234756469727 27.66300582885742 32.90204238891602 27.66347503662109 C 32.89846420288086 27.66900062561035 32.89505004882812 27.67426490783691 32.89146423339844 27.67978668212891 C 32.89115905761719 27.68025588989258 32.89089965820312 27.68066024780273 32.89059448242188 27.68112945556641 C 32.88880157470703 27.68388938903809 32.88712310791016 27.68647193908691 32.88533020019531 27.68923187255859 C 32.88502502441406 27.68970108032227 32.8853874206543 27.68914413452148 32.88508224487305 27.68961334228516 C 32.88352584838867 27.6920051574707 32.88161849975586 27.69493675231934 32.88006210327148 27.69732666015625 C 32.87975692749023 27.69779586791992 32.87952423095703 27.69815635681152 32.87921905517578 27.69862365722656 C 32.87754058837891 27.70119857788086 32.87581253051758 27.703857421875 32.8741340637207 27.70643043518066 C 32.87382888793945 27.7068977355957 32.8734245300293 27.70751571655273 32.87311935424805 27.70798492431641 C 32.87168121337891 27.71018981933594 32.87006378173828 27.71266937255859 32.86862564086914 27.71487617492676 C 32.86832046508789 27.7153434753418 32.86808776855469 27.7156982421875 32.86778259277344 27.71616744995117 C 32.86610412597656 27.7187385559082 32.86439895629883 27.72134780883789 32.86272048950195 27.72392082214355 C 32.86241149902344 27.72438812255859 32.86194610595703 27.72510147094727 32.86164093017578 27.72557067871094 C 32.86008071899414 27.72795867919922 32.8583984375 27.73052978515625 32.85683822631836 27.7329158782959 C 32.85683822631836 27.7329158782959 32.85622787475586 27.73384475708008 32.85622787475586 27.73384475708008 C 32.85454559326172 27.73641586303711 32.85290145874023 27.73892974853516 32.85121917724609 27.74149894714355 C 32.85091018676758 27.74196624755859 32.85064697265625 27.74236679077148 32.850341796875 27.74283599853516 C 32.84865951538086 27.74540328979492 32.84682083129883 27.74820709228516 32.84513473510742 27.75077438354492 C 32.84482955932617 27.75124359130859 32.8447265625 27.75139808654785 32.84442138671875 27.75186538696289 C 32.84285736083984 27.75424957275391 32.84144973754883 27.75639343261719 32.83988189697266 27.7587776184082 C 32.83957672119141 27.75924491882324 32.83903503417969 27.76006698608398 32.83872985839844 27.76053237915039 C 32.83704376220703 27.76310157775879 32.83552551269531 27.76541137695312 32.83383560180664 27.76797866821289 C 32.83353042602539 27.76844596862793 32.83283233642578 27.76950454711914 32.83252716064453 27.76996994018555 C 32.83107757568359 27.77217102050781 32.82967376708984 27.7743034362793 32.82822799682617 27.7765007019043 C 32.82791900634766 27.77696800231934 32.82767868041992 27.77733612060547 32.82736968994141 27.77780342102051 C 32.82580184936523 27.78018569946289 32.82394409179688 27.78300094604492 32.8223762512207 27.7853832244873 C 32.82206726074219 27.78585052490234 32.82144546508789 27.78678894042969 32.82114028930664 27.78725624084473 C 32.8194465637207 27.78982162475586 32.81775665283203 27.79238510131836 32.81606292724609 27.79494857788086 C 32.81606292724609 27.79494857788086 32.81597900390625 27.79507637023926 32.81597900390625 27.79507637023926 C 32.81428527832031 27.79763984680176 32.81261444091797 27.8001708984375 32.81092071533203 27.80273246765137 C 32.81030654907227 27.80366516113281 32.81015396118164 27.80389404296875 32.80953598022461 27.80482482910156 C 32.80784225463867 27.80738830566406 32.80624389648438 27.80980682373047 32.80454635620117 27.81236839294434 C 32.80423736572266 27.81283569335938 32.8041877746582 27.81291198730469 32.80387878417969 27.81337738037109 C 32.80230331420898 27.81575775146484 32.8009147644043 27.81785202026367 32.79933929443359 27.82022857666016 C 32.79903030395508 27.82069396972656 32.79843139648438 27.82160186767578 32.79812240600586 27.82206726074219 C 32.79642486572266 27.82462692260742 32.79481506347656 27.82705116271973 32.79311752319336 27.82961082458496 C 32.79280853271484 27.83007621765137 32.79241561889648 27.83066940307617 32.79210662841797 27.83113479614258 C 32.7906494140625 27.83332824707031 32.78907012939453 27.8357105255127 32.78761291503906 27.8379020690918 C 32.78730392456055 27.8383674621582 32.78693008422852 27.83893013000488 32.78662109375 27.83939552307129 C 32.78491973876953 27.84195327758789 32.78329086303711 27.84440231323242 32.78158950805664 27.84695816040039 C 32.78128051757812 27.8474235534668 32.78078460693359 27.84816741943359 32.78047561645508 27.8486328125 C 32.77707290649414 27.85374641418457 32.7734489440918 27.85918807983398 32.77003860473633 27.86429786682129 C 32.76972961425781 27.86476135253906 32.76919174194336 27.86557006835938 32.76888275146484 27.86603546142578 C 32.76717758178711 27.86858940124512 32.76554489135742 27.87103652954102 32.76383972167969 27.87358856201172 C 32.76352691650391 27.87405395507812 32.7631950378418 27.87454986572266 32.76288604736328 27.87501525878906 C 32.76142501831055 27.87720489501953 32.75986862182617 27.87953186035156 32.75840377807617 27.8817195892334 C 32.75809478759766 27.88218307495117 32.75758743286133 27.88294219970703 32.75727462768555 27.88340759277344 C 32.75556945800781 27.88595962524414 32.75398635864258 27.88832473754883 32.75227737426758 27.8908748626709 C 32.75196838378906 27.89133834838867 32.75135803222656 27.89224815368652 32.75104904174805 27.8927116394043 C 32.74958419799805 27.89489936828613 32.74810791015625 27.89710235595703 32.74663925170898 27.89928817749023 C 32.74633026123047 27.89975357055664 32.7460823059082 27.90012168884277 32.74577331542969 27.90058517456055 C 32.74418258666992 27.9029541015625 32.74230194091797 27.90575790405273 32.74071502685547 27.90812492370605 C 32.74040222167969 27.90858840942383 32.73975372314453 27.90954971313477 32.73944473266602 27.91001510620117 C 32.73589706420898 27.9152946472168 32.73246383666992 27.92040252685547 32.72891235351562 27.92567825317383 C 32.72860336303711 27.9261417388916 32.72821807861328 27.92671203613281 32.7279052734375 27.92717742919922 C 32.72606658935547 27.92990493774414 32.72446441650391 27.93228530883789 32.72262573242188 27.93501281738281 C 32.72231674194336 27.93547630310059 32.72245025634766 27.93527603149414 32.72213745117188 27.93573951721191 C 32.72054290771484 27.9381046295166 32.71889495849609 27.94054794311523 32.71730041503906 27.94291114807129 C 32.71698760986328 27.94337463378906 32.71653747558594 27.94404029846191 32.71622848510742 27.94450378417969 C 32.71450805664062 27.94704818725586 32.71279525756836 27.9495849609375 32.71107864379883 27.95212745666504 C 32.71076583862305 27.95259094238281 32.71041870117188 27.95310211181641 32.71010589599609 27.95356559753418 C 32.70863342285156 27.95574569702148 32.70687103271484 27.95835113525391 32.70539855957031 27.96052932739258 C 32.70508575439453 27.96099281311035 32.70491409301758 27.96124649047852 32.7046012878418 27.96170806884766 C 32.702880859375 27.9642505645752 32.70114135742188 27.96681785583496 32.69942092895508 27.9693603515625 C 32.6991081237793 27.96982192993164 32.69857788085938 27.97060775756836 32.69826126098633 27.9710693359375 C 32.69666290283203 27.97342872619629 32.69503021240234 27.97583961486816 32.69342803955078 27.97819900512695 C 32.69342803955078 27.97819900512695 32.69276809692383 27.97917556762695 32.69276809692383 27.97917556762695 C 32.69116592407227 27.98153495788574 32.68951416015625 27.98397254943848 32.68791198730469 27.98633003234863 C 32.68728256225586 27.98725509643555 32.68708038330078 27.98755264282227 32.68645477294922 27.98847579956055 C 32.68485260009766 27.9908332824707 32.6831169128418 27.99338722229004 32.68151473999023 27.9957447052002 C 32.68120193481445 27.99620628356934 32.6806640625 27.99699592590332 32.68035125732422 27.99745750427246 C 32.67887115478516 27.9996337890625 32.67758941650391 28.00151634216309 32.67610931396484 28.00369262695312 C 32.6757926940918 28.00415420532227 32.67508316040039 28.00519752502441 32.67477035522461 28.00565719604492 C 32.67304229736328 28.0081958770752 32.67152786254883 28.01041984558105 32.66979598999023 28.0129566192627 C 32.66948318481445 28.0134162902832 32.66876983642578 28.01445960998535 32.66845703125 28.01492118835449 C 32.66697692871094 28.0170955657959 32.66576766967773 28.01886558532715 32.66428375244141 28.02103805541992 C 32.66365432739258 28.0219612121582 32.66371536254883 28.02187347412109 32.6630859375 28.02279663085938 C 32.66147613525391 28.02515029907227 32.65991592407227 28.02743721008301 32.65830993652344 28.02978897094727 C 32.65767669677734 28.03071212768555 32.65711212158203 28.03153800964355 32.6564826965332 28.0324592590332 C 32.65524673461914 28.03426933288574 32.65380096435547 28.03638458251953 32.65256118774414 28.03819465637207 C 32.65193176269531 28.03911590576172 32.65114212036133 28.0402717590332 32.65050888061523 28.04119110107422 C 32.64927291870117 28.04300117492676 32.64797210693359 28.04489707946777 32.64673233032227 28.04670715332031 C 32.64610290527344 28.04762649536133 32.64518737792969 28.04896545410156 32.64455413818359 28.04988479614258 C 32.64306640625 28.05205535888672 32.64151382446289 28.05432510375977 32.6400260925293 28.05649375915527 C 32.6393928527832 28.05741500854492 32.63909149169922 28.05785369873047 32.63845825195312 28.05877494812012 C 32.6372184753418 28.06058311462402 32.63619232177734 28.06207656860352 32.63495254516602 28.06388282775879 C 32.63400268554688 28.06526374816895 32.63389205932617 28.06542778015137 32.63294219970703 28.06680870056152 C 32.63145446777344 28.06897735595703 32.62986755371094 28.07128143310547 32.62837982177734 28.07344818115234 C 32.62774658203125 28.07436943054199 32.62722396850586 28.07512855529785 32.62659072875977 28.07604789733887 C 32.62534713745117 28.07785415649414 32.62423706054688 28.07946968078613 32.62299346923828 28.08127593994141 C 32.62236022949219 28.08219528198242 32.62187194824219 28.08290481567383 32.62123870849609 28.08382415771484 C 32.61962127685547 28.0861701965332 32.61814880371094 28.08830642700195 32.61653137207031 28.09065437316895 C 32.61589813232422 28.09157180786133 32.61545562744141 28.09221267700195 32.61482238769531 28.09313201904297 C 32.61345291137695 28.09511566162109 32.61194610595703 28.0973014831543 32.61057662963867 28.09928512573242 C 32.60994338989258 28.10020446777344 32.60984802246094 28.10034370422363 32.60921096801758 28.10126113891602 C 32.60784149169922 28.10324668884277 32.60625076293945 28.10555076599121 32.60488128662109 28.10753440856934 C 32.60424423217773 28.10845184326172 32.60353469848633 28.1094799041748 32.60290145874023 28.11039733886719 C 32.60140228271484 28.11256217956543 32.60026168823242 28.11421203613281 32.59876251220703 28.11637687683105 C 32.59812927246094 28.11729431152344 32.5970458984375 28.11885833740234 32.59641265869141 28.11977386474609 C 32.59528732299805 28.12139701843262 32.59423828125 28.1229133605957 32.59311676025391 28.12453460693359 C 32.5921630859375 28.12591171264648 32.59199905395508 28.12614440917969 32.59104537963867 28.12751960754395 C 32.58955001831055 28.12968063354492 32.58810806274414 28.13175582885742 32.58660888671875 28.1339168548584 C 32.58565521240234 28.13529205322266 32.58533477783203 28.13575172424316 32.58438110351562 28.13712692260742 C 32.58338165283203 28.13856887817383 32.58230972290039 28.14011383056641 32.58130645751953 28.14155387878418 C 32.58067321777344 28.14247131347656 32.57997894287109 28.14346694946289 32.57934188842773 28.14438247680664 C 32.57784271240234 28.14654350280762 32.57639694213867 28.14862442016602 32.57489395141602 28.15078353881836 C 32.57425689697266 28.15169906616211 32.57317352294922 28.15325355529785 32.57253646850586 28.15417098999023 C 32.57153701782227 28.15560913085938 32.57027435302734 28.15742111206055 32.56927490234375 28.15885925292969 C 32.56831741333008 28.16023254394531 32.56750869750977 28.1613941192627 32.56655120849609 28.16276741027832 C 32.5652961730957 28.16456604003906 32.56430435180664 28.16599273681641 32.56304931640625 28.16778945922852 C 32.56241226196289 28.16870498657227 32.56132507324219 28.17026519775391 32.56068801879883 28.17118072509766 C 32.55943298339844 28.17297744750977 32.55828857421875 28.17461395263672 32.55703735351562 28.17641067504883 C 32.55607604980469 28.17778396606445 32.55509185791016 28.1791934967041 32.55413436889648 28.18056488037109 C 32.55313110351562 28.18200302124023 32.55229568481445 28.18319702148438 32.55129241943359 28.18463516235352 C 32.55033111572266 28.18600654602051 32.54986953735352 28.18666839599609 32.54891204833984 28.18803977966309 C 32.54740524291992 28.19019508361816 32.54610443115234 28.19205284118652 32.54459381103516 28.1942081451416 C 32.54363632202148 28.19557952880859 32.54313278198242 28.19629669189453 32.54217529296875 28.19766807556152 C 32.54129409790039 28.19892501831055 32.54037475585938 28.20023727416992 32.53949356079102 28.20149421691895 C 32.53821182250977 28.20332336425781 32.53750610351562 28.20432662963867 32.53622817993164 28.20615386962891 C 32.53509521484375 28.2077693939209 32.53381729125977 28.20959091186523 32.53268432617188 28.21120452880859 C 32.53204345703125 28.21211814880371 32.53093719482422 28.21369171142578 32.53029632568359 28.21460342407227 C 32.52941513061523 28.21586036682129 32.52833557128906 28.21739959716797 32.5274543762207 28.21865463256836 C 32.52617263793945 28.22047996520996 32.525146484375 28.2219409942627 32.52386093139648 28.2237663269043 C 32.52285385131836 28.22520065307617 32.52184295654297 28.22663688659668 32.52083587646484 28.22807121276855 C 32.52019119262695 28.22898483276367 32.51919937133789 28.23039436340332 32.51855850219727 28.23130798339844 C 32.51742172241211 28.23291969299316 32.51601791381836 28.23491287231445 32.51488494873047 28.23652648925781 C 32.51391983032227 28.23789405822754 32.51279067993164 28.23950004577637 32.51182556152344 28.24086761474609 C 32.51081466674805 28.24230003356934 32.50991058349609 28.24358367919922 32.5088996887207 28.24501609802246 C 32.50793838500977 28.24638366699219 32.50751495361328 28.24698066711426 32.50654983520508 28.24834823608398 C 32.50503540039062 28.25049781799316 32.50372695922852 28.25235366821289 32.5022087097168 28.25450134277344 C 32.50124359130859 28.25586891174316 32.50076293945312 28.25654983520508 32.49979400634766 28.2579174041748 C 32.49878311157227 28.25934982299805 32.4979248046875 28.26056480407715 32.49691390991211 28.26199722290039 C 32.49626922607422 28.26290702819824 32.4953727722168 28.26417541503906 32.49472808837891 28.26508522033691 C 32.49333572387695 28.26705360412598 32.49160003662109 28.26950836181641 32.49020767211914 28.27147483825684 C 32.48956298828125 28.27238655090332 32.48872756958008 28.27356338500977 32.48808288574219 28.27447509765625 C 32.48694610595703 28.27608489990234 32.4857063293457 28.27783203125 32.48456573486328 28.27944183349609 C 32.4832763671875 28.2812614440918 32.48284912109375 28.28186416625977 32.48155975341797 28.28368377685547 C 32.48054504394531 28.28511428833008 32.47947692871094 28.28661727905273 32.47846221923828 28.28804779052734 C 32.47749328613281 28.2894115447998 32.47675704956055 28.29044914245605 32.47578811645508 28.29181480407715 C 32.47464752197266 28.29342269897461 32.47379684448242 28.29461860656738 32.47265625 28.29622650146484 C 32.47168731689453 28.2975902557373 32.47004699707031 28.29990005493164 32.46907424926758 28.3012638092041 C 32.46831512451172 28.30233573913574 32.46738433837891 28.30364227294922 32.46662139892578 28.30471420288086 C 32.46565246582031 28.30607795715332 32.46482467651367 28.3072395324707 32.4638557434082 28.30860137939453 C 32.46245956420898 28.31056594848633 32.46112823486328 28.31243324279785 32.45973205566406 28.31439590454102 C 32.45875930786133 28.31575965881348 32.45806884765625 28.31672668457031 32.45709991455078 28.31808853149414 C 32.45620727539062 28.31933784484863 32.45552825927734 28.32029342651367 32.45463943481445 28.32154083251953 C 32.45301818847656 28.32381248474121 32.45193099975586 28.32533645629883 32.45030975341797 28.32760620117188 C 32.44942092895508 28.32885360717773 32.44867706298828 28.32989883422852 32.44778442382812 28.33114624023438 C 32.44681167602539 28.3325080871582 32.44599533081055 28.33364868164062 32.44502258300781 28.33501052856445 C 32.44425964355469 28.33608055114746 32.4433708190918 28.33732604980469 32.44260406494141 28.3383960723877 C 32.44130706787109 28.34021186828613 32.43956756591797 28.3426456451416 32.43827056884766 28.34445953369141 C 32.43750381469727 28.34552955627441 32.43660354614258 28.34678649902344 32.43584060668945 28.34785461425781 C 32.43486404418945 28.34921455383301 32.43397903442383 28.3504524230957 32.43300628662109 28.35181427001953 C 32.4322395324707 28.35288238525391 32.43140411376953 28.35404586791992 32.43064117431641 28.35511589050293 C 32.42934036254883 28.35692977905273 32.42762756347656 28.35931968688965 32.42632675170898 28.36113166809082 C 32.42543411254883 28.36237907409668 32.42446136474609 28.36373138427734 32.42356872558594 28.3649787902832 C 32.42259216308594 28.36633682250977 32.422119140625 28.36699676513672 32.421142578125 28.36835479736328 C 32.41960906982422 28.37049102783203 32.41840362548828 28.37217140197754 32.4168701171875 28.37430572509766 C 32.4158935546875 28.37566566467285 32.41516876220703 28.37667083740234 32.41419219970703 28.37802886962891 C 32.41342544555664 28.37909698486328 32.41239547729492 28.38052940368652 32.41162872314453 28.3815975189209 C 32.41065216064453 28.38295555114746 32.40973281860352 28.38423156738281 32.40875625610352 28.38558959960938 C 32.40747451782227 28.38736724853516 32.40620040893555 28.38914108276367 32.4049186706543 28.39091873168945 C 32.4039421081543 28.39227676391602 32.40310668945312 28.3934326171875 32.40213012695312 28.39479064941406 C 32.40122985839844 28.39603424072266 32.40034103393555 28.39726829528809 32.39944458007812 28.39851188659668 C 32.39813995361328 28.40032196044922 32.39706802368164 28.40180778503418 32.3957633972168 28.40361595153809 C 32.39473724365234 28.40503692626953 32.39372253417969 28.40644264221191 32.39269638061523 28.40786361694336 C 32.39204406738281 28.40876770019531 32.39076232910156 28.41054153442383 32.39011001586914 28.41144561767578 C 32.38908386230469 28.41286468505859 32.38798522949219 28.41438865661621 32.38695526123047 28.41580963134766 C 32.38597869873047 28.41716384887695 32.38422012329102 28.41959190368652 32.38323974609375 28.42094802856445 C 32.38234329223633 28.42218971252441 32.38164520263672 28.42315292358398 32.38074493408203 28.42439651489258 C 32.37976455688477 28.42575073242188 32.37906646728516 28.42671585083008 32.37808609008789 28.42807197570801 C 32.37667083740234 28.43002319335938 32.37516403198242 28.43210220336914 32.37375259399414 28.43405342102051 C 32.37276840209961 28.4354076385498 32.37224960327148 28.43612289428711 32.37126541137695 28.43747901916504 C 32.37036514282227 28.438720703125 32.36935424804688 28.44011497497559 32.36845397949219 28.44135665893555 C 32.3677978515625 28.44225883483887 32.3662109375 28.4444465637207 32.36555480957031 28.44534873962402 C 32.3642692565918 28.44712257385254 32.36279678344727 28.44914817810059 32.36151123046875 28.45092010498047 C 32.36085510253906 28.45182228088379 32.35976791381836 28.45331573486328 32.35911178588867 28.4542179107666 C 32.35821151733398 28.45545768737793 32.3571891784668 28.45686340332031 32.35628890991211 28.45810317993164 C 32.35497665405273 28.45990753173828 32.35367584228516 28.46169471740723 32.35235977172852 28.46349906921387 C 32.35145950317383 28.4647388458252 32.35044097900391 28.46613693237305 32.34953689575195 28.46737670898438 C 32.34888076782227 28.46827697753906 32.34762191772461 28.47000503540039 32.34696578979492 28.47090721130371 C 32.34580612182617 28.47249984741211 32.34478378295898 28.47389984130859 32.34362030029297 28.47549247741699 C 32.34263610839844 28.47684478759766 32.34119415283203 28.47882270812988 32.34020614624023 28.48017501831055 C 32.33930206298828 28.48141288757324 32.33811569213867 28.48304176330566 32.33721160888672 28.48427963256836 C 32.33622360229492 28.48563003540039 32.33584594726562 28.48614692687988 32.33486175537109 28.48749923706055 C 32.33330917358398 28.48962020874023 32.33184814453125 28.49161911010742 32.33029937744141 28.49374008178711 C 32.32931137084961 28.49509048461914 32.32905197143555 28.49544334411621 32.32806396484375 28.49679183959961 C 32.32703018188477 28.49820709228516 32.32589721679688 28.49975776672363 32.32485961914062 28.50117111206055 C 32.32420349121094 28.50207138061523 32.32341384887695 28.50315093994141 32.32275390625 28.50405120849609 C 32.32133102416992 28.50599479675293 32.31961441040039 28.50833892822266 32.31818771362305 28.51028251647949 C 32.31752777099609 28.51118087768555 32.31650924682617 28.5125732421875 32.31584930419922 28.51347160339355 C 32.3146858215332 28.51506042480469 32.31356430053711 28.5165901184082 32.31239700317383 28.51817893981934 C 32.31140899658203 28.51952743530273 32.31044387817383 28.52083969116211 32.30945205688477 28.52219009399414 C 32.30828857421875 28.52377700805664 32.3071403503418 28.52534103393555 32.30597305297852 28.52692985534668 C 32.30531311035156 28.52782821655273 32.30419921875 28.52934455871582 32.30353546142578 28.53024291992188 C 32.30197906494141 28.5323600769043 32.30044937133789 28.53444290161133 32.29889297485352 28.53656005859375 C 32.2982292175293 28.5374584197998 32.29776763916016 28.53808975219727 32.29710388183594 28.53898620605469 C 32.29606628417969 28.54039764404297 32.29464721679688 28.54232597351074 32.29360961914062 28.54373741149902 C 32.29261779785156 28.54508399963379 32.2923698425293 28.54541778564453 32.29137802124023 28.5467643737793 C 32.28981781005859 28.54888153076172 32.28832626342773 28.5509033203125 32.28676605224609 28.55301856994629 C 32.28610610961914 28.55391693115234 32.2852783203125 28.5550365447998 32.28461456298828 28.55593490600586 C 32.28357696533203 28.55734443664551 32.28225326538086 28.55913734436035 32.28121185302734 28.560546875 C 32.28054809570312 28.56144332885742 32.27976226806641 28.56250953674316 32.27910232543945 28.56340599060059 C 32.27753829956055 28.56551933288574 32.2760009765625 28.56760025024414 32.27444076538086 28.5697135925293 C 32.27377700805664 28.57061004638672 32.27292251586914 28.57176208496094 32.27226257324219 28.57265853881836 C 32.27095794677734 28.57442092895508 32.26983642578125 28.5759334564209 32.26853561401367 28.57769393920898 C 32.26787185668945 28.57859039306641 32.26687622070312 28.57993316650391 32.26621246337891 28.58082962036133 C 32.26491165161133 28.58259010314941 32.26351165771484 28.5844783782959 32.26220703125 28.58623695373535 C 32.26154327392578 28.58713340759277 32.26054763793945 28.58847808837891 32.25988388061523 28.58937454223633 C 32.25870895385742 28.59095764160156 32.25750732421875 28.59257507324219 32.25633239746094 28.59415817260742 C 32.25533676147461 28.59550094604492 32.25406646728516 28.59721755981445 32.25306701660156 28.59856033325195 C 32.25189208984375 28.60014152526855 32.25094604492188 28.60141944885254 32.2497673034668 28.60300064086914 C 32.24877166748047 28.60434341430664 32.24866104125977 28.60449600219727 32.24766159057617 28.60583686828613 C 32.24609375 28.60794639587402 32.24444580078125 28.61016082763672 32.24287796020508 28.61227035522461 C 32.24221420288086 28.6131649017334 32.24155044555664 28.61405181884766 32.24088668823242 28.61494827270508 C 32.23957824707031 28.61670303344727 32.23833465576172 28.61837768554688 32.23702621459961 28.62013244628906 C 32.23635864257812 28.62102699279785 32.23618698120117 28.62125778198242 32.23552322387695 28.62215232849121 C 32.23382186889648 28.62443542480469 32.23223114013672 28.62656593322754 32.23052978515625 28.62884902954102 C 32.22986602783203 28.62974166870117 32.22911071777344 28.63075256347656 32.22844314575195 28.63164520263672 C 32.22713470458984 28.63339996337891 32.22602462768555 28.63488960266113 32.22471237182617 28.63664436340332 C 32.22371292114258 28.63798522949219 32.22317123413086 28.63871192932129 32.22216796875 28.64005279541016 C 32.22085952758789 28.64180564880371 32.21952819824219 28.64358520507812 32.21821975708008 28.64533805847168 C 32.21755218505859 28.64623260498047 32.21662521362305 28.64746856689453 32.21595764160156 28.64836120605469 C 32.21438598632812 28.65046501159668 32.21285629272461 28.65250968933105 32.21128082275391 28.65461349487305 C 32.21061325073242 28.6555061340332 32.21008682250977 28.65620994567871 32.20941925048828 28.65710067749023 C 32.20810699462891 28.65885543823242 32.20709228515625 28.66020584106445 32.20578002929688 28.66195869445801 C 32.20511245727539 28.66285133361816 32.2043571472168 28.66385650634766 32.20368957519531 28.66474914550781 C 32.20211029052734 28.66685104370117 32.20043182373047 28.66909027099609 32.19885635375977 28.67119216918945 C 32.19818496704102 28.67208480834961 32.19746398925781 28.67304420471191 32.19679641723633 28.67393493652344 C 32.19561386108398 28.67551231384277 32.1945686340332 28.67690277099609 32.19338607788086 28.6784782409668 C 32.19271469116211 28.67936897277832 32.19184494018555 28.68052864074707 32.19117736816406 28.68141937255859 C 32.18959808349609 28.68351936340332 32.18795394897461 28.68570518493652 32.18637466430664 28.68780517578125 C 32.18570327758789 28.68869590759277 32.18503952026367 28.68957901000977 32.18437194824219 28.69046974182129 C 32.18305206298828 28.69221878051758 32.18181610107422 28.69386291503906 32.18050003051758 28.69561004638672 C 32.17982864379883 28.69650268554688 32.17890167236328 28.69773483276367 32.17823028564453 28.69862365722656 C 32.17691421508789 28.70037269592285 32.17525100708008 28.70257949829102 32.17393112182617 28.70432662963867 C 32.17326354980469 28.70521545410156 32.17268371582031 28.70598411560059 32.17201232910156 28.70687294006348 C 32.17042922973633 28.70897102355957 32.16874694824219 28.71120071411133 32.16716384887695 28.71329689025879 C 32.1664924621582 28.71418762207031 32.16594696044922 28.71491241455078 32.16527557373047 28.71580123901367 C 32.16395568847656 28.71754837036133 32.16279602050781 28.71908187866211 32.16147613525391 28.72082710266113 C 32.16046905517578 28.7221622467041 32.16037368774414 28.72228622436523 32.15936660766602 28.72361946105957 C 32.15777969360352 28.72571563720703 32.15623474121094 28.72776031494141 32.15464782714844 28.72985458374023 C 32.15364074707031 28.73118782043457 32.15331649780273 28.73161697387695 32.15230560302734 28.73294830322266 C 32.15124893188477 28.73434448242188 32.15017318725586 28.73576736450195 32.14911651611328 28.73716354370117 C 32.14844131469727 28.73805236816406 32.14759826660156 28.73916625976562 32.14692306518555 28.74005508422852 C 32.14533615112305 28.74214744567871 32.1436767578125 28.74433898925781 32.14208602905273 28.74643325805664 C 32.14141464233398 28.7473201751709 32.14077758789062 28.7481575012207 32.14010620117188 28.74904632568359 C 32.1387825012207 28.75078964233398 32.13722610473633 28.75283622741699 32.13590240478516 28.75457763671875 C 32.13523101806641 28.75546646118164 32.13465118408203 28.75622749328613 32.13397598266602 28.75711441040039 C 32.13251876831055 28.759033203125 32.13108062744141 28.76092720031738 32.12962341308594 28.76284408569336 C 32.12894821166992 28.76373100280762 32.12808227539062 28.76486587524414 32.12741088867188 28.7657527923584 C 32.12582015991211 28.76784324645996 32.12406539916992 28.7701473236084 32.12247467041016 28.77223777770996 C 32.12179946899414 28.77312469482422 32.12164306640625 28.77332878112793 32.12096786499023 28.77421569824219 C 32.1196403503418 28.77595710754395 32.11824798583984 28.77778244018555 32.11692047119141 28.7795238494873 C 32.11658477783203 28.77996635437012 32.11539459228516 28.78152656555176 32.11505508422852 28.7819709777832 C 32.11333084106445 28.78423309326172 32.11165237426758 28.78643417358398 32.10992431640625 28.78869438171387 C 32.10924911499023 28.78958129882812 32.10903930664062 28.78985786437988 32.10836029052734 28.79074478149414 C 32.10703277587891 28.79248428344727 32.10554504394531 28.79443359375 32.10421371459961 28.79617309570312 C 32.10353851318359 28.79705810546875 32.10306930541992 28.79766845703125 32.10239410400391 28.79855537414551 C 32.10079956054688 28.8006420135498 32.09909439086914 28.80287170410156 32.09749603271484 28.80495834350586 C 32.09682083129883 28.80584335327148 32.09605407714844 28.80684280395508 32.09537506103516 28.8077278137207 C 32.09404754638672 28.8094654083252 32.09274673461914 28.81116485595703 32.09141540527344 28.81290245056152 C 32.09073638916016 28.81378746032715 32.09017181396484 28.81452369689941 32.08949279785156 28.81540870666504 C 32.08802795410156 28.81731986999512 32.08636856079102 28.81948471069336 32.08490371704102 28.82139587402344 C 32.08422470092773 28.82227897644043 32.08351898193359 28.82320404052734 32.08283996582031 28.82408714294434 C 32.08137512207031 28.82599830627441 32.0797119140625 28.82816123962402 32.0782470703125 28.83007049560547 C 32.07756805419922 28.83095359802246 32.07682037353516 28.8319263458252 32.07614135742188 28.83280944824219 C 32.07480621337891 28.83454513549805 32.07350921630859 28.83623313903809 32.07217788696289 28.83796882629395 C 32.07183837890625 28.83840942382812 32.07058715820312 28.84003448486328 32.07024765014648 28.84047698974609 C 32.06864547729492 28.84255790710449 32.06692504882812 28.84479713439941 32.06532287597656 28.84687805175781 C 32.06464385986328 28.8477611541748 32.06391906738281 28.84870147705078 32.06323623657227 28.84958648681641 C 32.0619010925293 28.851318359375 32.06093978881836 28.85256576538086 32.05960464477539 28.85429954528809 C 32.05892562866211 28.85518264770508 32.05831527709961 28.85597229003906 32.05763626098633 28.85685348510742 C 32.05603408813477 28.85893440246582 32.05447006225586 28.8609619140625 32.05286407470703 28.86304092407227 C 32.05184173583984 28.86436462402344 32.05138397216797 28.86495971679688 32.05036163330078 28.86628341674805 C 32.04929351806641 28.86766815185547 32.04806137084961 28.8692626953125 32.04698944091797 28.87064743041992 C 32.04596710205078 28.87197113037109 32.04523468017578 28.87291717529297 32.04421234130859 28.87424087524414 C 32.04287719726562 28.87597274780273 32.04130554199219 28.87800598144531 32.03996276855469 28.87973594665527 C 32.03928375244141 28.88061904907227 32.03866195678711 28.88142204284668 32.03797912597656 28.88230323791504 C 32.03623580932617 28.88455200195312 32.03475189208984 28.88647270202637 32.03300857543945 28.88872146606445 C 32.03232574462891 28.88960266113281 32.03189086914062 28.89016532897949 32.03120803833008 28.89104652404785 C 32.02986907958984 28.89277648925781 32.02872085571289 28.89425468444824 32.02738189697266 28.8959846496582 C 32.02669906616211 28.89686584472656 32.02597808837891 28.89778900146484 32.02529907226562 28.8986701965332 C 32.02368927001953 28.9007453918457 32.02186965942383 28.9030876159668 32.02025985717773 28.90516090393066 C 32.01957702636719 28.90604209899902 32.01914596557617 28.90659523010254 32.01846313476562 28.90747451782227 C 32.01712036132812 28.90920257568359 32.01577758789062 28.91093444824219 32.01443481445312 28.91266059875488 C 32.01374816894531 28.91353988647461 32.01335144042969 28.9140510559082 32.01266860961914 28.91493034362793 C 32.01092147827148 28.91717529296875 32.00916290283203 28.91943550109863 32.00741577148438 28.92168045043945 C 32.00707626342773 28.92212104797363 32.00609970092773 28.92337417602539 32.00575637817383 28.92381286621094 C 32.00428009033203 28.92571258544922 32.00285720825195 28.92753982543945 32.00137710571289 28.9294376373291 C 32.00103378295898 28.92987823486328 32.00003051757812 28.93116188049316 31.99968910217285 28.93160247802734 C 31.99807548522949 28.93367195129395 31.99627494812012 28.93598175048828 31.99465942382812 28.93805122375488 C 31.99397468566895 28.93893051147461 31.99381065368652 28.93914031982422 31.99312591552734 28.94001770019531 C 31.99137496948242 28.9422607421875 31.98938369750977 28.9448127746582 31.98763084411621 28.94705390930176 C 31.98728942871094 28.9474925994873 31.98698997497559 28.9478759765625 31.98664665222168 28.94831466674805 C 31.98502922058105 28.95038223266602 31.98330307006836 28.95259094238281 31.98168563842773 28.95465850830078 C 31.98134231567383 28.95509910583496 31.98072814941406 28.95588493347168 31.98038482666016 28.95632362365723 C 31.97849655151367 28.95873641967773 31.97671508789062 28.96101379394531 31.97482490539551 28.96342658996582 C 31.9744815826416 28.96386337280273 31.97391319274902 28.96459197998047 31.97356796264648 28.96503067016602 C 31.97195053100586 28.96709632873535 31.97048759460449 28.96896362304688 31.9688663482666 28.97102928161621 C 31.96817970275879 28.9719066619873 31.96824645996094 28.97182273864746 31.96755790710449 28.97269821166992 C 31.9658031463623 28.97493743896484 31.96395111083984 28.97729682922363 31.96219635009766 28.97953414916992 C 31.96185111999512 28.97997283935547 31.96086883544922 28.98122406005859 31.96052360534668 28.98166275024414 C 31.95890235900879 28.98372840881348 31.95758438110352 28.98540687561035 31.95596122741699 28.98747062683105 C 31.95561790466309 28.9879093170166 31.95463562011719 28.98915863037109 31.95429039001465 28.98959732055664 C 31.95280265808105 28.99148941040039 31.95102310180664 28.99375152587891 31.94953536987305 28.99564361572266 C 31.94884490966797 28.99651908874512 31.94818115234375 28.99736213684082 31.9474925994873 28.99823760986328 C 31.94573402404785 29.00047302246094 31.9439697265625 29.00271415710449 31.94220924377441 29.00494766235352 C 31.94186401367188 29.00538635253906 31.94159317016602 29.00572967529297 31.94124794006348 29.00616836547852 C 31.93975830078125 29.008056640625 31.93800735473633 29.01027679443359 31.9365177154541 29.01216697692871 C 31.93617248535156 29.01260375976562 31.93517875671387 29.01386451721191 31.93483352661133 29.01430130004883 C 31.93307113647461 29.01653480529785 31.93126106262207 29.01882934570312 31.92949676513672 29.02106094360352 C 31.92880630493164 29.02193641662598 31.92868804931641 29.02208709716797 31.92799758911133 29.0229606628418 C 31.92650604248047 29.02484893798828 31.92499732971191 29.02675628662109 31.92350578308105 29.02864456176758 C 31.92281532287598 29.02951812744141 31.92267799377441 29.02969169616699 31.9219856262207 29.03056526184082 C 31.92008590698242 29.03296852111816 31.9184513092041 29.0350341796875 31.91654968261719 29.03743553161621 C 31.91620445251465 29.03787231445312 31.91547966003418 29.03878784179688 31.91513442993164 29.03922271728516 C 31.91336822509766 29.04145431518555 31.91153335571289 29.04376983642578 31.90976715087891 29.04599952697754 C 31.90942001342773 29.04643630981445 31.90969276428223 29.04609107971191 31.90934753417969 29.04652786254883 C 31.90744400024414 29.04892730712891 31.90556716918945 29.05129432678223 31.90366363525391 29.0536937713623 C 31.9029712677002 29.0545654296875 31.90285682678223 29.05471038818359 31.90216445922852 29.05558395385742 C 31.9003963470459 29.05780982971191 31.89848136901855 29.06022071838379 31.89671325683594 29.06244659423828 C 31.89636611938477 29.0628833770752 31.89573097229004 29.06368255615234 31.89538383483887 29.06411933898926 C 31.89374923706055 29.0661735534668 31.89242172241211 29.06784439086914 31.89078712463379 29.06989860534668 C 31.89044189453125 29.07033538818359 31.88952255249023 29.07148933410645 31.8891773223877 29.07192420959473 C 31.88740539550781 29.07415008544922 31.88559913635254 29.07641983032227 31.88382720947266 29.07864379882812 C 31.88313293457031 29.07951545715332 31.88289833068848 29.07981109619141 31.88220405578613 29.08068084716797 C 31.88070487976074 29.08256340026855 31.87911605834961 29.08455657958984 31.87761497497559 29.08643913269043 C 31.87692070007324 29.08731079101562 31.87710380554199 29.08708190917969 31.87640953063965 29.08795166015625 C 31.87463569641113 29.09017562866211 31.87278747558594 29.09249114990234 31.87101364135742 29.09471321105957 C 31.87031936645508 29.09558296203613 31.86984634399414 29.09617614746094 31.86915016174316 29.0970458984375 C 31.86764907836914 29.09892654418945 31.8658504486084 29.10117721557617 31.86434745788574 29.10305595397949 C 31.86400032043457 29.10349082946777 31.86380386352539 29.10373878479004 31.86345481872559 29.10417366027832 C 31.86154174804688 29.10656547546387 31.85989189147949 29.10862922668457 31.85797882080078 29.11101913452148 C 31.8572826385498 29.11188888549805 31.85685729980469 29.11241912841797 31.85616111755371 29.11328887939453 C 31.85438537597656 29.11550903320312 31.85257720947266 29.11776733398438 31.85079956054688 29.11998558044434 C 31.85045051574707 29.12042045593262 31.84993743896484 29.12105941772461 31.84958839416504 29.12149429321289 C 31.84808349609375 29.12337303161621 31.84650802612305 29.12533950805664 31.84500122070312 29.12721633911133 C 31.84465408325195 29.12765121459961 31.84367752075195 29.12886619567871 31.84333038330078 29.12929916381836 C 31.84154891967773 29.13151931762695 31.83967018127441 29.13385963439941 31.83788871765137 29.13607788085938 C 31.83719062805176 29.1369457244873 31.83705902099609 29.13711166381836 31.83636093139648 29.13797950744629 C 31.83485412597656 29.13985443115234 31.83339881896973 29.14166450500488 31.83189010620117 29.14353942871094 C 31.83119201660156 29.14440727233887 31.83099746704102 29.14464950561523 31.83029937744141 29.1455192565918 C 31.82851791381836 29.14773368835449 31.82662773132324 29.15008354187012 31.82484436035156 29.15229797363281 C 31.82449340820312 29.15273284912109 31.82362937927246 29.15380477905273 31.82328033447266 29.15423965454102 C 31.82163429260254 29.15628433227539 31.82009887695312 29.15818786621094 31.81845283508301 29.16023254394531 C 31.81810188293457 29.16066551208496 31.8177661895752 29.16108322143555 31.81741714477539 29.16151809692383 C 31.81563186645508 29.16373062133789 31.81354713439941 29.16631317138672 31.8117618560791 29.16852569580078 C 31.81106185913086 29.16939163208008 31.81110763549805 29.16933631896973 31.8104076385498 29.17020416259766 C 31.80848503112793 29.17258644104004 31.80654335021973 29.17499160766602 31.80461692810059 29.17737197875977 C 31.80426788330078 29.17780494689941 31.80425071716309 29.17782592773438 31.80390167236328 29.17825889587402 C 31.80211448669434 29.18046951293945 31.80036354064941 29.1826343536377 31.79857444763184 29.18484497070312 C 31.7982234954834 29.18527793884277 31.79767417907715 29.18595886230469 31.79732513427734 29.1863899230957 C 31.7953987121582 29.18877220153809 31.79360961914062 29.19098091125488 31.79168128967285 29.193359375 C 31.79098129272461 29.1942253112793 31.79097175598145 29.19423675537109 31.79026985168457 29.19510269165039 C 31.78861808776855 29.19714164733887 31.78701591491699 29.19911766052246 31.78536224365234 29.20115661621094 C 31.78501129150391 29.20158958435059 31.78466987609863 29.20201110839844 31.7843189239502 29.20244407653809 C 31.78239059448242 29.2048225402832 31.78047943115234 29.20717620849609 31.77854919433594 29.20955276489258 C 31.7781982421875 29.20998573303223 31.77764892578125 29.21066093444824 31.77729797363281 29.21109390258789 C 31.77550506591797 29.21330070495605 31.77345657348633 29.21582221984863 31.77166366577148 29.2180290222168 C 31.77131080627441 29.21846008300781 31.77165222167969 29.21804237365723 31.77130126953125 29.21847534179688 C 31.76936912536621 29.22084999084473 31.76743316650391 29.22322845458984 31.76550102233887 29.22560501098633 C 31.76479721069336 29.22646713256836 31.76472663879395 29.22655487060547 31.76402282714844 29.22741889953613 C 31.7620906829834 29.22979354858398 31.76012802124023 29.23220252990723 31.75819396972656 29.23457527160645 C 31.75784301757812 29.23500823974609 31.75825500488281 29.23449897766113 31.75790405273438 29.23493194580078 C 31.75610733032227 29.23713493347168 31.75407409667969 29.23962783813477 31.75227737426758 29.2418327331543 C 31.75192451477051 29.24226379394531 31.75132369995117 29.24299812316895 31.75097274780273 29.24342918395996 C 31.74903678894043 29.24580192565918 31.7471752166748 29.24808311462402 31.74523735046387 29.25045394897461 C 31.7448844909668 29.25088500976562 31.74446487426758 29.25139999389648 31.74411201477051 29.2518310546875 C 31.74245071411133 29.25386428833008 31.74075126647949 29.25594329833984 31.73908996582031 29.25797653198242 C 31.73838424682617 29.25883865356445 31.73847579956055 29.25872611999512 31.73777008056641 29.25958824157715 C 31.73583221435547 29.26195907592773 31.7340202331543 29.26417350769043 31.73207855224609 29.26654243469238 C 31.73172760009766 29.2669734954834 31.73118591308594 29.26763153076172 31.7308349609375 29.26806259155273 C 31.72681427001953 29.27297019958496 31.72272872924805 29.2779541015625 31.71870422363281 29.28285598754883 C 31.71870422363281 29.28285598754883 31.71782684326172 29.28392791748047 31.71782684326172 29.28392791748047 C 31.71574401855469 29.28646278381348 31.71371841430664 29.2889289855957 31.71163558959961 29.29146194458008 C 31.71163558959961 29.29146194458008 31.71143531799316 29.29170608520508 31.71143531799316 29.29170608520508 C 31.70935249328613 29.29424095153809 31.70744323730469 29.29656410217285 31.70535850524902 29.29909706115723 C 31.70500373840332 29.29952621459961 31.7049503326416 29.29959297180176 31.7045955657959 29.30002212524414 C 31.70251083374023 29.30255699157715 31.70050239562988 29.30499649047852 31.69841766357422 29.30752754211426 C 31.69841766357422 29.30752754211426 31.6978759765625 29.30818557739258 31.6978759765625 29.30818557739258 C 31.6959285736084 29.310546875 31.69372940063477 29.31321716308594 31.69178009033203 29.31557846069336 C 31.69178009033203 29.31557846069336 31.69147491455078 29.31595039367676 31.69147491455078 29.31595039367676 C 31.68938636779785 29.3184814453125 31.68755340576172 29.32070159912109 31.68546485900879 29.3232307434082 C 31.68511199951172 29.32365989685059 31.68444442749023 29.32446670532227 31.68408966064453 29.32489776611328 C 31.68227958679199 29.32708930969238 31.68026351928711 29.32952690124512 31.67845153808594 29.33171844482422 C 31.67845153808594 29.33171844482422 31.67812538146973 29.33211517333984 31.67812538146973 29.33211517333984 C 31.67603492736816 29.33464241027832 31.67420959472656 29.33684730529785 31.672119140625 29.33937454223633 C 31.67140960693359 29.34023284912109 31.67157554626465 29.34003067016602 31.67086601257324 29.34088897705078 C 31.66891288757324 29.34324645996094 31.66680908203125 29.34578704833984 31.66485595703125 29.34814453125 C 31.66485595703125 29.34814453125 31.66465759277344 29.3483829498291 31.66465759277344 29.3483829498291 C 31.66270446777344 29.35074043273926 31.6608715057373 29.35295104980469 31.65891647338867 29.35530662536621 C 31.65856170654297 29.35573577880859 31.65792274475098 29.35650444030762 31.65756607055664 29.35693359375 C 31.65561294555664 29.35928916931152 31.65372085571289 29.3615665435791 31.65176391601562 29.36392211914062 C 31.65140914916992 29.36434936523438 31.65103530883789 29.36479949951172 31.65068054199219 29.36522674560547 C 31.64900207519531 29.36724472045898 31.6471996307373 29.36941528320312 31.64552116394043 29.37143325805664 C 31.64480972290039 29.37228775024414 31.64500427246094 29.37205505371094 31.64429092407227 29.37291145324707 C 31.642333984375 29.37526512145996 31.64043617248535 29.37754440307617 31.63847732543945 29.37989807128906 C 31.63812065124512 29.38032531738281 31.63755035400391 29.38101196289062 31.63719367980957 29.38143920898438 C 31.63551330566406 29.38345527648926 31.63381195068359 29.38549613952637 31.63213348388672 29.38751220703125 C 31.63177680969238 29.387939453125 31.63135528564453 29.3884449005127 31.6309986114502 29.38887405395508 C 31.62917709350586 29.39105606079102 31.6271858215332 29.3934440612793 31.62536430358887 29.39562606811523 C 31.6246509552002 29.39648246765137 31.6245059967041 29.39665412902832 31.62379264831543 29.39750862121582 C 31.62197113037109 29.39969062805176 31.61984443664551 29.40223693847656 31.61802101135254 29.4044189453125 C 31.6176643371582 29.40484619140625 31.61750411987305 29.40503692626953 31.61714553833008 29.40546417236328 C 31.61546325683594 29.40747833251953 31.61357688903809 29.40973472595215 31.61189270019531 29.41174697875977 C 31.61153411865234 29.41217422485352 31.61084747314453 29.41299629211426 31.6104907989502 29.41342353820801 C 31.6085262298584 29.415771484375 31.60662460327148 29.41804122924805 31.60466003417969 29.42038726806641 C 31.60430145263672 29.42081451416016 31.60397338867188 29.42120742797852 31.60361480712891 29.42163467407227 C 31.6019287109375 29.42364501953125 31.59993171691895 29.42602920532227 31.59824562072754 29.42803955078125 C 31.59824562072754 29.42803955078125 31.59730911254883 29.42915725708008 31.59730911254883 29.42915725708008 C 31.59534072875977 29.43150329589844 31.59332656860352 29.43390274047852 31.59135818481445 29.43624687194824 C 31.59099960327148 29.43667221069336 31.59051895141602 29.4372444152832 31.59016227722168 29.43767166137695 C 31.58833312988281 29.43984794616699 31.58634185791016 29.44221878051758 31.58451080322266 29.44439506530762 C 31.58415412902832 29.44482231140137 31.58431434631348 29.44462966918945 31.58395767211914 29.4450569152832 C 31.58198547363281 29.4473991394043 31.57997131347656 29.44979476928711 31.57800102233887 29.4521369934082 C 31.57728385925293 29.45298767089844 31.57737350463867 29.452880859375 31.57665634155273 29.45373153686523 C 31.57257270812988 29.45858383178711 31.56844329833984 29.46348571777344 31.56435394287109 29.46833038330078 C 31.56399536132812 29.46875762939453 31.56377983093262 29.4690113067627 31.56341934204102 29.46943664550781 C 31.56144714355469 29.47177696228027 31.55930519104004 29.47431182861328 31.55732917785645 29.47665023803711 C 31.55732917785645 29.47665023803711 31.55647659301758 29.4776611328125 31.55647659301758 29.4776611328125 C 31.55450057983398 29.47999954223633 31.55278778076172 29.48202705383301 31.55080986022949 29.4843635559082 C 31.55080986022949 29.4843635559082 31.54999923706055 29.48532485961914 31.54999923706055 29.48532485961914 C 31.54802131652832 29.48766136169434 31.54591369628906 29.49015235900879 31.54393577575684 29.49248886108398 C 31.54357528686523 29.4929141998291 31.54319000244141 29.49336814880371 31.54283142089844 29.4937915802002 C 31.53873443603516 29.49863052368164 31.53461456298828 29.50348854064941 31.5305118560791 29.50832366943359 C 31.5297908782959 29.5091724395752 31.530029296875 29.50889205932617 31.5293083190918 29.50974082946777 C 31.52718544006348 29.51224136352539 31.52535247802734 29.51440048217773 31.52322959899902 29.51689910888672 C 31.52286911010742 29.5173225402832 31.52312660217285 29.51701927185059 31.52276611328125 29.51744270324707 C 31.52078437805176 29.519775390625 31.51886367797852 29.52203369140625 31.51688194274902 29.52436447143555 C 31.51652145385742 29.52478790283203 31.51628112792969 29.52506828308105 31.51592063903809 29.52549362182617 C 31.51393699645996 29.52782440185547 31.51171493530273 29.53043365478516 31.50973129272461 29.53276443481445 C 31.50973129272461 29.53276443481445 31.50906372070312 29.53354644775391 31.50906372070312 29.53354644775391 C 31.50693702697754 29.53604316711426 31.50496482849121 29.53835678100586 31.50283622741699 29.54085159301758 C 31.50283622741699 29.54085159301758 31.50265312194824 29.54106712341309 31.50265312194824 29.54106712341309 C 31.50052642822266 29.5435619354248 31.49838638305664 29.54607009887695 31.49625587463379 29.54856491088867 C 31.49589538574219 29.54898834228516 31.49574279785156 29.54916381835938 31.49538040161133 29.54958724975586 C 31.49112319946289 29.55457496643066 31.48691558837891 29.55949783325195 31.48265075683594 29.56447982788086 C 31.48265075683594 29.56447982788086 31.48183822631836 29.5654296875 31.48183822631836 29.5654296875 C 31.47757339477539 29.57041168212891 31.47334861755371 29.57534027099609 31.46907806396484 29.58031845092773 C 31.46871566772461 29.58074188232422 31.4686393737793 29.58082962036133 31.46827697753906 29.58125305175781 C 31.46614265441895 29.583740234375 31.46405601501465 29.5861701965332 31.4619197845459 29.58865737915039 C 31.4619197845459 29.58865737915039 31.4614315032959 29.58922576904297 31.4614315032959 29.58922576904297 C 31.45943832397461 29.5915470123291 31.45731163024902 29.59402084350586 31.4553165435791 29.59634017944336 C 31.4553165435791 29.59634017944336 31.45473861694336 29.59701347351074 31.45473861694336 29.59701347351074 C 31.45245742797852 29.59966468811035 31.45051765441895 29.60191917419434 31.44823455810547 29.60457038879395 C 31.44787216186523 29.6049919128418 31.44819831848145 29.6046142578125 31.44783401489258 29.60503578186035 C 31.44341278076172 29.61017036437988 31.43901443481445 29.61527442932129 31.43458557128906 29.62040328979492 C 31.43458557128906 29.62040328979492 31.43418502807617 29.62086868286133 31.43418502807617 29.62086868286133 C 31.42975616455078 29.62599945068359 31.42544555664062 29.6309871673584 31.42101287841797 29.63611221313477 C 31.4206485748291 29.63653373718262 31.42075347900391 29.63641357421875 31.42038917541504 29.6368350982666 C 31.41824340820312 29.63931465148926 31.41611862182617 29.64176940917969 31.41397094726562 29.64424705505371 C 31.41397094726562 29.64424705505371 31.41337203979492 29.64493942260742 31.41337203979492 29.64493942260742 C 31.41136741638184 29.64725494384766 31.40918922424316 29.64976692199707 31.40718460083008 29.65207862854004 C 31.40718460083008 29.65207862854004 31.40679550170898 29.65252876281738 31.40679550170898 29.65252876281738 C 31.4046459197998 29.65500640869141 31.40244102478027 29.65754699707031 31.40029144287109 29.66002464294434 C 31.39992523193359 29.66044425964355 31.40005683898926 29.66029357910156 31.39969253540039 29.66071319580078 C 31.39539337158203 29.66566467285156 31.39096260070801 29.67076301574707 31.38665771484375 29.67570877075195 C 31.38665771484375 29.67570877075195 31.3858642578125 29.67662048339844 31.3858642578125 29.67662048339844 C 31.38155937194824 29.68156623840332 31.37713432312012 29.6866455078125 31.37282180786133 29.69158935546875 C 31.37245750427246 29.69200706481934 31.37262153625488 29.69182014465332 31.37225532531738 29.69223976135254 C 31.3701000213623 29.69470977783203 31.36775779724121 29.6973934173584 31.3656005859375 29.69986343383789 C 31.3656005859375 29.69986343383789 31.36555290222168 29.69991874694824 31.36555290222168 29.69991874694824 C 31.36339569091797 29.70238876342773 31.36116600036621 29.7049388885498 31.35900688171387 29.7074089050293 C 31.35900688171387 29.7074089050293 31.35850143432617 29.70798492431641 31.35850143432617 29.70798492431641 C 31.356201171875 29.71061706542969 31.35427474975586 29.71281814575195 31.35197067260742 29.71545028686523 C 31.35160446166992 29.71586799621582 31.35183143615723 29.71561050415039 31.35146331787109 29.71603012084961 C 31.34714508056641 29.72096252441406 31.34257698059082 29.72617340087891 31.3382511138916 29.73110389709473 C 31.3382511138916 29.73110389709473 31.33762359619141 29.73181915283203 31.33762359619141 29.73181915283203 C 31.33329963684082 29.73674774169922 31.32865142822266 29.74203491210938 31.32432174682617 29.7469596862793 C 31.32395362854004 29.74737739562988 31.32427978515625 29.74700736999512 31.32391357421875 29.7474250793457 C 31.32160186767578 29.75005149841309 31.3195629119873 29.75236892700195 31.31725120544434 29.7549934387207 C 31.31725120544434 29.7549934387207 31.31694412231445 29.75534248352051 31.31694412231445 29.75534248352051 C 31.31463241577148 29.75796699523926 31.31272125244141 29.76013565063477 31.31040954589844 29.76275825500488 C 31.31040954589844 29.76275825500488 31.31013298034668 29.76307106018066 31.31013298034668 29.76307106018066 C 31.30796432495117 29.76552963256836 31.3057746887207 29.76801300048828 31.3036060333252 29.77046966552734 C 31.30323791503906 29.77088737487793 31.30319786071777 29.77093124389648 31.30282974243164 29.77134895324707 C 31.2983455657959 29.77642822265625 31.29404449462891 29.78129577636719 31.28955268859863 29.7863712310791 C 31.28955268859863 29.7863712310791 31.28919982910156 29.78676986694336 31.28919982910156 29.78676986694336 C 31.28470993041992 29.79184532165527 31.28021812438965 29.79691505432129 31.27572250366211 29.8019847869873 C 31.27535247802734 29.80240058898926 31.27566146850586 29.80205345153809 31.27529144287109 29.80246925354004 C 31.27297210693359 29.80508613586426 31.27085304260254 29.80747413635254 31.26852989196777 29.81008911132812 C 31.26852989196777 29.81008911132812 31.26845169067383 29.81017684936523 31.26845169067383 29.81017684936523 C 31.2661304473877 29.81279182434082 31.26396942138672 29.81522369384766 31.26164627075195 29.81783676147461 C 31.26164627075195 29.81783676147461 31.26148414611816 29.81801986694336 31.26148414611816 29.81801986694336 C 31.2591609954834 29.82063293457031 31.25695610046387 29.82311058044434 31.25463104248047 29.82572174072266 C 31.25463104248047 29.82572174072266 31.25445175170898 29.82592582702637 31.25445175170898 29.82592582702637 C 31.24980163574219 29.83115005493164 31.24545097351074 29.83603096008301 31.24079513549805 29.84125137329102 C 31.24079513549805 29.84125137329102 31.24042320251465 29.84166717529297 31.24042320251465 29.84166717529297 C 31.23576736450195 29.84688568115234 31.23142623901367 29.85174560546875 31.22676277160645 29.85696029663086 C 31.22639083862305 29.85737419128418 31.22689819335938 29.85680770874023 31.22652816772461 29.85722351074219 C 31.22186470031738 29.86243629455566 31.21731185913086 29.86752319335938 31.21264266967773 29.87273025512695 C 31.21264266967773 29.87273025512695 31.21262550354004 29.87274932861328 31.21262550354004 29.87274932861328 C 31.21029090881348 29.8753547668457 31.20817184448242 29.87771606445312 31.20583534240723 29.88031959533691 C 31.20546340942383 29.88073348999023 31.20570182800293 29.88046836853027 31.20532989501953 29.88088226318359 C 31.20095062255859 29.88576126098633 31.19640350341797 29.89082336425781 31.19202041625977 29.89569664001465 C 31.19202041625977 29.89569664001465 31.1911735534668 29.89663505554199 31.1911735534668 29.89663505554199 C 31.18664360046387 29.90167236328125 31.18215560913086 29.90665435791016 31.1776180267334 29.91168594360352 C 31.17724609375 29.91209983825684 31.17789268493652 29.91138076782227 31.17752075195312 29.91179466247559 C 31.1494197845459 29.94295883178711 31.12128448486328 29.97393798828125 31.09296798706055 30.00490188598633 C 31.09296798706055 30.00490188598633 31.09289169311523 30.00498580932617 31.09289169311523 30.00498580932617 C 31.08817100524902 30.01014518737793 31.08349800109863 30.01524925231934 31.07877159118652 30.02040481567383 C 31.07839584350586 30.02081489562988 31.07913589477539 30.0200080871582 31.07875823974609 30.02042007446289 C 31.05040550231934 30.05134773254395 31.0219554901123 30.08216285705566 30.99338531494141 30.11289024353027 C 30.99338531494141 30.11289024353027 30.99337005615234 30.11290550231934 30.99337005615234 30.11290550231934 C 29.07921981811523 32.17159271240234 26.6827449798584 33.77472686767578 23.98266220092773 34.74346923828125 L 22.80070304870605 31.44908905029297 C 25.54717254638672 30.46369934082031 27.89948272705078 28.68032073974609 29.60334396362305 26.29174041748047 C 31.34256362915039 23.85356903076172 32.258544921875 20.97080993652344 32.25226211547852 17.9550895690918 C 32.2442512512207 14.11249923706055 30.74107360839844 10.49619102478027 28.01961326599121 7.772319793701172 C 25.29897308349609 5.049280166625977 21.68741226196289 3.545230865478516 17.85021209716797 3.537220001220703 L 17.81951332092285 3.537189483642578 L 17.81951332092285 0.03718948364257812 C 17.81951332092285 0.03718948364257812 17.81951332092285 0.03718948364257812 17.81951332092285 0.03718948364257812 Z" stroke="none" fill="#ff784f"/>
        </g>
        <path id="Icon_ionic-md-arrow-dropdown" data-name="Icon ionic-md-arrow-dropdown" d="M0,.234,6.755,7.217,13.513,0Z" transform="matrix(0.391, -0.921, 0.921, 0.391, 542.841, 519.782)" fill="#ff784f" stroke="#e76f51" stroke-linecap="square" stroke-linejoin="round" stroke-width="1"/>
        <path id="Checkbox" d="M7.954,13.833,1.009,7.113,2.495,5.206,7.954,10.49,18.444,0l1.614,1.614Z" transform="translate(534.537 523.987) rotate(-1)" fill="#ff784f" stroke="#ff784f" stroke-width="1"/>
        <g id="Polygon_18" data-name="Polygon 18" transform="translate(562.986 559.001) rotate(-45)" fill="#264653" stroke-linejoin="round">
          <path d="M 12.24023532867432 8.25 L 0.4997646510601044 8.25 L 6.369999885559082 0.4168760478496552 L 12.24023532867432 8.25 Z" stroke="none"/>
          <path d="M 6.369999885559082 0.8337488174438477 L 0.9995269775390625 8 L 11.7404727935791 8 L 6.369999885559082 0.8337488174438477 M 6.369999885559082 0 L 12.73999977111816 8.5 L 0 8.5 L 6.369999885559082 0 Z" stroke="none" fill="#264653"/>
        </g>
      </g>
    </g>
    <text id="MarketHubs" transform="translate(171 60)" fill="#264653" font-size="36" font-family="OpenSans-Bold, Open Sans" font-weight="700"><tspan x="0" y="0">Market</tspan><tspan y="0" fill="#e76f51">Hubs</tspan></text>
  </g>
</svg>
